<?xml version="1.0" encoding="UTF-8" standalone="no"?><svg xmlns="http://www.w3.org/2000/svg" xmlns:xlink="http://www.w3.org/1999/xlink" contentScriptType="application/ecmascript" contentStyleType="text/css" height="841px" preserveAspectRatio="none" style="width:1013px;height:841px;background:#FFFFFF;" version="1.1" viewBox="0 0 1013 841" width="1013px" zoomAndPan="magnify"><defs><filter height="300%" id="fqnwv2w4tfbqm" width="300%" x="-1" y="-1"><feGaussianBlur result="blurOut" stdDeviation="2.0"/><feColorMatrix in="blurOut" result="blurOut2" type="matrix" values="0 0 0 0 0 0 0 0 0 0 0 0 0 0 0 0 0 0 .4 0"/><feOffset dx="4.0" dy="4.0" in="blurOut2" result="blurOut3"/><feBlend in="SourceGraphic" in2="blurOut3" mode="normal"/></filter></defs><g><rect fill="#FFFFFF" filter="url(#fqnwv2w4tfbqm)" height="824.1563" style="stroke:#000000;stroke-width:1.0;" width="992.5" x="9" y="5"/><path d="M70,5 L70,15.6094 L60,25.6094 L9,25.6094 " fill="none" style="stroke:#000000;stroke-width:1.0;"/><text fill="#000000" font-family="sans-serif" font-size="14" font-weight="bold" lengthAdjust="spacing" textLength="51" x="12" y="20.5332">Get Me</text><rect fill="#D3D3D3" height="778.5313" style="stroke:#000000;stroke-width:1.0;" width="801" x="180.5" y="33.6094"/><text fill="#0000FF" font-family="sans-serif" font-size="16" font-weight="bold" lengthAdjust="spacing" textLength="273" x="442.5" y="50.2188">Online Job Fair Registration System</text><rect fill="#FFFF99" filter="url(#fqnwv2w4tfbqm)" height="585.9297" style="stroke:#000000;stroke-width:1.0;" width="10" x="61.5" y="197.2109"/><rect fill="#FFFF99" filter="url(#fqnwv2w4tfbqm)" height="51.7344" style="stroke:#000000;stroke-width:1.0;" width="10" x="225.5" y="197.2109"/><rect fill="#FFFF99" filter="url(#fqnwv2w4tfbqm)" height="32.8672" style="stroke:#000000;stroke-width:1.0;" width="10" x="352.5" y="248.9453"/><rect fill="#FFFF99" filter="url(#fqnwv2w4tfbqm)" height="303.125" style="stroke:#000000;stroke-width:1.0;" width="10" x="480" y="281.8125"/><rect fill="#FFFF99" filter="url(#fqnwv2w4tfbqm)" height="183.2031" style="stroke:#000000;stroke-width:1.0;" width="10" x="627" y="584.9375"/><rect fill="#FFFF99" filter="url(#fqnwv2w4tfbqm)" height="98.6016" style="stroke:#000000;stroke-width:1.0;" width="10" x="765" y="453.4688"/><rect fill="#FFFF99" filter="url(#fqnwv2w4tfbqm)" height="98.6016" style="stroke:#000000;stroke-width:1.0;" width="10" x="765" y="636.6719"/><rect fill="#FFFF99" filter="url(#fqnwv2w4tfbqm)" height="32.8672" style="stroke:#000000;stroke-width:1.0;" width="10" x="910" y="486.3359"/><rect fill="#FFFF99" filter="url(#fqnwv2w4tfbqm)" height="32.8672" style="stroke:#000000;stroke-width:1.0;" width="10" x="910" y="669.5391"/><rect fill="#F5F5DC" filter="url(#fqnwv2w4tfbqm)" height="433.4609" style="stroke:#000000;stroke-width:2.0;" width="972.5" x="15" y="342.6797"/><rect fill="#ADD8E6" height="382.2422" style="stroke:none;stroke-width:1.0;" width="972.5" x="15" y="393.8984"/><line style="stroke:#000000;stroke-width:1.0;stroke-dasharray:5.0,5.0;" x1="66" x2="66" y1="137.3438" y2="818.1406"/><line style="stroke:#000000;stroke-width:1.0;stroke-dasharray:5.0,5.0;" x1="230.5" x2="230.5" y1="137.3438" y2="818.1406"/><line style="stroke:#000000;stroke-width:1.0;stroke-dasharray:5.0,5.0;" x1="357.5" x2="357.5" y1="137.3438" y2="818.1406"/><line style="stroke:#000000;stroke-width:1.0;stroke-dasharray:5.0,5.0;" x1="484.5" x2="484.5" y1="137.3438" y2="818.1406"/><line style="stroke:#000000;stroke-width:1.0;stroke-dasharray:5.0,5.0;" x1="632" x2="632" y1="137.3438" y2="818.1406"/><line style="stroke:#000000;stroke-width:1.0;stroke-dasharray:5.0,5.0;" x1="769.5" x2="769.5" y1="137.3438" y2="818.1406"/><line style="stroke:#000000;stroke-width:1.0;stroke-dasharray:5.0,5.0;" x1="914.5" x2="914.5" y1="137.3438" y2="818.1406"/><ellipse cx="36" cy="110.6094" fill="#ADD1B2" rx="11" ry="11" style="stroke:none;stroke-width:1.0;"/><path d="M38.1875,112.375 L34.0469,112.375 L33.625,113.4063 L34.0469,113.4063 Q34.6563,113.4063 34.9219,113.6406 Q35.1875,113.875 35.1875,114.2656 Q35.1875,114.6406 34.9219,114.875 Q34.6563,115.1094 34.0469,115.1094 L31.75,115.1094 Q31.1406,115.1094 30.8828,114.875 Q30.625,114.6406 30.625,114.25 Q30.625,113.875 30.8984,113.6328 Q31.1719,113.3906 31.7969,113.4063 L34.4688,106.75 L33.3594,106.75 Q32.75,106.75 32.4844,106.5156 Q32.2188,106.2813 32.2188,105.8906 Q32.2188,105.5156 32.4844,105.2813 Q32.75,105.0469 33.3594,105.0469 L37.0313,105.0469 L40.4219,113.4063 Q41.0156,113.4063 41.2031,113.5469 Q41.5938,113.8125 41.5938,114.2656 Q41.5938,114.6406 41.3359,114.875 Q41.0781,115.1094 40.4688,115.1094 L38.1719,115.1094 Q37.5625,115.1094 37.2969,114.875 Q37.0313,114.6406 37.0313,114.25 Q37.0313,113.875 37.2969,113.6406 Q37.5625,113.4063 38.1719,113.4063 L38.5938,113.4063 L38.1875,112.375 Z M37.4688,110.6719 L36.1094,107.2969 L34.7344,110.6719 L37.4688,110.6719 Z " fill="#000000"/><text fill="#000000" font-family="sans-serif" font-size="14" font-style="italic" lengthAdjust="spacing" textLength="49" x="53" y="114.1426">«client»</text><text fill="#000000" font-family="sans-serif" font-size="16" font-weight="bold" lengthAdjust="spacing" textLength="36" x="59.5" y="133.8281">User</text><ellipse cx="66.5" cy="42.6094" fill="#FFFFFF" filter="url(#fqnwv2w4tfbqm)" rx="8" ry="8" style="stroke:#000000;stroke-width:2.0;"/><path d="M66.5,50.6094 L66.5,77.6094 M53.5,58.6094 L79.5,58.6094 M66.5,77.6094 L53.5,92.6094 M66.5,77.6094 L79.5,92.6094 " fill="none" filter="url(#fqnwv2w4tfbqm)" style="stroke:#000000;stroke-width:2.0;"/><rect fill="#FFA500" filter="url(#fqnwv2w4tfbqm)" height="51.7344" style="stroke:#000000;stroke-width:1.5;" width="88" x="184.5" y="80.6094"/><ellipse cx="202.5" cy="98.6094" fill="#FFFFFF" rx="11" ry="11" style="stroke:#000000;stroke-width:1.0;"/><path d="M200.125,101.9063 L200.125,95.25 L199.8594,95.25 Q199.25,95.25 198.9844,95.0156 Q198.7188,94.7813 198.7188,94.3906 Q198.7188,94.0156 198.9844,93.7813 Q199.25,93.5469 199.8594,93.5469 L204.125,93.5469 Q205.6563,93.5469 206.5859,94.3906 Q207.5156,95.2344 207.5156,96.4063 Q207.5156,96.9688 207.2969,97.4609 Q207.0781,97.9531 206.6406,98.3594 Q207.4531,98.8438 207.8516,99.4844 Q208.25,100.125 208.25,100.9375 Q208.25,101.5938 207.9688,102.1406 Q207.75,102.5781 207.4375,102.8281 Q207.0156,103.1719 206.3984,103.3906 Q205.7813,103.6094 204.8594,103.6094 L199.8594,103.6094 Q199.25,103.6094 198.9844,103.375 Q198.7188,103.1406 198.7188,102.75 Q198.7188,102.375 198.9844,102.1406 Q199.25,101.9063 199.8594,101.9063 L200.125,101.9063 Z M201.8281,97.7188 L203.7031,97.7188 Q204.7031,97.7188 205.3594,97.2188 Q205.8125,96.875 205.8125,96.375 Q205.8125,95.9219 205.3906,95.5859 Q204.9688,95.25 204.0469,95.25 L201.8281,95.25 L201.8281,97.7188 Z M201.8281,101.9063 L204.7656,101.9063 Q205.8125,101.9063 206.2344,101.5938 Q206.5469,101.375 206.5469,100.9375 Q206.5469,100.4219 205.9141,99.9219 Q205.2813,99.4219 204.0781,99.4219 L201.8281,99.4219 L201.8281,101.9063 Z " fill="#0C0C0C"/><text fill="#000000" font-family="sans-serif" font-size="14" font-style="italic" lengthAdjust="spacing" textLength="46" x="219.5" y="102.1426">«main»</text><text fill="#0C0C0C" font-family="sans-serif" font-size="16" lengthAdjust="spacing" textLength="43" x="221" y="121.8281">server</text><rect fill="#FFD700" filter="url(#fqnwv2w4tfbqm)" height="51.7344" style="stroke:#000000;stroke-width:1.5;" width="98" x="306.5" y="80.6094"/><ellipse cx="324.5" cy="98.6094" fill="#FFFFFF" rx="11" ry="11" style="stroke:#000000;stroke-width:1.0;"/><path d="M327.2656,94.4844 Q327.4219,94.2656 327.6094,94.1563 Q327.7969,94.0469 328.0156,94.0469 Q328.3906,94.0469 328.625,94.3047 Q328.8594,94.5625 328.8594,95.1719 L328.8594,96.625 Q328.8594,97.2344 328.625,97.5 Q328.3906,97.7656 328.0156,97.7656 Q327.6719,97.7656 327.4688,97.5625 Q327.2656,97.375 327.1563,96.8594 Q327.1094,96.5 326.9219,96.3125 Q326.5938,95.9375 325.9844,95.7188 Q325.375,95.5 324.75,95.5 Q323.9844,95.5 323.3516,95.8281 Q322.7188,96.1563 322.2266,96.9063 Q321.7344,97.6563 321.7344,98.6875 L321.7344,99.7813 Q321.7344,101.0156 322.625,101.8359 Q323.5156,102.6563 325.1094,102.6563 Q326.0469,102.6563 326.7031,102.4063 Q327.0938,102.25 327.5156,101.8125 Q327.7813,101.5469 327.9297,101.4688 Q328.0781,101.3906 328.2813,101.3906 Q328.6094,101.3906 328.8672,101.6484 Q329.125,101.9063 329.125,102.25 Q329.125,102.5938 328.7813,103 Q328.2813,103.5781 327.4844,103.9063 Q326.4063,104.3594 325.1094,104.3594 Q323.5938,104.3594 322.3906,103.7344 Q321.4063,103.2344 320.7188,102.1641 Q320.0313,101.0938 320.0313,99.8125 L320.0313,98.6563 Q320.0313,97.3281 320.6484,96.1797 Q321.2656,95.0313 322.3594,94.4141 Q323.4531,93.7969 324.6875,93.7969 Q325.4219,93.7969 326.0703,93.9609 Q326.7188,94.125 327.2656,94.4844 Z " fill="#0C0C0C"/><text fill="#000000" font-family="sans-serif" font-size="14" font-style="italic" lengthAdjust="spacing" textLength="56" x="341.5" y="102.1426">«routes»</text><text fill="#0C0C0C" font-family="sans-serif" font-size="16" lengthAdjust="spacing" textLength="29" x="355" y="121.8281">auth</text><rect fill="#FFC0CB" filter="url(#fqnwv2w4tfbqm)" height="51.7344" style="stroke:#000000;stroke-width:1.5;" width="129" x="418.5" y="80.6094"/><ellipse cx="436.5" cy="98.6094" fill="#FFFFFF" rx="11" ry="11" style="stroke:#000000;stroke-width:1.0;"/><path d="M435.3594,99.4063 L435.3594,101.9063 L439.6875,101.9063 L439.6875,100.9844 Q439.6875,100.375 439.9297,100.1094 Q440.1719,99.8438 440.5469,99.8438 Q440.9219,99.8438 441.1563,100.1094 Q441.3906,100.375 441.3906,100.9844 L441.3906,103.6094 L433.3906,103.6094 Q432.7656,103.6094 432.5078,103.375 Q432.25,103.1406 432.25,102.75 Q432.25,102.375 432.5156,102.1406 Q432.7813,101.9063 433.3906,101.9063 L433.6563,101.9063 L433.6563,95.25 L433.3906,95.25 Q432.7656,95.25 432.5078,95.0156 Q432.25,94.7813 432.25,94.3906 Q432.25,94.0156 432.5078,93.7813 Q432.7656,93.5469 433.3906,93.5469 L441.0156,93.5469 L441.0156,96.1406 Q441.0156,96.75 440.7891,97.0078 Q440.5625,97.2656 440.1719,97.2656 Q439.7969,97.2656 439.5625,97.0078 Q439.3281,96.75 439.3281,96.1406 L439.3281,95.25 L435.3594,95.25 L435.3594,97.7031 L436.8438,97.7031 Q436.8438,97.0469 436.9688,96.8594 Q437.2344,96.4531 437.7031,96.4531 Q438.0781,96.4531 438.3125,96.7109 Q438.5469,96.9688 438.5469,97.5781 L438.5469,99.5469 Q438.5469,100.0938 438.4219,100.2813 Q438.1563,100.6719 437.7031,100.6719 Q437.2344,100.6719 436.9688,100.2656 Q436.8438,100.0781 436.8438,99.4063 L435.3594,99.4063 Z " fill="#0C0C0C"/><text fill="#000000" font-family="sans-serif" font-size="14" font-style="italic" lengthAdjust="spacing" textLength="87" x="453.5" y="102.1426">«middleware»</text><text fill="#0C0C0C" font-family="sans-serif" font-size="16" lengthAdjust="spacing" textLength="29" x="482.5" y="121.8281">auth</text><rect fill="#90EE90" filter="url(#fqnwv2w4tfbqm)" height="51.7344" style="stroke:#000000;stroke-width:1.5;" width="124" x="568" y="80.6094"/><ellipse cx="586" cy="98.6094" fill="#FFFFFF" rx="11" ry="11" style="stroke:#000000;stroke-width:1.0;"/><path d="M583.5469,101.9063 L583.5469,95.25 Q583,95.2344 582.7422,95 Q582.4844,94.7656 582.4844,94.3906 Q582.4844,94.0156 582.75,93.7813 Q583.0156,93.5469 583.625,93.5469 L587.1875,93.5469 Q588.0156,93.5469 588.8125,93.8516 Q589.6094,94.1563 590.0938,94.6406 Q590.4531,95 590.8438,95.6172 Q591.2344,96.2344 591.4375,96.8516 Q591.6406,97.4688 591.6406,98.3594 L591.6406,99.1719 Q591.6406,100.25 591.2734,101.0859 Q590.9063,101.9219 590.3125,102.4453 Q589.7188,102.9688 589.2031,103.2188 Q588.375,103.6094 587.0469,103.6094 L583.625,103.6094 Q583.0156,103.6094 582.75,103.375 Q582.4844,103.1406 582.4844,102.75 Q582.4844,102.375 582.75,102.1406 Q583.0156,101.9063 583.5469,101.9063 Z M585.25,101.9063 L587.0625,101.9063 Q588.0625,101.9063 588.5781,101.6094 Q589.25,101.2344 589.5938,100.6484 Q589.9375,100.0625 589.9375,99.125 L589.9375,98.3125 Q589.9375,97.5156 589.625,96.9063 Q589.1406,95.9531 588.5391,95.6016 Q587.9375,95.25 587.0469,95.25 L585.25,95.25 L585.25,101.9063 Z " fill="#0C0C0C"/><text fill="#000000" font-family="sans-serif" font-size="14" font-style="italic" lengthAdjust="spacing" textLength="82" x="603" y="102.1426">«controllers»</text><text fill="#0C0C0C" font-family="sans-serif" font-size="16" font-weight="bold" lengthAdjust="spacing" textLength="34" x="627" y="121.8281">auth</text><rect fill="#ADD8E6" filter="url(#fqnwv2w4tfbqm)" height="51.7344" style="stroke:#000000;stroke-width:1.5;" width="103" x="716.5" y="80.6094"/><ellipse cx="734.5" cy="98.6094" fill="#FFFFFF" rx="11" ry="11" style="stroke:#000000;stroke-width:1.0;"/><path d="M736.9688,99.4375 L733.3281,99.4375 L733.3281,101.9063 L733.5938,101.9063 Q734.2031,101.9063 734.4688,102.1406 Q734.7344,102.375 734.7344,102.7656 Q734.7344,103.1406 734.4688,103.375 Q734.2031,103.6094 733.5938,103.6094 L731.5156,103.6094 Q730.8906,103.6094 730.6328,103.375 Q730.375,103.1406 730.375,102.75 Q730.375,102.2969 730.7813,102.0313 Q730.9844,101.9063 731.625,101.9063 L731.625,95.25 Q731.1719,95.2031 730.9453,94.9766 Q730.7188,94.75 730.7188,94.3906 Q730.7188,94.0156 730.9844,93.7813 Q731.25,93.5469 731.8594,93.5469 L733.5938,93.5469 Q734.2031,93.5469 734.4688,93.7813 Q734.7344,94.0156 734.7344,94.3906 Q734.7344,94.7813 734.4688,95.0156 Q734.2031,95.25 733.5938,95.25 L733.3281,95.25 L733.3281,97.7344 L736.9688,97.7344 L736.9688,95.25 L736.7031,95.25 Q736.0781,95.25 735.8203,95.0156 Q735.5625,94.7813 735.5625,94.3906 Q735.5625,94.0156 735.8203,93.7813 Q736.0781,93.5469 736.7031,93.5469 L738.4375,93.5469 Q739.0469,93.5469 739.3125,93.7813 Q739.5781,94.0156 739.5781,94.3906 Q739.5781,94.75 739.3438,94.9766 Q739.1094,95.2031 738.6719,95.25 L738.6719,101.9063 Q739.3281,101.9063 739.5156,102.0313 Q739.9219,102.2969 739.9219,102.7656 Q739.9219,103.1406 739.6563,103.375 Q739.3906,103.6094 738.7813,103.6094 L736.7031,103.6094 Q736.0781,103.6094 735.8203,103.375 Q735.5625,103.1406 735.5625,102.75 Q735.5625,102.375 735.8281,102.1406 Q736.0938,101.9063 736.7031,101.9063 L736.9688,101.9063 L736.9688,99.4375 Z " fill="#0C0C0C"/><text fill="#000000" font-family="sans-serif" font-size="14" font-style="italic" lengthAdjust="spacing" textLength="61" x="751.5" y="102.1426">«models»</text><text fill="#0C0C0C" font-family="sans-serif" font-size="16" font-weight="bold" lengthAdjust="spacing" textLength="42" x="761" y="121.8281">:User</text><rect fill="#D9D2E9" filter="url(#fqnwv2w4tfbqm)" height="51.7344" style="stroke:#000000;stroke-width:1.5;" width="121" x="852.5" y="80.6094"/><ellipse cx="870.5" cy="98.6094" fill="#FFFFFF" rx="11" ry="11" style="stroke:#000000;stroke-width:1.0;"/><path d="M871.4531,95.25 L871.4531,101.9063 L873.1719,101.9063 Q873.7813,101.9063 874.0469,102.1406 Q874.3125,102.375 874.3125,102.7656 Q874.3125,103.1406 874.0469,103.375 Q873.7813,103.6094 873.1719,103.6094 L868.0313,103.6094 Q867.4219,103.6094 867.1563,103.375 Q866.8906,103.1406 866.8906,102.75 Q866.8906,102.375 867.1563,102.1406 Q867.4219,101.9063 868.0313,101.9063 L869.75,101.9063 L869.75,95.25 L868.0313,95.25 Q867.4219,95.25 867.1563,95.0156 Q866.8906,94.7813 866.8906,94.3906 Q866.8906,94.0156 867.1563,93.7813 Q867.4219,93.5469 868.0313,93.5469 L873.1719,93.5469 Q873.7813,93.5469 874.0469,93.7813 Q874.3125,94.0156 874.3125,94.3906 Q874.3125,94.7813 874.0469,95.0156 Q873.7813,95.25 873.1719,95.25 L871.4531,95.25 Z " fill="#0C0C0C"/><text fill="#000000" font-family="sans-serif" font-size="14" font-style="italic" lengthAdjust="spacing" textLength="79" x="887.5" y="102.1426">«data base»</text><text fill="#0C0C0C" font-family="sans-serif" font-size="16" lengthAdjust="spacing" textLength="71" x="891.5" y="121.8281">MongoDB</text><rect fill="#FFFF99" filter="url(#fqnwv2w4tfbqm)" height="585.9297" style="stroke:#000000;stroke-width:1.0;" width="10" x="61.5" y="197.2109"/><rect fill="#FFFF99" filter="url(#fqnwv2w4tfbqm)" height="51.7344" style="stroke:#000000;stroke-width:1.0;" width="10" x="225.5" y="197.2109"/><rect fill="#FFFF99" filter="url(#fqnwv2w4tfbqm)" height="32.8672" style="stroke:#000000;stroke-width:1.0;" width="10" x="352.5" y="248.9453"/><rect fill="#FFFF99" filter="url(#fqnwv2w4tfbqm)" height="303.125" style="stroke:#000000;stroke-width:1.0;" width="10" x="480" y="281.8125"/><rect fill="#FFFF99" filter="url(#fqnwv2w4tfbqm)" height="183.2031" style="stroke:#000000;stroke-width:1.0;" width="10" x="627" y="584.9375"/><rect fill="#FFFF99" filter="url(#fqnwv2w4tfbqm)" height="98.6016" style="stroke:#000000;stroke-width:1.0;" width="10" x="765" y="453.4688"/><rect fill="#FFFF99" filter="url(#fqnwv2w4tfbqm)" height="98.6016" style="stroke:#000000;stroke-width:1.0;" width="10" x="765" y="636.6719"/><rect fill="#FFFF99" filter="url(#fqnwv2w4tfbqm)" height="32.8672" style="stroke:#000000;stroke-width:1.0;" width="10" x="910" y="486.3359"/><rect fill="#FFFF99" filter="url(#fqnwv2w4tfbqm)" height="32.8672" style="stroke:#000000;stroke-width:1.0;" width="10" x="910" y="669.5391"/><polygon fill="#A80036" points="213.5,193.2109,223.5,197.2109,213.5,201.2109,217.5,197.2109" style="stroke:#A80036;stroke-width:1.0;"/><line style="stroke:#A80036;stroke-width:1.5;" x1="71.5" x2="219.5" y1="197.2109" y2="197.2109"/><text fill="#000000" font-family="sans-serif" font-size="15" font-weight="bold" lengthAdjust="spacing" textLength="18" x="78.5" y="191.915">[1]</text><text fill="#000000" font-family="sans-serif" font-size="15" lengthAdjust="spacing" textLength="118" x="100.5" y="191.915">req.get('/auth/me')</text><polygon fill="#A80036" points="340.5,244.9453,350.5,248.9453,340.5,252.9453,344.5,248.9453" style="stroke:#A80036;stroke-width:1.0;"/><line style="stroke:#A80036;stroke-width:1.5;" x1="230.5" x2="346.5" y1="248.9453" y2="248.9453"/><text fill="#000000" font-family="sans-serif" font-size="15" font-weight="bold" lengthAdjust="spacing" textLength="18" x="237.5" y="234.2158">[2]</text><text fill="#000000" font-family="sans-serif" font-size="15" lengthAdjust="spacing" textLength="60" x="259.5" y="224.7822">app.use('</text><text fill="#000000" font-family="sans-serif" font-size="15" lengthAdjust="spacing" textLength="76" x="259.5" y="243.6494">/auth', auth)</text><polygon fill="#A80036" points="468,277.8125,478,281.8125,468,285.8125,472,281.8125" style="stroke:#A80036;stroke-width:1.0;"/><line style="stroke:#A80036;stroke-width:1.5;" x1="357.5" x2="474" y1="281.8125" y2="281.8125"/><text fill="#000000" font-family="sans-serif" font-size="15" font-weight="bold" lengthAdjust="spacing" textLength="18" x="364.5" y="276.5166">[3]</text><text fill="#000000" font-family="sans-serif" font-size="15" lengthAdjust="spacing" textLength="45" x="386.5" y="276.5166">protect</text><line style="stroke:#A80036;stroke-width:1.5;" x1="490" x2="532" y1="314.6797" y2="314.6797"/><line style="stroke:#A80036;stroke-width:1.5;" x1="532" x2="532" y1="314.6797" y2="327.6797"/><line style="stroke:#A80036;stroke-width:1.5;" x1="491" x2="532" y1="327.6797" y2="327.6797"/><polygon fill="#A80036" points="501,323.6797,491,327.6797,501,331.6797,497,327.6797" style="stroke:#A80036;stroke-width:1.0;"/><text fill="#000000" font-family="sans-serif" font-size="15" font-weight="bold" lengthAdjust="spacing" textLength="18" x="497" y="309.3838">[4]</text><text fill="#000000" font-family="sans-serif" font-size="15" lengthAdjust="spacing" textLength="101" x="519" y="309.3838">jwt.verify(token)</text><path d="M15,342.6797 L76,342.6797 L76,350.6797 L66,360.6797 L15,360.6797 L15,342.6797 " fill="#FFD700" style="stroke:#000000;stroke-width:1.0;"/><rect fill="none" height="433.4609" style="stroke:#000000;stroke-width:2.0;" width="972.5" x="15" y="342.6797"/><text fill="#000000" font-family="sans-serif" font-size="13" font-weight="bold" lengthAdjust="spacing" textLength="16" x="30" y="357.1748">alt</text><text fill="#000000" font-family="sans-serif" font-size="11" font-weight="bold" lengthAdjust="spacing" textLength="145" x="91" y="356.0986">[no token or invalid token]</text><polygon fill="#A80036" points="82.5,381.8984,72.5,385.8984,82.5,389.8984,78.5,385.8984" style="stroke:#A80036;stroke-width:1.0;"/><line style="stroke:#A80036;stroke-width:1.5;stroke-dasharray:2.0,2.0;" x1="76.5" x2="479" y1="385.8984" y2="385.8984"/><text fill="#000000" font-family="sans-serif" font-size="15" font-weight="bold" lengthAdjust="spacing" textLength="18" x="88.5" y="380.6025">[5]</text><text fill="#000000" font-family="sans-serif" font-size="15" lengthAdjust="spacing" textLength="83" x="110.5" y="380.6025">response fail</text><line style="stroke:#000000;stroke-width:1.0;stroke-dasharray:2.0,2.0;" x1="15" x2="987.5" y1="394.8984" y2="394.8984"/><text fill="#000000" font-family="sans-serif" font-size="11" font-weight="bold" lengthAdjust="spacing" textLength="69" x="20" y="406.3174">[Authorized]</text><polygon fill="#A80036" points="753,449.4688,763,453.4688,753,457.4688,757,453.4688" style="stroke:#A80036;stroke-width:1.0;"/><line style="stroke:#A80036;stroke-width:1.5;" x1="490" x2="759" y1="453.4688" y2="453.4688"/><text fill="#000000" font-family="sans-serif" font-size="15" font-weight="bold" lengthAdjust="spacing" textLength="18" x="497" y="438.7393">[6]</text><text fill="#000000" font-family="sans-serif" font-size="15" lengthAdjust="spacing" textLength="51" x="519" y="429.3057">findById</text><text fill="#000000" font-family="sans-serif" font-size="15" lengthAdjust="spacing" textLength="81" x="519" y="448.1729">(decoded.id)</text><polygon fill="#A80036" points="898,482.3359,908,486.3359,898,490.3359,902,486.3359" style="stroke:#A80036;stroke-width:1.0;"/><line style="stroke:#A80036;stroke-width:1.5;" x1="775" x2="904" y1="486.3359" y2="486.3359"/><text fill="#000000" font-family="sans-serif" font-size="15" font-weight="bold" lengthAdjust="spacing" textLength="18" x="782" y="481.04">[7]</text><text fill="#000000" font-family="sans-serif" font-size="15" lengthAdjust="spacing" textLength="86" x="804" y="481.04">UserSchema</text><polygon fill="#A80036" points="786,515.2031,776,519.2031,786,523.2031,782,519.2031" style="stroke:#A80036;stroke-width:1.0;"/><line style="stroke:#A80036;stroke-width:1.5;stroke-dasharray:2.0,2.0;" x1="780" x2="914" y1="519.2031" y2="519.2031"/><text fill="#000000" font-family="sans-serif" font-size="15" font-weight="bold" lengthAdjust="spacing" textLength="18" x="792" y="513.9072">[8]</text><text fill="#000000" font-family="sans-serif" font-size="15" lengthAdjust="spacing" textLength="29" x="814" y="513.9072">user</text><polygon fill="#A80036" points="501,548.0703,491,552.0703,501,556.0703,497,552.0703" style="stroke:#A80036;stroke-width:1.0;"/><line style="stroke:#A80036;stroke-width:1.5;stroke-dasharray:2.0,2.0;" x1="495" x2="769" y1="552.0703" y2="552.0703"/><text fill="#000000" font-family="sans-serif" font-size="15" font-weight="bold" lengthAdjust="spacing" textLength="18" x="507" y="546.7744">[9]</text><text fill="#000000" font-family="sans-serif" font-size="15" lengthAdjust="spacing" textLength="29" x="529" y="546.7744">user</text><polygon fill="#A80036" points="615,580.9375,625,584.9375,615,588.9375,619,584.9375" style="stroke:#A80036;stroke-width:1.0;"/><line style="stroke:#A80036;stroke-width:1.5;" x1="485" x2="621" y1="584.9375" y2="584.9375"/><text fill="#000000" font-family="sans-serif" font-size="15" font-weight="bold" lengthAdjust="spacing" textLength="26" x="492" y="579.6416">[10]</text><text fill="#000000" font-family="sans-serif" font-size="15" lengthAdjust="spacing" textLength="39" x="522" y="579.6416">getMe</text><polygon fill="#A80036" points="753,632.6719,763,636.6719,753,640.6719,757,636.6719" style="stroke:#A80036;stroke-width:1.0;"/><line style="stroke:#A80036;stroke-width:1.5;" x1="637" x2="759" y1="636.6719" y2="636.6719"/><text fill="#000000" font-family="sans-serif" font-size="15" font-weight="bold" lengthAdjust="spacing" textLength="26" x="644" y="621.9424">[11]</text><text fill="#000000" font-family="sans-serif" font-size="15" lengthAdjust="spacing" textLength="51" x="674" y="612.5088">findById</text><text fill="#000000" font-family="sans-serif" font-size="15" lengthAdjust="spacing" textLength="79" x="674" y="631.376">(req.user.id)</text><polygon fill="#A80036" points="898,665.5391,908,669.5391,898,673.5391,902,669.5391" style="stroke:#A80036;stroke-width:1.0;"/><line style="stroke:#A80036;stroke-width:1.5;" x1="775" x2="904" y1="669.5391" y2="669.5391"/><text fill="#000000" font-family="sans-serif" font-size="15" font-weight="bold" lengthAdjust="spacing" textLength="26" x="782" y="664.2432">[12]</text><text fill="#000000" font-family="sans-serif" font-size="15" lengthAdjust="spacing" textLength="86" x="812" y="664.2432">UserSchema</text><polygon fill="#A80036" points="786,698.4063,776,702.4063,786,706.4063,782,702.4063" style="stroke:#A80036;stroke-width:1.0;"/><line style="stroke:#A80036;stroke-width:1.5;stroke-dasharray:2.0,2.0;" x1="780" x2="914" y1="702.4063" y2="702.4063"/><text fill="#000000" font-family="sans-serif" font-size="15" font-weight="bold" lengthAdjust="spacing" textLength="26" x="792" y="697.1104">[13]</text><text fill="#000000" font-family="sans-serif" font-size="15" lengthAdjust="spacing" textLength="29" x="822" y="697.1104">user</text><polygon fill="#A80036" points="648,731.2734,638,735.2734,648,739.2734,644,735.2734" style="stroke:#A80036;stroke-width:1.0;"/><line style="stroke:#A80036;stroke-width:1.5;stroke-dasharray:2.0,2.0;" x1="642" x2="769" y1="735.2734" y2="735.2734"/><text fill="#000000" font-family="sans-serif" font-size="15" font-weight="bold" lengthAdjust="spacing" textLength="26" x="654" y="729.9775">[14]</text><text fill="#000000" font-family="sans-serif" font-size="15" lengthAdjust="spacing" textLength="29" x="684" y="729.9775">user</text><polygon fill="#A80036" points="82.5,764.1406,72.5,768.1406,82.5,772.1406,78.5,768.1406" style="stroke:#A80036;stroke-width:1.0;"/><line style="stroke:#A80036;stroke-width:1.5;stroke-dasharray:2.0,2.0;" x1="76.5" x2="631" y1="768.1406" y2="768.1406"/><text fill="#000000" font-family="sans-serif" font-size="15" font-weight="bold" lengthAdjust="spacing" textLength="26" x="88.5" y="762.8447">[15]</text><text fill="#000000" font-family="sans-serif" font-size="15" lengthAdjust="spacing" textLength="121" x="118.5" y="762.8447">response success</text><!--MD5=[40af6dd8cd6b542a21c89a3940369e67]
@startuml

hide footbox
skinparam sequenceArrowThickness 1.5
skinparam fontsize 50
autonumber 1 "<b>[###]"
skinparam component {
skinparam defaultFontSize 16
'FontSize 13
'BackgroundColor<<Apache>> Red
'BorderColor<<Apache>> #FF6655
'FontName Courier
'BorderColor black
'BackgroundColor gold
'ArrowFontName Impact
ArrowFontSize 15
'ArrowColor #FF6655
'ArrowFontColor #777777
}
'skinparam backgroundColor #EEEBDC
Mainframe <b>Get Me</b>

actor "<b>User" as user <<(A,#ADD1B2)client>>#White
Box Online Job Fair Registration System #lightgrey
participant "server" as server <<(B,#FFFFFF)main>>#Orange
participant "auth" as rauth <<(C,#FFFFFF)routes>>#Gold
'participant "bookings" as rbookings <<(C,#FFFFFF)routes>>#Gold
'participant "companies" as rcompanies <<(C,#FFFFFF)routes>>#Gold
participant "auth" as middleware_auth <<(E,#FFFFFF)middleware>>#Pink
participant "<b>auth" as controllers_auth <<(D,#FFFFFF)controllers>>#LightGreen
'participant "<b>bookings" as controllers_bookings <<(D,#FFFFFF)controllers>>#LightGreen
'participant "<b>companies" as controllers_companies <<(F,#FFFFFF)controllers>>#LightGreen
'participant "<b>:Company" as models_Company <<(F,#FFFFFF)models>>#LightBlue
'participant "<b>:Booking" as models_Booking <<(G,#FFFFFF)models>>#LightBlue
participant "<b>:User" as models_User <<(H,#FFFFFF)models>>#LightBlue
participant "MongoDB" as mongo <<(I,#FFFFFF)data base>>#d9d2e9
end box

|||
user->server: req.get('/auth/me')
Activate user
Activate server
'Route'
server->rauth: app.use('\n/auth', auth)
DeActivate server
Activate rauth
'Middleware auth
rauth->middleware_auth: protect
DeActivate rauth
Activate middleware_auth
middleware_auth->middleware_auth: jwt.verify(token)
Alt#Gold #Beige no token or invalid token
middleware_auth- ->user: response fail
Else #LightBlue Authorized
middleware_auth->models_User: findById\n(decoded.id)
Activate models_User
models_User->mongo: UserSchema
Activate mongo
mongo- ->models_User: user
DeActivate mongo
models_User- ->middleware_auth: user
DeActivate models_User
middleware_auth->controllers_auth: getMe
DeActivate middleware_auth
Activate controllers_auth
controllers_auth->models_User: findById\n(req.user.id)
Activate models_User
models_User->mongo: UserSchema
Activate mongo
mongo- ->models_User: user
DeActivate mongo
models_User- ->controllers_auth: user
DeActivate models_User
controllers_auth- ->user: response success
DeActivate controllers_auth

End Alt
DeActivate user
|||


skinparam sequence {
'Box ==============================
BoxBorderColor Black
BoxFontColor Blue
BoxFontSize 16
'LifeLine + Arrow ==============================
'ArrowColor DeepSkyBlue
LifeLineBorderColor Black
LifeLineBackgroundColor #FFFF99
'Participant ==============================
ParticipantBorderColor Black
'ParticipantBackgroundColor DodgerBlue
StereoTypeFontSize 14
ParticipantFontSize 16
ParticipantFontColor #0c0c0c
'ParticipantFontName Impact
'Actor ==============================
ActorBorderColor Black
ActorBackgroundColor White
ActorFontSize 16
ActorFontColor Black
'ActorFontName Aapex
' ===================================
}

@enduml

@startuml

hide footbox
skinparam sequenceArrowThickness 1.5
skinparam fontsize 50
autonumber 1 "<b>[###]"
skinparam component {
skinparam defaultFontSize 16
ArrowFontSize 15
}
Mainframe <b>Get Me</b>

actor "<b>User" as user <<(A,#ADD1B2)client>>#White
Box Online Job Fair Registration System #lightgrey
participant "server" as server <<(B,#FFFFFF)main>>#Orange
participant "auth" as rauth <<(C,#FFFFFF)routes>>#Gold
participant "auth" as middleware_auth <<(E,#FFFFFF)middleware>>#Pink
participant "<b>auth" as controllers_auth <<(D,#FFFFFF)controllers>>#LightGreen
participant "<b>:User" as models_User <<(H,#FFFFFF)models>>#LightBlue
participant "MongoDB" as mongo <<(I,#FFFFFF)data base>>#d9d2e9
end box

|||
user->server: req.get('/auth/me')
Activate user
Activate server
server->rauth: app.use('\n/auth', auth)
DeActivate server
Activate rauth
rauth->middleware_auth: protect
DeActivate rauth
Activate middleware_auth
middleware_auth->middleware_auth: jwt.verify(token)
Alt#Gold #Beige no token or invalid token
middleware_auth- ->user: response fail
Else #LightBlue Authorized
middleware_auth->models_User: findById\n(decoded.id)
Activate models_User
models_User->mongo: UserSchema
Activate mongo
mongo- ->models_User: user
DeActivate mongo
models_User- ->middleware_auth: user
DeActivate models_User
middleware_auth->controllers_auth: getMe
DeActivate middleware_auth
Activate controllers_auth
controllers_auth->models_User: findById\n(req.user.id)
Activate models_User
models_User->mongo: UserSchema
Activate mongo
mongo- ->models_User: user
DeActivate mongo
models_User- ->controllers_auth: user
DeActivate models_User
controllers_auth- ->user: response success
DeActivate controllers_auth

End Alt
DeActivate user
|||


skinparam sequence {
BoxBorderColor Black
BoxFontColor Blue
BoxFontSize 16
LifeLineBorderColor Black
LifeLineBackgroundColor #FFFF99
ParticipantBorderColor Black
StereoTypeFontSize 14
ParticipantFontSize 16
ParticipantFontColor #0c0c0c
ActorBorderColor Black
ActorBackgroundColor White
ActorFontSize 16
ActorFontColor Black
}

@enduml

PlantUML version 1.2022.0(Tue Jan 11 23:16:42 ICT 2022)
(GPL source distribution)
Java Runtime: Java(TM) SE Runtime Environment
JVM: Java HotSpot(TM) 64-Bit Server VM
Default Encoding: Cp1252
Language: en
Country: US
--></g></svg>