<?xml version="1.0" encoding="UTF-8" standalone="no"?><svg xmlns="http://www.w3.org/2000/svg" xmlns:xlink="http://www.w3.org/1999/xlink" contentScriptType="application/ecmascript" contentStyleType="text/css" height="1137px" preserveAspectRatio="none" style="width:983px;height:1137px;background:#FFFFFF;" version="1.1" viewBox="0 0 983 1137" width="983px" zoomAndPan="magnify"><defs><filter height="300%" id="f1l3njorh0646e" width="300%" x="-1" y="-1"><feGaussianBlur result="blurOut" stdDeviation="2.0"/><feColorMatrix in="blurOut" result="blurOut2" type="matrix" values="0 0 0 0 0 0 0 0 0 0 0 0 0 0 0 0 0 0 .4 0"/><feOffset dx="4.0" dy="4.0" in="blurOut2" result="blurOut3"/><feBlend in="SourceGraphic" in2="blurOut3" mode="normal"/></filter></defs><g><rect fill="#FFFFFF" filter="url(#f1l3njorh0646e)" height="1120.6016" style="stroke:#000000;stroke-width:1.0;" width="962" x="9" y="5"/><path d="M58,5 L58,15.6094 L48,25.6094 L9,25.6094 " fill="none" style="stroke:#000000;stroke-width:1.0;"/><text fill="#000000" font-family="sans-serif" font-size="14" font-weight="bold" lengthAdjust="spacing" textLength="39" x="12" y="20.5332">Login</text><rect fill="#D3D3D3" height="1074.9766" style="stroke:#000000;stroke-width:1.0;" width="733.5" x="217.5" y="33.6094"/><text fill="#0000FF" font-family="sans-serif" font-size="16" font-weight="bold" lengthAdjust="spacing" textLength="273" x="445.75" y="50.2188">Online Job Fair Registration System</text><rect fill="#FFFF99" filter="url(#f1l3njorh0646e)" height="882.375" style="stroke:#000000;stroke-width:1.0;" width="10" x="81.5" y="197.2109"/><rect fill="#FFFF99" filter="url(#f1l3njorh0646e)" height="51.7344" style="stroke:#000000;stroke-width:1.0;" width="10" x="262.5" y="197.2109"/><rect fill="#FFFF99" filter="url(#f1l3njorh0646e)" height="32.8672" style="stroke:#000000;stroke-width:1.0;" width="10" x="389.5" y="248.9453"/><rect fill="#FFFF99" filter="url(#f1l3njorh0646e)" height="768.7734" style="stroke:#000000;stroke-width:1.0;" width="10" x="514.5" y="281.8125"/><rect fill="#FFFF99" filter="url(#f1l3njorh0646e)" height="98.6016" style="stroke:#000000;stroke-width:1.0;" width="10" x="697.5" y="407.6016"/><rect fill="#FFFF99" filter="url(#f1l3njorh0646e)" height="116.4688" style="stroke:#000000;stroke-width:1.0;" width="10" x="697.5" y="631.9922"/><rect fill="#FFFF99" filter="url(#f1l3njorh0646e)" height="78.7344" style="stroke:#000000;stroke-width:1.0;" width="10" x="697.5" y="938.9844"/><rect fill="#FFFF99" filter="url(#f1l3njorh0646e)" height="32.8672" style="stroke:#000000;stroke-width:1.0;" width="10" x="879.5" y="440.4688"/><rect fill="#F5F5DC" filter="url(#f1l3njorh0646e)" height="775.7734" style="stroke:#000000;stroke-width:2.0;" width="942" x="15" y="296.8125"/><rect fill="#ADD8E6" height="724.5547" style="stroke:none;stroke-width:1.0;" width="942" x="15" y="348.0313"/><rect fill="#F5F5DC" filter="url(#f1l3njorh0646e)" height="544.3828" style="stroke:#000000;stroke-width:2.0;" width="859.5" x="25" y="521.2031"/><rect fill="#ADD8E6" height="493.1641" style="stroke:none;stroke-width:1.0;" width="859.5" x="25" y="572.4219"/><rect fill="#F5F5DC" filter="url(#f1l3njorh0646e)" height="295.125" style="stroke:#000000;stroke-width:2.0;" width="824.5" x="35" y="763.4609"/><rect fill="#ADD8E6" height="243.9063" style="stroke:none;stroke-width:1.0;" width="824.5" x="35" y="814.6797"/><line style="stroke:#000000;stroke-width:1.0;stroke-dasharray:5.0,5.0;" x1="86" x2="86" y1="137.3438" y2="1114.5859"/><line style="stroke:#000000;stroke-width:1.0;stroke-dasharray:5.0,5.0;" x1="267.5" x2="267.5" y1="137.3438" y2="1114.5859"/><line style="stroke:#000000;stroke-width:1.0;stroke-dasharray:5.0,5.0;" x1="394.5" x2="394.5" y1="137.3438" y2="1114.5859"/><line style="stroke:#000000;stroke-width:1.0;stroke-dasharray:5.0,5.0;" x1="519.5" x2="519.5" y1="137.3438" y2="1114.5859"/><line style="stroke:#000000;stroke-width:1.0;stroke-dasharray:5.0,5.0;" x1="702" x2="702" y1="137.3438" y2="1114.5859"/><line style="stroke:#000000;stroke-width:1.0;stroke-dasharray:5.0,5.0;" x1="884" x2="884" y1="137.3438" y2="1114.5859"/><ellipse cx="56" cy="110.6094" fill="#ADD1B2" rx="11" ry="11" style="stroke:none;stroke-width:1.0;"/><path d="M58.1875,112.375 L54.0469,112.375 L53.625,113.4063 L54.0469,113.4063 Q54.6563,113.4063 54.9219,113.6406 Q55.1875,113.875 55.1875,114.2656 Q55.1875,114.6406 54.9219,114.875 Q54.6563,115.1094 54.0469,115.1094 L51.75,115.1094 Q51.1406,115.1094 50.8828,114.875 Q50.625,114.6406 50.625,114.25 Q50.625,113.875 50.8984,113.6328 Q51.1719,113.3906 51.7969,113.4063 L54.4688,106.75 L53.3594,106.75 Q52.75,106.75 52.4844,106.5156 Q52.2188,106.2813 52.2188,105.8906 Q52.2188,105.5156 52.4844,105.2813 Q52.75,105.0469 53.3594,105.0469 L57.0313,105.0469 L60.4219,113.4063 Q61.0156,113.4063 61.2031,113.5469 Q61.5938,113.8125 61.5938,114.2656 Q61.5938,114.6406 61.3359,114.875 Q61.0781,115.1094 60.4688,115.1094 L58.1719,115.1094 Q57.5625,115.1094 57.2969,114.875 Q57.0313,114.6406 57.0313,114.25 Q57.0313,113.875 57.2969,113.6406 Q57.5625,113.4063 58.1719,113.4063 L58.5938,113.4063 L58.1875,112.375 Z M57.4688,110.6719 L56.1094,107.2969 L54.7344,110.6719 L57.4688,110.6719 Z " fill="#000000"/><text fill="#000000" font-family="sans-serif" font-size="14" font-style="italic" lengthAdjust="spacing" textLength="49" x="73" y="114.1426">«client»</text><text fill="#000000" font-family="sans-serif" font-size="16" font-weight="bold" lengthAdjust="spacing" textLength="36" x="79.5" y="133.8281">User</text><ellipse cx="86.5" cy="42.6094" fill="#FFFFFF" filter="url(#f1l3njorh0646e)" rx="8" ry="8" style="stroke:#000000;stroke-width:2.0;"/><path d="M86.5,50.6094 L86.5,77.6094 M73.5,58.6094 L99.5,58.6094 M86.5,77.6094 L73.5,92.6094 M86.5,77.6094 L99.5,92.6094 " fill="none" filter="url(#f1l3njorh0646e)" style="stroke:#000000;stroke-width:2.0;"/><rect fill="#FFA500" filter="url(#f1l3njorh0646e)" height="51.7344" style="stroke:#000000;stroke-width:1.5;" width="88" x="221.5" y="80.6094"/><ellipse cx="239.5" cy="98.6094" fill="#FFFFFF" rx="11" ry="11" style="stroke:#000000;stroke-width:1.0;"/><path d="M237.125,101.9063 L237.125,95.25 L236.8594,95.25 Q236.25,95.25 235.9844,95.0156 Q235.7188,94.7813 235.7188,94.3906 Q235.7188,94.0156 235.9844,93.7813 Q236.25,93.5469 236.8594,93.5469 L241.125,93.5469 Q242.6563,93.5469 243.5859,94.3906 Q244.5156,95.2344 244.5156,96.4063 Q244.5156,96.9688 244.2969,97.4609 Q244.0781,97.9531 243.6406,98.3594 Q244.4531,98.8438 244.8516,99.4844 Q245.25,100.125 245.25,100.9375 Q245.25,101.5938 244.9688,102.1406 Q244.75,102.5781 244.4375,102.8281 Q244.0156,103.1719 243.3984,103.3906 Q242.7813,103.6094 241.8594,103.6094 L236.8594,103.6094 Q236.25,103.6094 235.9844,103.375 Q235.7188,103.1406 235.7188,102.75 Q235.7188,102.375 235.9844,102.1406 Q236.25,101.9063 236.8594,101.9063 L237.125,101.9063 Z M238.8281,97.7188 L240.7031,97.7188 Q241.7031,97.7188 242.3594,97.2188 Q242.8125,96.875 242.8125,96.375 Q242.8125,95.9219 242.3906,95.5859 Q241.9688,95.25 241.0469,95.25 L238.8281,95.25 L238.8281,97.7188 Z M238.8281,101.9063 L241.7656,101.9063 Q242.8125,101.9063 243.2344,101.5938 Q243.5469,101.375 243.5469,100.9375 Q243.5469,100.4219 242.9141,99.9219 Q242.2813,99.4219 241.0781,99.4219 L238.8281,99.4219 L238.8281,101.9063 Z " fill="#0C0C0C"/><text fill="#000000" font-family="sans-serif" font-size="14" font-style="italic" lengthAdjust="spacing" textLength="46" x="256.5" y="102.1426">«main»</text><text fill="#0C0C0C" font-family="sans-serif" font-size="16" lengthAdjust="spacing" textLength="43" x="258" y="121.8281">server</text><rect fill="#FFD700" filter="url(#f1l3njorh0646e)" height="51.7344" style="stroke:#000000;stroke-width:1.5;" width="98" x="343.5" y="80.6094"/><ellipse cx="361.5" cy="98.6094" fill="#FFFFFF" rx="11" ry="11" style="stroke:#000000;stroke-width:1.0;"/><path d="M364.2656,94.4844 Q364.4219,94.2656 364.6094,94.1563 Q364.7969,94.0469 365.0156,94.0469 Q365.3906,94.0469 365.625,94.3047 Q365.8594,94.5625 365.8594,95.1719 L365.8594,96.625 Q365.8594,97.2344 365.625,97.5 Q365.3906,97.7656 365.0156,97.7656 Q364.6719,97.7656 364.4688,97.5625 Q364.2656,97.375 364.1563,96.8594 Q364.1094,96.5 363.9219,96.3125 Q363.5938,95.9375 362.9844,95.7188 Q362.375,95.5 361.75,95.5 Q360.9844,95.5 360.3516,95.8281 Q359.7188,96.1563 359.2266,96.9063 Q358.7344,97.6563 358.7344,98.6875 L358.7344,99.7813 Q358.7344,101.0156 359.625,101.8359 Q360.5156,102.6563 362.1094,102.6563 Q363.0469,102.6563 363.7031,102.4063 Q364.0938,102.25 364.5156,101.8125 Q364.7813,101.5469 364.9297,101.4688 Q365.0781,101.3906 365.2813,101.3906 Q365.6094,101.3906 365.8672,101.6484 Q366.125,101.9063 366.125,102.25 Q366.125,102.5938 365.7813,103 Q365.2813,103.5781 364.4844,103.9063 Q363.4063,104.3594 362.1094,104.3594 Q360.5938,104.3594 359.3906,103.7344 Q358.4063,103.2344 357.7188,102.1641 Q357.0313,101.0938 357.0313,99.8125 L357.0313,98.6563 Q357.0313,97.3281 357.6484,96.1797 Q358.2656,95.0313 359.3594,94.4141 Q360.4531,93.7969 361.6875,93.7969 Q362.4219,93.7969 363.0703,93.9609 Q363.7188,94.125 364.2656,94.4844 Z " fill="#0C0C0C"/><text fill="#000000" font-family="sans-serif" font-size="14" font-style="italic" lengthAdjust="spacing" textLength="56" x="378.5" y="102.1426">«routes»</text><text fill="#0C0C0C" font-family="sans-serif" font-size="16" lengthAdjust="spacing" textLength="29" x="392" y="121.8281">auth</text><rect fill="#90EE90" filter="url(#f1l3njorh0646e)" height="51.7344" style="stroke:#000000;stroke-width:1.5;" width="124" x="455.5" y="80.6094"/><ellipse cx="473.5" cy="98.6094" fill="#FFFFFF" rx="11" ry="11" style="stroke:#000000;stroke-width:1.0;"/><path d="M471.0469,101.9063 L471.0469,95.25 Q470.5,95.2344 470.2422,95 Q469.9844,94.7656 469.9844,94.3906 Q469.9844,94.0156 470.25,93.7813 Q470.5156,93.5469 471.125,93.5469 L474.6875,93.5469 Q475.5156,93.5469 476.3125,93.8516 Q477.1094,94.1563 477.5938,94.6406 Q477.9531,95 478.3438,95.6172 Q478.7344,96.2344 478.9375,96.8516 Q479.1406,97.4688 479.1406,98.3594 L479.1406,99.1719 Q479.1406,100.25 478.7734,101.0859 Q478.4063,101.9219 477.8125,102.4453 Q477.2188,102.9688 476.7031,103.2188 Q475.875,103.6094 474.5469,103.6094 L471.125,103.6094 Q470.5156,103.6094 470.25,103.375 Q469.9844,103.1406 469.9844,102.75 Q469.9844,102.375 470.25,102.1406 Q470.5156,101.9063 471.0469,101.9063 Z M472.75,101.9063 L474.5625,101.9063 Q475.5625,101.9063 476.0781,101.6094 Q476.75,101.2344 477.0938,100.6484 Q477.4375,100.0625 477.4375,99.125 L477.4375,98.3125 Q477.4375,97.5156 477.125,96.9063 Q476.6406,95.9531 476.0391,95.6016 Q475.4375,95.25 474.5469,95.25 L472.75,95.25 L472.75,101.9063 Z " fill="#0C0C0C"/><text fill="#000000" font-family="sans-serif" font-size="14" font-style="italic" lengthAdjust="spacing" textLength="82" x="490.5" y="102.1426">«controllers»</text><text fill="#0C0C0C" font-family="sans-serif" font-size="16" font-weight="bold" lengthAdjust="spacing" textLength="34" x="514.5" y="121.8281">auth</text><rect fill="#ADD8E6" filter="url(#f1l3njorh0646e)" height="51.7344" style="stroke:#000000;stroke-width:1.5;" width="103" x="649" y="80.6094"/><ellipse cx="667" cy="98.6094" fill="#FFFFFF" rx="11" ry="11" style="stroke:#000000;stroke-width:1.0;"/><path d="M669.4688,99.4375 L665.8281,99.4375 L665.8281,101.9063 L666.0938,101.9063 Q666.7031,101.9063 666.9688,102.1406 Q667.2344,102.375 667.2344,102.7656 Q667.2344,103.1406 666.9688,103.375 Q666.7031,103.6094 666.0938,103.6094 L664.0156,103.6094 Q663.3906,103.6094 663.1328,103.375 Q662.875,103.1406 662.875,102.75 Q662.875,102.2969 663.2813,102.0313 Q663.4844,101.9063 664.125,101.9063 L664.125,95.25 Q663.6719,95.2031 663.4453,94.9766 Q663.2188,94.75 663.2188,94.3906 Q663.2188,94.0156 663.4844,93.7813 Q663.75,93.5469 664.3594,93.5469 L666.0938,93.5469 Q666.7031,93.5469 666.9688,93.7813 Q667.2344,94.0156 667.2344,94.3906 Q667.2344,94.7813 666.9688,95.0156 Q666.7031,95.25 666.0938,95.25 L665.8281,95.25 L665.8281,97.7344 L669.4688,97.7344 L669.4688,95.25 L669.2031,95.25 Q668.5781,95.25 668.3203,95.0156 Q668.0625,94.7813 668.0625,94.3906 Q668.0625,94.0156 668.3203,93.7813 Q668.5781,93.5469 669.2031,93.5469 L670.9375,93.5469 Q671.5469,93.5469 671.8125,93.7813 Q672.0781,94.0156 672.0781,94.3906 Q672.0781,94.75 671.8438,94.9766 Q671.6094,95.2031 671.1719,95.25 L671.1719,101.9063 Q671.8281,101.9063 672.0156,102.0313 Q672.4219,102.2969 672.4219,102.7656 Q672.4219,103.1406 672.1563,103.375 Q671.8906,103.6094 671.2813,103.6094 L669.2031,103.6094 Q668.5781,103.6094 668.3203,103.375 Q668.0625,103.1406 668.0625,102.75 Q668.0625,102.375 668.3281,102.1406 Q668.5938,101.9063 669.2031,101.9063 L669.4688,101.9063 L669.4688,99.4375 Z " fill="#0C0C0C"/><text fill="#000000" font-family="sans-serif" font-size="14" font-style="italic" lengthAdjust="spacing" textLength="61" x="684" y="102.1426">«models»</text><text fill="#0C0C0C" font-family="sans-serif" font-size="16" font-weight="bold" lengthAdjust="spacing" textLength="42" x="693.5" y="121.8281">:User</text><rect fill="#D9D2E9" filter="url(#f1l3njorh0646e)" height="51.7344" style="stroke:#000000;stroke-width:1.5;" width="121" x="822" y="80.6094"/><ellipse cx="840" cy="98.6094" fill="#FFFFFF" rx="11" ry="11" style="stroke:#000000;stroke-width:1.0;"/><path d="M840.9531,95.25 L840.9531,101.9063 L842.6719,101.9063 Q843.2813,101.9063 843.5469,102.1406 Q843.8125,102.375 843.8125,102.7656 Q843.8125,103.1406 843.5469,103.375 Q843.2813,103.6094 842.6719,103.6094 L837.5313,103.6094 Q836.9219,103.6094 836.6563,103.375 Q836.3906,103.1406 836.3906,102.75 Q836.3906,102.375 836.6563,102.1406 Q836.9219,101.9063 837.5313,101.9063 L839.25,101.9063 L839.25,95.25 L837.5313,95.25 Q836.9219,95.25 836.6563,95.0156 Q836.3906,94.7813 836.3906,94.3906 Q836.3906,94.0156 836.6563,93.7813 Q836.9219,93.5469 837.5313,93.5469 L842.6719,93.5469 Q843.2813,93.5469 843.5469,93.7813 Q843.8125,94.0156 843.8125,94.3906 Q843.8125,94.7813 843.5469,95.0156 Q843.2813,95.25 842.6719,95.25 L840.9531,95.25 Z " fill="#0C0C0C"/><text fill="#000000" font-family="sans-serif" font-size="14" font-style="italic" lengthAdjust="spacing" textLength="79" x="857" y="102.1426">«data base»</text><text fill="#0C0C0C" font-family="sans-serif" font-size="16" lengthAdjust="spacing" textLength="71" x="861" y="121.8281">MongoDB</text><rect fill="#FFFF99" filter="url(#f1l3njorh0646e)" height="882.375" style="stroke:#000000;stroke-width:1.0;" width="10" x="81.5" y="197.2109"/><rect fill="#FFFF99" filter="url(#f1l3njorh0646e)" height="51.7344" style="stroke:#000000;stroke-width:1.0;" width="10" x="262.5" y="197.2109"/><rect fill="#FFFF99" filter="url(#f1l3njorh0646e)" height="32.8672" style="stroke:#000000;stroke-width:1.0;" width="10" x="389.5" y="248.9453"/><rect fill="#FFFF99" filter="url(#f1l3njorh0646e)" height="768.7734" style="stroke:#000000;stroke-width:1.0;" width="10" x="514.5" y="281.8125"/><rect fill="#FFFF99" filter="url(#f1l3njorh0646e)" height="98.6016" style="stroke:#000000;stroke-width:1.0;" width="10" x="697.5" y="407.6016"/><rect fill="#FFFF99" filter="url(#f1l3njorh0646e)" height="116.4688" style="stroke:#000000;stroke-width:1.0;" width="10" x="697.5" y="631.9922"/><rect fill="#FFFF99" filter="url(#f1l3njorh0646e)" height="78.7344" style="stroke:#000000;stroke-width:1.0;" width="10" x="697.5" y="938.9844"/><rect fill="#FFFF99" filter="url(#f1l3njorh0646e)" height="32.8672" style="stroke:#000000;stroke-width:1.0;" width="10" x="879.5" y="440.4688"/><polygon fill="#A80036" points="250.5,193.2109,260.5,197.2109,250.5,201.2109,254.5,197.2109" style="stroke:#A80036;stroke-width:1.0;"/><line style="stroke:#A80036;stroke-width:1.5;" x1="91.5" x2="256.5" y1="197.2109" y2="197.2109"/><text fill="#000000" font-family="sans-serif" font-size="15" font-weight="bold" lengthAdjust="spacing" textLength="18" x="98.5" y="191.915">[1]</text><text fill="#000000" font-family="sans-serif" font-size="15" lengthAdjust="spacing" textLength="135" x="120.5" y="191.915">req.post('/auth/login')</text><polygon fill="#A80036" points="377.5,244.9453,387.5,248.9453,377.5,252.9453,381.5,248.9453" style="stroke:#A80036;stroke-width:1.0;"/><line style="stroke:#A80036;stroke-width:1.5;" x1="267.5" x2="383.5" y1="248.9453" y2="248.9453"/><text fill="#000000" font-family="sans-serif" font-size="15" font-weight="bold" lengthAdjust="spacing" textLength="18" x="274.5" y="234.2158">[2]</text><text fill="#000000" font-family="sans-serif" font-size="15" lengthAdjust="spacing" textLength="60" x="296.5" y="224.7822">app.use('</text><text fill="#000000" font-family="sans-serif" font-size="15" lengthAdjust="spacing" textLength="76" x="296.5" y="243.6494">/auth', auth)</text><polygon fill="#A80036" points="502.5,277.8125,512.5,281.8125,502.5,285.8125,506.5,281.8125" style="stroke:#A80036;stroke-width:1.0;"/><line style="stroke:#A80036;stroke-width:1.5;" x1="394.5" x2="508.5" y1="281.8125" y2="281.8125"/><text fill="#000000" font-family="sans-serif" font-size="15" font-weight="bold" lengthAdjust="spacing" textLength="18" x="401.5" y="276.5166">[3]</text><text fill="#000000" font-family="sans-serif" font-size="15" lengthAdjust="spacing" textLength="30" x="423.5" y="276.5166">login</text><path d="M15,296.8125 L76,296.8125 L76,304.8125 L66,314.8125 L15,314.8125 L15,296.8125 " fill="#FFD700" style="stroke:#000000;stroke-width:1.0;"/><rect fill="none" height="775.7734" style="stroke:#000000;stroke-width:2.0;" width="942" x="15" y="296.8125"/><text fill="#000000" font-family="sans-serif" font-size="13" font-weight="bold" lengthAdjust="spacing" textLength="16" x="30" y="311.3076">alt</text><text fill="#000000" font-family="sans-serif" font-size="11" font-weight="bold" lengthAdjust="spacing" textLength="176" x="91" y="310.2314">[not specify email or password]</text><polygon fill="#A80036" points="102.5,336.0313,92.5,340.0313,102.5,344.0313,98.5,340.0313" style="stroke:#A80036;stroke-width:1.0;"/><line style="stroke:#A80036;stroke-width:1.5;stroke-dasharray:2.0,2.0;" x1="96.5" x2="513.5" y1="340.0313" y2="340.0313"/><text fill="#000000" font-family="sans-serif" font-size="15" font-weight="bold" lengthAdjust="spacing" textLength="18" x="108.5" y="334.7354">[4]</text><text fill="#000000" font-family="sans-serif" font-size="15" lengthAdjust="spacing" textLength="83" x="130.5" y="334.7354">response fail</text><line style="stroke:#000000;stroke-width:1.0;stroke-dasharray:2.0,2.0;" x1="15" x2="957" y1="349.0313" y2="349.0313"/><text fill="#000000" font-family="sans-serif" font-size="11" font-weight="bold" lengthAdjust="spacing" textLength="32" x="20" y="360.4502">[else]</text><polygon fill="#A80036" points="685.5,403.6016,695.5,407.6016,685.5,411.6016,689.5,407.6016" style="stroke:#A80036;stroke-width:1.0;"/><line style="stroke:#A80036;stroke-width:1.5;" x1="524.5" x2="691.5" y1="407.6016" y2="407.6016"/><text fill="#000000" font-family="sans-serif" font-size="15" font-weight="bold" lengthAdjust="spacing" textLength="18" x="531.5" y="392.8721">[5]</text><text fill="#000000" font-family="sans-serif" font-size="15" lengthAdjust="spacing" textLength="106" x="553.5" y="383.4385">findOne({email})</text><text fill="#000000" font-family="sans-serif" font-size="15" lengthAdjust="spacing" textLength="132" x="553.5" y="402.3057">.select('+password')</text><polygon fill="#A80036" points="867.5,436.4688,877.5,440.4688,867.5,444.4688,871.5,440.4688" style="stroke:#A80036;stroke-width:1.0;"/><line style="stroke:#A80036;stroke-width:1.5;" x1="707.5" x2="873.5" y1="440.4688" y2="440.4688"/><text fill="#000000" font-family="sans-serif" font-size="15" font-weight="bold" lengthAdjust="spacing" textLength="18" x="714.5" y="435.1729">[6]</text><text fill="#000000" font-family="sans-serif" font-size="15" lengthAdjust="spacing" textLength="86" x="736.5" y="435.1729">UserSchema</text><polygon fill="#A80036" points="718.5,469.3359,708.5,473.3359,718.5,477.3359,714.5,473.3359" style="stroke:#A80036;stroke-width:1.0;"/><line style="stroke:#A80036;stroke-width:1.5;stroke-dasharray:2.0,2.0;" x1="712.5" x2="883.5" y1="473.3359" y2="473.3359"/><text fill="#000000" font-family="sans-serif" font-size="15" font-weight="bold" lengthAdjust="spacing" textLength="18" x="724.5" y="468.04">[7]</text><text fill="#000000" font-family="sans-serif" font-size="15" lengthAdjust="spacing" textLength="29" x="746.5" y="468.04">user</text><polygon fill="#A80036" points="535.5,502.2031,525.5,506.2031,535.5,510.2031,531.5,506.2031" style="stroke:#A80036;stroke-width:1.0;"/><line style="stroke:#A80036;stroke-width:1.5;stroke-dasharray:2.0,2.0;" x1="529.5" x2="701.5" y1="506.2031" y2="506.2031"/><text fill="#000000" font-family="sans-serif" font-size="15" font-weight="bold" lengthAdjust="spacing" textLength="18" x="541.5" y="500.9072">[8]</text><text fill="#000000" font-family="sans-serif" font-size="15" lengthAdjust="spacing" textLength="29" x="563.5" y="500.9072">user</text><path d="M25,521.2031 L86,521.2031 L86,529.2031 L76,539.2031 L25,539.2031 L25,521.2031 " fill="#FFD700" style="stroke:#000000;stroke-width:1.0;"/><rect fill="none" height="544.3828" style="stroke:#000000;stroke-width:2.0;" width="859.5" x="25" y="521.2031"/><text fill="#000000" font-family="sans-serif" font-size="13" font-weight="bold" lengthAdjust="spacing" textLength="16" x="40" y="535.6982">alt</text><text fill="#000000" font-family="sans-serif" font-size="11" font-weight="bold" lengthAdjust="spacing" textLength="76" x="101" y="534.6221">[invalid email]</text><polygon fill="#A80036" points="102.5,560.4219,92.5,564.4219,102.5,568.4219,98.5,564.4219" style="stroke:#A80036;stroke-width:1.0;"/><line style="stroke:#A80036;stroke-width:1.5;stroke-dasharray:2.0,2.0;" x1="96.5" x2="513.5" y1="564.4219" y2="564.4219"/><text fill="#000000" font-family="sans-serif" font-size="15" font-weight="bold" lengthAdjust="spacing" textLength="18" x="108.5" y="559.126">[9]</text><text fill="#000000" font-family="sans-serif" font-size="15" lengthAdjust="spacing" textLength="83" x="130.5" y="559.126">response fail</text><line style="stroke:#000000;stroke-width:1.0;stroke-dasharray:2.0,2.0;" x1="25" x2="884.5" y1="573.4219" y2="573.4219"/><text fill="#000000" font-family="sans-serif" font-size="11" font-weight="bold" lengthAdjust="spacing" textLength="32" x="30" y="584.8408">[else]</text><polygon fill="#A80036" points="685.5,627.9922,695.5,631.9922,685.5,635.9922,689.5,631.9922" style="stroke:#A80036;stroke-width:1.0;"/><line style="stroke:#A80036;stroke-width:1.5;" x1="524.5" x2="691.5" y1="631.9922" y2="631.9922"/><text fill="#000000" font-family="sans-serif" font-size="15" font-weight="bold" lengthAdjust="spacing" textLength="26" x="531.5" y="617.2627">[10]</text><text fill="#000000" font-family="sans-serif" font-size="15" lengthAdjust="spacing" textLength="112" x="561.5" y="607.8291">matchPassword(</text><text fill="#000000" font-family="sans-serif" font-size="15" lengthAdjust="spacing" textLength="69" x="561.5" y="626.6963">password)</text><line style="stroke:#A80036;stroke-width:1.5;" x1="707.5" x2="749.5" y1="702.5938" y2="702.5938"/><line style="stroke:#A80036;stroke-width:1.5;" x1="749.5" x2="749.5" y1="702.5938" y2="715.5938"/><line style="stroke:#A80036;stroke-width:1.5;" x1="708.5" x2="749.5" y1="715.5938" y2="715.5938"/><polygon fill="#A80036" points="718.5,711.5938,708.5,715.5938,718.5,719.5938,714.5,715.5938" style="stroke:#A80036;stroke-width:1.0;"/><text fill="#000000" font-family="sans-serif" font-size="15" font-weight="bold" lengthAdjust="spacing" textLength="26" x="714.5" y="678.4307">[11]</text><text fill="#000000" font-family="sans-serif" font-size="15" lengthAdjust="spacing" textLength="102" x="744.5" y="659.5635">bcrypt.compare</text><text fill="#000000" font-family="sans-serif" font-size="15" lengthAdjust="spacing" textLength="124" x="744.5" y="678.4307">(enteredPassword,</text><text fill="#000000" font-family="sans-serif" font-size="15" lengthAdjust="spacing" textLength="102" x="744.5" y="697.2979">user.password)</text><polygon fill="#A80036" points="535.5,744.4609,525.5,748.4609,535.5,752.4609,531.5,748.4609" style="stroke:#A80036;stroke-width:1.0;"/><line style="stroke:#A80036;stroke-width:1.5;stroke-dasharray:2.0,2.0;" x1="529.5" x2="701.5" y1="748.4609" y2="748.4609"/><text fill="#000000" font-family="sans-serif" font-size="15" font-weight="bold" lengthAdjust="spacing" textLength="26" x="541.5" y="743.165">[12]</text><text fill="#000000" font-family="sans-serif" font-size="15" lengthAdjust="spacing" textLength="50" x="571.5" y="743.165">isMatch</text><path d="M35,763.4609 L96,763.4609 L96,771.4609 L86,781.4609 L35,781.4609 L35,763.4609 " fill="#FFD700" style="stroke:#000000;stroke-width:1.0;"/><rect fill="none" height="295.125" style="stroke:#000000;stroke-width:2.0;" width="824.5" x="35" y="763.4609"/><text fill="#000000" font-family="sans-serif" font-size="13" font-weight="bold" lengthAdjust="spacing" textLength="16" x="50" y="777.9561">alt</text><text fill="#000000" font-family="sans-serif" font-size="11" font-weight="bold" lengthAdjust="spacing" textLength="102" x="111" y="776.8799">[invalid password]</text><polygon fill="#A80036" points="102.5,802.6797,92.5,806.6797,102.5,810.6797,98.5,806.6797" style="stroke:#A80036;stroke-width:1.0;"/><line style="stroke:#A80036;stroke-width:1.5;stroke-dasharray:2.0,2.0;" x1="96.5" x2="513.5" y1="806.6797" y2="806.6797"/><text fill="#000000" font-family="sans-serif" font-size="15" font-weight="bold" lengthAdjust="spacing" textLength="26" x="108.5" y="801.3838">[13]</text><text fill="#000000" font-family="sans-serif" font-size="15" lengthAdjust="spacing" textLength="83" x="138.5" y="801.3838">response fail</text><line style="stroke:#000000;stroke-width:1.0;stroke-dasharray:2.0,2.0;" x1="35" x2="859.5" y1="815.6797" y2="815.6797"/><text fill="#000000" font-family="sans-serif" font-size="11" font-weight="bold" lengthAdjust="spacing" textLength="32" x="40" y="827.0986">[else]</text><line style="stroke:#A80036;stroke-width:1.5;" x1="524.5" x2="566.5" y1="874.25" y2="874.25"/><line style="stroke:#A80036;stroke-width:1.5;" x1="566.5" x2="566.5" y1="874.25" y2="887.25"/><line style="stroke:#A80036;stroke-width:1.5;" x1="525.5" x2="566.5" y1="887.25" y2="887.25"/><polygon fill="#A80036" points="535.5,883.25,525.5,887.25,535.5,891.25,531.5,887.25" style="stroke:#A80036;stroke-width:1.0;"/><text fill="#000000" font-family="sans-serif" font-size="15" font-weight="bold" lengthAdjust="spacing" textLength="26" x="531.5" y="859.5205">[14]</text><text fill="#000000" font-family="sans-serif" font-size="15" lengthAdjust="spacing" textLength="72" x="561.5" y="850.0869">sendToken</text><text fill="#000000" font-family="sans-serif" font-size="15" lengthAdjust="spacing" textLength="106" x="561.5" y="868.9541">Response(user)</text><polygon fill="#A80036" points="685.5,934.9844,695.5,938.9844,685.5,942.9844,689.5,938.9844" style="stroke:#A80036;stroke-width:1.0;"/><line style="stroke:#A80036;stroke-width:1.5;" x1="524.5" x2="691.5" y1="938.9844" y2="938.9844"/><text fill="#000000" font-family="sans-serif" font-size="15" font-weight="bold" lengthAdjust="spacing" textLength="26" x="531.5" y="924.2549">[15]</text><text fill="#000000" font-family="sans-serif" font-size="15" lengthAdjust="spacing" textLength="98" x="561.5" y="914.8213">user.getSigned</text><text fill="#000000" font-family="sans-serif" font-size="15" lengthAdjust="spacing" textLength="72" x="561.5" y="933.6885">JwtToken()</text><line style="stroke:#A80036;stroke-width:1.5;" x1="707.5" x2="749.5" y1="971.8516" y2="971.8516"/><line style="stroke:#A80036;stroke-width:1.5;" x1="749.5" x2="749.5" y1="971.8516" y2="984.8516"/><line style="stroke:#A80036;stroke-width:1.5;" x1="708.5" x2="749.5" y1="984.8516" y2="984.8516"/><polygon fill="#A80036" points="718.5,980.8516,708.5,984.8516,718.5,988.8516,714.5,984.8516" style="stroke:#A80036;stroke-width:1.0;"/><text fill="#000000" font-family="sans-serif" font-size="15" font-weight="bold" lengthAdjust="spacing" textLength="26" x="714.5" y="966.5557">[16]</text><text fill="#000000" font-family="sans-serif" font-size="15" lengthAdjust="spacing" textLength="103" x="744.5" y="966.5557">jwt.sign(user.id)</text><polygon fill="#A80036" points="535.5,1013.7188,525.5,1017.7188,535.5,1021.7188,531.5,1017.7188" style="stroke:#A80036;stroke-width:1.0;"/><line style="stroke:#A80036;stroke-width:1.5;stroke-dasharray:2.0,2.0;" x1="529.5" x2="701.5" y1="1017.7188" y2="1017.7188"/><text fill="#000000" font-family="sans-serif" font-size="15" font-weight="bold" lengthAdjust="spacing" textLength="26" x="541.5" y="1012.4229">[17]</text><text fill="#000000" font-family="sans-serif" font-size="15" lengthAdjust="spacing" textLength="35" x="571.5" y="1012.4229">token</text><polygon fill="#A80036" points="102.5,1046.5859,92.5,1050.5859,102.5,1054.5859,98.5,1050.5859" style="stroke:#A80036;stroke-width:1.0;"/><line style="stroke:#A80036;stroke-width:1.5;stroke-dasharray:2.0,2.0;" x1="96.5" x2="518.5" y1="1050.5859" y2="1050.5859"/><text fill="#000000" font-family="sans-serif" font-size="15" font-weight="bold" lengthAdjust="spacing" textLength="26" x="108.5" y="1045.29">[18]</text><text fill="#000000" font-family="sans-serif" font-size="15" lengthAdjust="spacing" textLength="210" x="138.5" y="1045.29">response success, cookie token</text><!--MD5=[f9c4ae3a50d412c09454d5d089264a69]
@startuml

hide footbox
skinparam sequenceArrowThickness 1.5
skinparam fontsize 50
autonumber 1 "<b>[###]"
skinparam component {
skinparam defaultFontSize 16
'FontSize 13
'BackgroundColor<<Apache>> Red
'BorderColor<<Apache>> #FF6655
'FontName Courier
'BorderColor black
'BackgroundColor gold
'ArrowFontName Impact
ArrowFontSize 15
'ArrowColor #FF6655
'ArrowFontColor #777777
}
'skinparam backgroundColor #EEEBDC
Mainframe <b>Login</b>

actor "<b>User" as user <<(A,#ADD1B2)client>>#White
Box Online Job Fair Registration System #lightgrey
participant "server" as server <<(B,#FFFFFF)main>>#Orange
participant "auth" as rauth <<(C,#FFFFFF)routes>>#Gold
'participant "bookings" as rbookings <<(C,#FFFFFF)routes>>#Gold
'participant "companies" as rcompanies <<(C,#FFFFFF)routes>>#Gold
participant "<b>auth" as controllers_auth <<(D,#FFFFFF)controllers>>#LightGreen
'participant "<b>bookings" as controllers_bookings <<(D,#FFFFFF)controllers>>#LightGreen
'participant "<b>companies" as controllers_companies <<(F,#FFFFFF)controllers>>#LightGreen
'participant "auth" as middleware_auth <<(E,#FFFFFF)middleware>>#Pink
'participant "<b>:Company" as models_Company <<(F,#FFFFFF)models>>#LightBlue
'participant "<b>:Booking" as models_Booking <<(G,#FFFFFF)models>>#LightBlue
participant "<b>:User" as models_User <<(H,#FFFFFF)models>>#LightBlue
participant "MongoDB" as mongo <<(I,#FFFFFF)data base>>#d9d2e9
end box

|||
user->server: req.post('/auth/login')
Activate user
Activate server
'Route'
server->rauth: app.use('\n/auth', auth)
DeActivate server
Activate rauth
'Controller bookings'
rauth->controllers_auth: login
DeActivate rauth
Activate controllers_auth
Alt#Gold #Beige not specify email or password
controllers_auth- ->user: response fail
Else #LightBlue else
controllers_auth->models_User: findOne({email})\n.select('+password')
Activate models_User
models_User->mongo: UserSchema
Activate mongo
mongo- ->models_User: user
DeActivate mongo
models_User- ->controllers_auth: user
DeActivate models_User
Alt#Gold #Beige invalid email
controllers_auth- ->user: response fail
Else #LightBlue else
controllers_auth->models_User: matchPassword(\npassword)
Activate models_User
models_User->models_User: bcrypt.compare\n(enteredPassword, \nuser.password)
models_User- ->controllers_auth: isMatch
DeActivate models_User
Alt#Gold #Beige invalid password
controllers_auth- ->user: response fail
Else #LightBlue else
controllers_auth->controllers_auth: sendToken\nResponse(user)
controllers_auth->models_User: user.getSigned\nJwtToken()
Activate models_User
models_User->models_User: jwt.sign(user.id)
models_User- ->controllers_auth: token
DeActivate models_User
controllers_auth- ->user: response success, cookie token
DeActivate controllers_auth
End Alt
End Alt
End Alt
DeActivate user
|||


skinparam sequence {
'Box ==============================
BoxBorderColor Black
BoxFontColor Blue
BoxFontSize 16
'LifeLine + Arrow ==============================
'ArrowColor DeepSkyBlue
LifeLineBorderColor Black
LifeLineBackgroundColor #FFFF99
'Participant ==============================
ParticipantBorderColor Black
'ParticipantBackgroundColor DodgerBlue
StereoTypeFontSize 14
ParticipantFontSize 16
ParticipantFontColor #0c0c0c
'ParticipantFontName Impact
'Actor ==============================
ActorBorderColor Black
ActorBackgroundColor White
ActorFontSize 16
ActorFontColor Black
'ActorFontName Aapex
' ===================================
}

@enduml

@startuml

hide footbox
skinparam sequenceArrowThickness 1.5
skinparam fontsize 50
autonumber 1 "<b>[###]"
skinparam component {
skinparam defaultFontSize 16
ArrowFontSize 15
}
Mainframe <b>Login</b>

actor "<b>User" as user <<(A,#ADD1B2)client>>#White
Box Online Job Fair Registration System #lightgrey
participant "server" as server <<(B,#FFFFFF)main>>#Orange
participant "auth" as rauth <<(C,#FFFFFF)routes>>#Gold
participant "<b>auth" as controllers_auth <<(D,#FFFFFF)controllers>>#LightGreen
participant "<b>:User" as models_User <<(H,#FFFFFF)models>>#LightBlue
participant "MongoDB" as mongo <<(I,#FFFFFF)data base>>#d9d2e9
end box

|||
user->server: req.post('/auth/login')
Activate user
Activate server
server->rauth: app.use('\n/auth', auth)
DeActivate server
Activate rauth
rauth->controllers_auth: login
DeActivate rauth
Activate controllers_auth
Alt#Gold #Beige not specify email or password
controllers_auth- ->user: response fail
Else #LightBlue else
controllers_auth->models_User: findOne({email})\n.select('+password')
Activate models_User
models_User->mongo: UserSchema
Activate mongo
mongo- ->models_User: user
DeActivate mongo
models_User- ->controllers_auth: user
DeActivate models_User
Alt#Gold #Beige invalid email
controllers_auth- ->user: response fail
Else #LightBlue else
controllers_auth->models_User: matchPassword(\npassword)
Activate models_User
models_User->models_User: bcrypt.compare\n(enteredPassword, \nuser.password)
models_User- ->controllers_auth: isMatch
DeActivate models_User
Alt#Gold #Beige invalid password
controllers_auth- ->user: response fail
Else #LightBlue else
controllers_auth->controllers_auth: sendToken\nResponse(user)
controllers_auth->models_User: user.getSigned\nJwtToken()
Activate models_User
models_User->models_User: jwt.sign(user.id)
models_User- ->controllers_auth: token
DeActivate models_User
controllers_auth- ->user: response success, cookie token
DeActivate controllers_auth
End Alt
End Alt
End Alt
DeActivate user
|||


skinparam sequence {
BoxBorderColor Black
BoxFontColor Blue
BoxFontSize 16
LifeLineBorderColor Black
LifeLineBackgroundColor #FFFF99
ParticipantBorderColor Black
StereoTypeFontSize 14
ParticipantFontSize 16
ParticipantFontColor #0c0c0c
ActorBorderColor Black
ActorBackgroundColor White
ActorFontSize 16
ActorFontColor Black
}

@enduml

PlantUML version 1.2022.0(Tue Jan 11 23:16:42 ICT 2022)
(GPL source distribution)
Java Runtime: Java(TM) SE Runtime Environment
JVM: Java HotSpot(TM) 64-Bit Server VM
Default Encoding: Cp1252
Language: en
Country: US
--></g></svg>