<?xml version="1.0" encoding="UTF-8" standalone="no"?><svg xmlns="http://www.w3.org/2000/svg" xmlns:xlink="http://www.w3.org/1999/xlink" contentScriptType="application/ecmascript" contentStyleType="text/css" height="399px" preserveAspectRatio="none" style="width:518px;height:399px;background:#FFFFFF;" version="1.1" viewBox="0 0 518 399" width="518px" zoomAndPan="magnify"><defs><filter height="300%" id="fjxpsi0ar16pc" width="300%" x="-1" y="-1"><feGaussianBlur result="blurOut" stdDeviation="2.0"/><feColorMatrix in="blurOut" result="blurOut2" type="matrix" values="0 0 0 0 0 0 0 0 0 0 0 0 0 0 0 0 0 0 .4 0"/><feOffset dx="4.0" dy="4.0" in="blurOut2" result="blurOut3"/><feBlend in="SourceGraphic" in2="blurOut3" mode="normal"/></filter></defs><g><rect fill="#FFFFFF" filter="url(#fjxpsi0ar16pc)" height="382.5625" style="stroke:#000000;stroke-width:1.0;" width="501.5" x="5" y="5"/><path d="M64,5 L64,15.6094 L54,25.6094 L5,25.6094 " fill="none" style="stroke:#000000;stroke-width:1.0;"/><text fill="#000000" font-family="sans-serif" font-size="14" font-weight="bold" lengthAdjust="spacing" textLength="49" x="8" y="20.5332">Logout</text><rect fill="#D3D3D3" height="336.9375" style="stroke:#000000;stroke-width:1.0;" width="370" x="130.5" y="33.6094"/><text fill="#0000FF" font-family="sans-serif" font-size="16" font-weight="bold" lengthAdjust="spacing" textLength="273" x="177" y="50.2188">Online Job Fair Registration System</text><rect fill="#FFFF99" filter="url(#fjxpsi0ar16pc)" height="117.4688" style="stroke:#000000;stroke-width:1.0;" width="10" x="46.5" y="216.0781"/><rect fill="#FFFF99" filter="url(#fjxpsi0ar16pc)" height="51.7344" style="stroke:#000000;stroke-width:1.0;" width="10" x="175.5" y="216.0781"/><rect fill="#FFFF99" filter="url(#fjxpsi0ar16pc)" height="32.8672" style="stroke:#000000;stroke-width:1.0;" width="10" x="302.5" y="267.8125"/><rect fill="#FFFF99" filter="url(#fjxpsi0ar16pc)" height="32.8672" style="stroke:#000000;stroke-width:1.0;" width="10" x="427.5" y="300.6797"/><line style="stroke:#000000;stroke-width:1.0;stroke-dasharray:5.0,5.0;" x1="51" x2="51" y1="137.3438" y2="376.5469"/><line style="stroke:#000000;stroke-width:1.0;stroke-dasharray:5.0,5.0;" x1="180.5" x2="180.5" y1="137.3438" y2="376.5469"/><line style="stroke:#000000;stroke-width:1.0;stroke-dasharray:5.0,5.0;" x1="307.5" x2="307.5" y1="137.3438" y2="376.5469"/><line style="stroke:#000000;stroke-width:1.0;stroke-dasharray:5.0,5.0;" x1="432.5" x2="432.5" y1="137.3438" y2="376.5469"/><ellipse cx="21" cy="110.6094" fill="#ADD1B2" rx="11" ry="11" style="stroke:none;stroke-width:1.0;"/><path d="M23.1875,112.375 L19.0469,112.375 L18.625,113.4063 L19.0469,113.4063 Q19.6563,113.4063 19.9219,113.6406 Q20.1875,113.875 20.1875,114.2656 Q20.1875,114.6406 19.9219,114.875 Q19.6563,115.1094 19.0469,115.1094 L16.75,115.1094 Q16.1406,115.1094 15.8828,114.875 Q15.625,114.6406 15.625,114.25 Q15.625,113.875 15.8984,113.6328 Q16.1719,113.3906 16.7969,113.4063 L19.4688,106.75 L18.3594,106.75 Q17.75,106.75 17.4844,106.5156 Q17.2188,106.2813 17.2188,105.8906 Q17.2188,105.5156 17.4844,105.2813 Q17.75,105.0469 18.3594,105.0469 L22.0313,105.0469 L25.4219,113.4063 Q26.0156,113.4063 26.2031,113.5469 Q26.5938,113.8125 26.5938,114.2656 Q26.5938,114.6406 26.3359,114.875 Q26.0781,115.1094 25.4688,115.1094 L23.1719,115.1094 Q22.5625,115.1094 22.2969,114.875 Q22.0313,114.6406 22.0313,114.25 Q22.0313,113.875 22.2969,113.6406 Q22.5625,113.4063 23.1719,113.4063 L23.5938,113.4063 L23.1875,112.375 Z M22.4688,110.6719 L21.1094,107.2969 L19.7344,110.6719 L22.4688,110.6719 Z " fill="#000000"/><text fill="#000000" font-family="sans-serif" font-size="14" font-style="italic" lengthAdjust="spacing" textLength="49" x="38" y="114.1426">«client»</text><text fill="#000000" font-family="sans-serif" font-size="16" font-weight="bold" lengthAdjust="spacing" textLength="36" x="44.5" y="133.8281">User</text><ellipse cx="51.5" cy="42.6094" fill="#FFFFFF" filter="url(#fjxpsi0ar16pc)" rx="8" ry="8" style="stroke:#000000;stroke-width:2.0;"/><path d="M51.5,50.6094 L51.5,77.6094 M38.5,58.6094 L64.5,58.6094 M51.5,77.6094 L38.5,92.6094 M51.5,77.6094 L64.5,92.6094 " fill="none" filter="url(#fjxpsi0ar16pc)" style="stroke:#000000;stroke-width:2.0;"/><rect fill="#FFA500" filter="url(#fjxpsi0ar16pc)" height="51.7344" style="stroke:#000000;stroke-width:1.5;" width="88" x="134.5" y="80.6094"/><ellipse cx="152.5" cy="98.6094" fill="#FFFFFF" rx="11" ry="11" style="stroke:#000000;stroke-width:1.0;"/><path d="M150.125,101.9063 L150.125,95.25 L149.8594,95.25 Q149.25,95.25 148.9844,95.0156 Q148.7188,94.7813 148.7188,94.3906 Q148.7188,94.0156 148.9844,93.7813 Q149.25,93.5469 149.8594,93.5469 L154.125,93.5469 Q155.6563,93.5469 156.5859,94.3906 Q157.5156,95.2344 157.5156,96.4063 Q157.5156,96.9688 157.2969,97.4609 Q157.0781,97.9531 156.6406,98.3594 Q157.4531,98.8438 157.8516,99.4844 Q158.25,100.125 158.25,100.9375 Q158.25,101.5938 157.9688,102.1406 Q157.75,102.5781 157.4375,102.8281 Q157.0156,103.1719 156.3984,103.3906 Q155.7813,103.6094 154.8594,103.6094 L149.8594,103.6094 Q149.25,103.6094 148.9844,103.375 Q148.7188,103.1406 148.7188,102.75 Q148.7188,102.375 148.9844,102.1406 Q149.25,101.9063 149.8594,101.9063 L150.125,101.9063 Z M151.8281,97.7188 L153.7031,97.7188 Q154.7031,97.7188 155.3594,97.2188 Q155.8125,96.875 155.8125,96.375 Q155.8125,95.9219 155.3906,95.5859 Q154.9688,95.25 154.0469,95.25 L151.8281,95.25 L151.8281,97.7188 Z M151.8281,101.9063 L154.7656,101.9063 Q155.8125,101.9063 156.2344,101.5938 Q156.5469,101.375 156.5469,100.9375 Q156.5469,100.4219 155.9141,99.9219 Q155.2813,99.4219 154.0781,99.4219 L151.8281,99.4219 L151.8281,101.9063 Z " fill="#0C0C0C"/><text fill="#000000" font-family="sans-serif" font-size="14" font-style="italic" lengthAdjust="spacing" textLength="46" x="169.5" y="102.1426">«main»</text><text fill="#0C0C0C" font-family="sans-serif" font-size="16" lengthAdjust="spacing" textLength="43" x="171" y="121.8281">server</text><rect fill="#FFD700" filter="url(#fjxpsi0ar16pc)" height="51.7344" style="stroke:#000000;stroke-width:1.5;" width="98" x="256.5" y="80.6094"/><ellipse cx="274.5" cy="98.6094" fill="#FFFFFF" rx="11" ry="11" style="stroke:#000000;stroke-width:1.0;"/><path d="M277.2656,94.4844 Q277.4219,94.2656 277.6094,94.1563 Q277.7969,94.0469 278.0156,94.0469 Q278.3906,94.0469 278.625,94.3047 Q278.8594,94.5625 278.8594,95.1719 L278.8594,96.625 Q278.8594,97.2344 278.625,97.5 Q278.3906,97.7656 278.0156,97.7656 Q277.6719,97.7656 277.4688,97.5625 Q277.2656,97.375 277.1563,96.8594 Q277.1094,96.5 276.9219,96.3125 Q276.5938,95.9375 275.9844,95.7188 Q275.375,95.5 274.75,95.5 Q273.9844,95.5 273.3516,95.8281 Q272.7188,96.1563 272.2266,96.9063 Q271.7344,97.6563 271.7344,98.6875 L271.7344,99.7813 Q271.7344,101.0156 272.625,101.8359 Q273.5156,102.6563 275.1094,102.6563 Q276.0469,102.6563 276.7031,102.4063 Q277.0938,102.25 277.5156,101.8125 Q277.7813,101.5469 277.9297,101.4688 Q278.0781,101.3906 278.2813,101.3906 Q278.6094,101.3906 278.8672,101.6484 Q279.125,101.9063 279.125,102.25 Q279.125,102.5938 278.7813,103 Q278.2813,103.5781 277.4844,103.9063 Q276.4063,104.3594 275.1094,104.3594 Q273.5938,104.3594 272.3906,103.7344 Q271.4063,103.2344 270.7188,102.1641 Q270.0313,101.0938 270.0313,99.8125 L270.0313,98.6563 Q270.0313,97.3281 270.6484,96.1797 Q271.2656,95.0313 272.3594,94.4141 Q273.4531,93.7969 274.6875,93.7969 Q275.4219,93.7969 276.0703,93.9609 Q276.7188,94.125 277.2656,94.4844 Z " fill="#0C0C0C"/><text fill="#000000" font-family="sans-serif" font-size="14" font-style="italic" lengthAdjust="spacing" textLength="56" x="291.5" y="102.1426">«routes»</text><text fill="#0C0C0C" font-family="sans-serif" font-size="16" lengthAdjust="spacing" textLength="29" x="305" y="121.8281">auth</text><rect fill="#90EE90" filter="url(#fjxpsi0ar16pc)" height="51.7344" style="stroke:#000000;stroke-width:1.5;" width="124" x="368.5" y="80.6094"/><ellipse cx="386.5" cy="98.6094" fill="#FFFFFF" rx="11" ry="11" style="stroke:#000000;stroke-width:1.0;"/><path d="M384.0469,101.9063 L384.0469,95.25 Q383.5,95.2344 383.2422,95 Q382.9844,94.7656 382.9844,94.3906 Q382.9844,94.0156 383.25,93.7813 Q383.5156,93.5469 384.125,93.5469 L387.6875,93.5469 Q388.5156,93.5469 389.3125,93.8516 Q390.1094,94.1563 390.5938,94.6406 Q390.9531,95 391.3438,95.6172 Q391.7344,96.2344 391.9375,96.8516 Q392.1406,97.4688 392.1406,98.3594 L392.1406,99.1719 Q392.1406,100.25 391.7734,101.0859 Q391.4063,101.9219 390.8125,102.4453 Q390.2188,102.9688 389.7031,103.2188 Q388.875,103.6094 387.5469,103.6094 L384.125,103.6094 Q383.5156,103.6094 383.25,103.375 Q382.9844,103.1406 382.9844,102.75 Q382.9844,102.375 383.25,102.1406 Q383.5156,101.9063 384.0469,101.9063 Z M385.75,101.9063 L387.5625,101.9063 Q388.5625,101.9063 389.0781,101.6094 Q389.75,101.2344 390.0938,100.6484 Q390.4375,100.0625 390.4375,99.125 L390.4375,98.3125 Q390.4375,97.5156 390.125,96.9063 Q389.6406,95.9531 389.0391,95.6016 Q388.4375,95.25 387.5469,95.25 L385.75,95.25 L385.75,101.9063 Z " fill="#0C0C0C"/><text fill="#000000" font-family="sans-serif" font-size="14" font-style="italic" lengthAdjust="spacing" textLength="82" x="403.5" y="102.1426">«controllers»</text><text fill="#0C0C0C" font-family="sans-serif" font-size="16" font-weight="bold" lengthAdjust="spacing" textLength="34" x="427.5" y="121.8281">auth</text><rect fill="#FFFF99" filter="url(#fjxpsi0ar16pc)" height="117.4688" style="stroke:#000000;stroke-width:1.0;" width="10" x="46.5" y="216.0781"/><rect fill="#FFFF99" filter="url(#fjxpsi0ar16pc)" height="51.7344" style="stroke:#000000;stroke-width:1.0;" width="10" x="175.5" y="216.0781"/><rect fill="#FFFF99" filter="url(#fjxpsi0ar16pc)" height="32.8672" style="stroke:#000000;stroke-width:1.0;" width="10" x="302.5" y="267.8125"/><rect fill="#FFFF99" filter="url(#fjxpsi0ar16pc)" height="32.8672" style="stroke:#000000;stroke-width:1.0;" width="10" x="427.5" y="300.6797"/><polygon fill="#A80036" points="163.5,212.0781,173.5,216.0781,163.5,220.0781,167.5,216.0781" style="stroke:#A80036;stroke-width:1.0;"/><line style="stroke:#A80036;stroke-width:1.5;" x1="56.5" x2="169.5" y1="216.0781" y2="216.0781"/><text fill="#000000" font-family="sans-serif" font-size="15" font-weight="bold" lengthAdjust="spacing" textLength="18" x="63.5" y="201.3486">[1]</text><text fill="#000000" font-family="sans-serif" font-size="15" lengthAdjust="spacing" textLength="53" x="85.5" y="191.915">req.get('</text><text fill="#000000" font-family="sans-serif" font-size="15" lengthAdjust="spacing" textLength="83" x="85.5" y="210.7822">/auth/logout')</text><polygon fill="#A80036" points="290.5,263.8125,300.5,267.8125,290.5,271.8125,294.5,267.8125" style="stroke:#A80036;stroke-width:1.0;"/><line style="stroke:#A80036;stroke-width:1.5;" x1="180.5" x2="296.5" y1="267.8125" y2="267.8125"/><text fill="#000000" font-family="sans-serif" font-size="15" font-weight="bold" lengthAdjust="spacing" textLength="18" x="187.5" y="253.083">[2]</text><text fill="#000000" font-family="sans-serif" font-size="15" lengthAdjust="spacing" textLength="60" x="209.5" y="243.6494">app.use('</text><text fill="#000000" font-family="sans-serif" font-size="15" lengthAdjust="spacing" textLength="76" x="209.5" y="262.5166">/auth', auth)</text><polygon fill="#A80036" points="415.5,296.6797,425.5,300.6797,415.5,304.6797,419.5,300.6797" style="stroke:#A80036;stroke-width:1.0;"/><line style="stroke:#A80036;stroke-width:1.5;" x1="307.5" x2="421.5" y1="300.6797" y2="300.6797"/><text fill="#000000" font-family="sans-serif" font-size="15" font-weight="bold" lengthAdjust="spacing" textLength="18" x="314.5" y="295.3838">[3]</text><text fill="#000000" font-family="sans-serif" font-size="15" lengthAdjust="spacing" textLength="39" x="336.5" y="295.3838">logout</text><polygon fill="#A80036" points="62.5,329.5469,52.5,333.5469,62.5,337.5469,58.5,333.5469" style="stroke:#A80036;stroke-width:1.0;"/><line style="stroke:#A80036;stroke-width:1.5;" x1="56.5" x2="431.5" y1="333.5469" y2="333.5469"/><text fill="#000000" font-family="sans-serif" font-size="15" font-weight="bold" lengthAdjust="spacing" textLength="18" x="68.5" y="328.251">[4]</text><text fill="#000000" font-family="sans-serif" font-size="15" lengthAdjust="spacing" textLength="273" x="90.5" y="328.251">response success and cookie token = null</text><!--MD5=[87dc94171d0674647bba4bc160164e91]
@startuml

hide footbox
skinparam sequenceArrowThickness 1.5
skinparam fontsize 50
autonumber 1 "<b>[###]"
skinparam component {
skinparam defaultFontSize 16
'FontSize 13
'BackgroundColor<<Apache>> Red
'BorderColor<<Apache>> #FF6655
'FontName Courier
'BorderColor black
'BackgroundColor gold
'ArrowFontName Impact
ArrowFontSize 15
'ArrowColor #FF6655
'ArrowFontColor #777777
}
'skinparam backgroundColor #EEEBDC
Mainframe <b>Logout</b>

actor "<b>User" as user <<(A,#ADD1B2)client>>#White
Box Online Job Fair Registration System #lightgrey
participant "server" as server <<(B,#FFFFFF)main>>#Orange
participant "auth" as rauth <<(C,#FFFFFF)routes>>#Gold
'participant "bookings" as rbookings <<(C,#FFFFFF)routes>>#Gold
'participant "companies" as rcompanies <<(C,#FFFFFF)routes>>#Gold
participant "<b>auth" as controllers_auth <<(D,#FFFFFF)controllers>>#LightGreen
'participant "<b>bookings" as controllers_bookings <<(D,#FFFFFF)controllers>>#LightGreen
'participant "<b>companies" as controllers_companies <<(F,#FFFFFF)controllers>>#LightGreen
'participant "auth" as middleware_auth <<(E,#FFFFFF)middleware>>#Pink
'participant "<b>:Company" as models_Company <<(F,#FFFFFF)models>>#LightBlue
'participant "<b>:Booking" as models_Booking <<(G,#FFFFFF)models>>#LightBlue
'participant "<b>:User" as models_User <<(H,#FFFFFF)models>>#LightBlue
'participant "MongoDB" as mongo <<(I,#FFFFFF)data base>>#d9d2e9
end box

|||
user->server: req.get('\n/auth/logout')
Activate user
Activate server
'Route'
server->rauth: app.use('\n/auth', auth)
DeActivate server
Activate rauth
'Controller bookings'
rauth->controllers_auth: logout
DeActivate rauth
Activate controllers_auth
' controllers_auth->controllers_auth: cookie(\n'token','null',\noptions)
controllers_auth->user: response success and cookie token = null
DeActivate controllers_auth
DeActivate user
|||


skinparam sequence {
'Box ==============================
BoxBorderColor Black
BoxFontColor Blue
BoxFontSize 16
'LifeLine + Arrow ==============================
'ArrowColor DeepSkyBlue
LifeLineBorderColor Black
LifeLineBackgroundColor #FFFF99
'Participant ==============================
ParticipantBorderColor Black
'ParticipantBackgroundColor DodgerBlue
StereoTypeFontSize 14
ParticipantFontSize 16
ParticipantFontColor #0c0c0c
'ParticipantFontName Impact
'Actor ==============================
ActorBorderColor Black
ActorBackgroundColor White
ActorFontSize 16
ActorFontColor Black
'ActorFontName Aapex
' ===================================
}

@enduml

@startuml

hide footbox
skinparam sequenceArrowThickness 1.5
skinparam fontsize 50
autonumber 1 "<b>[###]"
skinparam component {
skinparam defaultFontSize 16
ArrowFontSize 15
}
Mainframe <b>Logout</b>

actor "<b>User" as user <<(A,#ADD1B2)client>>#White
Box Online Job Fair Registration System #lightgrey
participant "server" as server <<(B,#FFFFFF)main>>#Orange
participant "auth" as rauth <<(C,#FFFFFF)routes>>#Gold
participant "<b>auth" as controllers_auth <<(D,#FFFFFF)controllers>>#LightGreen
end box

|||
user->server: req.get('\n/auth/logout')
Activate user
Activate server
server->rauth: app.use('\n/auth', auth)
DeActivate server
Activate rauth
rauth->controllers_auth: logout
DeActivate rauth
Activate controllers_auth
controllers_auth->user: response success and cookie token = null
DeActivate controllers_auth
DeActivate user
|||


skinparam sequence {
BoxBorderColor Black
BoxFontColor Blue
BoxFontSize 16
LifeLineBorderColor Black
LifeLineBackgroundColor #FFFF99
ParticipantBorderColor Black
StereoTypeFontSize 14
ParticipantFontSize 16
ParticipantFontColor #0c0c0c
ActorBorderColor Black
ActorBackgroundColor White
ActorFontSize 16
ActorFontColor Black
}

@enduml

PlantUML version 1.2022.0(Tue Jan 11 23:16:42 ICT 2022)
(GPL source distribution)
Java Runtime: Java(TM) SE Runtime Environment
JVM: Java HotSpot(TM) 64-Bit Server VM
Default Encoding: Cp1252
Language: en
Country: US
--></g></svg>