<?xml version="1.0" encoding="UTF-8" standalone="no"?><svg xmlns="http://www.w3.org/2000/svg" xmlns:xlink="http://www.w3.org/1999/xlink" contentScriptType="application/ecmascript" contentStyleType="text/css" height="986px" preserveAspectRatio="none" style="width:1226px;height:986px;background:#FFFFFF;" version="1.1" viewBox="0 0 1226 986" width="1226px" zoomAndPan="magnify"><defs><filter height="300%" id="fc022wb36twlv" width="300%" x="-1" y="-1"><feGaussianBlur result="blurOut" stdDeviation="2.0"/><feColorMatrix in="blurOut" result="blurOut2" type="matrix" values="0 0 0 0 0 0 0 0 0 0 0 0 0 0 0 0 0 0 .4 0"/><feOffset dx="4.0" dy="4.0" in="blurOut2" result="blurOut3"/><feBlend in="SourceGraphic" in2="blurOut3" mode="normal"/></filter></defs><g><rect fill="#FFFFFF" filter="url(#fc022wb36twlv)" height="969.9453" style="stroke:#000000;stroke-width:1.0;" width="1205.5" x="9" y="5"/><path d="M168,5 L168,15.6094 L158,25.6094 L9,25.6094 " fill="none" style="stroke:#000000;stroke-width:1.0;"/><text fill="#000000" font-family="sans-serif" font-size="14" font-weight="bold" lengthAdjust="spacing" textLength="149" x="12" y="20.5332">Create New Company</text><rect fill="#D3D3D3" height="924.3203" style="stroke:#000000;stroke-width:1.0;" width="1032" x="152.5" y="33.6094"/><text fill="#0000FF" font-family="sans-serif" font-size="16" font-weight="bold" lengthAdjust="spacing" textLength="273" x="530" y="50.2188">Online Job Fair Registration System</text><rect fill="#FFFF99" filter="url(#fc022wb36twlv)" height="712.8516" style="stroke:#000000;stroke-width:1.0;" width="10" x="71.5" y="216.0781"/><rect fill="#FFFF99" filter="url(#fc022wb36twlv)" height="70.6016" style="stroke:#000000;stroke-width:1.0;" width="10" x="197.5" y="216.0781"/><rect fill="#FFFF99" filter="url(#fc022wb36twlv)" height="32.8672" style="stroke:#000000;stroke-width:1.0;" width="10" x="333.5" y="286.6797"/><rect fill="#FFFF99" filter="url(#fc022wb36twlv)" height="423.0469" style="stroke:#000000;stroke-width:1.0;" width="10" x="471.5" y="319.5469"/><rect fill="#FFFF99" filter="url(#fc022wb36twlv)" height="98.6016" style="stroke:#000000;stroke-width:1.0;" width="10" x="641.5" y="491.2031"/><rect fill="#FFFF99" filter="url(#fc022wb36twlv)" height="164.3359" style="stroke:#000000;stroke-width:1.0;" width="10" x="770" y="742.5938"/><rect fill="#FFFF99" filter="url(#fc022wb36twlv)" height="98.6016" style="stroke:#000000;stroke-width:1.0;" width="10" x="936" y="775.4609"/><rect fill="#FFFF99" filter="url(#fc022wb36twlv)" height="32.8672" style="stroke:#000000;stroke-width:1.0;" width="10" x="1113" y="524.0703"/><rect fill="#FFFF99" filter="url(#fc022wb36twlv)" height="32.8672" style="stroke:#000000;stroke-width:1.0;" width="10" x="1113" y="808.3281"/><rect fill="#F5F5DC" filter="url(#fc022wb36twlv)" height="541.5156" style="stroke:#000000;stroke-width:2.0;" width="1185.5" x="15" y="380.4141"/><rect fill="#ADD8E6" height="490.2969" style="stroke:none;stroke-width:1.0;" width="1185.5" x="15" y="431.6328"/><rect fill="#F5F5DC" filter="url(#fc022wb36twlv)" height="264.2578" style="stroke:#000000;stroke-width:2.0;" width="1165.5" x="25" y="650.6719"/><rect fill="#ADD8E6" height="213.0391" style="stroke:none;stroke-width:1.0;" width="1165.5" x="25" y="701.8906"/><line style="stroke:#000000;stroke-width:1.0;stroke-dasharray:5.0,5.0;" x1="76" x2="76" y1="137.3438" y2="963.9297"/><line style="stroke:#000000;stroke-width:1.0;stroke-dasharray:5.0,5.0;" x1="202.5" x2="202.5" y1="137.3438" y2="963.9297"/><line style="stroke:#000000;stroke-width:1.0;stroke-dasharray:5.0,5.0;" x1="338" x2="338" y1="137.3438" y2="963.9297"/><line style="stroke:#000000;stroke-width:1.0;stroke-dasharray:5.0,5.0;" x1="476" x2="476" y1="137.3438" y2="963.9297"/><line style="stroke:#000000;stroke-width:1.0;stroke-dasharray:5.0,5.0;" x1="646" x2="646" y1="137.3438" y2="963.9297"/><line style="stroke:#000000;stroke-width:1.0;stroke-dasharray:5.0,5.0;" x1="775" x2="775" y1="137.3438" y2="963.9297"/><line style="stroke:#000000;stroke-width:1.0;stroke-dasharray:5.0,5.0;" x1="941" x2="941" y1="137.3438" y2="963.9297"/><line style="stroke:#000000;stroke-width:1.0;stroke-dasharray:5.0,5.0;" x1="1117.5" x2="1117.5" y1="137.3438" y2="963.9297"/><ellipse cx="46" cy="110.6094" fill="#ADD1B2" rx="11" ry="11" style="stroke:none;stroke-width:1.0;"/><path d="M48.1875,112.375 L44.0469,112.375 L43.625,113.4063 L44.0469,113.4063 Q44.6563,113.4063 44.9219,113.6406 Q45.1875,113.875 45.1875,114.2656 Q45.1875,114.6406 44.9219,114.875 Q44.6563,115.1094 44.0469,115.1094 L41.75,115.1094 Q41.1406,115.1094 40.8828,114.875 Q40.625,114.6406 40.625,114.25 Q40.625,113.875 40.8984,113.6328 Q41.1719,113.3906 41.7969,113.4063 L44.4688,106.75 L43.3594,106.75 Q42.75,106.75 42.4844,106.5156 Q42.2188,106.2813 42.2188,105.8906 Q42.2188,105.5156 42.4844,105.2813 Q42.75,105.0469 43.3594,105.0469 L47.0313,105.0469 L50.4219,113.4063 Q51.0156,113.4063 51.2031,113.5469 Q51.5938,113.8125 51.5938,114.2656 Q51.5938,114.6406 51.3359,114.875 Q51.0781,115.1094 50.4688,115.1094 L48.1719,115.1094 Q47.5625,115.1094 47.2969,114.875 Q47.0313,114.6406 47.0313,114.25 Q47.0313,113.875 47.2969,113.6406 Q47.5625,113.4063 48.1719,113.4063 L48.5938,113.4063 L48.1875,112.375 Z M47.4688,110.6719 L46.1094,107.2969 L44.7344,110.6719 L47.4688,110.6719 Z " fill="#000000"/><text fill="#000000" font-family="sans-serif" font-size="14" font-style="italic" lengthAdjust="spacing" textLength="49" x="63" y="114.1426">«client»</text><text fill="#000000" font-family="sans-serif" font-size="16" font-weight="bold" lengthAdjust="spacing" textLength="36" x="69.5" y="133.8281">User</text><ellipse cx="76.5" cy="42.6094" fill="#FFFFFF" filter="url(#fc022wb36twlv)" rx="8" ry="8" style="stroke:#000000;stroke-width:2.0;"/><path d="M76.5,50.6094 L76.5,77.6094 M63.5,58.6094 L89.5,58.6094 M76.5,77.6094 L63.5,92.6094 M76.5,77.6094 L89.5,92.6094 " fill="none" filter="url(#fc022wb36twlv)" style="stroke:#000000;stroke-width:2.0;"/><rect fill="#FFA500" filter="url(#fc022wb36twlv)" height="51.7344" style="stroke:#000000;stroke-width:1.5;" width="88" x="156.5" y="80.6094"/><ellipse cx="174.5" cy="98.6094" fill="#FFFFFF" rx="11" ry="11" style="stroke:#000000;stroke-width:1.0;"/><path d="M172.125,101.9063 L172.125,95.25 L171.8594,95.25 Q171.25,95.25 170.9844,95.0156 Q170.7188,94.7813 170.7188,94.3906 Q170.7188,94.0156 170.9844,93.7813 Q171.25,93.5469 171.8594,93.5469 L176.125,93.5469 Q177.6563,93.5469 178.5859,94.3906 Q179.5156,95.2344 179.5156,96.4063 Q179.5156,96.9688 179.2969,97.4609 Q179.0781,97.9531 178.6406,98.3594 Q179.4531,98.8438 179.8516,99.4844 Q180.25,100.125 180.25,100.9375 Q180.25,101.5938 179.9688,102.1406 Q179.75,102.5781 179.4375,102.8281 Q179.0156,103.1719 178.3984,103.3906 Q177.7813,103.6094 176.8594,103.6094 L171.8594,103.6094 Q171.25,103.6094 170.9844,103.375 Q170.7188,103.1406 170.7188,102.75 Q170.7188,102.375 170.9844,102.1406 Q171.25,101.9063 171.8594,101.9063 L172.125,101.9063 Z M173.8281,97.7188 L175.7031,97.7188 Q176.7031,97.7188 177.3594,97.2188 Q177.8125,96.875 177.8125,96.375 Q177.8125,95.9219 177.3906,95.5859 Q176.9688,95.25 176.0469,95.25 L173.8281,95.25 L173.8281,97.7188 Z M173.8281,101.9063 L176.7656,101.9063 Q177.8125,101.9063 178.2344,101.5938 Q178.5469,101.375 178.5469,100.9375 Q178.5469,100.4219 177.9141,99.9219 Q177.2813,99.4219 176.0781,99.4219 L173.8281,99.4219 L173.8281,101.9063 Z " fill="#0C0C0C"/><text fill="#000000" font-family="sans-serif" font-size="14" font-style="italic" lengthAdjust="spacing" textLength="46" x="191.5" y="102.1426">«main»</text><text fill="#0C0C0C" font-family="sans-serif" font-size="16" lengthAdjust="spacing" textLength="43" x="193" y="121.8281">server</text><rect fill="#FFD700" filter="url(#fc022wb36twlv)" height="51.7344" style="stroke:#000000;stroke-width:1.5;" width="119" x="277" y="80.6094"/><ellipse cx="295" cy="98.6094" fill="#FFFFFF" rx="11" ry="11" style="stroke:#000000;stroke-width:1.0;"/><path d="M297.7656,94.4844 Q297.9219,94.2656 298.1094,94.1563 Q298.2969,94.0469 298.5156,94.0469 Q298.8906,94.0469 299.125,94.3047 Q299.3594,94.5625 299.3594,95.1719 L299.3594,96.625 Q299.3594,97.2344 299.125,97.5 Q298.8906,97.7656 298.5156,97.7656 Q298.1719,97.7656 297.9688,97.5625 Q297.7656,97.375 297.6563,96.8594 Q297.6094,96.5 297.4219,96.3125 Q297.0938,95.9375 296.4844,95.7188 Q295.875,95.5 295.25,95.5 Q294.4844,95.5 293.8516,95.8281 Q293.2188,96.1563 292.7266,96.9063 Q292.2344,97.6563 292.2344,98.6875 L292.2344,99.7813 Q292.2344,101.0156 293.125,101.8359 Q294.0156,102.6563 295.6094,102.6563 Q296.5469,102.6563 297.2031,102.4063 Q297.5938,102.25 298.0156,101.8125 Q298.2813,101.5469 298.4297,101.4688 Q298.5781,101.3906 298.7813,101.3906 Q299.1094,101.3906 299.3672,101.6484 Q299.625,101.9063 299.625,102.25 Q299.625,102.5938 299.2813,103 Q298.7813,103.5781 297.9844,103.9063 Q296.9063,104.3594 295.6094,104.3594 Q294.0938,104.3594 292.8906,103.7344 Q291.9063,103.2344 291.2188,102.1641 Q290.5313,101.0938 290.5313,99.8125 L290.5313,98.6563 Q290.5313,97.3281 291.1484,96.1797 Q291.7656,95.0313 292.8594,94.4141 Q293.9531,93.7969 295.1875,93.7969 Q295.9219,93.7969 296.5703,93.9609 Q297.2188,94.125 297.7656,94.4844 Z " fill="#0C0C0C"/><text fill="#000000" font-family="sans-serif" font-size="14" font-style="italic" lengthAdjust="spacing" textLength="56" x="322.5" y="102.1426">«routes»</text><text fill="#0C0C0C" font-family="sans-serif" font-size="16" lengthAdjust="spacing" textLength="77" x="312" y="121.8281">companies</text><rect fill="#FFC0CB" filter="url(#fc022wb36twlv)" height="51.7344" style="stroke:#000000;stroke-width:1.5;" width="129" x="410" y="80.6094"/><ellipse cx="428" cy="98.6094" fill="#FFFFFF" rx="11" ry="11" style="stroke:#000000;stroke-width:1.0;"/><path d="M426.8594,99.4063 L426.8594,101.9063 L431.1875,101.9063 L431.1875,100.9844 Q431.1875,100.375 431.4297,100.1094 Q431.6719,99.8438 432.0469,99.8438 Q432.4219,99.8438 432.6563,100.1094 Q432.8906,100.375 432.8906,100.9844 L432.8906,103.6094 L424.8906,103.6094 Q424.2656,103.6094 424.0078,103.375 Q423.75,103.1406 423.75,102.75 Q423.75,102.375 424.0156,102.1406 Q424.2813,101.9063 424.8906,101.9063 L425.1563,101.9063 L425.1563,95.25 L424.8906,95.25 Q424.2656,95.25 424.0078,95.0156 Q423.75,94.7813 423.75,94.3906 Q423.75,94.0156 424.0078,93.7813 Q424.2656,93.5469 424.8906,93.5469 L432.5156,93.5469 L432.5156,96.1406 Q432.5156,96.75 432.2891,97.0078 Q432.0625,97.2656 431.6719,97.2656 Q431.2969,97.2656 431.0625,97.0078 Q430.8281,96.75 430.8281,96.1406 L430.8281,95.25 L426.8594,95.25 L426.8594,97.7031 L428.3438,97.7031 Q428.3438,97.0469 428.4688,96.8594 Q428.7344,96.4531 429.2031,96.4531 Q429.5781,96.4531 429.8125,96.7109 Q430.0469,96.9688 430.0469,97.5781 L430.0469,99.5469 Q430.0469,100.0938 429.9219,100.2813 Q429.6563,100.6719 429.2031,100.6719 Q428.7344,100.6719 428.4688,100.2656 Q428.3438,100.0781 428.3438,99.4063 L426.8594,99.4063 Z " fill="#0C0C0C"/><text fill="#000000" font-family="sans-serif" font-size="14" font-style="italic" lengthAdjust="spacing" textLength="87" x="445" y="102.1426">«middleware»</text><text fill="#0C0C0C" font-family="sans-serif" font-size="16" lengthAdjust="spacing" textLength="29" x="474" y="121.8281">auth</text><rect fill="#ADD8E6" filter="url(#fc022wb36twlv)" height="51.7344" style="stroke:#000000;stroke-width:1.5;" width="103" x="593" y="80.6094"/><ellipse cx="611" cy="98.6094" fill="#FFFFFF" rx="11" ry="11" style="stroke:#000000;stroke-width:1.0;"/><path d="M613.4688,99.4375 L609.8281,99.4375 L609.8281,101.9063 L610.0938,101.9063 Q610.7031,101.9063 610.9688,102.1406 Q611.2344,102.375 611.2344,102.7656 Q611.2344,103.1406 610.9688,103.375 Q610.7031,103.6094 610.0938,103.6094 L608.0156,103.6094 Q607.3906,103.6094 607.1328,103.375 Q606.875,103.1406 606.875,102.75 Q606.875,102.2969 607.2813,102.0313 Q607.4844,101.9063 608.125,101.9063 L608.125,95.25 Q607.6719,95.2031 607.4453,94.9766 Q607.2188,94.75 607.2188,94.3906 Q607.2188,94.0156 607.4844,93.7813 Q607.75,93.5469 608.3594,93.5469 L610.0938,93.5469 Q610.7031,93.5469 610.9688,93.7813 Q611.2344,94.0156 611.2344,94.3906 Q611.2344,94.7813 610.9688,95.0156 Q610.7031,95.25 610.0938,95.25 L609.8281,95.25 L609.8281,97.7344 L613.4688,97.7344 L613.4688,95.25 L613.2031,95.25 Q612.5781,95.25 612.3203,95.0156 Q612.0625,94.7813 612.0625,94.3906 Q612.0625,94.0156 612.3203,93.7813 Q612.5781,93.5469 613.2031,93.5469 L614.9375,93.5469 Q615.5469,93.5469 615.8125,93.7813 Q616.0781,94.0156 616.0781,94.3906 Q616.0781,94.75 615.8438,94.9766 Q615.6094,95.2031 615.1719,95.25 L615.1719,101.9063 Q615.8281,101.9063 616.0156,102.0313 Q616.4219,102.2969 616.4219,102.7656 Q616.4219,103.1406 616.1563,103.375 Q615.8906,103.6094 615.2813,103.6094 L613.2031,103.6094 Q612.5781,103.6094 612.3203,103.375 Q612.0625,103.1406 612.0625,102.75 Q612.0625,102.375 612.3281,102.1406 Q612.5938,101.9063 613.2031,101.9063 L613.4688,101.9063 L613.4688,99.4375 Z " fill="#0C0C0C"/><text fill="#000000" font-family="sans-serif" font-size="14" font-style="italic" lengthAdjust="spacing" textLength="61" x="628" y="102.1426">«models»</text><text fill="#0C0C0C" font-family="sans-serif" font-size="16" font-weight="bold" lengthAdjust="spacing" textLength="42" x="637.5" y="121.8281">:User</text><rect fill="#90EE90" filter="url(#fc022wb36twlv)" height="51.7344" style="stroke:#000000;stroke-width:1.5;" width="126" x="710" y="80.6094"/><ellipse cx="728" cy="98.6094" fill="#FFFFFF" rx="11" ry="11" style="stroke:#000000;stroke-width:1.0;"/><path d="M727.4375,99.4219 L727.4375,101.9063 L729.1719,101.9063 Q729.7969,101.9063 730.0547,102.1406 Q730.3125,102.375 730.3125,102.7656 Q730.3125,103.1406 730.0547,103.375 Q729.7969,103.6094 729.1719,103.6094 L725.4688,103.6094 Q724.8594,103.6094 724.5938,103.375 Q724.3281,103.1406 724.3281,102.75 Q724.3281,102.375 724.5938,102.1406 Q724.8594,101.9063 725.4688,101.9063 L725.7344,101.9063 L725.7344,95.25 L725.4688,95.25 Q724.8594,95.25 724.5938,95.0156 Q724.3281,94.7813 724.3281,94.3906 Q724.3281,94.0156 724.5938,93.7813 Q724.8594,93.5469 725.4688,93.5469 L733.4844,93.5469 L733.4844,96.1406 Q733.4844,96.75 733.2422,97.0156 Q733,97.2813 732.625,97.2813 Q732.25,97.2813 732.0156,97.0234 Q731.7813,96.7656 731.7813,96.1406 L731.7813,95.25 L727.4375,95.25 L727.4375,97.7188 L728.9219,97.7188 Q728.9219,97.0469 729.0469,96.8594 Q729.3125,96.4531 729.7813,96.4531 Q730.1563,96.4531 730.3906,96.7188 Q730.625,96.9844 730.625,97.5938 L730.625,99.5469 Q730.625,100.1719 730.3906,100.4297 Q730.1563,100.6875 729.7813,100.6875 Q729.3125,100.6875 729.0469,100.2813 Q728.9219,100.0938 728.9219,99.4219 L727.4375,99.4219 Z " fill="#0C0C0C"/><text fill="#000000" font-family="sans-serif" font-size="14" font-style="italic" lengthAdjust="spacing" textLength="82" x="746" y="102.1426">«controllers»</text><text fill="#0C0C0C" font-family="sans-serif" font-size="16" font-weight="bold" lengthAdjust="spacing" textLength="84" x="745" y="121.8281">companies</text><rect fill="#ADD8E6" filter="url(#fc022wb36twlv)" height="51.7344" style="stroke:#000000;stroke-width:1.5;" width="122" x="878" y="80.6094"/><ellipse cx="896" cy="98.6094" fill="#FFFFFF" rx="11" ry="11" style="stroke:#000000;stroke-width:1.0;"/><path d="M895.4375,99.4219 L895.4375,101.9063 L897.1719,101.9063 Q897.7969,101.9063 898.0547,102.1406 Q898.3125,102.375 898.3125,102.7656 Q898.3125,103.1406 898.0547,103.375 Q897.7969,103.6094 897.1719,103.6094 L893.4688,103.6094 Q892.8594,103.6094 892.5938,103.375 Q892.3281,103.1406 892.3281,102.75 Q892.3281,102.375 892.5938,102.1406 Q892.8594,101.9063 893.4688,101.9063 L893.7344,101.9063 L893.7344,95.25 L893.4688,95.25 Q892.8594,95.25 892.5938,95.0156 Q892.3281,94.7813 892.3281,94.3906 Q892.3281,94.0156 892.5938,93.7813 Q892.8594,93.5469 893.4688,93.5469 L901.4844,93.5469 L901.4844,96.1406 Q901.4844,96.75 901.2422,97.0156 Q901,97.2813 900.625,97.2813 Q900.25,97.2813 900.0156,97.0234 Q899.7813,96.7656 899.7813,96.1406 L899.7813,95.25 L895.4375,95.25 L895.4375,97.7188 L896.9219,97.7188 Q896.9219,97.0469 897.0469,96.8594 Q897.3125,96.4531 897.7813,96.4531 Q898.1563,96.4531 898.3906,96.7188 Q898.625,96.9844 898.625,97.5938 L898.625,99.5469 Q898.625,100.1719 898.3906,100.4297 Q898.1563,100.6875 897.7813,100.6875 Q897.3125,100.6875 897.0469,100.2813 Q896.9219,100.0938 896.9219,99.4219 L895.4375,99.4219 Z " fill="#0C0C0C"/><text fill="#000000" font-family="sans-serif" font-size="14" font-style="italic" lengthAdjust="spacing" textLength="61" x="922.5" y="102.1426">«models»</text><text fill="#0C0C0C" font-family="sans-serif" font-size="16" font-weight="bold" lengthAdjust="spacing" textLength="80" x="913" y="121.8281">:Company</text><rect fill="#D9D2E9" filter="url(#fc022wb36twlv)" height="51.7344" style="stroke:#000000;stroke-width:1.5;" width="121" x="1055.5" y="80.6094"/><ellipse cx="1073.5" cy="98.6094" fill="#FFFFFF" rx="11" ry="11" style="stroke:#000000;stroke-width:1.0;"/><path d="M1074.4531,95.25 L1074.4531,101.9063 L1076.1719,101.9063 Q1076.7813,101.9063 1077.0469,102.1406 Q1077.3125,102.375 1077.3125,102.7656 Q1077.3125,103.1406 1077.0469,103.375 Q1076.7813,103.6094 1076.1719,103.6094 L1071.0313,103.6094 Q1070.4219,103.6094 1070.1563,103.375 Q1069.8906,103.1406 1069.8906,102.75 Q1069.8906,102.375 1070.1563,102.1406 Q1070.4219,101.9063 1071.0313,101.9063 L1072.75,101.9063 L1072.75,95.25 L1071.0313,95.25 Q1070.4219,95.25 1070.1563,95.0156 Q1069.8906,94.7813 1069.8906,94.3906 Q1069.8906,94.0156 1070.1563,93.7813 Q1070.4219,93.5469 1071.0313,93.5469 L1076.1719,93.5469 Q1076.7813,93.5469 1077.0469,93.7813 Q1077.3125,94.0156 1077.3125,94.3906 Q1077.3125,94.7813 1077.0469,95.0156 Q1076.7813,95.25 1076.1719,95.25 L1074.4531,95.25 Z " fill="#0C0C0C"/><text fill="#000000" font-family="sans-serif" font-size="14" font-style="italic" lengthAdjust="spacing" textLength="79" x="1090.5" y="102.1426">«data base»</text><text fill="#0C0C0C" font-family="sans-serif" font-size="16" lengthAdjust="spacing" textLength="71" x="1094.5" y="121.8281">MongoDB</text><rect fill="#FFFF99" filter="url(#fc022wb36twlv)" height="712.8516" style="stroke:#000000;stroke-width:1.0;" width="10" x="71.5" y="216.0781"/><rect fill="#FFFF99" filter="url(#fc022wb36twlv)" height="70.6016" style="stroke:#000000;stroke-width:1.0;" width="10" x="197.5" y="216.0781"/><rect fill="#FFFF99" filter="url(#fc022wb36twlv)" height="32.8672" style="stroke:#000000;stroke-width:1.0;" width="10" x="333.5" y="286.6797"/><rect fill="#FFFF99" filter="url(#fc022wb36twlv)" height="423.0469" style="stroke:#000000;stroke-width:1.0;" width="10" x="471.5" y="319.5469"/><rect fill="#FFFF99" filter="url(#fc022wb36twlv)" height="98.6016" style="stroke:#000000;stroke-width:1.0;" width="10" x="641.5" y="491.2031"/><rect fill="#FFFF99" filter="url(#fc022wb36twlv)" height="164.3359" style="stroke:#000000;stroke-width:1.0;" width="10" x="770" y="742.5938"/><rect fill="#FFFF99" filter="url(#fc022wb36twlv)" height="98.6016" style="stroke:#000000;stroke-width:1.0;" width="10" x="936" y="775.4609"/><rect fill="#FFFF99" filter="url(#fc022wb36twlv)" height="32.8672" style="stroke:#000000;stroke-width:1.0;" width="10" x="1113" y="524.0703"/><rect fill="#FFFF99" filter="url(#fc022wb36twlv)" height="32.8672" style="stroke:#000000;stroke-width:1.0;" width="10" x="1113" y="808.3281"/><polygon fill="#A80036" points="185.5,212.0781,195.5,216.0781,185.5,220.0781,189.5,216.0781" style="stroke:#A80036;stroke-width:1.0;"/><line style="stroke:#A80036;stroke-width:1.5;" x1="81.5" x2="191.5" y1="216.0781" y2="216.0781"/><text fill="#000000" font-family="sans-serif" font-size="15" font-weight="bold" lengthAdjust="spacing" textLength="18" x="88.5" y="201.3486">[1]</text><text fill="#000000" font-family="sans-serif" font-size="15" lengthAdjust="spacing" textLength="65" x="110.5" y="191.915">req.post('/</text><text fill="#000000" font-family="sans-serif" font-size="15" lengthAdjust="spacing" textLength="80" x="110.5" y="210.7822">companies')</text><polygon fill="#A80036" points="321.5,282.6797,331.5,286.6797,321.5,290.6797,325.5,286.6797" style="stroke:#A80036;stroke-width:1.0;"/><line style="stroke:#A80036;stroke-width:1.5;" x1="202.5" x2="327.5" y1="286.6797" y2="286.6797"/><text fill="#000000" font-family="sans-serif" font-size="15" font-weight="bold" lengthAdjust="spacing" textLength="18" x="209.5" y="262.5166">[2]</text><text fill="#000000" font-family="sans-serif" font-size="15" lengthAdjust="spacing" textLength="60" x="231.5" y="243.6494">app.use('</text><text fill="#000000" font-family="sans-serif" font-size="15" lengthAdjust="spacing" textLength="79" x="231.5" y="262.5166">/companies'</text><text fill="#000000" font-family="sans-serif" font-size="15" lengthAdjust="spacing" textLength="85" x="231.5" y="281.3838">, companies)</text><polygon fill="#A80036" points="459.5,315.5469,469.5,319.5469,459.5,323.5469,463.5,319.5469" style="stroke:#A80036;stroke-width:1.0;"/><line style="stroke:#A80036;stroke-width:1.5;" x1="338.5" x2="465.5" y1="319.5469" y2="319.5469"/><text fill="#000000" font-family="sans-serif" font-size="15" font-weight="bold" lengthAdjust="spacing" textLength="18" x="345.5" y="314.251">[3]</text><text fill="#000000" font-family="sans-serif" font-size="15" lengthAdjust="spacing" textLength="45" x="367.5" y="314.251">protect</text><line style="stroke:#A80036;stroke-width:1.5;" x1="481.5" x2="523.5" y1="352.4141" y2="352.4141"/><line style="stroke:#A80036;stroke-width:1.5;" x1="523.5" x2="523.5" y1="352.4141" y2="365.4141"/><line style="stroke:#A80036;stroke-width:1.5;" x1="482.5" x2="523.5" y1="365.4141" y2="365.4141"/><polygon fill="#A80036" points="492.5,361.4141,482.5,365.4141,492.5,369.4141,488.5,365.4141" style="stroke:#A80036;stroke-width:1.0;"/><text fill="#000000" font-family="sans-serif" font-size="15" font-weight="bold" lengthAdjust="spacing" textLength="18" x="488.5" y="347.1182">[4]</text><text fill="#000000" font-family="sans-serif" font-size="15" lengthAdjust="spacing" textLength="101" x="510.5" y="347.1182">jwt.verify(token)</text><path d="M15,380.4141 L76,380.4141 L76,388.4141 L66,398.4141 L15,398.4141 L15,380.4141 " fill="#FFD700" style="stroke:#000000;stroke-width:1.0;"/><rect fill="none" height="541.5156" style="stroke:#000000;stroke-width:2.0;" width="1185.5" x="15" y="380.4141"/><text fill="#000000" font-family="sans-serif" font-size="13" font-weight="bold" lengthAdjust="spacing" textLength="16" x="30" y="394.9092">alt</text><text fill="#000000" font-family="sans-serif" font-size="11" font-weight="bold" lengthAdjust="spacing" textLength="145" x="91" y="393.833">[no token or invalid token]</text><polygon fill="#A80036" points="92.5,419.6328,82.5,423.6328,92.5,427.6328,88.5,423.6328" style="stroke:#A80036;stroke-width:1.0;"/><line style="stroke:#A80036;stroke-width:1.5;stroke-dasharray:2.0,2.0;" x1="86.5" x2="470.5" y1="423.6328" y2="423.6328"/><text fill="#000000" font-family="sans-serif" font-size="15" font-weight="bold" lengthAdjust="spacing" textLength="18" x="98.5" y="418.3369">[5]</text><text fill="#000000" font-family="sans-serif" font-size="15" lengthAdjust="spacing" textLength="83" x="120.5" y="418.3369">response fail</text><line style="stroke:#000000;stroke-width:1.0;stroke-dasharray:2.0,2.0;" x1="15" x2="1200.5" y1="432.6328" y2="432.6328"/><text fill="#000000" font-family="sans-serif" font-size="11" font-weight="bold" lengthAdjust="spacing" textLength="32" x="20" y="444.0518">[else]</text><polygon fill="#A80036" points="629.5,487.2031,639.5,491.2031,629.5,495.2031,633.5,491.2031" style="stroke:#A80036;stroke-width:1.0;"/><line style="stroke:#A80036;stroke-width:1.5;" x1="481.5" x2="635.5" y1="491.2031" y2="491.2031"/><text fill="#000000" font-family="sans-serif" font-size="15" font-weight="bold" lengthAdjust="spacing" textLength="18" x="488.5" y="476.4736">[6]</text><text fill="#000000" font-family="sans-serif" font-size="15" lengthAdjust="spacing" textLength="51" x="510.5" y="467.04">findById</text><text fill="#000000" font-family="sans-serif" font-size="15" lengthAdjust="spacing" textLength="81" x="510.5" y="485.9072">(decoded.id)</text><polygon fill="#A80036" points="1101,520.0703,1111,524.0703,1101,528.0703,1105,524.0703" style="stroke:#A80036;stroke-width:1.0;"/><line style="stroke:#A80036;stroke-width:1.5;" x1="651.5" x2="1107" y1="524.0703" y2="524.0703"/><text fill="#000000" font-family="sans-serif" font-size="15" font-weight="bold" lengthAdjust="spacing" textLength="18" x="658.5" y="518.7744">[7]</text><text fill="#000000" font-family="sans-serif" font-size="15" lengthAdjust="spacing" textLength="86" x="680.5" y="518.7744">UserScehma</text><polygon fill="#A80036" points="662.5,552.9375,652.5,556.9375,662.5,560.9375,658.5,556.9375" style="stroke:#A80036;stroke-width:1.0;"/><line style="stroke:#A80036;stroke-width:1.5;stroke-dasharray:2.0,2.0;" x1="656.5" x2="1117" y1="556.9375" y2="556.9375"/><text fill="#000000" font-family="sans-serif" font-size="15" font-weight="bold" lengthAdjust="spacing" textLength="18" x="668.5" y="551.6416">[8]</text><text fill="#000000" font-family="sans-serif" font-size="15" lengthAdjust="spacing" textLength="29" x="690.5" y="551.6416">user</text><polygon fill="#A80036" points="492.5,585.8047,482.5,589.8047,492.5,593.8047,488.5,589.8047" style="stroke:#A80036;stroke-width:1.0;"/><line style="stroke:#A80036;stroke-width:1.5;stroke-dasharray:2.0,2.0;" x1="486.5" x2="645.5" y1="589.8047" y2="589.8047"/><text fill="#000000" font-family="sans-serif" font-size="15" font-weight="bold" lengthAdjust="spacing" textLength="18" x="498.5" y="584.5088">[9]</text><text fill="#000000" font-family="sans-serif" font-size="15" lengthAdjust="spacing" textLength="29" x="520.5" y="584.5088">user</text><line style="stroke:#A80036;stroke-width:1.5;" x1="481.5" x2="523.5" y1="622.6719" y2="622.6719"/><line style="stroke:#A80036;stroke-width:1.5;" x1="523.5" x2="523.5" y1="622.6719" y2="635.6719"/><line style="stroke:#A80036;stroke-width:1.5;" x1="482.5" x2="523.5" y1="635.6719" y2="635.6719"/><polygon fill="#A80036" points="492.5,631.6719,482.5,635.6719,492.5,639.6719,488.5,635.6719" style="stroke:#A80036;stroke-width:1.0;"/><text fill="#000000" font-family="sans-serif" font-size="15" font-weight="bold" lengthAdjust="spacing" textLength="26" x="488.5" y="617.376">[10]</text><text fill="#000000" font-family="sans-serif" font-size="15" lengthAdjust="spacing" textLength="116" x="518.5" y="617.376">authorize('admin')</text><path d="M25,650.6719 L86,650.6719 L86,658.6719 L76,668.6719 L25,668.6719 L25,650.6719 " fill="#FFD700" style="stroke:#000000;stroke-width:1.0;"/><rect fill="none" height="264.2578" style="stroke:#000000;stroke-width:2.0;" width="1165.5" x="25" y="650.6719"/><text fill="#000000" font-family="sans-serif" font-size="13" font-weight="bold" lengthAdjust="spacing" textLength="16" x="40" y="665.167">alt</text><text fill="#000000" font-family="sans-serif" font-size="11" font-weight="bold" lengthAdjust="spacing" textLength="79" x="101" y="664.0908">[role != admin]</text><polygon fill="#A80036" points="92.5,689.8906,82.5,693.8906,92.5,697.8906,88.5,693.8906" style="stroke:#A80036;stroke-width:1.0;"/><line style="stroke:#A80036;stroke-width:1.5;stroke-dasharray:2.0,2.0;" x1="86.5" x2="470.5" y1="693.8906" y2="693.8906"/><text fill="#000000" font-family="sans-serif" font-size="15" font-weight="bold" lengthAdjust="spacing" textLength="26" x="98.5" y="688.5947">[11]</text><text fill="#000000" font-family="sans-serif" font-size="15" lengthAdjust="spacing" textLength="83" x="128.5" y="688.5947">response fail</text><line style="stroke:#000000;stroke-width:1.0;stroke-dasharray:2.0,2.0;" x1="25" x2="1190.5" y1="702.8906" y2="702.8906"/><text fill="#000000" font-family="sans-serif" font-size="11" font-weight="bold" lengthAdjust="spacing" textLength="32" x="30" y="714.3096">[else]</text><polygon fill="#A80036" points="758,738.5938,768,742.5938,758,746.5938,762,742.5938" style="stroke:#A80036;stroke-width:1.0;"/><line style="stroke:#A80036;stroke-width:1.5;" x1="476.5" x2="764" y1="742.5938" y2="742.5938"/><text fill="#000000" font-family="sans-serif" font-size="15" font-weight="bold" lengthAdjust="spacing" textLength="26" x="483.5" y="737.2979">[12]</text><text fill="#000000" font-family="sans-serif" font-size="15" lengthAdjust="spacing" textLength="104" x="513.5" y="737.2979">createCompany</text><polygon fill="#A80036" points="924,771.4609,934,775.4609,924,779.4609,928,775.4609" style="stroke:#A80036;stroke-width:1.0;"/><line style="stroke:#A80036;stroke-width:1.5;" x1="780" x2="930" y1="775.4609" y2="775.4609"/><text fill="#000000" font-family="sans-serif" font-size="15" font-weight="bold" lengthAdjust="spacing" textLength="26" x="787" y="770.165">[13]</text><text fill="#000000" font-family="sans-serif" font-size="15" lengthAdjust="spacing" textLength="107" x="817" y="770.165">create(req.body)</text><polygon fill="#A80036" points="1101,804.3281,1111,808.3281,1101,812.3281,1105,808.3281" style="stroke:#A80036;stroke-width:1.0;"/><line style="stroke:#A80036;stroke-width:1.5;" x1="946" x2="1107" y1="808.3281" y2="808.3281"/><text fill="#000000" font-family="sans-serif" font-size="15" font-weight="bold" lengthAdjust="spacing" textLength="26" x="953" y="803.0322">[14]</text><text fill="#000000" font-family="sans-serif" font-size="15" lengthAdjust="spacing" textLength="118" x="983" y="803.0322">CompanySchema</text><polygon fill="#A80036" points="957,837.1953,947,841.1953,957,845.1953,953,841.1953" style="stroke:#A80036;stroke-width:1.0;"/><line style="stroke:#A80036;stroke-width:1.5;stroke-dasharray:2.0,2.0;" x1="951" x2="1117" y1="841.1953" y2="841.1953"/><text fill="#000000" font-family="sans-serif" font-size="15" font-weight="bold" lengthAdjust="spacing" textLength="26" x="963" y="835.8994">[15]</text><text fill="#000000" font-family="sans-serif" font-size="15" lengthAdjust="spacing" textLength="72" x="993" y="835.8994">companies</text><polygon fill="#A80036" points="791,870.0625,781,874.0625,791,878.0625,787,874.0625" style="stroke:#A80036;stroke-width:1.0;"/><line style="stroke:#A80036;stroke-width:1.5;stroke-dasharray:2.0,2.0;" x1="785" x2="940" y1="874.0625" y2="874.0625"/><text fill="#000000" font-family="sans-serif" font-size="15" font-weight="bold" lengthAdjust="spacing" textLength="26" x="797" y="868.7666">[16]</text><text fill="#000000" font-family="sans-serif" font-size="15" lengthAdjust="spacing" textLength="72" x="827" y="868.7666">companies</text><polygon fill="#A80036" points="92.5,902.9297,82.5,906.9297,92.5,910.9297,88.5,906.9297" style="stroke:#A80036;stroke-width:1.0;"/><line style="stroke:#A80036;stroke-width:1.5;stroke-dasharray:2.0,2.0;" x1="86.5" x2="774" y1="906.9297" y2="906.9297"/><text fill="#000000" font-family="sans-serif" font-size="15" font-weight="bold" lengthAdjust="spacing" textLength="26" x="98.5" y="901.6338">[17]</text><text fill="#000000" font-family="sans-serif" font-size="15" lengthAdjust="spacing" textLength="61" x="128.5" y="901.6338">response</text><!--MD5=[8815f2cbdcf8939b6346aa3846f1b734]
@startuml
hide footbox
skinparam sequenceArrowThickness 1.5
skinparam fontsize 50
autonumber 1 "<b>[###]"
skinparam component {
skinparam defaultFontSize 16
'FontSize 13
'BackgroundColor<<Apache>> Red
'BorderColor<<Apache>> #FF6655
'FontName Courier
'BorderColor black
'BackgroundColor gold
'ArrowFontName Impact
ArrowFontSize 15
'ArrowColor #FF6655
'ArrowFontColor #777777
}
'skinparam backgroundColor #EEEBDC
Mainframe <b>Create New Company</b>

actor "<b>User</b>" as user <<(A,#ADD1B2)client>>#White
Box Online Job Fair Registration System #lightgrey
participant "server" as server <<(B,#FFFFFF)main>>#Orange
'participant "auth" as rauth <<(C,#FFFFFF)routes>>#Gold
'participant "bookings" as rbookings <<(C,#FFFFFF)routes>>#Gold
participant "companies" as rcompanies <<(C,#FFFFFF)routes>>#Gold
participant "auth" as middleware_auth <<(E,#FFFFFF)middleware>>#Pink
'participant "<b>auth" as controllers_auth <<(D,#FFFFFF)controllers>>#LightGreen
'participant "<b>bookings" as controllers_bookings <<(D,#FFFFFF)controllers>>#LightGreen
participant "<b>:User" as models_User <<(H,#FFFFFF)models>>#LightBlue
participant "<b>companies" as controllers_companies <<(F,#FFFFFF)controllers>>#LightGreen
participant "<b>:Company" as models_Company <<(F,#FFFFFF)models>>#LightBlue
'participant "<b>:Booking" as models_Booking <<(G,#FFFFFF)models>>#LightBlue
participant "MongoDB" as mongo <<(I,#FFFFFF)data base>>#d9d2e9
end box

|||
user->server: req.post('/\ncompanies')
Activate user
Activate server
'Route'
server->rcompanies: app.use('\n/companies'\n, companies)
DeActivate server
Activate rcompanies
'Controller bookings'
rcompanies->middleware_auth: protect
DeActivate rcompanies
Activate middleware_auth
middleware_auth->middleware_auth: jwt.verify(token)
Alt#Gold #Beige no token or invalid token
middleware_auth- ->user: response fail
Else #LightBlue else
middleware_auth->models_User: findById\n(decoded.id)
Activate models_User
models_User->mongo: UserScehma
Activate mongo
mongo- ->models_User: user
DeActivate mongo
models_User- ->middleware_auth: user
DeActivate models_User
middleware_auth->middleware_auth: authorize('admin')
Alt#Gold #Beige role != admin
middleware_auth- ->user: response fail
Else #LightBlue else
middleware_auth->controllers_companies: createCompany
DeActivate middleware_auth
Activate controllers_companies
controllers_companies->models_Company: create(req.body)
Activate models_Company
models_Company->mongo: CompanySchema
Activate mongo
mongo- ->models_Company: companies
DeActivate mongo
models_Company- ->controllers_companies: companies
DeActivate models_Company
controllers_companies- ->user: response
DeActivate controllers_companies
End Alt
End Alt
DeActivate user
|||


skinparam sequence {
'Box ==============================
BoxBorderColor Black
BoxFontColor Blue
BoxFontSize 16
'LifeLine + Arrow ==============================
'ArrowColor DeepSkyBlue
LifeLineBorderColor Black
LifeLineBackgroundColor #FFFF99
'Participant ==============================
ParticipantBorderColor Black
'ParticipantBackgroundColor DodgerBlue
StereoTypeFontSize 14
ParticipantFontSize 16
ParticipantFontColor #0c0c0c
'ParticipantFontName Impact
'Actor ==============================
ActorBorderColor Black
ActorBackgroundColor White
ActorFontSize 16
ActorFontColor Black
'ActorFontName Aapex
' ===================================
}
@enduml

@startuml
hide footbox
skinparam sequenceArrowThickness 1.5
skinparam fontsize 50
autonumber 1 "<b>[###]"
skinparam component {
skinparam defaultFontSize 16
ArrowFontSize 15
}
Mainframe <b>Create New Company</b>

actor "<b>User</b>" as user <<(A,#ADD1B2)client>>#White
Box Online Job Fair Registration System #lightgrey
participant "server" as server <<(B,#FFFFFF)main>>#Orange
participant "companies" as rcompanies <<(C,#FFFFFF)routes>>#Gold
participant "auth" as middleware_auth <<(E,#FFFFFF)middleware>>#Pink
participant "<b>:User" as models_User <<(H,#FFFFFF)models>>#LightBlue
participant "<b>companies" as controllers_companies <<(F,#FFFFFF)controllers>>#LightGreen
participant "<b>:Company" as models_Company <<(F,#FFFFFF)models>>#LightBlue
participant "MongoDB" as mongo <<(I,#FFFFFF)data base>>#d9d2e9
end box

|||
user->server: req.post('/\ncompanies')
Activate user
Activate server
server->rcompanies: app.use('\n/companies'\n, companies)
DeActivate server
Activate rcompanies
rcompanies->middleware_auth: protect
DeActivate rcompanies
Activate middleware_auth
middleware_auth->middleware_auth: jwt.verify(token)
Alt#Gold #Beige no token or invalid token
middleware_auth- ->user: response fail
Else #LightBlue else
middleware_auth->models_User: findById\n(decoded.id)
Activate models_User
models_User->mongo: UserScehma
Activate mongo
mongo- ->models_User: user
DeActivate mongo
models_User- ->middleware_auth: user
DeActivate models_User
middleware_auth->middleware_auth: authorize('admin')
Alt#Gold #Beige role != admin
middleware_auth- ->user: response fail
Else #LightBlue else
middleware_auth->controllers_companies: createCompany
DeActivate middleware_auth
Activate controllers_companies
controllers_companies->models_Company: create(req.body)
Activate models_Company
models_Company->mongo: CompanySchema
Activate mongo
mongo- ->models_Company: companies
DeActivate mongo
models_Company- ->controllers_companies: companies
DeActivate models_Company
controllers_companies- ->user: response
DeActivate controllers_companies
End Alt
End Alt
DeActivate user
|||


skinparam sequence {
BoxBorderColor Black
BoxFontColor Blue
BoxFontSize 16
LifeLineBorderColor Black
LifeLineBackgroundColor #FFFF99
ParticipantBorderColor Black
StereoTypeFontSize 14
ParticipantFontSize 16
ParticipantFontColor #0c0c0c
ActorBorderColor Black
ActorBackgroundColor White
ActorFontSize 16
ActorFontColor Black
}
@enduml

PlantUML version 1.2022.0(Tue Jan 11 23:16:42 ICT 2022)
(GPL source distribution)
Java Runtime: Java(TM) SE Runtime Environment
JVM: Java HotSpot(TM) 64-Bit Server VM
Default Encoding: Cp1252
Language: en
Country: US
--></g></svg>