<?xml version="1.0" encoding="UTF-8" standalone="no"?><svg xmlns="http://www.w3.org/2000/svg" xmlns:xlink="http://www.w3.org/1999/xlink" contentScriptType="application/ecmascript" contentStyleType="text/css" height="649px" preserveAspectRatio="none" style="width:875px;height:649px;background:#FFFFFF;" version="1.1" viewBox="0 0 875 649" width="875px" zoomAndPan="magnify"><defs><filter height="300%" id="f1kxvwp4d7x4f9" width="300%" x="-1" y="-1"><feGaussianBlur result="blurOut" stdDeviation="2.0"/><feColorMatrix in="blurOut" result="blurOut2" type="matrix" values="0 0 0 0 0 0 0 0 0 0 0 0 0 0 0 0 0 0 .4 0"/><feOffset dx="4.0" dy="4.0" in="blurOut2" result="blurOut3"/><feBlend in="SourceGraphic" in2="blurOut3" mode="normal"/></filter></defs><g><rect fill="#FFFFFF" filter="url(#f1kxvwp4d7x4f9)" height="632.8203" style="stroke:#000000;stroke-width:1.0;" width="854.5" x="9" y="5"/><path d="M160,5 L160,15.6094 L150,25.6094 L9,25.6094 " fill="none" style="stroke:#000000;stroke-width:1.0;"/><text fill="#000000" font-family="sans-serif" font-size="14" font-weight="bold" lengthAdjust="spacing" textLength="141" x="12" y="20.5332">Get Single Company</text><rect fill="#D3D3D3" height="587.1953" style="stroke:#000000;stroke-width:1.0;" width="696" x="161.5" y="33.6094"/><text fill="#0000FF" font-family="sans-serif" font-size="16" font-weight="bold" lengthAdjust="spacing" textLength="273" x="371" y="50.2188">Online Job Fair Registration System</text><rect fill="#FFFF99" filter="url(#f1kxvwp4d7x4f9)" height="375.7266" style="stroke:#000000;stroke-width:1.0;" width="10" x="61.5" y="216.0781"/><rect fill="#FFFF99" filter="url(#f1kxvwp4d7x4f9)" height="70.6016" style="stroke:#000000;stroke-width:1.0;" width="10" x="206.5" y="216.0781"/><rect fill="#FFFF99" filter="url(#f1kxvwp4d7x4f9)" height="32.8672" style="stroke:#000000;stroke-width:1.0;" width="10" x="342.5" y="286.6797"/><rect fill="#FFFF99" filter="url(#f1kxvwp4d7x4f9)" height="257.2578" style="stroke:#000000;stroke-width:1.0;" width="10" x="479" y="319.5469"/><rect fill="#FFFF99" filter="url(#f1kxvwp4d7x4f9)" height="98.6016" style="stroke:#000000;stroke-width:1.0;" width="10" x="617" y="371.2813"/><rect fill="#FFFF99" filter="url(#f1kxvwp4d7x4f9)" height="32.8672" style="stroke:#000000;stroke-width:1.0;" width="10" x="786" y="404.1484"/><rect fill="#F5F5DC" filter="url(#f1kxvwp4d7x4f9)" height="99.9219" style="stroke:#000000;stroke-width:2.0;" width="544" x="15" y="484.8828"/><rect fill="#ADD8E6" height="48.7031" style="stroke:none;stroke-width:1.0;" width="544" x="15" y="536.1016"/><line style="stroke:#000000;stroke-width:1.0;stroke-dasharray:5.0,5.0;" x1="66" x2="66" y1="137.3438" y2="626.8047"/><line style="stroke:#000000;stroke-width:1.0;stroke-dasharray:5.0,5.0;" x1="211.5" x2="211.5" y1="137.3438" y2="626.8047"/><line style="stroke:#000000;stroke-width:1.0;stroke-dasharray:5.0,5.0;" x1="347" x2="347" y1="137.3438" y2="626.8047"/><line style="stroke:#000000;stroke-width:1.0;stroke-dasharray:5.0,5.0;" x1="484" x2="484" y1="137.3438" y2="626.8047"/><line style="stroke:#000000;stroke-width:1.0;stroke-dasharray:5.0,5.0;" x1="622" x2="622" y1="137.3438" y2="626.8047"/><line style="stroke:#000000;stroke-width:1.0;stroke-dasharray:5.0,5.0;" x1="790.5" x2="790.5" y1="137.3438" y2="626.8047"/><ellipse cx="36" cy="110.6094" fill="#ADD1B2" rx="11" ry="11" style="stroke:none;stroke-width:1.0;"/><path d="M38.1875,112.375 L34.0469,112.375 L33.625,113.4063 L34.0469,113.4063 Q34.6563,113.4063 34.9219,113.6406 Q35.1875,113.875 35.1875,114.2656 Q35.1875,114.6406 34.9219,114.875 Q34.6563,115.1094 34.0469,115.1094 L31.75,115.1094 Q31.1406,115.1094 30.8828,114.875 Q30.625,114.6406 30.625,114.25 Q30.625,113.875 30.8984,113.6328 Q31.1719,113.3906 31.7969,113.4063 L34.4688,106.75 L33.3594,106.75 Q32.75,106.75 32.4844,106.5156 Q32.2188,106.2813 32.2188,105.8906 Q32.2188,105.5156 32.4844,105.2813 Q32.75,105.0469 33.3594,105.0469 L37.0313,105.0469 L40.4219,113.4063 Q41.0156,113.4063 41.2031,113.5469 Q41.5938,113.8125 41.5938,114.2656 Q41.5938,114.6406 41.3359,114.875 Q41.0781,115.1094 40.4688,115.1094 L38.1719,115.1094 Q37.5625,115.1094 37.2969,114.875 Q37.0313,114.6406 37.0313,114.25 Q37.0313,113.875 37.2969,113.6406 Q37.5625,113.4063 38.1719,113.4063 L38.5938,113.4063 L38.1875,112.375 Z M37.4688,110.6719 L36.1094,107.2969 L34.7344,110.6719 L37.4688,110.6719 Z " fill="#000000"/><text fill="#000000" font-family="sans-serif" font-size="14" font-style="italic" lengthAdjust="spacing" textLength="49" x="53" y="114.1426">«client»</text><text fill="#000000" font-family="sans-serif" font-size="16" font-weight="bold" lengthAdjust="spacing" textLength="36" x="59.5" y="133.8281">User</text><ellipse cx="66.5" cy="42.6094" fill="#FFFFFF" filter="url(#f1kxvwp4d7x4f9)" rx="8" ry="8" style="stroke:#000000;stroke-width:2.0;"/><path d="M66.5,50.6094 L66.5,77.6094 M53.5,58.6094 L79.5,58.6094 M66.5,77.6094 L53.5,92.6094 M66.5,77.6094 L79.5,92.6094 " fill="none" filter="url(#f1kxvwp4d7x4f9)" style="stroke:#000000;stroke-width:2.0;"/><rect fill="#FFA500" filter="url(#f1kxvwp4d7x4f9)" height="51.7344" style="stroke:#000000;stroke-width:1.5;" width="88" x="165.5" y="80.6094"/><ellipse cx="183.5" cy="98.6094" fill="#FFFFFF" rx="11" ry="11" style="stroke:#000000;stroke-width:1.0;"/><path d="M181.125,101.9063 L181.125,95.25 L180.8594,95.25 Q180.25,95.25 179.9844,95.0156 Q179.7188,94.7813 179.7188,94.3906 Q179.7188,94.0156 179.9844,93.7813 Q180.25,93.5469 180.8594,93.5469 L185.125,93.5469 Q186.6563,93.5469 187.5859,94.3906 Q188.5156,95.2344 188.5156,96.4063 Q188.5156,96.9688 188.2969,97.4609 Q188.0781,97.9531 187.6406,98.3594 Q188.4531,98.8438 188.8516,99.4844 Q189.25,100.125 189.25,100.9375 Q189.25,101.5938 188.9688,102.1406 Q188.75,102.5781 188.4375,102.8281 Q188.0156,103.1719 187.3984,103.3906 Q186.7813,103.6094 185.8594,103.6094 L180.8594,103.6094 Q180.25,103.6094 179.9844,103.375 Q179.7188,103.1406 179.7188,102.75 Q179.7188,102.375 179.9844,102.1406 Q180.25,101.9063 180.8594,101.9063 L181.125,101.9063 Z M182.8281,97.7188 L184.7031,97.7188 Q185.7031,97.7188 186.3594,97.2188 Q186.8125,96.875 186.8125,96.375 Q186.8125,95.9219 186.3906,95.5859 Q185.9688,95.25 185.0469,95.25 L182.8281,95.25 L182.8281,97.7188 Z M182.8281,101.9063 L185.7656,101.9063 Q186.8125,101.9063 187.2344,101.5938 Q187.5469,101.375 187.5469,100.9375 Q187.5469,100.4219 186.9141,99.9219 Q186.2813,99.4219 185.0781,99.4219 L182.8281,99.4219 L182.8281,101.9063 Z " fill="#0C0C0C"/><text fill="#000000" font-family="sans-serif" font-size="14" font-style="italic" lengthAdjust="spacing" textLength="46" x="200.5" y="102.1426">«main»</text><text fill="#0C0C0C" font-family="sans-serif" font-size="16" lengthAdjust="spacing" textLength="43" x="202" y="121.8281">server</text><rect fill="#FFD700" filter="url(#f1kxvwp4d7x4f9)" height="51.7344" style="stroke:#000000;stroke-width:1.5;" width="119" x="286" y="80.6094"/><ellipse cx="304" cy="98.6094" fill="#FFFFFF" rx="11" ry="11" style="stroke:#000000;stroke-width:1.0;"/><path d="M306.7656,94.4844 Q306.9219,94.2656 307.1094,94.1563 Q307.2969,94.0469 307.5156,94.0469 Q307.8906,94.0469 308.125,94.3047 Q308.3594,94.5625 308.3594,95.1719 L308.3594,96.625 Q308.3594,97.2344 308.125,97.5 Q307.8906,97.7656 307.5156,97.7656 Q307.1719,97.7656 306.9688,97.5625 Q306.7656,97.375 306.6563,96.8594 Q306.6094,96.5 306.4219,96.3125 Q306.0938,95.9375 305.4844,95.7188 Q304.875,95.5 304.25,95.5 Q303.4844,95.5 302.8516,95.8281 Q302.2188,96.1563 301.7266,96.9063 Q301.2344,97.6563 301.2344,98.6875 L301.2344,99.7813 Q301.2344,101.0156 302.125,101.8359 Q303.0156,102.6563 304.6094,102.6563 Q305.5469,102.6563 306.2031,102.4063 Q306.5938,102.25 307.0156,101.8125 Q307.2813,101.5469 307.4297,101.4688 Q307.5781,101.3906 307.7813,101.3906 Q308.1094,101.3906 308.3672,101.6484 Q308.625,101.9063 308.625,102.25 Q308.625,102.5938 308.2813,103 Q307.7813,103.5781 306.9844,103.9063 Q305.9063,104.3594 304.6094,104.3594 Q303.0938,104.3594 301.8906,103.7344 Q300.9063,103.2344 300.2188,102.1641 Q299.5313,101.0938 299.5313,99.8125 L299.5313,98.6563 Q299.5313,97.3281 300.1484,96.1797 Q300.7656,95.0313 301.8594,94.4141 Q302.9531,93.7969 304.1875,93.7969 Q304.9219,93.7969 305.5703,93.9609 Q306.2188,94.125 306.7656,94.4844 Z " fill="#0C0C0C"/><text fill="#000000" font-family="sans-serif" font-size="14" font-style="italic" lengthAdjust="spacing" textLength="56" x="331.5" y="102.1426">«routes»</text><text fill="#0C0C0C" font-family="sans-serif" font-size="16" lengthAdjust="spacing" textLength="77" x="321" y="121.8281">companies</text><rect fill="#90EE90" filter="url(#f1kxvwp4d7x4f9)" height="51.7344" style="stroke:#000000;stroke-width:1.5;" width="126" x="419" y="80.6094"/><ellipse cx="437" cy="98.6094" fill="#FFFFFF" rx="11" ry="11" style="stroke:#000000;stroke-width:1.0;"/><path d="M436.4375,99.4219 L436.4375,101.9063 L438.1719,101.9063 Q438.7969,101.9063 439.0547,102.1406 Q439.3125,102.375 439.3125,102.7656 Q439.3125,103.1406 439.0547,103.375 Q438.7969,103.6094 438.1719,103.6094 L434.4688,103.6094 Q433.8594,103.6094 433.5938,103.375 Q433.3281,103.1406 433.3281,102.75 Q433.3281,102.375 433.5938,102.1406 Q433.8594,101.9063 434.4688,101.9063 L434.7344,101.9063 L434.7344,95.25 L434.4688,95.25 Q433.8594,95.25 433.5938,95.0156 Q433.3281,94.7813 433.3281,94.3906 Q433.3281,94.0156 433.5938,93.7813 Q433.8594,93.5469 434.4688,93.5469 L442.4844,93.5469 L442.4844,96.1406 Q442.4844,96.75 442.2422,97.0156 Q442,97.2813 441.625,97.2813 Q441.25,97.2813 441.0156,97.0234 Q440.7813,96.7656 440.7813,96.1406 L440.7813,95.25 L436.4375,95.25 L436.4375,97.7188 L437.9219,97.7188 Q437.9219,97.0469 438.0469,96.8594 Q438.3125,96.4531 438.7813,96.4531 Q439.1563,96.4531 439.3906,96.7188 Q439.625,96.9844 439.625,97.5938 L439.625,99.5469 Q439.625,100.1719 439.3906,100.4297 Q439.1563,100.6875 438.7813,100.6875 Q438.3125,100.6875 438.0469,100.2813 Q437.9219,100.0938 437.9219,99.4219 L436.4375,99.4219 Z " fill="#0C0C0C"/><text fill="#000000" font-family="sans-serif" font-size="14" font-style="italic" lengthAdjust="spacing" textLength="82" x="455" y="102.1426">«controllers»</text><text fill="#0C0C0C" font-family="sans-serif" font-size="16" font-weight="bold" lengthAdjust="spacing" textLength="84" x="454" y="121.8281">companies</text><rect fill="#ADD8E6" filter="url(#f1kxvwp4d7x4f9)" height="51.7344" style="stroke:#000000;stroke-width:1.5;" width="122" x="559" y="80.6094"/><ellipse cx="577" cy="98.6094" fill="#FFFFFF" rx="11" ry="11" style="stroke:#000000;stroke-width:1.0;"/><path d="M576.4375,99.4219 L576.4375,101.9063 L578.1719,101.9063 Q578.7969,101.9063 579.0547,102.1406 Q579.3125,102.375 579.3125,102.7656 Q579.3125,103.1406 579.0547,103.375 Q578.7969,103.6094 578.1719,103.6094 L574.4688,103.6094 Q573.8594,103.6094 573.5938,103.375 Q573.3281,103.1406 573.3281,102.75 Q573.3281,102.375 573.5938,102.1406 Q573.8594,101.9063 574.4688,101.9063 L574.7344,101.9063 L574.7344,95.25 L574.4688,95.25 Q573.8594,95.25 573.5938,95.0156 Q573.3281,94.7813 573.3281,94.3906 Q573.3281,94.0156 573.5938,93.7813 Q573.8594,93.5469 574.4688,93.5469 L582.4844,93.5469 L582.4844,96.1406 Q582.4844,96.75 582.2422,97.0156 Q582,97.2813 581.625,97.2813 Q581.25,97.2813 581.0156,97.0234 Q580.7813,96.7656 580.7813,96.1406 L580.7813,95.25 L576.4375,95.25 L576.4375,97.7188 L577.9219,97.7188 Q577.9219,97.0469 578.0469,96.8594 Q578.3125,96.4531 578.7813,96.4531 Q579.1563,96.4531 579.3906,96.7188 Q579.625,96.9844 579.625,97.5938 L579.625,99.5469 Q579.625,100.1719 579.3906,100.4297 Q579.1563,100.6875 578.7813,100.6875 Q578.3125,100.6875 578.0469,100.2813 Q577.9219,100.0938 577.9219,99.4219 L576.4375,99.4219 Z " fill="#0C0C0C"/><text fill="#000000" font-family="sans-serif" font-size="14" font-style="italic" lengthAdjust="spacing" textLength="61" x="603.5" y="102.1426">«models»</text><text fill="#0C0C0C" font-family="sans-serif" font-size="16" font-weight="bold" lengthAdjust="spacing" textLength="80" x="594" y="121.8281">:Company</text><rect fill="#D9D2E9" filter="url(#f1kxvwp4d7x4f9)" height="51.7344" style="stroke:#000000;stroke-width:1.5;" width="121" x="728.5" y="80.6094"/><ellipse cx="746.5" cy="98.6094" fill="#FFFFFF" rx="11" ry="11" style="stroke:#000000;stroke-width:1.0;"/><path d="M747.4531,95.25 L747.4531,101.9063 L749.1719,101.9063 Q749.7813,101.9063 750.0469,102.1406 Q750.3125,102.375 750.3125,102.7656 Q750.3125,103.1406 750.0469,103.375 Q749.7813,103.6094 749.1719,103.6094 L744.0313,103.6094 Q743.4219,103.6094 743.1563,103.375 Q742.8906,103.1406 742.8906,102.75 Q742.8906,102.375 743.1563,102.1406 Q743.4219,101.9063 744.0313,101.9063 L745.75,101.9063 L745.75,95.25 L744.0313,95.25 Q743.4219,95.25 743.1563,95.0156 Q742.8906,94.7813 742.8906,94.3906 Q742.8906,94.0156 743.1563,93.7813 Q743.4219,93.5469 744.0313,93.5469 L749.1719,93.5469 Q749.7813,93.5469 750.0469,93.7813 Q750.3125,94.0156 750.3125,94.3906 Q750.3125,94.7813 750.0469,95.0156 Q749.7813,95.25 749.1719,95.25 L747.4531,95.25 Z " fill="#0C0C0C"/><text fill="#000000" font-family="sans-serif" font-size="14" font-style="italic" lengthAdjust="spacing" textLength="79" x="763.5" y="102.1426">«data base»</text><text fill="#0C0C0C" font-family="sans-serif" font-size="16" lengthAdjust="spacing" textLength="71" x="767.5" y="121.8281">MongoDB</text><rect fill="#FFFF99" filter="url(#f1kxvwp4d7x4f9)" height="375.7266" style="stroke:#000000;stroke-width:1.0;" width="10" x="61.5" y="216.0781"/><rect fill="#FFFF99" filter="url(#f1kxvwp4d7x4f9)" height="70.6016" style="stroke:#000000;stroke-width:1.0;" width="10" x="206.5" y="216.0781"/><rect fill="#FFFF99" filter="url(#f1kxvwp4d7x4f9)" height="32.8672" style="stroke:#000000;stroke-width:1.0;" width="10" x="342.5" y="286.6797"/><rect fill="#FFFF99" filter="url(#f1kxvwp4d7x4f9)" height="257.2578" style="stroke:#000000;stroke-width:1.0;" width="10" x="479" y="319.5469"/><rect fill="#FFFF99" filter="url(#f1kxvwp4d7x4f9)" height="98.6016" style="stroke:#000000;stroke-width:1.0;" width="10" x="617" y="371.2813"/><rect fill="#FFFF99" filter="url(#f1kxvwp4d7x4f9)" height="32.8672" style="stroke:#000000;stroke-width:1.0;" width="10" x="786" y="404.1484"/><polygon fill="#A80036" points="194.5,212.0781,204.5,216.0781,194.5,220.0781,198.5,216.0781" style="stroke:#A80036;stroke-width:1.0;"/><line style="stroke:#A80036;stroke-width:1.5;" x1="71.5" x2="200.5" y1="216.0781" y2="216.0781"/><text fill="#000000" font-family="sans-serif" font-size="15" font-weight="bold" lengthAdjust="spacing" textLength="18" x="78.5" y="201.3486">[1]</text><text fill="#000000" font-family="sans-serif" font-size="15" lengthAdjust="spacing" textLength="57" x="100.5" y="191.915">req.get('/</text><text fill="#000000" font-family="sans-serif" font-size="15" lengthAdjust="spacing" textLength="99" x="100.5" y="210.7822">companies/:id')</text><polygon fill="#A80036" points="330.5,282.6797,340.5,286.6797,330.5,290.6797,334.5,286.6797" style="stroke:#A80036;stroke-width:1.0;"/><line style="stroke:#A80036;stroke-width:1.5;" x1="211.5" x2="336.5" y1="286.6797" y2="286.6797"/><text fill="#000000" font-family="sans-serif" font-size="15" font-weight="bold" lengthAdjust="spacing" textLength="18" x="218.5" y="262.5166">[2]</text><text fill="#000000" font-family="sans-serif" font-size="15" lengthAdjust="spacing" textLength="60" x="240.5" y="243.6494">app.use('</text><text fill="#000000" font-family="sans-serif" font-size="15" lengthAdjust="spacing" textLength="79" x="240.5" y="262.5166">/companies'</text><text fill="#000000" font-family="sans-serif" font-size="15" lengthAdjust="spacing" textLength="85" x="240.5" y="281.3838">, companies)</text><polygon fill="#A80036" points="467,315.5469,477,319.5469,467,323.5469,471,319.5469" style="stroke:#A80036;stroke-width:1.0;"/><line style="stroke:#A80036;stroke-width:1.5;" x1="347.5" x2="473" y1="319.5469" y2="319.5469"/><text fill="#000000" font-family="sans-serif" font-size="15" font-weight="bold" lengthAdjust="spacing" textLength="18" x="354.5" y="314.251">[3]</text><text fill="#000000" font-family="sans-serif" font-size="15" lengthAdjust="spacing" textLength="83" x="376.5" y="314.251">getCompany</text><polygon fill="#A80036" points="605,367.2813,615,371.2813,605,375.2813,609,371.2813" style="stroke:#A80036;stroke-width:1.0;"/><line style="stroke:#A80036;stroke-width:1.5;" x1="489" x2="611" y1="371.2813" y2="371.2813"/><text fill="#000000" font-family="sans-serif" font-size="15" font-weight="bold" lengthAdjust="spacing" textLength="18" x="496" y="356.5518">[4]</text><text fill="#000000" font-family="sans-serif" font-size="15" lengthAdjust="spacing" textLength="81" x="518" y="347.1182">findById(req.</text><text fill="#000000" font-family="sans-serif" font-size="15" lengthAdjust="spacing" textLength="70" x="518" y="365.9854">params.id)</text><polygon fill="#A80036" points="774,400.1484,784,404.1484,774,408.1484,778,404.1484" style="stroke:#A80036;stroke-width:1.0;"/><line style="stroke:#A80036;stroke-width:1.5;" x1="627" x2="780" y1="404.1484" y2="404.1484"/><text fill="#000000" font-family="sans-serif" font-size="15" font-weight="bold" lengthAdjust="spacing" textLength="18" x="634" y="398.8525">[5]</text><text fill="#000000" font-family="sans-serif" font-size="15" lengthAdjust="spacing" textLength="118" x="656" y="398.8525">CompanySchema</text><polygon fill="#A80036" points="638,433.0156,628,437.0156,638,441.0156,634,437.0156" style="stroke:#A80036;stroke-width:1.0;"/><line style="stroke:#A80036;stroke-width:1.5;stroke-dasharray:2.0,2.0;" x1="632" x2="790" y1="437.0156" y2="437.0156"/><text fill="#000000" font-family="sans-serif" font-size="15" font-weight="bold" lengthAdjust="spacing" textLength="18" x="644" y="431.7197">[6]</text><text fill="#000000" font-family="sans-serif" font-size="15" lengthAdjust="spacing" textLength="60" x="666" y="431.7197">company</text><polygon fill="#A80036" points="500,465.8828,490,469.8828,500,473.8828,496,469.8828" style="stroke:#A80036;stroke-width:1.0;"/><line style="stroke:#A80036;stroke-width:1.5;stroke-dasharray:2.0,2.0;" x1="494" x2="621" y1="469.8828" y2="469.8828"/><text fill="#000000" font-family="sans-serif" font-size="15" font-weight="bold" lengthAdjust="spacing" textLength="18" x="506" y="464.5869">[7]</text><text fill="#000000" font-family="sans-serif" font-size="15" lengthAdjust="spacing" textLength="60" x="528" y="464.5869">company</text><path d="M15,484.8828 L76,484.8828 L76,492.8828 L66,502.8828 L15,502.8828 L15,484.8828 " fill="#FFD700" style="stroke:#000000;stroke-width:1.0;"/><rect fill="none" height="99.9219" style="stroke:#000000;stroke-width:2.0;" width="544" x="15" y="484.8828"/><text fill="#000000" font-family="sans-serif" font-size="13" font-weight="bold" lengthAdjust="spacing" textLength="16" x="30" y="499.3779">alt</text><text fill="#000000" font-family="sans-serif" font-size="11" font-weight="bold" lengthAdjust="spacing" textLength="109" x="91" y="498.3018">[invalid company ID]</text><polygon fill="#A80036" points="82.5,524.1016,72.5,528.1016,82.5,532.1016,78.5,528.1016" style="stroke:#A80036;stroke-width:1.0;"/><line style="stroke:#A80036;stroke-width:1.5;stroke-dasharray:2.0,2.0;" x1="76.5" x2="478" y1="528.1016" y2="528.1016"/><text fill="#000000" font-family="sans-serif" font-size="15" font-weight="bold" lengthAdjust="spacing" textLength="18" x="88.5" y="522.8057">[8]</text><text fill="#000000" font-family="sans-serif" font-size="15" lengthAdjust="spacing" textLength="83" x="110.5" y="522.8057">response fail</text><line style="stroke:#000000;stroke-width:1.0;stroke-dasharray:2.0,2.0;" x1="15" x2="559" y1="537.1016" y2="537.1016"/><text fill="#000000" font-family="sans-serif" font-size="11" font-weight="bold" lengthAdjust="spacing" textLength="32" x="20" y="548.5205">[else]</text><polygon fill="#A80036" points="82.5,572.8047,72.5,576.8047,82.5,580.8047,78.5,576.8047" style="stroke:#A80036;stroke-width:1.0;"/><line style="stroke:#A80036;stroke-width:1.5;stroke-dasharray:2.0,2.0;" x1="76.5" x2="483" y1="576.8047" y2="576.8047"/><text fill="#000000" font-family="sans-serif" font-size="15" font-weight="bold" lengthAdjust="spacing" textLength="18" x="88.5" y="571.5088">[9]</text><text fill="#000000" font-family="sans-serif" font-size="15" lengthAdjust="spacing" textLength="121" x="110.5" y="571.5088">response success</text><!--MD5=[377b4309df09258ef5cb071c20a620a9]
@startuml
hide footbox
skinparam sequenceArrowThickness 1.5
skinparam fontsize 50
autonumber 1 "<b>[###]"
skinparam component {
skinparam defaultFontSize 16
'FontSize 13
'BackgroundColor<<Apache>> Red
'BorderColor<<Apache>> #FF6655
'FontName Courier
'BorderColor black
'BackgroundColor gold
'ArrowFontName Impact
ArrowFontSize 15
'ArrowColor #FF6655
'ArrowFontColor #777777
}
'skinparam backgroundColor #EEEBDC
Mainframe <b>Get Single Company</b>

actor "<b>User</b>" as user <<(A,#ADD1B2)client>>#White
Box Online Job Fair Registration System #lightgrey
participant "server" as server <<(B,#FFFFFF)main>>#Orange
'participant "auth" as rauth <<(C,#FFFFFF)routes>>#Gold
'participant "bookings" as rbookings <<(C,#FFFFFF)routes>>#Gold
participant "companies" as rcompanies <<(C,#FFFFFF)routes>>#Gold
'participant "<b>auth" as controllers_auth <<(D,#FFFFFF)controllers>>#LightGreen
'participant "<b>bookings" as controllers_bookings <<(D,#FFFFFF)controllers>>#LightGreen
participant "<b>companies" as controllers_companies <<(F,#FFFFFF)controllers>>#LightGreen
'participant "auth" as middleware_auth <<(E,#FFFFFF)middleware>>#Pink
participant "<b>:Company" as models_Company <<(F,#FFFFFF)models>>#LightBlue
'participant "<b>:Booking" as models_Booking <<(G,#FFFFFF)models>>#LightBlue
'participant "<b>:User" as models_User <<(H,#FFFFFF)models>>#LightBlue
participant "MongoDB" as mongo <<(I,#FFFFFF)data base>>#d9d2e9
end box

|||
user->server: req.get('/\ncompanies/:id')
Activate user
Activate server
'Route'
server->rcompanies: app.use('\n/companies'\n, companies)
DeActivate server
Activate rcompanies
'Controller bookings'
rcompanies->controllers_companies: getCompany
DeActivate rcompanies
Activate controllers_companies
controllers_companies->models_Company: findById(req.\nparams.id)
Activate models_Company
models_Company->mongo: CompanySchema
Activate mongo
mongo- ->models_Company: company
DeActivate mongo
models_Company- ->controllers_companies: company
DeActivate models_Company
Alt#Gold #Beige invalid company ID
controllers_companies- ->user: response fail
Else #LightBlue else
controllers_companies- ->user: response success
DeActivate controllers_companies
End Alt
DeActivate user
|||


skinparam sequence {
'Box ==============================
BoxBorderColor Black
BoxFontColor Blue
BoxFontSize 16
'LifeLine + Arrow ==============================
'ArrowColor DeepSkyBlue
LifeLineBorderColor Black
LifeLineBackgroundColor #FFFF99
'Participant ==============================
ParticipantBorderColor Black
'ParticipantBackgroundColor DodgerBlue
StereoTypeFontSize 14
ParticipantFontSize 16
ParticipantFontColor #0c0c0c
'ParticipantFontName Impact
'Actor ==============================
ActorBorderColor Black
ActorBackgroundColor White
ActorFontSize 16
ActorFontColor Black
'ActorFontName Aapex
' ===================================
}
@enduml

@startuml
hide footbox
skinparam sequenceArrowThickness 1.5
skinparam fontsize 50
autonumber 1 "<b>[###]"
skinparam component {
skinparam defaultFontSize 16
ArrowFontSize 15
}
Mainframe <b>Get Single Company</b>

actor "<b>User</b>" as user <<(A,#ADD1B2)client>>#White
Box Online Job Fair Registration System #lightgrey
participant "server" as server <<(B,#FFFFFF)main>>#Orange
participant "companies" as rcompanies <<(C,#FFFFFF)routes>>#Gold
participant "<b>companies" as controllers_companies <<(F,#FFFFFF)controllers>>#LightGreen
participant "<b>:Company" as models_Company <<(F,#FFFFFF)models>>#LightBlue
participant "MongoDB" as mongo <<(I,#FFFFFF)data base>>#d9d2e9
end box

|||
user->server: req.get('/\ncompanies/:id')
Activate user
Activate server
server->rcompanies: app.use('\n/companies'\n, companies)
DeActivate server
Activate rcompanies
rcompanies->controllers_companies: getCompany
DeActivate rcompanies
Activate controllers_companies
controllers_companies->models_Company: findById(req.\nparams.id)
Activate models_Company
models_Company->mongo: CompanySchema
Activate mongo
mongo- ->models_Company: company
DeActivate mongo
models_Company- ->controllers_companies: company
DeActivate models_Company
Alt#Gold #Beige invalid company ID
controllers_companies- ->user: response fail
Else #LightBlue else
controllers_companies- ->user: response success
DeActivate controllers_companies
End Alt
DeActivate user
|||


skinparam sequence {
BoxBorderColor Black
BoxFontColor Blue
BoxFontSize 16
LifeLineBorderColor Black
LifeLineBackgroundColor #FFFF99
ParticipantBorderColor Black
StereoTypeFontSize 14
ParticipantFontSize 16
ParticipantFontColor #0c0c0c
ActorBorderColor Black
ActorBackgroundColor White
ActorFontSize 16
ActorFontColor Black
}
@enduml

PlantUML version 1.2022.0(Tue Jan 11 23:16:42 ICT 2022)
(GPL source distribution)
Java Runtime: Java(TM) SE Runtime Environment
JVM: Java HotSpot(TM) 64-Bit Server VM
Default Encoding: Cp1252
Language: en
Country: US
--></g></svg>