<?xml version="1.0" encoding="UTF-8" standalone="no"?><svg xmlns="http://www.w3.org/2000/svg" xmlns:xlink="http://www.w3.org/1999/xlink" contentScriptType="application/ecmascript" contentStyleType="text/css" height="1105px" preserveAspectRatio="none" style="width:1270px;height:1105px;background:#FFFFFF;" version="1.1" viewBox="0 0 1270 1105" width="1270px" zoomAndPan="magnify"><defs><filter height="300%" id="fmmpcblhivfus" width="300%" x="-1" y="-1"><feGaussianBlur result="blurOut" stdDeviation="2.0"/><feColorMatrix in="blurOut" result="blurOut2" type="matrix" values="0 0 0 0 0 0 0 0 0 0 0 0 0 0 0 0 0 0 .4 0"/><feOffset dx="4.0" dy="4.0" in="blurOut2" result="blurOut3"/><feBlend in="SourceGraphic" in2="blurOut3" mode="normal"/></filter></defs><g><rect fill="#FFFFFF" filter="url(#fmmpcblhivfus)" height="1088.7344" style="stroke:#000000;stroke-width:1.0;" width="1249.5" x="9" y="5"/><path d="M185,5 L185,15.6094 L175,25.6094 L9,25.6094 " fill="none" style="stroke:#000000;stroke-width:1.0;"/><text fill="#000000" font-family="sans-serif" font-size="14" font-weight="bold" lengthAdjust="spacing" textLength="166" x="12" y="20.5332">Update Single Company</text><rect fill="#D3D3D3" height="1043.1094" style="stroke:#000000;stroke-width:1.0;" width="1047" x="181.5" y="33.6094"/><text fill="#0000FF" font-family="sans-serif" font-size="16" font-weight="bold" lengthAdjust="spacing" textLength="273" x="566.5" y="50.2188">Online Job Fair Registration System</text><rect fill="#FFFF99" filter="url(#fmmpcblhivfus)" height="831.6406" style="stroke:#000000;stroke-width:1.0;" width="10" x="81.5" y="216.0781"/><rect fill="#FFFF99" filter="url(#fmmpcblhivfus)" height="70.6016" style="stroke:#000000;stroke-width:1.0;" width="10" x="226.5" y="216.0781"/><rect fill="#FFFF99" filter="url(#fmmpcblhivfus)" height="32.8672" style="stroke:#000000;stroke-width:1.0;" width="10" x="362.5" y="286.6797"/><rect fill="#FFFF99" filter="url(#fmmpcblhivfus)" height="423.0469" style="stroke:#000000;stroke-width:1.0;" width="10" x="500.5" y="319.5469"/><rect fill="#FFFF99" filter="url(#fmmpcblhivfus)" height="98.6016" style="stroke:#000000;stroke-width:1.0;" width="10" x="670.5" y="491.2031"/><rect fill="#FFFF99" filter="url(#fmmpcblhivfus)" height="276.125" style="stroke:#000000;stroke-width:1.0;" width="10" x="799" y="742.5938"/><rect fill="#FFFF99" filter="url(#fmmpcblhivfus)" height="98.6016" style="stroke:#000000;stroke-width:1.0;" width="10" x="980" y="813.1953"/><rect fill="#FFFF99" filter="url(#fmmpcblhivfus)" height="32.8672" style="stroke:#000000;stroke-width:1.0;" width="10" x="1157" y="524.0703"/><rect fill="#FFFF99" filter="url(#fmmpcblhivfus)" height="32.8672" style="stroke:#000000;stroke-width:1.0;" width="10" x="1157" y="846.0625"/><rect fill="#F5F5DC" filter="url(#fmmpcblhivfus)" height="660.3047" style="stroke:#000000;stroke-width:2.0;" width="1229.5" x="15" y="380.4141"/><rect fill="#ADD8E6" height="609.0859" style="stroke:none;stroke-width:1.0;" width="1229.5" x="15" y="431.6328"/><rect fill="#F5F5DC" filter="url(#fmmpcblhivfus)" height="383.0469" style="stroke:#000000;stroke-width:2.0;" width="1209.5" x="25" y="650.6719"/><rect fill="#ADD8E6" height="331.8281" style="stroke:none;stroke-width:1.0;" width="1209.5" x="25" y="701.8906"/><rect fill="#F5F5DC" filter="url(#fmmpcblhivfus)" height="99.9219" style="stroke:#000000;stroke-width:2.0;" width="844" x="35" y="926.7969"/><rect fill="#ADD8E6" height="48.7031" style="stroke:none;stroke-width:1.0;" width="844" x="35" y="978.0156"/><line style="stroke:#000000;stroke-width:1.0;stroke-dasharray:5.0,5.0;" x1="86" x2="86" y1="137.3438" y2="1082.7188"/><line style="stroke:#000000;stroke-width:1.0;stroke-dasharray:5.0,5.0;" x1="231.5" x2="231.5" y1="137.3438" y2="1082.7188"/><line style="stroke:#000000;stroke-width:1.0;stroke-dasharray:5.0,5.0;" x1="367" x2="367" y1="137.3438" y2="1082.7188"/><line style="stroke:#000000;stroke-width:1.0;stroke-dasharray:5.0,5.0;" x1="505" x2="505" y1="137.3438" y2="1082.7188"/><line style="stroke:#000000;stroke-width:1.0;stroke-dasharray:5.0,5.0;" x1="675" x2="675" y1="137.3438" y2="1082.7188"/><line style="stroke:#000000;stroke-width:1.0;stroke-dasharray:5.0,5.0;" x1="804" x2="804" y1="137.3438" y2="1082.7188"/><line style="stroke:#000000;stroke-width:1.0;stroke-dasharray:5.0,5.0;" x1="985" x2="985" y1="137.3438" y2="1082.7188"/><line style="stroke:#000000;stroke-width:1.0;stroke-dasharray:5.0,5.0;" x1="1161.5" x2="1161.5" y1="137.3438" y2="1082.7188"/><ellipse cx="56" cy="110.6094" fill="#ADD1B2" rx="11" ry="11" style="stroke:none;stroke-width:1.0;"/><path d="M58.1875,112.375 L54.0469,112.375 L53.625,113.4063 L54.0469,113.4063 Q54.6563,113.4063 54.9219,113.6406 Q55.1875,113.875 55.1875,114.2656 Q55.1875,114.6406 54.9219,114.875 Q54.6563,115.1094 54.0469,115.1094 L51.75,115.1094 Q51.1406,115.1094 50.8828,114.875 Q50.625,114.6406 50.625,114.25 Q50.625,113.875 50.8984,113.6328 Q51.1719,113.3906 51.7969,113.4063 L54.4688,106.75 L53.3594,106.75 Q52.75,106.75 52.4844,106.5156 Q52.2188,106.2813 52.2188,105.8906 Q52.2188,105.5156 52.4844,105.2813 Q52.75,105.0469 53.3594,105.0469 L57.0313,105.0469 L60.4219,113.4063 Q61.0156,113.4063 61.2031,113.5469 Q61.5938,113.8125 61.5938,114.2656 Q61.5938,114.6406 61.3359,114.875 Q61.0781,115.1094 60.4688,115.1094 L58.1719,115.1094 Q57.5625,115.1094 57.2969,114.875 Q57.0313,114.6406 57.0313,114.25 Q57.0313,113.875 57.2969,113.6406 Q57.5625,113.4063 58.1719,113.4063 L58.5938,113.4063 L58.1875,112.375 Z M57.4688,110.6719 L56.1094,107.2969 L54.7344,110.6719 L57.4688,110.6719 Z " fill="#000000"/><text fill="#000000" font-family="sans-serif" font-size="14" font-style="italic" lengthAdjust="spacing" textLength="49" x="73" y="114.1426">«client»</text><text fill="#000000" font-family="sans-serif" font-size="16" font-weight="bold" lengthAdjust="spacing" textLength="36" x="79.5" y="133.8281">User</text><ellipse cx="86.5" cy="42.6094" fill="#FFFFFF" filter="url(#fmmpcblhivfus)" rx="8" ry="8" style="stroke:#000000;stroke-width:2.0;"/><path d="M86.5,50.6094 L86.5,77.6094 M73.5,58.6094 L99.5,58.6094 M86.5,77.6094 L73.5,92.6094 M86.5,77.6094 L99.5,92.6094 " fill="none" filter="url(#fmmpcblhivfus)" style="stroke:#000000;stroke-width:2.0;"/><rect fill="#FFA500" filter="url(#fmmpcblhivfus)" height="51.7344" style="stroke:#000000;stroke-width:1.5;" width="88" x="185.5" y="80.6094"/><ellipse cx="203.5" cy="98.6094" fill="#FFFFFF" rx="11" ry="11" style="stroke:#000000;stroke-width:1.0;"/><path d="M201.125,101.9063 L201.125,95.25 L200.8594,95.25 Q200.25,95.25 199.9844,95.0156 Q199.7188,94.7813 199.7188,94.3906 Q199.7188,94.0156 199.9844,93.7813 Q200.25,93.5469 200.8594,93.5469 L205.125,93.5469 Q206.6563,93.5469 207.5859,94.3906 Q208.5156,95.2344 208.5156,96.4063 Q208.5156,96.9688 208.2969,97.4609 Q208.0781,97.9531 207.6406,98.3594 Q208.4531,98.8438 208.8516,99.4844 Q209.25,100.125 209.25,100.9375 Q209.25,101.5938 208.9688,102.1406 Q208.75,102.5781 208.4375,102.8281 Q208.0156,103.1719 207.3984,103.3906 Q206.7813,103.6094 205.8594,103.6094 L200.8594,103.6094 Q200.25,103.6094 199.9844,103.375 Q199.7188,103.1406 199.7188,102.75 Q199.7188,102.375 199.9844,102.1406 Q200.25,101.9063 200.8594,101.9063 L201.125,101.9063 Z M202.8281,97.7188 L204.7031,97.7188 Q205.7031,97.7188 206.3594,97.2188 Q206.8125,96.875 206.8125,96.375 Q206.8125,95.9219 206.3906,95.5859 Q205.9688,95.25 205.0469,95.25 L202.8281,95.25 L202.8281,97.7188 Z M202.8281,101.9063 L205.7656,101.9063 Q206.8125,101.9063 207.2344,101.5938 Q207.5469,101.375 207.5469,100.9375 Q207.5469,100.4219 206.9141,99.9219 Q206.2813,99.4219 205.0781,99.4219 L202.8281,99.4219 L202.8281,101.9063 Z " fill="#0C0C0C"/><text fill="#000000" font-family="sans-serif" font-size="14" font-style="italic" lengthAdjust="spacing" textLength="46" x="220.5" y="102.1426">«main»</text><text fill="#0C0C0C" font-family="sans-serif" font-size="16" lengthAdjust="spacing" textLength="43" x="222" y="121.8281">server</text><rect fill="#FFD700" filter="url(#fmmpcblhivfus)" height="51.7344" style="stroke:#000000;stroke-width:1.5;" width="119" x="306" y="80.6094"/><ellipse cx="324" cy="98.6094" fill="#FFFFFF" rx="11" ry="11" style="stroke:#000000;stroke-width:1.0;"/><path d="M326.7656,94.4844 Q326.9219,94.2656 327.1094,94.1563 Q327.2969,94.0469 327.5156,94.0469 Q327.8906,94.0469 328.125,94.3047 Q328.3594,94.5625 328.3594,95.1719 L328.3594,96.625 Q328.3594,97.2344 328.125,97.5 Q327.8906,97.7656 327.5156,97.7656 Q327.1719,97.7656 326.9688,97.5625 Q326.7656,97.375 326.6563,96.8594 Q326.6094,96.5 326.4219,96.3125 Q326.0938,95.9375 325.4844,95.7188 Q324.875,95.5 324.25,95.5 Q323.4844,95.5 322.8516,95.8281 Q322.2188,96.1563 321.7266,96.9063 Q321.2344,97.6563 321.2344,98.6875 L321.2344,99.7813 Q321.2344,101.0156 322.125,101.8359 Q323.0156,102.6563 324.6094,102.6563 Q325.5469,102.6563 326.2031,102.4063 Q326.5938,102.25 327.0156,101.8125 Q327.2813,101.5469 327.4297,101.4688 Q327.5781,101.3906 327.7813,101.3906 Q328.1094,101.3906 328.3672,101.6484 Q328.625,101.9063 328.625,102.25 Q328.625,102.5938 328.2813,103 Q327.7813,103.5781 326.9844,103.9063 Q325.9063,104.3594 324.6094,104.3594 Q323.0938,104.3594 321.8906,103.7344 Q320.9063,103.2344 320.2188,102.1641 Q319.5313,101.0938 319.5313,99.8125 L319.5313,98.6563 Q319.5313,97.3281 320.1484,96.1797 Q320.7656,95.0313 321.8594,94.4141 Q322.9531,93.7969 324.1875,93.7969 Q324.9219,93.7969 325.5703,93.9609 Q326.2188,94.125 326.7656,94.4844 Z " fill="#0C0C0C"/><text fill="#000000" font-family="sans-serif" font-size="14" font-style="italic" lengthAdjust="spacing" textLength="56" x="351.5" y="102.1426">«routes»</text><text fill="#0C0C0C" font-family="sans-serif" font-size="16" lengthAdjust="spacing" textLength="77" x="341" y="121.8281">companies</text><rect fill="#FFC0CB" filter="url(#fmmpcblhivfus)" height="51.7344" style="stroke:#000000;stroke-width:1.5;" width="129" x="439" y="80.6094"/><ellipse cx="457" cy="98.6094" fill="#FFFFFF" rx="11" ry="11" style="stroke:#000000;stroke-width:1.0;"/><path d="M455.8594,99.4063 L455.8594,101.9063 L460.1875,101.9063 L460.1875,100.9844 Q460.1875,100.375 460.4297,100.1094 Q460.6719,99.8438 461.0469,99.8438 Q461.4219,99.8438 461.6563,100.1094 Q461.8906,100.375 461.8906,100.9844 L461.8906,103.6094 L453.8906,103.6094 Q453.2656,103.6094 453.0078,103.375 Q452.75,103.1406 452.75,102.75 Q452.75,102.375 453.0156,102.1406 Q453.2813,101.9063 453.8906,101.9063 L454.1563,101.9063 L454.1563,95.25 L453.8906,95.25 Q453.2656,95.25 453.0078,95.0156 Q452.75,94.7813 452.75,94.3906 Q452.75,94.0156 453.0078,93.7813 Q453.2656,93.5469 453.8906,93.5469 L461.5156,93.5469 L461.5156,96.1406 Q461.5156,96.75 461.2891,97.0078 Q461.0625,97.2656 460.6719,97.2656 Q460.2969,97.2656 460.0625,97.0078 Q459.8281,96.75 459.8281,96.1406 L459.8281,95.25 L455.8594,95.25 L455.8594,97.7031 L457.3438,97.7031 Q457.3438,97.0469 457.4688,96.8594 Q457.7344,96.4531 458.2031,96.4531 Q458.5781,96.4531 458.8125,96.7109 Q459.0469,96.9688 459.0469,97.5781 L459.0469,99.5469 Q459.0469,100.0938 458.9219,100.2813 Q458.6563,100.6719 458.2031,100.6719 Q457.7344,100.6719 457.4688,100.2656 Q457.3438,100.0781 457.3438,99.4063 L455.8594,99.4063 Z " fill="#0C0C0C"/><text fill="#000000" font-family="sans-serif" font-size="14" font-style="italic" lengthAdjust="spacing" textLength="87" x="474" y="102.1426">«middleware»</text><text fill="#0C0C0C" font-family="sans-serif" font-size="16" lengthAdjust="spacing" textLength="29" x="503" y="121.8281">auth</text><rect fill="#ADD8E6" filter="url(#fmmpcblhivfus)" height="51.7344" style="stroke:#000000;stroke-width:1.5;" width="103" x="622" y="80.6094"/><ellipse cx="640" cy="98.6094" fill="#FFFFFF" rx="11" ry="11" style="stroke:#000000;stroke-width:1.0;"/><path d="M642.4688,99.4375 L638.8281,99.4375 L638.8281,101.9063 L639.0938,101.9063 Q639.7031,101.9063 639.9688,102.1406 Q640.2344,102.375 640.2344,102.7656 Q640.2344,103.1406 639.9688,103.375 Q639.7031,103.6094 639.0938,103.6094 L637.0156,103.6094 Q636.3906,103.6094 636.1328,103.375 Q635.875,103.1406 635.875,102.75 Q635.875,102.2969 636.2813,102.0313 Q636.4844,101.9063 637.125,101.9063 L637.125,95.25 Q636.6719,95.2031 636.4453,94.9766 Q636.2188,94.75 636.2188,94.3906 Q636.2188,94.0156 636.4844,93.7813 Q636.75,93.5469 637.3594,93.5469 L639.0938,93.5469 Q639.7031,93.5469 639.9688,93.7813 Q640.2344,94.0156 640.2344,94.3906 Q640.2344,94.7813 639.9688,95.0156 Q639.7031,95.25 639.0938,95.25 L638.8281,95.25 L638.8281,97.7344 L642.4688,97.7344 L642.4688,95.25 L642.2031,95.25 Q641.5781,95.25 641.3203,95.0156 Q641.0625,94.7813 641.0625,94.3906 Q641.0625,94.0156 641.3203,93.7813 Q641.5781,93.5469 642.2031,93.5469 L643.9375,93.5469 Q644.5469,93.5469 644.8125,93.7813 Q645.0781,94.0156 645.0781,94.3906 Q645.0781,94.75 644.8438,94.9766 Q644.6094,95.2031 644.1719,95.25 L644.1719,101.9063 Q644.8281,101.9063 645.0156,102.0313 Q645.4219,102.2969 645.4219,102.7656 Q645.4219,103.1406 645.1563,103.375 Q644.8906,103.6094 644.2813,103.6094 L642.2031,103.6094 Q641.5781,103.6094 641.3203,103.375 Q641.0625,103.1406 641.0625,102.75 Q641.0625,102.375 641.3281,102.1406 Q641.5938,101.9063 642.2031,101.9063 L642.4688,101.9063 L642.4688,99.4375 Z " fill="#0C0C0C"/><text fill="#000000" font-family="sans-serif" font-size="14" font-style="italic" lengthAdjust="spacing" textLength="61" x="657" y="102.1426">«models»</text><text fill="#0C0C0C" font-family="sans-serif" font-size="16" font-weight="bold" lengthAdjust="spacing" textLength="42" x="666.5" y="121.8281">:User</text><rect fill="#90EE90" filter="url(#fmmpcblhivfus)" height="51.7344" style="stroke:#000000;stroke-width:1.5;" width="126" x="739" y="80.6094"/><ellipse cx="757" cy="98.6094" fill="#FFFFFF" rx="11" ry="11" style="stroke:#000000;stroke-width:1.0;"/><path d="M756.4375,99.4219 L756.4375,101.9063 L758.1719,101.9063 Q758.7969,101.9063 759.0547,102.1406 Q759.3125,102.375 759.3125,102.7656 Q759.3125,103.1406 759.0547,103.375 Q758.7969,103.6094 758.1719,103.6094 L754.4688,103.6094 Q753.8594,103.6094 753.5938,103.375 Q753.3281,103.1406 753.3281,102.75 Q753.3281,102.375 753.5938,102.1406 Q753.8594,101.9063 754.4688,101.9063 L754.7344,101.9063 L754.7344,95.25 L754.4688,95.25 Q753.8594,95.25 753.5938,95.0156 Q753.3281,94.7813 753.3281,94.3906 Q753.3281,94.0156 753.5938,93.7813 Q753.8594,93.5469 754.4688,93.5469 L762.4844,93.5469 L762.4844,96.1406 Q762.4844,96.75 762.2422,97.0156 Q762,97.2813 761.625,97.2813 Q761.25,97.2813 761.0156,97.0234 Q760.7813,96.7656 760.7813,96.1406 L760.7813,95.25 L756.4375,95.25 L756.4375,97.7188 L757.9219,97.7188 Q757.9219,97.0469 758.0469,96.8594 Q758.3125,96.4531 758.7813,96.4531 Q759.1563,96.4531 759.3906,96.7188 Q759.625,96.9844 759.625,97.5938 L759.625,99.5469 Q759.625,100.1719 759.3906,100.4297 Q759.1563,100.6875 758.7813,100.6875 Q758.3125,100.6875 758.0469,100.2813 Q757.9219,100.0938 757.9219,99.4219 L756.4375,99.4219 Z " fill="#0C0C0C"/><text fill="#000000" font-family="sans-serif" font-size="14" font-style="italic" lengthAdjust="spacing" textLength="82" x="775" y="102.1426">«controllers»</text><text fill="#0C0C0C" font-family="sans-serif" font-size="16" font-weight="bold" lengthAdjust="spacing" textLength="84" x="774" y="121.8281">companies</text><rect fill="#ADD8E6" filter="url(#fmmpcblhivfus)" height="51.7344" style="stroke:#000000;stroke-width:1.5;" width="122" x="922" y="80.6094"/><ellipse cx="940" cy="98.6094" fill="#FFFFFF" rx="11" ry="11" style="stroke:#000000;stroke-width:1.0;"/><path d="M939.4375,99.4219 L939.4375,101.9063 L941.1719,101.9063 Q941.7969,101.9063 942.0547,102.1406 Q942.3125,102.375 942.3125,102.7656 Q942.3125,103.1406 942.0547,103.375 Q941.7969,103.6094 941.1719,103.6094 L937.4688,103.6094 Q936.8594,103.6094 936.5938,103.375 Q936.3281,103.1406 936.3281,102.75 Q936.3281,102.375 936.5938,102.1406 Q936.8594,101.9063 937.4688,101.9063 L937.7344,101.9063 L937.7344,95.25 L937.4688,95.25 Q936.8594,95.25 936.5938,95.0156 Q936.3281,94.7813 936.3281,94.3906 Q936.3281,94.0156 936.5938,93.7813 Q936.8594,93.5469 937.4688,93.5469 L945.4844,93.5469 L945.4844,96.1406 Q945.4844,96.75 945.2422,97.0156 Q945,97.2813 944.625,97.2813 Q944.25,97.2813 944.0156,97.0234 Q943.7813,96.7656 943.7813,96.1406 L943.7813,95.25 L939.4375,95.25 L939.4375,97.7188 L940.9219,97.7188 Q940.9219,97.0469 941.0469,96.8594 Q941.3125,96.4531 941.7813,96.4531 Q942.1563,96.4531 942.3906,96.7188 Q942.625,96.9844 942.625,97.5938 L942.625,99.5469 Q942.625,100.1719 942.3906,100.4297 Q942.1563,100.6875 941.7813,100.6875 Q941.3125,100.6875 941.0469,100.2813 Q940.9219,100.0938 940.9219,99.4219 L939.4375,99.4219 Z " fill="#0C0C0C"/><text fill="#000000" font-family="sans-serif" font-size="14" font-style="italic" lengthAdjust="spacing" textLength="61" x="966.5" y="102.1426">«models»</text><text fill="#0C0C0C" font-family="sans-serif" font-size="16" font-weight="bold" lengthAdjust="spacing" textLength="80" x="957" y="121.8281">:Company</text><rect fill="#D9D2E9" filter="url(#fmmpcblhivfus)" height="51.7344" style="stroke:#000000;stroke-width:1.5;" width="121" x="1099.5" y="80.6094"/><ellipse cx="1117.5" cy="98.6094" fill="#FFFFFF" rx="11" ry="11" style="stroke:#000000;stroke-width:1.0;"/><path d="M1118.4531,95.25 L1118.4531,101.9063 L1120.1719,101.9063 Q1120.7813,101.9063 1121.0469,102.1406 Q1121.3125,102.375 1121.3125,102.7656 Q1121.3125,103.1406 1121.0469,103.375 Q1120.7813,103.6094 1120.1719,103.6094 L1115.0313,103.6094 Q1114.4219,103.6094 1114.1563,103.375 Q1113.8906,103.1406 1113.8906,102.75 Q1113.8906,102.375 1114.1563,102.1406 Q1114.4219,101.9063 1115.0313,101.9063 L1116.75,101.9063 L1116.75,95.25 L1115.0313,95.25 Q1114.4219,95.25 1114.1563,95.0156 Q1113.8906,94.7813 1113.8906,94.3906 Q1113.8906,94.0156 1114.1563,93.7813 Q1114.4219,93.5469 1115.0313,93.5469 L1120.1719,93.5469 Q1120.7813,93.5469 1121.0469,93.7813 Q1121.3125,94.0156 1121.3125,94.3906 Q1121.3125,94.7813 1121.0469,95.0156 Q1120.7813,95.25 1120.1719,95.25 L1118.4531,95.25 Z " fill="#0C0C0C"/><text fill="#000000" font-family="sans-serif" font-size="14" font-style="italic" lengthAdjust="spacing" textLength="79" x="1134.5" y="102.1426">«data base»</text><text fill="#0C0C0C" font-family="sans-serif" font-size="16" lengthAdjust="spacing" textLength="71" x="1138.5" y="121.8281">MongoDB</text><rect fill="#FFFF99" filter="url(#fmmpcblhivfus)" height="831.6406" style="stroke:#000000;stroke-width:1.0;" width="10" x="81.5" y="216.0781"/><rect fill="#FFFF99" filter="url(#fmmpcblhivfus)" height="70.6016" style="stroke:#000000;stroke-width:1.0;" width="10" x="226.5" y="216.0781"/><rect fill="#FFFF99" filter="url(#fmmpcblhivfus)" height="32.8672" style="stroke:#000000;stroke-width:1.0;" width="10" x="362.5" y="286.6797"/><rect fill="#FFFF99" filter="url(#fmmpcblhivfus)" height="423.0469" style="stroke:#000000;stroke-width:1.0;" width="10" x="500.5" y="319.5469"/><rect fill="#FFFF99" filter="url(#fmmpcblhivfus)" height="98.6016" style="stroke:#000000;stroke-width:1.0;" width="10" x="670.5" y="491.2031"/><rect fill="#FFFF99" filter="url(#fmmpcblhivfus)" height="276.125" style="stroke:#000000;stroke-width:1.0;" width="10" x="799" y="742.5938"/><rect fill="#FFFF99" filter="url(#fmmpcblhivfus)" height="98.6016" style="stroke:#000000;stroke-width:1.0;" width="10" x="980" y="813.1953"/><rect fill="#FFFF99" filter="url(#fmmpcblhivfus)" height="32.8672" style="stroke:#000000;stroke-width:1.0;" width="10" x="1157" y="524.0703"/><rect fill="#FFFF99" filter="url(#fmmpcblhivfus)" height="32.8672" style="stroke:#000000;stroke-width:1.0;" width="10" x="1157" y="846.0625"/><polygon fill="#A80036" points="214.5,212.0781,224.5,216.0781,214.5,220.0781,218.5,216.0781" style="stroke:#A80036;stroke-width:1.0;"/><line style="stroke:#A80036;stroke-width:1.5;" x1="91.5" x2="220.5" y1="216.0781" y2="216.0781"/><text fill="#000000" font-family="sans-serif" font-size="15" font-weight="bold" lengthAdjust="spacing" textLength="18" x="98.5" y="201.3486">[1]</text><text fill="#000000" font-family="sans-serif" font-size="15" lengthAdjust="spacing" textLength="57" x="120.5" y="191.915">req.put('/</text><text fill="#000000" font-family="sans-serif" font-size="15" lengthAdjust="spacing" textLength="99" x="120.5" y="210.7822">companies/:id')</text><polygon fill="#A80036" points="350.5,282.6797,360.5,286.6797,350.5,290.6797,354.5,286.6797" style="stroke:#A80036;stroke-width:1.0;"/><line style="stroke:#A80036;stroke-width:1.5;" x1="231.5" x2="356.5" y1="286.6797" y2="286.6797"/><text fill="#000000" font-family="sans-serif" font-size="15" font-weight="bold" lengthAdjust="spacing" textLength="18" x="238.5" y="262.5166">[2]</text><text fill="#000000" font-family="sans-serif" font-size="15" lengthAdjust="spacing" textLength="60" x="260.5" y="243.6494">app.use('</text><text fill="#000000" font-family="sans-serif" font-size="15" lengthAdjust="spacing" textLength="79" x="260.5" y="262.5166">/companies'</text><text fill="#000000" font-family="sans-serif" font-size="15" lengthAdjust="spacing" textLength="85" x="260.5" y="281.3838">, companies)</text><polygon fill="#A80036" points="488.5,315.5469,498.5,319.5469,488.5,323.5469,492.5,319.5469" style="stroke:#A80036;stroke-width:1.0;"/><line style="stroke:#A80036;stroke-width:1.5;" x1="367.5" x2="494.5" y1="319.5469" y2="319.5469"/><text fill="#000000" font-family="sans-serif" font-size="15" font-weight="bold" lengthAdjust="spacing" textLength="18" x="374.5" y="314.251">[3]</text><text fill="#000000" font-family="sans-serif" font-size="15" lengthAdjust="spacing" textLength="45" x="396.5" y="314.251">protect</text><line style="stroke:#A80036;stroke-width:1.5;" x1="510.5" x2="552.5" y1="352.4141" y2="352.4141"/><line style="stroke:#A80036;stroke-width:1.5;" x1="552.5" x2="552.5" y1="352.4141" y2="365.4141"/><line style="stroke:#A80036;stroke-width:1.5;" x1="511.5" x2="552.5" y1="365.4141" y2="365.4141"/><polygon fill="#A80036" points="521.5,361.4141,511.5,365.4141,521.5,369.4141,517.5,365.4141" style="stroke:#A80036;stroke-width:1.0;"/><text fill="#000000" font-family="sans-serif" font-size="15" font-weight="bold" lengthAdjust="spacing" textLength="18" x="517.5" y="347.1182">[4]</text><text fill="#000000" font-family="sans-serif" font-size="15" lengthAdjust="spacing" textLength="101" x="539.5" y="347.1182">jwt.verify(token)</text><path d="M15,380.4141 L76,380.4141 L76,388.4141 L66,398.4141 L15,398.4141 L15,380.4141 " fill="#FFD700" style="stroke:#000000;stroke-width:1.0;"/><rect fill="none" height="660.3047" style="stroke:#000000;stroke-width:2.0;" width="1229.5" x="15" y="380.4141"/><text fill="#000000" font-family="sans-serif" font-size="13" font-weight="bold" lengthAdjust="spacing" textLength="16" x="30" y="394.9092">alt</text><text fill="#000000" font-family="sans-serif" font-size="11" font-weight="bold" lengthAdjust="spacing" textLength="145" x="91" y="393.833">[no token or invalid token]</text><polygon fill="#A80036" points="102.5,419.6328,92.5,423.6328,102.5,427.6328,98.5,423.6328" style="stroke:#A80036;stroke-width:1.0;"/><line style="stroke:#A80036;stroke-width:1.5;stroke-dasharray:2.0,2.0;" x1="96.5" x2="499.5" y1="423.6328" y2="423.6328"/><text fill="#000000" font-family="sans-serif" font-size="15" font-weight="bold" lengthAdjust="spacing" textLength="18" x="108.5" y="418.3369">[5]</text><text fill="#000000" font-family="sans-serif" font-size="15" lengthAdjust="spacing" textLength="83" x="130.5" y="418.3369">response fail</text><line style="stroke:#000000;stroke-width:1.0;stroke-dasharray:2.0,2.0;" x1="15" x2="1244.5" y1="432.6328" y2="432.6328"/><text fill="#000000" font-family="sans-serif" font-size="11" font-weight="bold" lengthAdjust="spacing" textLength="32" x="20" y="444.0518">[else]</text><polygon fill="#A80036" points="658.5,487.2031,668.5,491.2031,658.5,495.2031,662.5,491.2031" style="stroke:#A80036;stroke-width:1.0;"/><line style="stroke:#A80036;stroke-width:1.5;" x1="510.5" x2="664.5" y1="491.2031" y2="491.2031"/><text fill="#000000" font-family="sans-serif" font-size="15" font-weight="bold" lengthAdjust="spacing" textLength="18" x="517.5" y="476.4736">[6]</text><text fill="#000000" font-family="sans-serif" font-size="15" lengthAdjust="spacing" textLength="51" x="539.5" y="467.04">findById</text><text fill="#000000" font-family="sans-serif" font-size="15" lengthAdjust="spacing" textLength="81" x="539.5" y="485.9072">(decoded.id)</text><polygon fill="#A80036" points="1145,520.0703,1155,524.0703,1145,528.0703,1149,524.0703" style="stroke:#A80036;stroke-width:1.0;"/><line style="stroke:#A80036;stroke-width:1.5;" x1="680.5" x2="1151" y1="524.0703" y2="524.0703"/><text fill="#000000" font-family="sans-serif" font-size="15" font-weight="bold" lengthAdjust="spacing" textLength="18" x="687.5" y="518.7744">[7]</text><text fill="#000000" font-family="sans-serif" font-size="15" lengthAdjust="spacing" textLength="86" x="709.5" y="518.7744">UserSchema</text><polygon fill="#A80036" points="691.5,552.9375,681.5,556.9375,691.5,560.9375,687.5,556.9375" style="stroke:#A80036;stroke-width:1.0;"/><line style="stroke:#A80036;stroke-width:1.5;" x1="685.5" x2="1161" y1="556.9375" y2="556.9375"/><text fill="#000000" font-family="sans-serif" font-size="15" font-weight="bold" lengthAdjust="spacing" textLength="18" x="697.5" y="551.6416">[8]</text><text fill="#000000" font-family="sans-serif" font-size="15" lengthAdjust="spacing" textLength="29" x="719.5" y="551.6416">user</text><polygon fill="#A80036" points="521.5,585.8047,511.5,589.8047,521.5,593.8047,517.5,589.8047" style="stroke:#A80036;stroke-width:1.0;"/><line style="stroke:#A80036;stroke-width:1.5;" x1="515.5" x2="674.5" y1="589.8047" y2="589.8047"/><text fill="#000000" font-family="sans-serif" font-size="15" font-weight="bold" lengthAdjust="spacing" textLength="18" x="527.5" y="584.5088">[9]</text><text fill="#000000" font-family="sans-serif" font-size="15" lengthAdjust="spacing" textLength="29" x="549.5" y="584.5088">user</text><line style="stroke:#A80036;stroke-width:1.5;" x1="510.5" x2="552.5" y1="622.6719" y2="622.6719"/><line style="stroke:#A80036;stroke-width:1.5;" x1="552.5" x2="552.5" y1="622.6719" y2="635.6719"/><line style="stroke:#A80036;stroke-width:1.5;" x1="511.5" x2="552.5" y1="635.6719" y2="635.6719"/><polygon fill="#A80036" points="521.5,631.6719,511.5,635.6719,521.5,639.6719,517.5,635.6719" style="stroke:#A80036;stroke-width:1.0;"/><text fill="#000000" font-family="sans-serif" font-size="15" font-weight="bold" lengthAdjust="spacing" textLength="26" x="517.5" y="617.376">[10]</text><text fill="#000000" font-family="sans-serif" font-size="15" lengthAdjust="spacing" textLength="116" x="547.5" y="617.376">authorize('admin')</text><path d="M25,650.6719 L86,650.6719 L86,658.6719 L76,668.6719 L25,668.6719 L25,650.6719 " fill="#FFD700" style="stroke:#000000;stroke-width:1.0;"/><rect fill="none" height="383.0469" style="stroke:#000000;stroke-width:2.0;" width="1209.5" x="25" y="650.6719"/><text fill="#000000" font-family="sans-serif" font-size="13" font-weight="bold" lengthAdjust="spacing" textLength="16" x="40" y="665.167">alt</text><text fill="#000000" font-family="sans-serif" font-size="11" font-weight="bold" lengthAdjust="spacing" textLength="79" x="101" y="664.0908">[role != admin]</text><polygon fill="#A80036" points="102.5,689.8906,92.5,693.8906,102.5,697.8906,98.5,693.8906" style="stroke:#A80036;stroke-width:1.0;"/><line style="stroke:#A80036;stroke-width:1.5;stroke-dasharray:2.0,2.0;" x1="96.5" x2="499.5" y1="693.8906" y2="693.8906"/><text fill="#000000" font-family="sans-serif" font-size="15" font-weight="bold" lengthAdjust="spacing" textLength="26" x="108.5" y="688.5947">[11]</text><text fill="#000000" font-family="sans-serif" font-size="15" lengthAdjust="spacing" textLength="83" x="138.5" y="688.5947">response fail</text><line style="stroke:#000000;stroke-width:1.0;stroke-dasharray:2.0,2.0;" x1="25" x2="1234.5" y1="702.8906" y2="702.8906"/><text fill="#000000" font-family="sans-serif" font-size="11" font-weight="bold" lengthAdjust="spacing" textLength="32" x="30" y="714.3096">[else]</text><polygon fill="#A80036" points="787,738.5938,797,742.5938,787,746.5938,791,742.5938" style="stroke:#A80036;stroke-width:1.0;"/><line style="stroke:#A80036;stroke-width:1.5;" x1="505.5" x2="793" y1="742.5938" y2="742.5938"/><text fill="#000000" font-family="sans-serif" font-size="15" font-weight="bold" lengthAdjust="spacing" textLength="26" x="512.5" y="737.2979">[12]</text><text fill="#000000" font-family="sans-serif" font-size="15" lengthAdjust="spacing" textLength="107" x="542.5" y="737.2979">updateCompany</text><polygon fill="#A80036" points="968,809.1953,978,813.1953,968,817.1953,972,813.1953" style="stroke:#A80036;stroke-width:1.0;"/><line style="stroke:#A80036;stroke-width:1.5;" x1="809" x2="974" y1="813.1953" y2="813.1953"/><text fill="#000000" font-family="sans-serif" font-size="15" font-weight="bold" lengthAdjust="spacing" textLength="26" x="816" y="789.0322">[13]</text><text fill="#000000" font-family="sans-serif" font-size="15" lengthAdjust="spacing" textLength="122" x="846" y="770.165">findByIdAndUpdate</text><text fill="#000000" font-family="sans-serif" font-size="15" lengthAdjust="spacing" textLength="99" x="846" y="789.0322">(req.params.id,</text><text fill="#000000" font-family="sans-serif" font-size="15" lengthAdjust="spacing" textLength="61" x="850" y="807.8994">req.body)</text><polygon fill="#A80036" points="1145,842.0625,1155,846.0625,1145,850.0625,1149,846.0625" style="stroke:#A80036;stroke-width:1.0;"/><line style="stroke:#A80036;stroke-width:1.5;" x1="990" x2="1151" y1="846.0625" y2="846.0625"/><text fill="#000000" font-family="sans-serif" font-size="15" font-weight="bold" lengthAdjust="spacing" textLength="26" x="997" y="840.7666">[14]</text><text fill="#000000" font-family="sans-serif" font-size="15" lengthAdjust="spacing" textLength="118" x="1027" y="840.7666">CompanySchema</text><polygon fill="#A80036" points="1001,874.9297,991,878.9297,1001,882.9297,997,878.9297" style="stroke:#A80036;stroke-width:1.0;"/><line style="stroke:#A80036;stroke-width:1.5;" x1="995" x2="1161" y1="878.9297" y2="878.9297"/><text fill="#000000" font-family="sans-serif" font-size="15" font-weight="bold" lengthAdjust="spacing" textLength="26" x="1007" y="873.6338">[15]</text><text fill="#000000" font-family="sans-serif" font-size="15" lengthAdjust="spacing" textLength="72" x="1037" y="873.6338">companies</text><polygon fill="#A80036" points="820,907.7969,810,911.7969,820,915.7969,816,911.7969" style="stroke:#A80036;stroke-width:1.0;"/><line style="stroke:#A80036;stroke-width:1.5;" x1="814" x2="984" y1="911.7969" y2="911.7969"/><text fill="#000000" font-family="sans-serif" font-size="15" font-weight="bold" lengthAdjust="spacing" textLength="26" x="826" y="906.501">[16]</text><text fill="#000000" font-family="sans-serif" font-size="15" lengthAdjust="spacing" textLength="72" x="856" y="906.501">companies</text><path d="M35,926.7969 L96,926.7969 L96,934.7969 L86,944.7969 L35,944.7969 L35,926.7969 " fill="#FFD700" style="stroke:#000000;stroke-width:1.0;"/><rect fill="none" height="99.9219" style="stroke:#000000;stroke-width:2.0;" width="844" x="35" y="926.7969"/><text fill="#000000" font-family="sans-serif" font-size="13" font-weight="bold" lengthAdjust="spacing" textLength="16" x="50" y="941.292">alt</text><text fill="#000000" font-family="sans-serif" font-size="11" font-weight="bold" lengthAdjust="spacing" textLength="109" x="111" y="940.2158">[invalid company ID]</text><polygon fill="#A80036" points="102.5,966.0156,92.5,970.0156,102.5,974.0156,98.5,970.0156" style="stroke:#A80036;stroke-width:1.0;"/><line style="stroke:#A80036;stroke-width:1.5;stroke-dasharray:2.0,2.0;" x1="96.5" x2="798" y1="970.0156" y2="970.0156"/><text fill="#000000" font-family="sans-serif" font-size="15" font-weight="bold" lengthAdjust="spacing" textLength="26" x="108.5" y="964.7197">[17]</text><text fill="#000000" font-family="sans-serif" font-size="15" lengthAdjust="spacing" textLength="83" x="138.5" y="964.7197">response fail</text><line style="stroke:#000000;stroke-width:1.0;stroke-dasharray:2.0,2.0;" x1="35" x2="879" y1="979.0156" y2="979.0156"/><text fill="#000000" font-family="sans-serif" font-size="11" font-weight="bold" lengthAdjust="spacing" textLength="32" x="40" y="990.4346">[else]</text><polygon fill="#A80036" points="102.5,1014.7188,92.5,1018.7188,102.5,1022.7188,98.5,1018.7188" style="stroke:#A80036;stroke-width:1.0;"/><line style="stroke:#A80036;stroke-width:1.5;" x1="96.5" x2="803" y1="1018.7188" y2="1018.7188"/><text fill="#000000" font-family="sans-serif" font-size="15" font-weight="bold" lengthAdjust="spacing" textLength="26" x="108.5" y="1013.4229">[18]</text><text fill="#000000" font-family="sans-serif" font-size="15" lengthAdjust="spacing" textLength="121" x="138.5" y="1013.4229">response success</text><!--MD5=[039252f47548e80a74e1918b271218c7]
@startuml
hide footbox
skinparam sequenceArrowThickness 1.5
skinparam fontsize 50
autonumber 1 "<b>[###]"
skinparam component {
skinparam defaultFontSize 16
'FontSize 13
'BackgroundColor<<Apache>> Red
'BorderColor<<Apache>> #FF6655
'FontName Courier
'BorderColor black
'BackgroundColor gold
'ArrowFontName Impact
ArrowFontSize 15
'ArrowColor #FF6655
'ArrowFontColor #777777
}
'skinparam backgroundColor #EEEBDC
Mainframe <b>Update Single Company</b>

actor "<b>User</b>" as user <<(A,#ADD1B2)client>>#White
Box Online Job Fair Registration System #lightgrey
participant "server" as server <<(B,#FFFFFF)main>>#Orange
'participant "auth" as rauth <<(C,#FFFFFF)routes>>#Gold
'participant "bookings" as rbookings <<(C,#FFFFFF)routes>>#Gold
participant "companies" as rcompanies <<(C,#FFFFFF)routes>>#Gold
participant "auth" as middleware_auth <<(E,#FFFFFF)middleware>>#Pink
'participant "<b>auth" as controllers_auth <<(D,#FFFFFF)controllers>>#LightGreen
'participant "<b>bookings" as controllers_bookings <<(D,#FFFFFF)controllers>>#LightGreen
participant "<b>:User" as models_User <<(H,#FFFFFF)models>>#LightBlue
participant "<b>companies" as controllers_companies <<(F,#FFFFFF)controllers>>#LightGreen
participant "<b>:Company" as models_Company <<(F,#FFFFFF)models>>#LightBlue
'participant "<b>:Booking" as models_Booking <<(G,#FFFFFF)models>>#LightBlue
participant "MongoDB" as mongo <<(I,#FFFFFF)data base>>#d9d2e9
end box

|||
user->server: req.put('/\ncompanies/:id')
Activate user
Activate server
'Route'
server->rcompanies: app.use('\n/companies'\n, companies)
DeActivate server
Activate rcompanies
'Controller bookings'
rcompanies->middleware_auth: protect
DeActivate rcompanies
Activate middleware_auth
middleware_auth->middleware_auth: jwt.verify(token)
Alt#Gold #Beige no token or invalid token
middleware_auth- ->user: response fail
Else #LightBlue else
' Else #LightBlue not admin
middleware_auth->models_User: findById\n(decoded.id)
Activate models_User
models_User->mongo: UserSchema
Activate mongo
mongo->models_User: user
DeActivate mongo
models_User->middleware_auth: user
DeActivate models_User
middleware_auth->middleware_auth: authorize('admin')
Alt#Gold #Beige role != admin
middleware_auth- ->user: response fail
' Else #Aquamarine no company with specified id
Else #LightBlue else
middleware_auth->controllers_companies: updateCompany
DeActivate middleware_auth
Activate controllers_companies
controllers_companies->models_Company: findByIdAndUpdate\n(req.params.id,\n req.body)
Activate models_Company
models_Company->mongo: CompanySchema
Activate mongo
mongo->models_Company: companies
DeActivate mongo
models_Company->controllers_companies: companies
DeActivate models_Company
Alt#Gold #Beige invalid company ID
controllers_companies- ->user: response fail
Else #LightBlue else
' Else #Beige Success
controllers_companies->user: response success
DeActivate controllers_companies
End Alt
End Alt
End Alt
DeActivate user
|||


skinparam sequence {
'Box ==============================
BoxBorderColor Black
BoxFontColor Blue
BoxFontSize 16
'LifeLine + Arrow ==============================
'ArrowColor DeepSkyBlue
LifeLineBorderColor Black
LifeLineBackgroundColor #FFFF99
'Participant ==============================
ParticipantBorderColor Black
'ParticipantBackgroundColor DodgerBlue
StereoTypeFontSize 14
ParticipantFontSize 16
ParticipantFontColor #0c0c0c
'ParticipantFontName Impact
'Actor ==============================
ActorBorderColor Black
ActorBackgroundColor White
ActorFontSize 16
ActorFontColor Black
'ActorFontName Aapex
' ===================================
}
@enduml

@startuml
hide footbox
skinparam sequenceArrowThickness 1.5
skinparam fontsize 50
autonumber 1 "<b>[###]"
skinparam component {
skinparam defaultFontSize 16
ArrowFontSize 15
}
Mainframe <b>Update Single Company</b>

actor "<b>User</b>" as user <<(A,#ADD1B2)client>>#White
Box Online Job Fair Registration System #lightgrey
participant "server" as server <<(B,#FFFFFF)main>>#Orange
participant "companies" as rcompanies <<(C,#FFFFFF)routes>>#Gold
participant "auth" as middleware_auth <<(E,#FFFFFF)middleware>>#Pink
participant "<b>:User" as models_User <<(H,#FFFFFF)models>>#LightBlue
participant "<b>companies" as controllers_companies <<(F,#FFFFFF)controllers>>#LightGreen
participant "<b>:Company" as models_Company <<(F,#FFFFFF)models>>#LightBlue
participant "MongoDB" as mongo <<(I,#FFFFFF)data base>>#d9d2e9
end box

|||
user->server: req.put('/\ncompanies/:id')
Activate user
Activate server
server->rcompanies: app.use('\n/companies'\n, companies)
DeActivate server
Activate rcompanies
rcompanies->middleware_auth: protect
DeActivate rcompanies
Activate middleware_auth
middleware_auth->middleware_auth: jwt.verify(token)
Alt#Gold #Beige no token or invalid token
middleware_auth- ->user: response fail
Else #LightBlue else
middleware_auth->models_User: findById\n(decoded.id)
Activate models_User
models_User->mongo: UserSchema
Activate mongo
mongo->models_User: user
DeActivate mongo
models_User->middleware_auth: user
DeActivate models_User
middleware_auth->middleware_auth: authorize('admin')
Alt#Gold #Beige role != admin
middleware_auth- ->user: response fail
Else #LightBlue else
middleware_auth->controllers_companies: updateCompany
DeActivate middleware_auth
Activate controllers_companies
controllers_companies->models_Company: findByIdAndUpdate\n(req.params.id,\n req.body)
Activate models_Company
models_Company->mongo: CompanySchema
Activate mongo
mongo->models_Company: companies
DeActivate mongo
models_Company->controllers_companies: companies
DeActivate models_Company
Alt#Gold #Beige invalid company ID
controllers_companies- ->user: response fail
Else #LightBlue else
controllers_companies->user: response success
DeActivate controllers_companies
End Alt
End Alt
End Alt
DeActivate user
|||


skinparam sequence {
BoxBorderColor Black
BoxFontColor Blue
BoxFontSize 16
LifeLineBorderColor Black
LifeLineBackgroundColor #FFFF99
ParticipantBorderColor Black
StereoTypeFontSize 14
ParticipantFontSize 16
ParticipantFontColor #0c0c0c
ActorBorderColor Black
ActorBackgroundColor White
ActorFontSize 16
ActorFontColor Black
}
@enduml

PlantUML version 1.2022.0(Tue Jan 11 23:16:42 ICT 2022)
(GPL source distribution)
Java Runtime: Java(TM) SE Runtime Environment
JVM: Java HotSpot(TM) 64-Bit Server VM
Default Encoding: Cp1252
Language: en
Country: US
--></g></svg>