<?xml version="1.0" encoding="UTF-8" standalone="no"?><svg xmlns="http://www.w3.org/2000/svg" xmlns:xlink="http://www.w3.org/1999/xlink" contentScriptType="application/ecmascript" contentStyleType="text/css" height="562px" preserveAspectRatio="none" style="width:152px;height:562px;background:#FFFFFF;" version="1.1" viewBox="0 0 152 562" width="152px" zoomAndPan="magnify"><defs><filter height="300%" id="f1u4vda44ayqg2" width="300%" x="-1" y="-1"><feGaussianBlur result="blurOut" stdDeviation="2.0"/><feColorMatrix in="blurOut" result="blurOut2" type="matrix" values="0 0 0 0 0 0 0 0 0 0 0 0 0 0 0 0 0 0 .4 0"/><feOffset dx="4.0" dy="4.0" in="blurOut2" result="blurOut3"/><feBlend in="SourceGraphic" in2="blurOut3" mode="normal"/></filter></defs><g><!--MD5=[c6c2aa411a70f0170997fbec83374a43]
class Booking--><rect codeLine="1" fill="#FEFECE" filter="url(#f1u4vda44ayqg2)" height="117.1797" id="Booking" style="stroke:#A80036;stroke-width:1.5;" width="106" x="19.5" y="240"/><ellipse cx="47.55" cy="256" fill="#ADD1B2" rx="11" ry="11" style="stroke:#A80036;stroke-width:1.0;"/><path d="M46.4094,256.7969 L46.4094,259.2969 L50.7375,259.2969 L50.7375,258.375 Q50.7375,257.7656 50.9797,257.5 Q51.2219,257.2344 51.5969,257.2344 Q51.9719,257.2344 52.2063,257.5 Q52.4406,257.7656 52.4406,258.375 L52.4406,261 L44.4406,261 Q43.8156,261 43.5578,260.7656 Q43.3,260.5313 43.3,260.1406 Q43.3,259.7656 43.5656,259.5313 Q43.8313,259.2969 44.4406,259.2969 L44.7063,259.2969 L44.7063,252.6406 L44.4406,252.6406 Q43.8156,252.6406 43.5578,252.4063 Q43.3,252.1719 43.3,251.7813 Q43.3,251.4063 43.5578,251.1719 Q43.8156,250.9375 44.4406,250.9375 L52.0656,250.9375 L52.0656,253.5313 Q52.0656,254.1406 51.8391,254.3984 Q51.6125,254.6563 51.2219,254.6563 Q50.8469,254.6563 50.6125,254.3984 Q50.3781,254.1406 50.3781,253.5313 L50.3781,252.6406 L46.4094,252.6406 L46.4094,255.0938 L47.8938,255.0938 Q47.8938,254.4375 48.0188,254.25 Q48.2844,253.8438 48.7531,253.8438 Q49.1281,253.8438 49.3625,254.1016 Q49.5969,254.3594 49.5969,254.9688 L49.5969,256.9375 Q49.5969,257.4844 49.4719,257.6719 Q49.2063,258.0625 48.7531,258.0625 Q48.2844,258.0625 48.0188,257.6563 Q47.8938,257.4688 47.8938,256.7969 L46.4094,256.7969 Z " fill="#000000"/><text fill="#000000" font-family="sans-serif" font-size="12" lengthAdjust="spacing" textLength="45" x="64.45" y="260.9102">Booking</text><line style="stroke:#A80036;stroke-width:1.5;" x1="20.5" x2="124.5" y1="272" y2="272"/><ellipse cx="30.5" cy="283" fill="#000000" rx="3" ry="3" style="stroke:#000000;stroke-width:1.0;"/><text fill="#000000" font-family="sans-serif" font-size="11" lengthAdjust="spacing" textLength="73" x="39.5" y="287.4189">bookingId «PK»</text><line style="stroke:#A80036;stroke-width:1.0;" x1="20.5" x2="124.5" y1="293.8359" y2="293.8359"/><ellipse cx="30.5" cy="304.8359" fill="#000000" rx="3" ry="3" style="stroke:#000000;stroke-width:1.0;"/><text fill="#000000" font-family="sans-serif" font-size="11" lengthAdjust="spacing" textLength="43" x="39.5" y="309.2549">apptDate</text><ellipse cx="30.5" cy="318.6719" fill="#000000" rx="3" ry="3" style="stroke:#000000;stroke-width:1.0;"/><text fill="#000000" font-family="sans-serif" font-size="11" lengthAdjust="spacing" textLength="58" x="39.5" y="323.0908">userId «FK»</text><ellipse cx="30.5" cy="332.5078" fill="#000000" rx="3" ry="3" style="stroke:#000000;stroke-width:1.0;"/><text fill="#000000" font-family="sans-serif" font-size="11" lengthAdjust="spacing" textLength="80" x="39.5" y="336.9268">companyId «FK»</text><ellipse cx="30.5" cy="346.3438" fill="#000000" rx="3" ry="3" style="stroke:#000000;stroke-width:1.0;"/><text fill="#000000" font-family="sans-serif" font-size="11" lengthAdjust="spacing" textLength="42" x="39.5" y="350.7627">createAt</text><!--MD5=[02e4b9b7573f1156f41e60aa5b4e25a4]
class Company--><rect codeLine="10" fill="#FEFECE" filter="url(#f1u4vda44ayqg2)" height="131.0156" id="Company" style="stroke:#A80036;stroke-width:1.5;" width="106" x="19.5" y="417"/><ellipse cx="43.95" cy="433" fill="#ADD1B2" rx="11" ry="11" style="stroke:#A80036;stroke-width:1.0;"/><path d="M42.8094,433.7969 L42.8094,436.2969 L47.1375,436.2969 L47.1375,435.375 Q47.1375,434.7656 47.3797,434.5 Q47.6219,434.2344 47.9969,434.2344 Q48.3719,434.2344 48.6063,434.5 Q48.8406,434.7656 48.8406,435.375 L48.8406,438 L40.8406,438 Q40.2156,438 39.9578,437.7656 Q39.7,437.5313 39.7,437.1406 Q39.7,436.7656 39.9656,436.5313 Q40.2313,436.2969 40.8406,436.2969 L41.1063,436.2969 L41.1063,429.6406 L40.8406,429.6406 Q40.2156,429.6406 39.9578,429.4063 Q39.7,429.1719 39.7,428.7813 Q39.7,428.4063 39.9578,428.1719 Q40.2156,427.9375 40.8406,427.9375 L48.4656,427.9375 L48.4656,430.5313 Q48.4656,431.1406 48.2391,431.3984 Q48.0125,431.6563 47.6219,431.6563 Q47.2469,431.6563 47.0125,431.3984 Q46.7781,431.1406 46.7781,430.5313 L46.7781,429.6406 L42.8094,429.6406 L42.8094,432.0938 L44.2938,432.0938 Q44.2938,431.4375 44.4188,431.25 Q44.6844,430.8438 45.1531,430.8438 Q45.5281,430.8438 45.7625,431.1016 Q45.9969,431.3594 45.9969,431.9688 L45.9969,433.9375 Q45.9969,434.4844 45.8719,434.6719 Q45.6063,435.0625 45.1531,435.0625 Q44.6844,435.0625 44.4188,434.6563 Q44.2938,434.4688 44.2938,433.7969 L42.8094,433.7969 Z " fill="#000000"/><text fill="#000000" font-family="sans-serif" font-size="12" lengthAdjust="spacing" textLength="53" x="60.05" y="437.9102">Company</text><line style="stroke:#A80036;stroke-width:1.5;" x1="20.5" x2="124.5" y1="449" y2="449"/><ellipse cx="30.5" cy="460" fill="#000000" rx="3" ry="3" style="stroke:#000000;stroke-width:1.0;"/><text fill="#000000" font-family="sans-serif" font-size="11" lengthAdjust="spacing" textLength="80" x="39.5" y="464.4189">companyId «PK»</text><line style="stroke:#A80036;stroke-width:1.0;" x1="20.5" x2="124.5" y1="470.8359" y2="470.8359"/><ellipse cx="30.5" cy="481.8359" fill="#000000" rx="3" ry="3" style="stroke:#000000;stroke-width:1.0;"/><text fill="#000000" font-family="sans-serif" font-size="11" lengthAdjust="spacing" textLength="26" x="39.5" y="486.2549">name</text><ellipse cx="30.5" cy="495.6719" fill="#000000" rx="3" ry="3" style="stroke:#000000;stroke-width:1.0;"/><text fill="#000000" font-family="sans-serif" font-size="11" lengthAdjust="spacing" textLength="40" x="39.5" y="500.0908">address</text><ellipse cx="30.5" cy="509.5078" fill="#000000" rx="3" ry="3" style="stroke:#000000;stroke-width:1.0;"/><text fill="#000000" font-family="sans-serif" font-size="11" lengthAdjust="spacing" textLength="39" x="39.5" y="513.9268">website</text><ellipse cx="30.5" cy="523.3438" fill="#000000" rx="3" ry="3" style="stroke:#000000;stroke-width:1.0;"/><text fill="#000000" font-family="sans-serif" font-size="11" lengthAdjust="spacing" textLength="11" x="39.5" y="527.7627">tel</text><ellipse cx="30.5" cy="537.1797" fill="#000000" rx="3" ry="3" style="stroke:#000000;stroke-width:1.0;"/><text fill="#000000" font-family="sans-serif" font-size="11" lengthAdjust="spacing" textLength="53" x="39.5" y="541.5986">description</text><!--MD5=[3fd616f346a44cd59a91eb10b19e157c]
class User--><rect codeLine="20" fill="#FEFECE" filter="url(#f1u4vda44ayqg2)" height="172.5234" id="User" style="stroke:#A80036;stroke-width:1.5;" width="131" x="7" y="7"/><ellipse cx="54.75" cy="23" fill="#ADD1B2" rx="11" ry="11" style="stroke:#A80036;stroke-width:1.0;"/><path d="M53.6094,23.7969 L53.6094,26.2969 L57.9375,26.2969 L57.9375,25.375 Q57.9375,24.7656 58.1797,24.5 Q58.4219,24.2344 58.7969,24.2344 Q59.1719,24.2344 59.4063,24.5 Q59.6406,24.7656 59.6406,25.375 L59.6406,28 L51.6406,28 Q51.0156,28 50.7578,27.7656 Q50.5,27.5313 50.5,27.1406 Q50.5,26.7656 50.7656,26.5313 Q51.0313,26.2969 51.6406,26.2969 L51.9063,26.2969 L51.9063,19.6406 L51.6406,19.6406 Q51.0156,19.6406 50.7578,19.4063 Q50.5,19.1719 50.5,18.7813 Q50.5,18.4063 50.7578,18.1719 Q51.0156,17.9375 51.6406,17.9375 L59.2656,17.9375 L59.2656,20.5313 Q59.2656,21.1406 59.0391,21.3984 Q58.8125,21.6563 58.4219,21.6563 Q58.0469,21.6563 57.8125,21.3984 Q57.5781,21.1406 57.5781,20.5313 L57.5781,19.6406 L53.6094,19.6406 L53.6094,22.0938 L55.0938,22.0938 Q55.0938,21.4375 55.2188,21.25 Q55.4844,20.8438 55.9531,20.8438 Q56.3281,20.8438 56.5625,21.1016 Q56.7969,21.3594 56.7969,21.9688 L56.7969,23.9375 Q56.7969,24.4844 56.6719,24.6719 Q56.4063,25.0625 55.9531,25.0625 Q55.4844,25.0625 55.2188,24.6563 Q55.0938,24.4688 55.0938,23.7969 L53.6094,23.7969 Z " fill="#000000"/><text fill="#000000" font-family="sans-serif" font-size="12" lengthAdjust="spacing" textLength="27" x="75.25" y="27.9102">User</text><line style="stroke:#A80036;stroke-width:1.5;" x1="8" x2="137" y1="39" y2="39"/><ellipse cx="18" cy="50" fill="#000000" rx="3" ry="3" style="stroke:#000000;stroke-width:1.0;"/><text fill="#000000" font-family="sans-serif" font-size="11" lengthAdjust="spacing" textLength="58" x="27" y="54.4189">userId «PK»</text><line style="stroke:#A80036;stroke-width:1.0;" x1="8" x2="137" y1="60.8359" y2="60.8359"/><ellipse cx="18" cy="71.8359" fill="#000000" rx="3" ry="3" style="stroke:#000000;stroke-width:1.0;"/><text fill="#000000" font-family="sans-serif" font-size="11" lengthAdjust="spacing" textLength="26" x="27" y="76.2549">name</text><ellipse cx="18" cy="85.6719" fill="#000000" rx="3" ry="3" style="stroke:#000000;stroke-width:1.0;"/><text fill="#000000" font-family="sans-serif" font-size="11" lengthAdjust="spacing" textLength="84" x="27" y="90.0908">telephoneNumber</text><ellipse cx="18" cy="99.5078" fill="#000000" rx="3" ry="3" style="stroke:#000000;stroke-width:1.0;"/><text fill="#000000" font-family="sans-serif" font-size="11" lengthAdjust="spacing" textLength="24" x="27" y="103.9268">email</text><ellipse cx="18" cy="113.3438" fill="#000000" rx="3" ry="3" style="stroke:#000000;stroke-width:1.0;"/><text fill="#000000" font-family="sans-serif" font-size="11" lengthAdjust="spacing" textLength="50" x="27" y="117.7627">password</text><ellipse cx="18" cy="127.1797" fill="#000000" rx="3" ry="3" style="stroke:#000000;stroke-width:1.0;"/><text fill="#000000" font-family="sans-serif" font-size="11" lengthAdjust="spacing" textLength="18" x="27" y="131.5986">role</text><ellipse cx="18" cy="141.0156" fill="#000000" rx="3" ry="3" style="stroke:#000000;stroke-width:1.0;"/><text fill="#000000" font-family="sans-serif" font-size="11" lengthAdjust="spacing" textLength="42" x="27" y="145.4346">createAt</text><ellipse cx="18" cy="154.8516" fill="#000000" rx="3" ry="3" style="stroke:#000000;stroke-width:1.0;"/><text fill="#000000" font-family="sans-serif" font-size="11" lengthAdjust="spacing" textLength="104" x="27" y="159.2705">resetPasswordToken</text><ellipse cx="18" cy="168.6875" fill="#000000" rx="3" ry="3" style="stroke:#000000;stroke-width:1.0;"/><text fill="#000000" font-family="sans-serif" font-size="11" lengthAdjust="spacing" textLength="105" x="27" y="173.1064">resetPasswordExpire</text><!--MD5=[daac21dc2e4f61efbbad4fa01ed3e5bc]
link User to Booking--><path codeLine="33" d="M72.5,188.07 C72.5,202.8 72.5,217.76 72.5,231.69 " fill="none" id="User-Booking" style="stroke:#A80036;stroke-width:1.0;"/><line style="stroke:#A80036;stroke-width:1.0;" x1="72.5" x2="78.5" y1="231.77" y2="239.77"/><line style="stroke:#A80036;stroke-width:1.0;" x1="72.5" x2="66.5" y1="231.77" y2="239.77"/><line style="stroke:#A80036;stroke-width:1.0;" x1="72.5" x2="72.5" y1="231.77" y2="239.77"/><ellipse cx="72.5" cy="225.77" rx="4" ry="4" style="stroke:#A80036;stroke-width:1.0;fill:none;"/><line style="stroke:#A80036;stroke-width:1.0;fill:none;" x1="68.5" x2="76.5" y1="184" y2="184"/><line style="stroke:#A80036;stroke-width:1.0;fill:none;" x1="68.5" x2="76.5" y1="187" y2="187"/><line style="stroke:#A80036;stroke-width:1.0;fill:none;" x1="72.5" x2="72.5" y1="188" y2="180"/><!--MD5=[6e52100576063cf6412e83312152bdd2]
link Booking to Company--><path codeLine="34" d="M72.5,365.2 C72.5,379.22 72.5,394.1 72.5,408.37 " fill="none" id="Booking-Company" style="stroke:#A80036;stroke-width:1.0;"/><line style="stroke:#A80036;stroke-width:1.0;" x1="76.5" x2="68.5" y1="412.69" y2="412.69"/><line style="stroke:#A80036;stroke-width:1.0;" x1="76.5" x2="68.5" y1="409.69" y2="409.69"/><line style="stroke:#A80036;stroke-width:1.0;" x1="72.5" x2="72.5" y1="408.69" y2="416.69"/><line style="stroke:#A80036;stroke-width:1.0;" x1="72.5" x2="66.5" y1="365.09" y2="357.09"/><line style="stroke:#A80036;stroke-width:1.0;" x1="72.5" x2="78.5" y1="365.09" y2="357.09"/><line style="stroke:#A80036;stroke-width:1.0;" x1="72.5" x2="72.5" y1="365.09" y2="357.09"/><ellipse cx="72.5" cy="371.09" rx="4" ry="4" style="stroke:#A80036;stroke-width:1.0;fill:none;"/><!--MD5=[a8be149bf643d531933674673400b134]
@startuml
entity Booking {
  * bookingId <<PK>>
  - -
  * apptDate
  * userId <<FK>>
  * companyId <<FK>>
  * createAt
}

entity Company {
  * companyId <<PK>>
  - -
  * name
  * address
  * website
  * tel
  * description
}

entity User {
  * userId <<PK>>
  - -
  * name
  * telephoneNumber
  * email
  * password
  * role
  * createAt
  * resetPasswordToken
  * resetPasswordExpire
}

User ||- -o{ Booking
Booking }o- -|| Company
@enduml

PlantUML version 1.2022.0(Tue Jan 11 23:16:42 ICT 2022)
(GPL source distribution)
Java Runtime: Java(TM) SE Runtime Environment
JVM: Java HotSpot(TM) 64-Bit Server VM
Default Encoding: Cp1252
Language: en
Country: US
--></g></svg>