<?xml version="1.0" encoding="UTF-8" standalone="no"?><svg xmlns="http://www.w3.org/2000/svg" xmlns:xlink="http://www.w3.org/1999/xlink" contentScriptType="application/ecmascript" contentStyleType="text/css" height="1908px" preserveAspectRatio="none" style="width:1509px;height:1908px;background:#FFFFFF;" version="1.1" viewBox="0 0 1509 1908" width="1509px" zoomAndPan="magnify"><defs><filter height="300%" id="f1l21bydmeozvg" width="300%" x="-1" y="-1"><feGaussianBlur result="blurOut" stdDeviation="2.0"/><feColorMatrix in="blurOut" result="blurOut2" type="matrix" values="0 0 0 0 0 0 0 0 0 0 0 0 0 0 0 0 0 0 .4 0"/><feOffset dx="4.0" dy="4.0" in="blurOut2" result="blurOut3"/><feBlend in="SourceGraphic" in2="blurOut3" mode="normal"/></filter></defs><g><rect fill="#FFFFFF" filter="url(#f1l21bydmeozvg)" height="1891.6719" style="stroke:#000000;stroke-width:1.0;" width="1488.5" x="9" y="5"/><path d="M157,5 L157,18.125 L147,28.125 L9,28.125 " fill="none" style="stroke:#000000;stroke-width:1.0;"/><text fill="#000000" font-family="sans-serif" font-size="16" font-weight="bold" lengthAdjust="spacing" textLength="138" x="12" y="22.6094">Add New Booking</text><rect fill="#D3D3D3" height="1850.5313" style="stroke:#000000;stroke-width:1.0;" width="1250" x="187.5" y="36.125"/><text fill="#0000FF" font-family="sans-serif" font-size="16" font-weight="bold" lengthAdjust="spacing" textLength="273" x="674" y="52.7344">Online Job Fair Registration System</text><rect fill="#FFFF99" filter="url(#f1l21bydmeozvg)" height="1619.0625" style="stroke:#000000;stroke-width:1.0;" width="10" x="101.5" y="149.8594"/><rect fill="#FFFF99" filter="url(#f1l21bydmeozvg)" height="70.6016" style="stroke:#000000;stroke-width:1.0;" width="10" x="232.5" y="256.3281"/><rect fill="#FFFF99" filter="url(#f1l21bydmeozvg)" height="89.4688" style="stroke:#000000;stroke-width:1.0;" width="10" x="366.5" y="326.9297"/><rect fill="#FFFF99" filter="url(#f1l21bydmeozvg)" height="32.8672" style="stroke:#000000;stroke-width:1.0;" width="10" x="516.5" y="416.3984"/><rect fill="#FFFF99" filter="url(#f1l21bydmeozvg)" height="472.2891" style="stroke:#000000;stroke-width:1.0;" width="10" x="648" y="449.2656"/><rect fill="#FFFF99" filter="url(#f1l21bydmeozvg)" height="804.3672" style="stroke:#000000;stroke-width:1.0;" width="10" x="801" y="921.5547"/><rect fill="#FFFF99" filter="url(#f1l21bydmeozvg)" height="98.6016" style="stroke:#000000;stroke-width:1.0;" width="10" x="971" y="1373.7422"/><rect fill="#FFFF99" filter="url(#f1l21bydmeozvg)" height="98.6016" style="stroke:#000000;stroke-width:1.0;" width="10" x="971" y="1594.4531"/><rect fill="#FFFF99" filter="url(#f1l21bydmeozvg)" height="98.6016" style="stroke:#000000;stroke-width:1.0;" width="10" x="1102.5" y="992.1563"/><rect fill="#FFFF99" filter="url(#f1l21bydmeozvg)" height="98.6016" style="stroke:#000000;stroke-width:1.0;" width="10" x="1229" y="636.1094"/><rect fill="#FFFF99" filter="url(#f1l21bydmeozvg)" height="32.8672" style="stroke:#000000;stroke-width:1.0;" width="10" x="1366" y="668.9766"/><rect fill="#FFFF99" filter="url(#f1l21bydmeozvg)" height="32.8672" style="stroke:#000000;stroke-width:1.0;" width="10" x="1366" y="1025.0234"/><rect fill="#FFFF99" filter="url(#f1l21bydmeozvg)" height="32.8672" style="stroke:#000000;stroke-width:1.0;" width="10" x="1366" y="1406.6094"/><rect fill="#FFFF99" filter="url(#f1l21bydmeozvg)" height="32.8672" style="stroke:#000000;stroke-width:1.0;" width="10" x="1366" y="1627.3203"/><rect fill="#F5F5DC" filter="url(#f1l21bydmeozvg)" height="1251.7891" style="stroke:#000000;stroke-width:2.0;" width="1468.5" x="15" y="510.1328"/><rect fill="#ADD8E6" height="1191.6719" style="stroke:none;stroke-width:1.0;" width="1468.5" x="15" y="570.25"/><rect fill="#F5F5DC" filter="url(#f1l21bydmeozvg)" height="940.4766" style="stroke:#000000;stroke-width:2.0;" width="1448.5" x="25" y="814.4453"/><rect fill="#ADD8E6" height="880.3594" style="stroke:none;stroke-width:1.0;" width="1448.5" x="25" y="874.5625"/><rect fill="#F5F5DC" filter="url(#f1l21bydmeozvg)" height="642.1641" style="stroke:#000000;stroke-width:2.0;" width="1428.5" x="35" y="1105.7578"/><rect fill="#ADD8E6" height="582.0469" style="stroke:none;stroke-width:1.0;" width="1428.5" x="35" y="1165.875"/><rect fill="#F5F5DC" filter="url(#f1l21bydmeozvg)" height="545.9219" style="stroke:#000000;stroke-width:2.0;" width="1408.5" x="45" y="1195"/><rect fill="#ADD8E6" height="414.1719" style="stroke:none;stroke-width:1.0;" width="1408.5" x="45" y="1326.75"/><rect fill="#F5F5DC" filter="url(#f1l21bydmeozvg)" height="246.5781" style="stroke:#000000;stroke-width:2.0;" width="1388.5" x="55" y="1487.3438"/><rect fill="#ADD8E6" height="186.4609" style="stroke:none;stroke-width:1.0;" width="1388.5" x="55" y="1547.4609"/><line style="stroke:#000000;stroke-width:1.0;stroke-dasharray:5.0,5.0;" x1="106" x2="106" y1="139.8594" y2="1778.9219"/><line style="stroke:#000000;stroke-width:1.0;stroke-dasharray:5.0,5.0;" x1="237.5" x2="237.5" y1="139.8594" y2="1778.9219"/><line style="stroke:#000000;stroke-width:1.0;stroke-dasharray:5.0,5.0;" x1="371" x2="371" y1="139.8594" y2="1778.9219"/><line style="stroke:#000000;stroke-width:1.0;stroke-dasharray:5.0,5.0;" x1="521.5" x2="521.5" y1="139.8594" y2="1778.9219"/><line style="stroke:#000000;stroke-width:1.0;stroke-dasharray:5.0,5.0;" x1="652.5" x2="652.5" y1="139.8594" y2="1778.9219"/><line style="stroke:#000000;stroke-width:1.0;stroke-dasharray:5.0,5.0;" x1="806" x2="806" y1="139.8594" y2="1778.9219"/><line style="stroke:#000000;stroke-width:1.0;stroke-dasharray:5.0,5.0;" x1="975.5" x2="975.5" y1="139.8594" y2="1778.9219"/><line style="stroke:#000000;stroke-width:1.0;stroke-dasharray:5.0,5.0;" x1="1107.5" x2="1107.5" y1="139.8594" y2="1778.9219"/><line style="stroke:#000000;stroke-width:1.0;stroke-dasharray:5.0,5.0;" x1="1233.5" x2="1233.5" y1="139.8594" y2="1778.9219"/><line style="stroke:#000000;stroke-width:1.0;stroke-dasharray:5.0,5.0;" x1="1370.5" x2="1370.5" y1="139.8594" y2="1778.9219"/><ellipse cx="76" cy="113.125" fill="#ADD1B2" rx="11" ry="11" style="stroke:none;stroke-width:1.0;"/><path d="M77.7656,114.5469 L73.875,114.5469 L73.4844,115.5156 L73.875,115.5156 Q74.4531,115.5156 74.6953,115.7422 Q74.9375,115.9688 74.9375,116.3281 Q74.9375,116.6719 74.6953,116.8984 Q74.4531,117.125 73.875,117.125 L71.7188,117.125 Q71.1406,117.125 70.8906,116.8984 Q70.6406,116.6719 70.6406,116.3125 Q70.6406,115.9531 70.8984,115.7266 Q71.1563,115.5 71.75,115.5156 L74.2656,109.25 L73.2188,109.25 Q72.6406,109.25 72.3984,109.0313 Q72.1563,108.8125 72.1563,108.4531 Q72.1563,108.0938 72.3984,107.8672 Q72.6406,107.6406 73.2188,107.6406 L76.6875,107.6563 L79.875,115.5156 Q80.4375,115.5156 80.6094,115.6406 Q80.9688,115.9063 80.9688,116.3281 Q80.9688,116.6719 80.7266,116.8984 Q80.4844,117.125 79.9063,117.125 L77.75,117.125 Q77.1719,117.125 76.9297,116.8984 Q76.6875,116.6719 76.6875,116.3125 Q76.6875,115.9688 76.9297,115.7422 Q77.1719,115.5156 77.75,115.5156 L78.1406,115.5156 L77.7656,114.5469 Z M77.0938,112.9375 L75.8125,109.7656 L74.5156,112.9375 L77.0938,112.9375 Z " fill="#000000"/><text fill="#000000" font-family="sans-serif" font-size="14" font-style="italic" lengthAdjust="spacing" textLength="49" x="93" y="116.6582">«client»</text><text fill="#000000" font-family="sans-serif" font-size="16" font-weight="bold" lengthAdjust="spacing" textLength="36" x="99.5" y="136.3438">User</text><ellipse cx="106.5" cy="45.125" fill="#FFFFFF" filter="url(#f1l21bydmeozvg)" rx="8" ry="8" style="stroke:#000000;stroke-width:2.0;"/><path d="M106.5,53.125 L106.5,80.125 M93.5,61.125 L119.5,61.125 M106.5,80.125 L93.5,95.125 M106.5,80.125 L119.5,95.125 " fill="none" filter="url(#f1l21bydmeozvg)" style="stroke:#000000;stroke-width:2.0;"/><ellipse cx="76" cy="1788.9219" fill="#ADD1B2" rx="11" ry="11" style="stroke:none;stroke-width:1.0;"/><path d="M77.7656,1790.3438 L73.875,1790.3438 L73.4844,1791.3125 L73.875,1791.3125 Q74.4531,1791.3125 74.6953,1791.5391 Q74.9375,1791.7656 74.9375,1792.125 Q74.9375,1792.4688 74.6953,1792.6953 Q74.4531,1792.9219 73.875,1792.9219 L71.7188,1792.9219 Q71.1406,1792.9219 70.8906,1792.6953 Q70.6406,1792.4688 70.6406,1792.1094 Q70.6406,1791.75 70.8984,1791.5234 Q71.1563,1791.2969 71.75,1791.3125 L74.2656,1785.0469 L73.2188,1785.0469 Q72.6406,1785.0469 72.3984,1784.8281 Q72.1563,1784.6094 72.1563,1784.25 Q72.1563,1783.8906 72.3984,1783.6641 Q72.6406,1783.4375 73.2188,1783.4375 L76.6875,1783.4531 L79.875,1791.3125 Q80.4375,1791.3125 80.6094,1791.4375 Q80.9688,1791.7031 80.9688,1792.125 Q80.9688,1792.4688 80.7266,1792.6953 Q80.4844,1792.9219 79.9063,1792.9219 L77.75,1792.9219 Q77.1719,1792.9219 76.9297,1792.6953 Q76.6875,1792.4688 76.6875,1792.1094 Q76.6875,1791.7656 76.9297,1791.5391 Q77.1719,1791.3125 77.75,1791.3125 L78.1406,1791.3125 L77.7656,1790.3438 Z M77.0938,1788.7344 L75.8125,1785.5625 L74.5156,1788.7344 L77.0938,1788.7344 Z " fill="#000000"/><text fill="#000000" font-family="sans-serif" font-size="14" font-style="italic" lengthAdjust="spacing" textLength="49" x="93" y="1792.4551">«client»</text><text fill="#000000" font-family="sans-serif" font-size="16" font-weight="bold" lengthAdjust="spacing" textLength="36" x="99.5" y="1812.1406">User</text><ellipse cx="106.5" cy="1825.6563" fill="#FFFFFF" filter="url(#f1l21bydmeozvg)" rx="8" ry="8" style="stroke:#000000;stroke-width:2.0;"/><path d="M106.5,1833.6563 L106.5,1860.6563 M93.5,1841.6563 L119.5,1841.6563 M106.5,1860.6563 L93.5,1875.6563 M106.5,1860.6563 L119.5,1875.6563 " fill="none" filter="url(#f1l21bydmeozvg)" style="stroke:#000000;stroke-width:2.0;"/><rect fill="#FFA500" filter="url(#f1l21bydmeozvg)" height="51.7344" style="stroke:#000000;stroke-width:1.5;" width="88" x="191.5" y="83.125"/><ellipse cx="209.5" cy="101.125" fill="#FFFFFF" rx="11" ry="11" style="stroke:#000000;stroke-width:1.0;"/><path d="M207.5313,104.0156 L207.5313,97.75 L207.2813,97.75 Q206.7031,97.75 206.4609,97.5313 Q206.2188,97.3125 206.2188,96.9531 Q206.2188,96.5938 206.4609,96.3672 Q206.7031,96.1406 207.2813,96.1406 L211.2969,96.1406 Q212.7344,96.1406 213.6094,96.9453 Q214.4844,97.75 214.4844,98.8438 Q214.4844,99.375 214.2813,99.8359 Q214.0781,100.2969 213.6719,100.6875 Q214.4219,101.1406 214.8047,101.7422 Q215.1875,102.3438 215.1875,103.1094 Q215.1875,103.7188 214.9063,104.25 Q214.7031,104.6406 214.4063,104.875 Q214.0156,105.2031 213.4375,105.4141 Q212.8594,105.625 211.9844,105.625 L207.2813,105.625 Q206.7031,105.625 206.4609,105.3984 Q206.2188,105.1719 206.2188,104.8125 Q206.2188,104.4688 206.4688,104.2422 Q206.7188,104.0156 207.2813,104.0156 L207.5313,104.0156 Z M209.1406,100.0781 L210.8906,100.0781 Q211.8438,100.0781 212.4688,99.6094 Q212.8906,99.2813 212.8906,98.8125 Q212.8906,98.3906 212.4922,98.0703 Q212.0938,97.75 211.2188,97.75 L209.1406,97.75 L209.1406,100.0781 Z M209.1406,104.0156 L211.9063,104.0156 Q212.875,104.0156 213.2813,103.7344 Q213.5781,103.5156 213.5781,103.1094 Q213.5781,102.625 212.9766,102.1563 Q212.375,101.6875 211.25,101.6875 L209.1406,101.6875 L209.1406,104.0156 Z " fill="#0C0C0C"/><text fill="#000000" font-family="sans-serif" font-size="14" font-style="italic" lengthAdjust="spacing" textLength="46" x="226.5" y="104.6582">«main»</text><text fill="#0C0C0C" font-family="sans-serif" font-size="16" lengthAdjust="spacing" textLength="43" x="228" y="124.3438">server</text><rect fill="#FFA500" filter="url(#f1l21bydmeozvg)" height="51.7344" style="stroke:#000000;stroke-width:1.5;" width="88" x="191.5" y="1777.9219"/><ellipse cx="209.5" cy="1795.9219" fill="#FFFFFF" rx="11" ry="11" style="stroke:#000000;stroke-width:1.0;"/><path d="M207.5313,1798.8125 L207.5313,1792.5469 L207.2813,1792.5469 Q206.7031,1792.5469 206.4609,1792.3281 Q206.2188,1792.1094 206.2188,1791.75 Q206.2188,1791.3906 206.4609,1791.1641 Q206.7031,1790.9375 207.2813,1790.9375 L211.2969,1790.9375 Q212.7344,1790.9375 213.6094,1791.7422 Q214.4844,1792.5469 214.4844,1793.6406 Q214.4844,1794.1719 214.2813,1794.6328 Q214.0781,1795.0938 213.6719,1795.4844 Q214.4219,1795.9375 214.8047,1796.5391 Q215.1875,1797.1406 215.1875,1797.9063 Q215.1875,1798.5156 214.9063,1799.0469 Q214.7031,1799.4375 214.4063,1799.6719 Q214.0156,1800 213.4375,1800.2109 Q212.8594,1800.4219 211.9844,1800.4219 L207.2813,1800.4219 Q206.7031,1800.4219 206.4609,1800.1953 Q206.2188,1799.9688 206.2188,1799.6094 Q206.2188,1799.2656 206.4688,1799.0391 Q206.7188,1798.8125 207.2813,1798.8125 L207.5313,1798.8125 Z M209.1406,1794.875 L210.8906,1794.875 Q211.8438,1794.875 212.4688,1794.4063 Q212.8906,1794.0781 212.8906,1793.6094 Q212.8906,1793.1875 212.4922,1792.8672 Q212.0938,1792.5469 211.2188,1792.5469 L209.1406,1792.5469 L209.1406,1794.875 Z M209.1406,1798.8125 L211.9063,1798.8125 Q212.875,1798.8125 213.2813,1798.5313 Q213.5781,1798.3125 213.5781,1797.9063 Q213.5781,1797.4219 212.9766,1796.9531 Q212.375,1796.4844 211.25,1796.4844 L209.1406,1796.4844 L209.1406,1798.8125 Z " fill="#0C0C0C"/><text fill="#000000" font-family="sans-serif" font-size="14" font-style="italic" lengthAdjust="spacing" textLength="46" x="226.5" y="1799.4551">«main»</text><text fill="#0C0C0C" font-family="sans-serif" font-size="16" lengthAdjust="spacing" textLength="43" x="228" y="1819.1406">server</text><rect fill="#FFD700" filter="url(#f1l21bydmeozvg)" height="51.7344" style="stroke:#000000;stroke-width:1.5;" width="119" x="310" y="83.125"/><ellipse cx="328" cy="101.125" fill="#FFFFFF" rx="11" ry="11" style="stroke:#000000;stroke-width:1.0;"/><path d="M330.5625,97.0625 Q330.7188,96.8594 330.8906,96.7578 Q331.0625,96.6563 331.2656,96.6563 Q331.625,96.6563 331.8438,96.8984 Q332.0625,97.1406 332.0625,97.7188 L332.0625,99.0781 Q332.0625,99.6563 331.8438,99.8984 Q331.625,100.1406 331.2656,100.1406 Q330.9531,100.1406 330.75,99.9688 Q330.5625,99.7813 330.4688,99.2969 Q330.4063,98.9688 330.25,98.7813 Q329.9219,98.4375 329.3516,98.2266 Q328.7813,98.0156 328.2031,98.0156 Q327.4844,98.0156 326.8828,98.3281 Q326.2813,98.6406 325.8203,99.3438 Q325.3594,100.0469 325.3594,101.0156 L325.3594,102.0469 Q325.3594,103.2031 326.1953,103.9766 Q327.0313,104.75 328.5313,104.75 Q329.4219,104.75 330.0313,104.5156 Q330.3906,104.375 330.7969,103.9531 Q331.0469,103.7031 331.1875,103.6328 Q331.3281,103.5625 331.5156,103.5625 Q331.8281,103.5625 332.0703,103.8047 Q332.3125,104.0469 332.3125,104.375 Q332.3125,104.7031 331.9844,105.0781 Q331.5156,105.625 330.7656,105.9375 Q329.75,106.3594 328.5313,106.3594 Q327.1094,106.3594 325.9688,105.7656 Q325.0469,105.2969 324.3984,104.2891 Q323.75,103.2813 323.75,102.0781 L323.75,101 Q323.75,99.75 324.3359,98.6641 Q324.9219,97.5781 325.9531,96.9922 Q326.9844,96.4063 328.1406,96.4063 Q328.8281,96.4063 329.4375,96.5703 Q330.0469,96.7344 330.5625,97.0625 Z " fill="#0C0C0C"/><text fill="#000000" font-family="sans-serif" font-size="14" font-style="italic" lengthAdjust="spacing" textLength="56" x="355.5" y="104.6582">«routes»</text><text fill="#0C0C0C" font-family="sans-serif" font-size="16" lengthAdjust="spacing" textLength="77" x="345" y="124.3438">companies</text><rect fill="#FFD700" filter="url(#f1l21bydmeozvg)" height="51.7344" style="stroke:#000000;stroke-width:1.5;" width="119" x="310" y="1777.9219"/><ellipse cx="328" cy="1795.9219" fill="#FFFFFF" rx="11" ry="11" style="stroke:#000000;stroke-width:1.0;"/><path d="M330.5625,1791.8594 Q330.7188,1791.6563 330.8906,1791.5547 Q331.0625,1791.4531 331.2656,1791.4531 Q331.625,1791.4531 331.8438,1791.6953 Q332.0625,1791.9375 332.0625,1792.5156 L332.0625,1793.875 Q332.0625,1794.4531 331.8438,1794.6953 Q331.625,1794.9375 331.2656,1794.9375 Q330.9531,1794.9375 330.75,1794.7656 Q330.5625,1794.5781 330.4688,1794.0938 Q330.4063,1793.7656 330.25,1793.5781 Q329.9219,1793.2344 329.3516,1793.0234 Q328.7813,1792.8125 328.2031,1792.8125 Q327.4844,1792.8125 326.8828,1793.125 Q326.2813,1793.4375 325.8203,1794.1406 Q325.3594,1794.8438 325.3594,1795.8125 L325.3594,1796.8438 Q325.3594,1798 326.1953,1798.7734 Q327.0313,1799.5469 328.5313,1799.5469 Q329.4219,1799.5469 330.0313,1799.3125 Q330.3906,1799.1719 330.7969,1798.75 Q331.0469,1798.5 331.1875,1798.4297 Q331.3281,1798.3594 331.5156,1798.3594 Q331.8281,1798.3594 332.0703,1798.6016 Q332.3125,1798.8438 332.3125,1799.1719 Q332.3125,1799.5 331.9844,1799.875 Q331.5156,1800.4219 330.7656,1800.7344 Q329.75,1801.1563 328.5313,1801.1563 Q327.1094,1801.1563 325.9688,1800.5625 Q325.0469,1800.0938 324.3984,1799.0859 Q323.75,1798.0781 323.75,1796.875 L323.75,1795.7969 Q323.75,1794.5469 324.3359,1793.4609 Q324.9219,1792.375 325.9531,1791.7891 Q326.9844,1791.2031 328.1406,1791.2031 Q328.8281,1791.2031 329.4375,1791.3672 Q330.0469,1791.5313 330.5625,1791.8594 Z " fill="#0C0C0C"/><text fill="#000000" font-family="sans-serif" font-size="14" font-style="italic" lengthAdjust="spacing" textLength="56" x="355.5" y="1799.4551">«routes»</text><text fill="#0C0C0C" font-family="sans-serif" font-size="16" lengthAdjust="spacing" textLength="77" x="345" y="1819.1406">companies</text><rect fill="#FFD700" filter="url(#f1l21bydmeozvg)" height="51.7344" style="stroke:#000000;stroke-width:1.5;" width="106" x="466.5" y="83.125"/><ellipse cx="484.5" cy="101.125" fill="#FFFFFF" rx="11" ry="11" style="stroke:#000000;stroke-width:1.0;"/><path d="M487.0625,97.0625 Q487.2188,96.8594 487.3906,96.7578 Q487.5625,96.6563 487.7656,96.6563 Q488.125,96.6563 488.3438,96.8984 Q488.5625,97.1406 488.5625,97.7188 L488.5625,99.0781 Q488.5625,99.6563 488.3438,99.8984 Q488.125,100.1406 487.7656,100.1406 Q487.4531,100.1406 487.25,99.9688 Q487.0625,99.7813 486.9688,99.2969 Q486.9063,98.9688 486.75,98.7813 Q486.4219,98.4375 485.8516,98.2266 Q485.2813,98.0156 484.7031,98.0156 Q483.9844,98.0156 483.3828,98.3281 Q482.7813,98.6406 482.3203,99.3438 Q481.8594,100.0469 481.8594,101.0156 L481.8594,102.0469 Q481.8594,103.2031 482.6953,103.9766 Q483.5313,104.75 485.0313,104.75 Q485.9219,104.75 486.5313,104.5156 Q486.8906,104.375 487.2969,103.9531 Q487.5469,103.7031 487.6875,103.6328 Q487.8281,103.5625 488.0156,103.5625 Q488.3281,103.5625 488.5703,103.8047 Q488.8125,104.0469 488.8125,104.375 Q488.8125,104.7031 488.4844,105.0781 Q488.0156,105.625 487.2656,105.9375 Q486.25,106.3594 485.0313,106.3594 Q483.6094,106.3594 482.4688,105.7656 Q481.5469,105.2969 480.8984,104.2891 Q480.25,103.2813 480.25,102.0781 L480.25,101 Q480.25,99.75 480.8359,98.6641 Q481.4219,97.5781 482.4531,96.9922 Q483.4844,96.4063 484.6406,96.4063 Q485.3281,96.4063 485.9375,96.5703 Q486.5469,96.7344 487.0625,97.0625 Z " fill="#0C0C0C"/><text fill="#000000" font-family="sans-serif" font-size="14" font-style="italic" lengthAdjust="spacing" textLength="56" x="505.5" y="104.6582">«routes»</text><text fill="#0C0C0C" font-family="sans-serif" font-size="16" lengthAdjust="spacing" textLength="64" x="501.5" y="124.3438">bookings</text><rect fill="#FFD700" filter="url(#f1l21bydmeozvg)" height="51.7344" style="stroke:#000000;stroke-width:1.5;" width="106" x="466.5" y="1777.9219"/><ellipse cx="484.5" cy="1795.9219" fill="#FFFFFF" rx="11" ry="11" style="stroke:#000000;stroke-width:1.0;"/><path d="M487.0625,1791.8594 Q487.2188,1791.6563 487.3906,1791.5547 Q487.5625,1791.4531 487.7656,1791.4531 Q488.125,1791.4531 488.3438,1791.6953 Q488.5625,1791.9375 488.5625,1792.5156 L488.5625,1793.875 Q488.5625,1794.4531 488.3438,1794.6953 Q488.125,1794.9375 487.7656,1794.9375 Q487.4531,1794.9375 487.25,1794.7656 Q487.0625,1794.5781 486.9688,1794.0938 Q486.9063,1793.7656 486.75,1793.5781 Q486.4219,1793.2344 485.8516,1793.0234 Q485.2813,1792.8125 484.7031,1792.8125 Q483.9844,1792.8125 483.3828,1793.125 Q482.7813,1793.4375 482.3203,1794.1406 Q481.8594,1794.8438 481.8594,1795.8125 L481.8594,1796.8438 Q481.8594,1798 482.6953,1798.7734 Q483.5313,1799.5469 485.0313,1799.5469 Q485.9219,1799.5469 486.5313,1799.3125 Q486.8906,1799.1719 487.2969,1798.75 Q487.5469,1798.5 487.6875,1798.4297 Q487.8281,1798.3594 488.0156,1798.3594 Q488.3281,1798.3594 488.5703,1798.6016 Q488.8125,1798.8438 488.8125,1799.1719 Q488.8125,1799.5 488.4844,1799.875 Q488.0156,1800.4219 487.2656,1800.7344 Q486.25,1801.1563 485.0313,1801.1563 Q483.6094,1801.1563 482.4688,1800.5625 Q481.5469,1800.0938 480.8984,1799.0859 Q480.25,1798.0781 480.25,1796.875 L480.25,1795.7969 Q480.25,1794.5469 480.8359,1793.4609 Q481.4219,1792.375 482.4531,1791.7891 Q483.4844,1791.2031 484.6406,1791.2031 Q485.3281,1791.2031 485.9375,1791.3672 Q486.5469,1791.5313 487.0625,1791.8594 Z " fill="#0C0C0C"/><text fill="#000000" font-family="sans-serif" font-size="14" font-style="italic" lengthAdjust="spacing" textLength="56" x="505.5" y="1799.4551">«routes»</text><text fill="#0C0C0C" font-family="sans-serif" font-size="16" lengthAdjust="spacing" textLength="64" x="501.5" y="1819.1406">bookings</text><rect fill="#FFC0CB" filter="url(#f1l21bydmeozvg)" height="51.7344" style="stroke:#000000;stroke-width:1.5;" width="129" x="586.5" y="83.125"/><ellipse cx="604.5" cy="101.125" fill="#FFFFFF" rx="11" ry="11" style="stroke:#000000;stroke-width:1.0;"/><path d="M603.6563,101.6719 L603.6563,104.0156 L607.75,104.0156 L607.75,103.1563 Q607.75,102.5781 607.9688,102.3281 Q608.1875,102.0781 608.5469,102.0781 Q608.9063,102.0781 609.125,102.3281 Q609.3438,102.5781 609.3438,103.1563 L609.3438,105.625 L601.8125,105.625 Q601.2344,105.625 600.9844,105.3984 Q600.7344,105.1719 600.7344,104.8125 Q600.7344,104.4688 600.9844,104.2422 Q601.2344,104.0156 601.8125,104.0156 L602.0625,104.0156 L602.0625,97.75 L601.8125,97.75 Q601.2344,97.75 600.9844,97.5313 Q600.7344,97.3125 600.7344,96.9531 Q600.7344,96.5938 600.9844,96.3672 Q601.2344,96.1406 601.8125,96.1406 L609,96.1563 L609,98.5938 Q609,99.1563 608.7813,99.4063 Q608.5625,99.6563 608.2031,99.6563 Q607.8438,99.6563 607.6172,99.4141 Q607.3906,99.1719 607.3906,98.5938 L607.3906,97.75 L603.6563,97.75 L603.6563,100.0625 L605.0625,100.0625 Q605.0625,99.4375 605.1875,99.2656 Q605.4219,98.875 605.875,98.875 Q606.2188,98.875 606.4453,99.125 Q606.6719,99.375 606.6719,99.9531 L606.6719,101.7969 Q606.6719,102.3125 606.5469,102.5 Q606.2969,102.8594 605.875,102.8594 Q605.4219,102.8594 605.1875,102.4844 Q605.0625,102.2969 605.0625,101.6719 L603.6563,101.6719 Z " fill="#0C0C0C"/><text fill="#000000" font-family="sans-serif" font-size="14" font-style="italic" lengthAdjust="spacing" textLength="87" x="621.5" y="104.6582">«middleware»</text><text fill="#0C0C0C" font-family="sans-serif" font-size="16" lengthAdjust="spacing" textLength="29" x="650.5" y="124.3438">auth</text><rect fill="#FFC0CB" filter="url(#f1l21bydmeozvg)" height="51.7344" style="stroke:#000000;stroke-width:1.5;" width="129" x="586.5" y="1777.9219"/><ellipse cx="604.5" cy="1795.9219" fill="#FFFFFF" rx="11" ry="11" style="stroke:#000000;stroke-width:1.0;"/><path d="M603.6563,1796.4688 L603.6563,1798.8125 L607.75,1798.8125 L607.75,1797.9531 Q607.75,1797.375 607.9688,1797.125 Q608.1875,1796.875 608.5469,1796.875 Q608.9063,1796.875 609.125,1797.125 Q609.3438,1797.375 609.3438,1797.9531 L609.3438,1800.4219 L601.8125,1800.4219 Q601.2344,1800.4219 600.9844,1800.1953 Q600.7344,1799.9688 600.7344,1799.6094 Q600.7344,1799.2656 600.9844,1799.0391 Q601.2344,1798.8125 601.8125,1798.8125 L602.0625,1798.8125 L602.0625,1792.5469 L601.8125,1792.5469 Q601.2344,1792.5469 600.9844,1792.3281 Q600.7344,1792.1094 600.7344,1791.75 Q600.7344,1791.3906 600.9844,1791.1641 Q601.2344,1790.9375 601.8125,1790.9375 L609,1790.9531 L609,1793.3906 Q609,1793.9531 608.7813,1794.2031 Q608.5625,1794.4531 608.2031,1794.4531 Q607.8438,1794.4531 607.6172,1794.2109 Q607.3906,1793.9688 607.3906,1793.3906 L607.3906,1792.5469 L603.6563,1792.5469 L603.6563,1794.8594 L605.0625,1794.8594 Q605.0625,1794.2344 605.1875,1794.0625 Q605.4219,1793.6719 605.875,1793.6719 Q606.2188,1793.6719 606.4453,1793.9219 Q606.6719,1794.1719 606.6719,1794.75 L606.6719,1796.5938 Q606.6719,1797.1094 606.5469,1797.2969 Q606.2969,1797.6563 605.875,1797.6563 Q605.4219,1797.6563 605.1875,1797.2813 Q605.0625,1797.0938 605.0625,1796.4688 L603.6563,1796.4688 Z " fill="#0C0C0C"/><text fill="#000000" font-family="sans-serif" font-size="14" font-style="italic" lengthAdjust="spacing" textLength="87" x="621.5" y="1799.4551">«middleware»</text><text fill="#0C0C0C" font-family="sans-serif" font-size="16" lengthAdjust="spacing" textLength="29" x="650.5" y="1819.1406">auth</text><rect fill="#90EE90" filter="url(#f1l21bydmeozvg)" height="51.7344" style="stroke:#000000;stroke-width:1.5;" width="124" x="742" y="83.125"/><ellipse cx="760" cy="101.125" fill="#FFFFFF" rx="11" ry="11" style="stroke:#000000;stroke-width:1.0;"/><path d="M757.4688,104.0156 L757.4688,97.75 Q756.9688,97.75 756.7266,97.5234 Q756.4844,97.2969 756.4844,96.9531 Q756.4844,96.5938 756.7266,96.3672 Q756.9688,96.1406 757.5469,96.1406 L760.9063,96.1563 Q761.6875,96.1563 762.4297,96.4453 Q763.1719,96.7344 763.625,97.1719 Q763.9688,97.5156 764.3438,98.1016 Q764.7188,98.6875 764.9063,99.2656 Q765.0938,99.8438 765.0938,100.6719 L765.0938,101.4375 Q765.0938,102.4531 764.75,103.2422 Q764.4063,104.0313 763.8438,104.5234 Q763.2813,105.0156 762.7969,105.25 Q762.0156,105.625 760.7656,105.625 L757.5469,105.625 Q756.9688,105.625 756.7266,105.3984 Q756.4844,105.1719 756.4844,104.8125 Q756.4844,104.4688 756.7266,104.2422 Q756.9688,104.0156 757.4688,104.0156 Z M759.0781,104.0156 L760.7813,104.0156 Q761.7344,104.0156 762.2188,103.75 Q762.8438,103.3906 763.1641,102.8359 Q763.4844,102.2813 763.4844,101.3906 L763.4844,100.6406 Q763.4844,99.875 763.2031,99.3125 Q762.75,98.4219 762.1797,98.0859 Q761.6094,97.75 760.7656,97.75 L759.0781,97.75 L759.0781,104.0156 Z " fill="#0C0C0C"/><text fill="#000000" font-family="sans-serif" font-size="14" font-style="italic" lengthAdjust="spacing" textLength="82" x="777" y="104.6582">«controllers»</text><text fill="#0C0C0C" font-family="sans-serif" font-size="16" font-weight="bold" lengthAdjust="spacing" textLength="72" x="782" y="124.3438">bookings</text><rect fill="#90EE90" filter="url(#f1l21bydmeozvg)" height="51.7344" style="stroke:#000000;stroke-width:1.5;" width="124" x="742" y="1777.9219"/><ellipse cx="760" cy="1795.9219" fill="#FFFFFF" rx="11" ry="11" style="stroke:#000000;stroke-width:1.0;"/><path d="M757.4688,1798.8125 L757.4688,1792.5469 Q756.9688,1792.5469 756.7266,1792.3203 Q756.4844,1792.0938 756.4844,1791.75 Q756.4844,1791.3906 756.7266,1791.1641 Q756.9688,1790.9375 757.5469,1790.9375 L760.9063,1790.9531 Q761.6875,1790.9531 762.4297,1791.2422 Q763.1719,1791.5313 763.625,1791.9688 Q763.9688,1792.3125 764.3438,1792.8984 Q764.7188,1793.4844 764.9063,1794.0625 Q765.0938,1794.6406 765.0938,1795.4688 L765.0938,1796.2344 Q765.0938,1797.25 764.75,1798.0391 Q764.4063,1798.8281 763.8438,1799.3203 Q763.2813,1799.8125 762.7969,1800.0469 Q762.0156,1800.4219 760.7656,1800.4219 L757.5469,1800.4219 Q756.9688,1800.4219 756.7266,1800.1953 Q756.4844,1799.9688 756.4844,1799.6094 Q756.4844,1799.2656 756.7266,1799.0391 Q756.9688,1798.8125 757.4688,1798.8125 Z M759.0781,1798.8125 L760.7813,1798.8125 Q761.7344,1798.8125 762.2188,1798.5469 Q762.8438,1798.1875 763.1641,1797.6328 Q763.4844,1797.0781 763.4844,1796.1875 L763.4844,1795.4375 Q763.4844,1794.6719 763.2031,1794.1094 Q762.75,1793.2188 762.1797,1792.8828 Q761.6094,1792.5469 760.7656,1792.5469 L759.0781,1792.5469 L759.0781,1798.8125 Z " fill="#0C0C0C"/><text fill="#000000" font-family="sans-serif" font-size="14" font-style="italic" lengthAdjust="spacing" textLength="82" x="777" y="1799.4551">«controllers»</text><text fill="#0C0C0C" font-family="sans-serif" font-size="16" font-weight="bold" lengthAdjust="spacing" textLength="72" x="782" y="1819.1406">bookings</text><rect fill="#ADD8E6" filter="url(#f1l21bydmeozvg)" height="51.7344" style="stroke:#000000;stroke-width:1.5;" width="113" x="917.5" y="83.125"/><ellipse cx="935.5" cy="101.125" fill="#FFFFFF" rx="11" ry="11" style="stroke:#000000;stroke-width:1.0;"/><path d="M939.8438,102.9375 L939.8438,105.0938 Q938.75,105.6719 937.9922,105.8906 Q937.2344,106.1094 936.3438,106.1094 Q935.125,106.1094 934.0781,105.7344 Q933.25,105.4531 932.7813,105.0234 Q932.3125,104.5938 931.9141,103.7578 Q931.5156,102.9219 931.5156,101.875 L931.5156,100.7188 Q931.5156,99.125 932.4844,97.8594 Q933.7969,96.1563 936.0625,96.1563 Q936.7188,96.1563 937.3047,96.2891 Q937.8906,96.4219 938.4219,96.6875 Q938.75,96.4063 939.0469,96.4063 Q939.4063,96.4063 939.625,96.6484 Q939.8438,96.8906 939.8438,97.4688 L939.8438,98.5 Q939.8438,99.0781 939.6172,99.3281 Q939.3906,99.5781 939.0469,99.5781 Q938.7656,99.5781 938.5625,99.4063 Q938.4063,99.2813 938.2969,98.8828 Q938.1875,98.4844 938.0625,98.3438 Q937.8438,98.1094 937.3125,97.9375 Q936.7813,97.7656 936.1094,97.7656 Q935.1563,97.7656 934.4531,98.1563 Q933.9531,98.4375 933.5313,99.1563 Q933.1094,99.875 933.1094,100.7188 L933.1094,101.875 Q933.1094,103.1719 933.8594,103.8359 Q934.6094,104.5 936.2344,104.5 Q937.3281,104.5 938.2344,104.0938 L938.2344,102.9375 L936.6094,102.9375 Q936.0313,102.9375 935.7813,102.7188 Q935.5313,102.5 935.5313,102.1406 Q935.5313,101.7813 935.7813,101.5547 Q936.0313,101.3281 936.6094,101.3281 L939.4531,101.3438 Q940.0313,101.3438 940.2734,101.5625 Q940.5156,101.7813 940.5156,102.1406 Q940.5156,102.4219 940.3516,102.6328 Q940.1875,102.8438 939.8438,102.9375 Z " fill="#0C0C0C"/><text fill="#000000" font-family="sans-serif" font-size="14" font-style="italic" lengthAdjust="spacing" textLength="61" x="957.5" y="104.6582">«models»</text><text fill="#0C0C0C" font-family="sans-serif" font-size="16" font-weight="bold" lengthAdjust="spacing" textLength="71" x="952.5" y="124.3438">:Booking</text><rect fill="#ADD8E6" filter="url(#f1l21bydmeozvg)" height="51.7344" style="stroke:#000000;stroke-width:1.5;" width="113" x="917.5" y="1777.9219"/><ellipse cx="935.5" cy="1795.9219" fill="#FFFFFF" rx="11" ry="11" style="stroke:#000000;stroke-width:1.0;"/><path d="M939.8438,1797.7344 L939.8438,1799.8906 Q938.75,1800.4688 937.9922,1800.6875 Q937.2344,1800.9063 936.3438,1800.9063 Q935.125,1800.9063 934.0781,1800.5313 Q933.25,1800.25 932.7813,1799.8203 Q932.3125,1799.3906 931.9141,1798.5547 Q931.5156,1797.7188 931.5156,1796.6719 L931.5156,1795.5156 Q931.5156,1793.9219 932.4844,1792.6563 Q933.7969,1790.9531 936.0625,1790.9531 Q936.7188,1790.9531 937.3047,1791.0859 Q937.8906,1791.2188 938.4219,1791.4844 Q938.75,1791.2031 939.0469,1791.2031 Q939.4063,1791.2031 939.625,1791.4453 Q939.8438,1791.6875 939.8438,1792.2656 L939.8438,1793.2969 Q939.8438,1793.875 939.6172,1794.125 Q939.3906,1794.375 939.0469,1794.375 Q938.7656,1794.375 938.5625,1794.2031 Q938.4063,1794.0781 938.2969,1793.6797 Q938.1875,1793.2813 938.0625,1793.1406 Q937.8438,1792.9063 937.3125,1792.7344 Q936.7813,1792.5625 936.1094,1792.5625 Q935.1563,1792.5625 934.4531,1792.9531 Q933.9531,1793.2344 933.5313,1793.9531 Q933.1094,1794.6719 933.1094,1795.5156 L933.1094,1796.6719 Q933.1094,1797.9688 933.8594,1798.6328 Q934.6094,1799.2969 936.2344,1799.2969 Q937.3281,1799.2969 938.2344,1798.8906 L938.2344,1797.7344 L936.6094,1797.7344 Q936.0313,1797.7344 935.7813,1797.5156 Q935.5313,1797.2969 935.5313,1796.9375 Q935.5313,1796.5781 935.7813,1796.3516 Q936.0313,1796.125 936.6094,1796.125 L939.4531,1796.1406 Q940.0313,1796.1406 940.2734,1796.3594 Q940.5156,1796.5781 940.5156,1796.9375 Q940.5156,1797.2188 940.3516,1797.4297 Q940.1875,1797.6406 939.8438,1797.7344 Z " fill="#0C0C0C"/><text fill="#000000" font-family="sans-serif" font-size="14" font-style="italic" lengthAdjust="spacing" textLength="61" x="957.5" y="1799.4551">«models»</text><text fill="#0C0C0C" font-family="sans-serif" font-size="16" font-weight="bold" lengthAdjust="spacing" textLength="71" x="952.5" y="1819.1406">:Booking</text><rect fill="#ADD8E6" filter="url(#f1l21bydmeozvg)" height="51.7344" style="stroke:#000000;stroke-width:1.5;" width="122" x="1044.5" y="83.125"/><ellipse cx="1062.5" cy="101.125" fill="#FFFFFF" rx="11" ry="11" style="stroke:#000000;stroke-width:1.0;"/><path d="M1061.7031,101.6719 L1061.7031,104.0156 L1063.3438,104.0156 Q1063.9219,104.0156 1064.1719,104.2422 Q1064.4219,104.4688 1064.4219,104.8281 Q1064.4219,105.1719 1064.1719,105.3984 Q1063.9219,105.625 1063.3438,105.625 L1059.8594,105.625 Q1059.2813,105.625 1059.0313,105.3984 Q1058.7813,105.1719 1058.7813,104.8125 Q1058.7813,104.4688 1059.0313,104.2422 Q1059.2813,104.0156 1059.8594,104.0156 L1060.1094,104.0156 L1060.1094,97.75 L1059.8594,97.75 Q1059.2813,97.75 1059.0313,97.5313 Q1058.7813,97.3125 1058.7813,96.9531 Q1058.7813,96.5938 1059.0313,96.3672 Q1059.2813,96.1406 1059.8594,96.1406 L1067.3906,96.1563 L1067.3906,98.5938 Q1067.3906,99.1719 1067.1719,99.4141 Q1066.9531,99.6563 1066.5938,99.6563 Q1066.2344,99.6563 1066.0156,99.4141 Q1065.7969,99.1719 1065.7969,98.5938 L1065.7969,97.75 L1061.7031,97.75 L1061.7031,100.0781 L1063.1094,100.0781 Q1063.1094,99.4531 1063.2344,99.2656 Q1063.4688,98.8906 1063.9219,98.8906 Q1064.2656,98.8906 1064.4922,99.1328 Q1064.7188,99.375 1064.7188,99.9531 L1064.7188,101.7969 Q1064.7188,102.375 1064.4922,102.625 Q1064.2656,102.875 1063.9063,102.875 Q1063.4688,102.875 1063.2344,102.4844 Q1063.1094,102.3125 1063.1094,101.6719 L1061.7031,101.6719 Z " fill="#0C0C0C"/><text fill="#000000" font-family="sans-serif" font-size="14" font-style="italic" lengthAdjust="spacing" textLength="61" x="1089" y="104.6582">«models»</text><text fill="#0C0C0C" font-family="sans-serif" font-size="16" font-weight="bold" lengthAdjust="spacing" textLength="80" x="1079.5" y="124.3438">:Company</text><rect fill="#ADD8E6" filter="url(#f1l21bydmeozvg)" height="51.7344" style="stroke:#000000;stroke-width:1.5;" width="122" x="1044.5" y="1777.9219"/><ellipse cx="1062.5" cy="1795.9219" fill="#FFFFFF" rx="11" ry="11" style="stroke:#000000;stroke-width:1.0;"/><path d="M1061.7031,1796.4688 L1061.7031,1798.8125 L1063.3438,1798.8125 Q1063.9219,1798.8125 1064.1719,1799.0391 Q1064.4219,1799.2656 1064.4219,1799.625 Q1064.4219,1799.9688 1064.1719,1800.1953 Q1063.9219,1800.4219 1063.3438,1800.4219 L1059.8594,1800.4219 Q1059.2813,1800.4219 1059.0313,1800.1953 Q1058.7813,1799.9688 1058.7813,1799.6094 Q1058.7813,1799.2656 1059.0313,1799.0391 Q1059.2813,1798.8125 1059.8594,1798.8125 L1060.1094,1798.8125 L1060.1094,1792.5469 L1059.8594,1792.5469 Q1059.2813,1792.5469 1059.0313,1792.3281 Q1058.7813,1792.1094 1058.7813,1791.75 Q1058.7813,1791.3906 1059.0313,1791.1641 Q1059.2813,1790.9375 1059.8594,1790.9375 L1067.3906,1790.9531 L1067.3906,1793.3906 Q1067.3906,1793.9688 1067.1719,1794.2109 Q1066.9531,1794.4531 1066.5938,1794.4531 Q1066.2344,1794.4531 1066.0156,1794.2109 Q1065.7969,1793.9688 1065.7969,1793.3906 L1065.7969,1792.5469 L1061.7031,1792.5469 L1061.7031,1794.875 L1063.1094,1794.875 Q1063.1094,1794.25 1063.2344,1794.0625 Q1063.4688,1793.6875 1063.9219,1793.6875 Q1064.2656,1793.6875 1064.4922,1793.9297 Q1064.7188,1794.1719 1064.7188,1794.75 L1064.7188,1796.5938 Q1064.7188,1797.1719 1064.4922,1797.4219 Q1064.2656,1797.6719 1063.9063,1797.6719 Q1063.4688,1797.6719 1063.2344,1797.2813 Q1063.1094,1797.1094 1063.1094,1796.4688 L1061.7031,1796.4688 Z " fill="#0C0C0C"/><text fill="#000000" font-family="sans-serif" font-size="14" font-style="italic" lengthAdjust="spacing" textLength="61" x="1089" y="1799.4551">«models»</text><text fill="#0C0C0C" font-family="sans-serif" font-size="16" font-weight="bold" lengthAdjust="spacing" textLength="80" x="1079.5" y="1819.1406">:Company</text><rect fill="#ADD8E6" filter="url(#f1l21bydmeozvg)" height="51.7344" style="stroke:#000000;stroke-width:1.5;" width="103" x="1180.5" y="83.125"/><ellipse cx="1198.5" cy="101.125" fill="#FFFFFF" rx="11" ry="11" style="stroke:#000000;stroke-width:1.0;"/><path d="M1200.5625,101.7031 L1197.1406,101.7031 L1197.1406,104.0156 L1197.3906,104.0156 Q1197.9688,104.0156 1198.2109,104.2422 Q1198.4531,104.4688 1198.4531,104.8281 Q1198.4531,105.1719 1198.2109,105.3984 Q1197.9688,105.625 1197.3906,105.625 L1195.4219,105.625 Q1194.8438,105.625 1194.6016,105.3984 Q1194.3594,105.1719 1194.3594,104.8125 Q1194.3594,104.375 1194.7344,104.1406 Q1194.9219,104.0156 1195.5313,104.0156 L1195.5313,97.75 Q1195.1094,97.7188 1194.8984,97.5 Q1194.6875,97.2813 1194.6875,96.9531 Q1194.6875,96.5938 1194.9297,96.3672 Q1195.1719,96.1406 1195.75,96.1406 L1197.3906,96.1563 Q1197.9688,96.1563 1198.2109,96.375 Q1198.4531,96.5938 1198.4531,96.9531 Q1198.4531,97.3125 1198.2109,97.5313 Q1197.9688,97.75 1197.3906,97.75 L1197.1406,97.75 L1197.1406,100.0938 L1200.5625,100.0938 L1200.5625,97.75 L1200.3125,97.75 Q1199.7344,97.75 1199.4844,97.5313 Q1199.2344,97.3125 1199.2344,96.9531 Q1199.2344,96.5938 1199.4844,96.3672 Q1199.7344,96.1406 1200.3125,96.1406 L1201.9375,96.1563 Q1202.5156,96.1563 1202.7656,96.375 Q1203.0156,96.5938 1203.0156,96.9531 Q1203.0156,97.2813 1202.7969,97.5 Q1202.5781,97.7188 1202.1563,97.75 L1202.1563,104.0156 Q1202.7813,104.0156 1202.9531,104.1406 Q1203.3438,104.375 1203.3438,104.8281 Q1203.3438,105.1719 1203.0938,105.3984 Q1202.8438,105.625 1202.2656,105.625 L1200.3125,105.625 Q1199.7344,105.625 1199.4844,105.3984 Q1199.2344,105.1719 1199.2344,104.8125 Q1199.2344,104.4688 1199.4844,104.2422 Q1199.7344,104.0156 1200.3125,104.0156 L1200.5625,104.0156 L1200.5625,101.7031 Z " fill="#0C0C0C"/><text fill="#000000" font-family="sans-serif" font-size="14" font-style="italic" lengthAdjust="spacing" textLength="61" x="1215.5" y="104.6582">«models»</text><text fill="#0C0C0C" font-family="sans-serif" font-size="16" font-weight="bold" lengthAdjust="spacing" textLength="42" x="1225" y="124.3438">:User</text><rect fill="#ADD8E6" filter="url(#f1l21bydmeozvg)" height="51.7344" style="stroke:#000000;stroke-width:1.5;" width="103" x="1180.5" y="1777.9219"/><ellipse cx="1198.5" cy="1795.9219" fill="#FFFFFF" rx="11" ry="11" style="stroke:#000000;stroke-width:1.0;"/><path d="M1200.5625,1796.5 L1197.1406,1796.5 L1197.1406,1798.8125 L1197.3906,1798.8125 Q1197.9688,1798.8125 1198.2109,1799.0391 Q1198.4531,1799.2656 1198.4531,1799.625 Q1198.4531,1799.9688 1198.2109,1800.1953 Q1197.9688,1800.4219 1197.3906,1800.4219 L1195.4219,1800.4219 Q1194.8438,1800.4219 1194.6016,1800.1953 Q1194.3594,1799.9688 1194.3594,1799.6094 Q1194.3594,1799.1719 1194.7344,1798.9375 Q1194.9219,1798.8125 1195.5313,1798.8125 L1195.5313,1792.5469 Q1195.1094,1792.5156 1194.8984,1792.2969 Q1194.6875,1792.0781 1194.6875,1791.75 Q1194.6875,1791.3906 1194.9297,1791.1641 Q1195.1719,1790.9375 1195.75,1790.9375 L1197.3906,1790.9531 Q1197.9688,1790.9531 1198.2109,1791.1719 Q1198.4531,1791.3906 1198.4531,1791.75 Q1198.4531,1792.1094 1198.2109,1792.3281 Q1197.9688,1792.5469 1197.3906,1792.5469 L1197.1406,1792.5469 L1197.1406,1794.8906 L1200.5625,1794.8906 L1200.5625,1792.5469 L1200.3125,1792.5469 Q1199.7344,1792.5469 1199.4844,1792.3281 Q1199.2344,1792.1094 1199.2344,1791.75 Q1199.2344,1791.3906 1199.4844,1791.1641 Q1199.7344,1790.9375 1200.3125,1790.9375 L1201.9375,1790.9531 Q1202.5156,1790.9531 1202.7656,1791.1719 Q1203.0156,1791.3906 1203.0156,1791.75 Q1203.0156,1792.0781 1202.7969,1792.2969 Q1202.5781,1792.5156 1202.1563,1792.5469 L1202.1563,1798.8125 Q1202.7813,1798.8125 1202.9531,1798.9375 Q1203.3438,1799.1719 1203.3438,1799.625 Q1203.3438,1799.9688 1203.0938,1800.1953 Q1202.8438,1800.4219 1202.2656,1800.4219 L1200.3125,1800.4219 Q1199.7344,1800.4219 1199.4844,1800.1953 Q1199.2344,1799.9688 1199.2344,1799.6094 Q1199.2344,1799.2656 1199.4844,1799.0391 Q1199.7344,1798.8125 1200.3125,1798.8125 L1200.5625,1798.8125 L1200.5625,1796.5 Z " fill="#0C0C0C"/><text fill="#000000" font-family="sans-serif" font-size="14" font-style="italic" lengthAdjust="spacing" textLength="61" x="1215.5" y="1799.4551">«models»</text><text fill="#0C0C0C" font-family="sans-serif" font-size="16" font-weight="bold" lengthAdjust="spacing" textLength="42" x="1225" y="1819.1406">:User</text><rect fill="#D9D2E9" filter="url(#f1l21bydmeozvg)" height="51.7344" style="stroke:#000000;stroke-width:1.5;" width="121" x="1308.5" y="83.125"/><ellipse cx="1326.5" cy="101.125" fill="#FFFFFF" rx="11" ry="11" style="stroke:#000000;stroke-width:1.0;"/><path d="M1327.1094,97.75 L1327.1094,104.0156 L1328.7188,104.0156 Q1329.2969,104.0156 1329.5469,104.2422 Q1329.7969,104.4688 1329.7969,104.8281 Q1329.7969,105.1719 1329.5469,105.3984 Q1329.2969,105.625 1328.7188,105.625 L1323.8906,105.625 Q1323.3125,105.625 1323.0625,105.3984 Q1322.8125,105.1719 1322.8125,104.8125 Q1322.8125,104.4688 1323.0625,104.2422 Q1323.3125,104.0156 1323.8906,104.0156 L1325.5,104.0156 L1325.5,97.75 L1323.8906,97.75 Q1323.3125,97.75 1323.0625,97.5313 Q1322.8125,97.3125 1322.8125,96.9531 Q1322.8125,96.5938 1323.0625,96.3672 Q1323.3125,96.1406 1323.8906,96.1406 L1328.7188,96.1563 Q1329.2969,96.1563 1329.5469,96.375 Q1329.7969,96.5938 1329.7969,96.9531 Q1329.7969,97.3125 1329.5469,97.5313 Q1329.2969,97.75 1328.7188,97.75 L1327.1094,97.75 Z " fill="#0C0C0C"/><text fill="#000000" font-family="sans-serif" font-size="14" font-style="italic" lengthAdjust="spacing" textLength="79" x="1343.5" y="104.6582">«data base»</text><text fill="#0C0C0C" font-family="sans-serif" font-size="16" lengthAdjust="spacing" textLength="71" x="1347.5" y="124.3438">MongoDB</text><rect fill="#D9D2E9" filter="url(#f1l21bydmeozvg)" height="51.7344" style="stroke:#000000;stroke-width:1.5;" width="121" x="1308.5" y="1777.9219"/><ellipse cx="1326.5" cy="1795.9219" fill="#FFFFFF" rx="11" ry="11" style="stroke:#000000;stroke-width:1.0;"/><path d="M1327.1094,1792.5469 L1327.1094,1798.8125 L1328.7188,1798.8125 Q1329.2969,1798.8125 1329.5469,1799.0391 Q1329.7969,1799.2656 1329.7969,1799.625 Q1329.7969,1799.9688 1329.5469,1800.1953 Q1329.2969,1800.4219 1328.7188,1800.4219 L1323.8906,1800.4219 Q1323.3125,1800.4219 1323.0625,1800.1953 Q1322.8125,1799.9688 1322.8125,1799.6094 Q1322.8125,1799.2656 1323.0625,1799.0391 Q1323.3125,1798.8125 1323.8906,1798.8125 L1325.5,1798.8125 L1325.5,1792.5469 L1323.8906,1792.5469 Q1323.3125,1792.5469 1323.0625,1792.3281 Q1322.8125,1792.1094 1322.8125,1791.75 Q1322.8125,1791.3906 1323.0625,1791.1641 Q1323.3125,1790.9375 1323.8906,1790.9375 L1328.7188,1790.9531 Q1329.2969,1790.9531 1329.5469,1791.1719 Q1329.7969,1791.3906 1329.7969,1791.75 Q1329.7969,1792.1094 1329.5469,1792.3281 Q1329.2969,1792.5469 1328.7188,1792.5469 L1327.1094,1792.5469 Z " fill="#0C0C0C"/><text fill="#000000" font-family="sans-serif" font-size="14" font-style="italic" lengthAdjust="spacing" textLength="79" x="1343.5" y="1799.4551">«data base»</text><text fill="#0C0C0C" font-family="sans-serif" font-size="16" lengthAdjust="spacing" textLength="71" x="1347.5" y="1819.1406">MongoDB</text><rect fill="#FFFF99" filter="url(#f1l21bydmeozvg)" height="1619.0625" style="stroke:#000000;stroke-width:1.0;" width="10" x="101.5" y="149.8594"/><rect fill="#FFFF99" filter="url(#f1l21bydmeozvg)" height="70.6016" style="stroke:#000000;stroke-width:1.0;" width="10" x="232.5" y="256.3281"/><rect fill="#FFFF99" filter="url(#f1l21bydmeozvg)" height="89.4688" style="stroke:#000000;stroke-width:1.0;" width="10" x="366.5" y="326.9297"/><rect fill="#FFFF99" filter="url(#f1l21bydmeozvg)" height="32.8672" style="stroke:#000000;stroke-width:1.0;" width="10" x="516.5" y="416.3984"/><rect fill="#FFFF99" filter="url(#f1l21bydmeozvg)" height="472.2891" style="stroke:#000000;stroke-width:1.0;" width="10" x="648" y="449.2656"/><rect fill="#FFFF99" filter="url(#f1l21bydmeozvg)" height="804.3672" style="stroke:#000000;stroke-width:1.0;" width="10" x="801" y="921.5547"/><rect fill="#FFFF99" filter="url(#f1l21bydmeozvg)" height="98.6016" style="stroke:#000000;stroke-width:1.0;" width="10" x="971" y="1373.7422"/><rect fill="#FFFF99" filter="url(#f1l21bydmeozvg)" height="98.6016" style="stroke:#000000;stroke-width:1.0;" width="10" x="971" y="1594.4531"/><rect fill="#FFFF99" filter="url(#f1l21bydmeozvg)" height="98.6016" style="stroke:#000000;stroke-width:1.0;" width="10" x="1102.5" y="992.1563"/><rect fill="#FFFF99" filter="url(#f1l21bydmeozvg)" height="98.6016" style="stroke:#000000;stroke-width:1.0;" width="10" x="1229" y="636.1094"/><rect fill="#FFFF99" filter="url(#f1l21bydmeozvg)" height="32.8672" style="stroke:#000000;stroke-width:1.0;" width="10" x="1366" y="668.9766"/><rect fill="#FFFF99" filter="url(#f1l21bydmeozvg)" height="32.8672" style="stroke:#000000;stroke-width:1.0;" width="10" x="1366" y="1025.0234"/><rect fill="#FFFF99" filter="url(#f1l21bydmeozvg)" height="32.8672" style="stroke:#000000;stroke-width:1.0;" width="10" x="1366" y="1406.6094"/><rect fill="#FFFF99" filter="url(#f1l21bydmeozvg)" height="32.8672" style="stroke:#000000;stroke-width:1.0;" width="10" x="1366" y="1627.3203"/><polygon fill="#A80036" points="220.5,252.3281,230.5,256.3281,220.5,260.3281,224.5,256.3281" style="stroke:#A80036;stroke-width:1.0;"/><line style="stroke:#A80036;stroke-width:1.5;" x1="111.5" x2="226.5" y1="256.3281" y2="256.3281"/><text fill="#000000" font-family="sans-serif" font-size="15" font-weight="bold" lengthAdjust="spacing" textLength="18" x="118.5" y="222.7314">[1]</text><text fill="#000000" font-family="sans-serif" font-size="15" lengthAdjust="spacing" textLength="61" x="140.5" y="194.4307">req.post('</text><text fill="#000000" font-family="sans-serif" font-size="15" lengthAdjust="spacing" textLength="80" x="140.5" y="213.2979">/companies/</text><text fill="#000000" font-family="sans-serif" font-size="15" lengthAdjust="spacing" textLength="75" x="140.5" y="232.165">:companyId</text><text fill="#000000" font-family="sans-serif" font-size="15" lengthAdjust="spacing" textLength="70" x="140.5" y="251.0322">/bookings')</text><polygon fill="#A80036" points="354.5,322.9297,364.5,326.9297,354.5,330.9297,358.5,326.9297" style="stroke:#A80036;stroke-width:1.0;"/><line style="stroke:#A80036;stroke-width:1.5;" x1="237.5" x2="360.5" y1="326.9297" y2="326.9297"/><text fill="#000000" font-family="sans-serif" font-size="15" font-weight="bold" lengthAdjust="spacing" textLength="18" x="244.5" y="302.7666">[2]</text><text fill="#000000" font-family="sans-serif" font-size="15" lengthAdjust="spacing" textLength="64" x="266.5" y="283.8994">app.use('/</text><text fill="#000000" font-family="sans-serif" font-size="15" lengthAdjust="spacing" textLength="79" x="266.5" y="302.7666">companies',</text><text fill="#000000" font-family="sans-serif" font-size="15" lengthAdjust="spacing" textLength="77" x="266.5" y="321.6338">companies)</text><polygon fill="#A80036" points="504.5,412.3984,514.5,416.3984,504.5,420.3984,508.5,416.3984" style="stroke:#A80036;stroke-width:1.0;"/><line style="stroke:#A80036;stroke-width:1.5;" x1="371.5" x2="510.5" y1="416.3984" y2="416.3984"/><text fill="#000000" font-family="sans-serif" font-size="15" font-weight="bold" lengthAdjust="spacing" textLength="18" x="378.5" y="382.8018">[3]</text><text fill="#000000" font-family="sans-serif" font-size="15" lengthAdjust="spacing" textLength="78" x="400.5" y="354.501">router.use('/</text><text fill="#000000" font-family="sans-serif" font-size="15" lengthAdjust="spacing" textLength="75" x="400.5" y="373.3682">:companyId</text><text fill="#000000" font-family="sans-serif" font-size="15" lengthAdjust="spacing" textLength="73" x="400.5" y="392.2354">/bookings/',</text><text fill="#000000" font-family="sans-serif" font-size="15" lengthAdjust="spacing" textLength="99" x="400.5" y="411.1025">bookingRouter)</text><polygon fill="#A80036" points="636,445.2656,646,449.2656,636,453.2656,640,449.2656" style="stroke:#A80036;stroke-width:1.0;"/><line style="stroke:#A80036;stroke-width:1.5;" x1="521.5" x2="642" y1="449.2656" y2="449.2656"/><text fill="#000000" font-family="sans-serif" font-size="15" font-weight="bold" lengthAdjust="spacing" textLength="18" x="528.5" y="443.9697">[4]</text><text fill="#000000" font-family="sans-serif" font-size="15" lengthAdjust="spacing" textLength="45" x="550.5" y="443.9697">protect</text><line style="stroke:#A80036;stroke-width:1.5;" x1="658" x2="700" y1="482.1328" y2="482.1328"/><line style="stroke:#A80036;stroke-width:1.5;" x1="700" x2="700" y1="482.1328" y2="495.1328"/><line style="stroke:#A80036;stroke-width:1.5;" x1="659" x2="700" y1="495.1328" y2="495.1328"/><polygon fill="#A80036" points="669,491.1328,659,495.1328,669,499.1328,665,495.1328" style="stroke:#A80036;stroke-width:1.0;"/><text fill="#000000" font-family="sans-serif" font-size="15" font-weight="bold" lengthAdjust="spacing" textLength="18" x="665" y="476.8369">[5]</text><text fill="#000000" font-family="sans-serif" font-size="15" lengthAdjust="spacing" textLength="101" x="687" y="476.8369">jwt.verify(token)</text><path d="M15,510.1328 L78,510.1328 L78,522.1328 L68,532.1328 L15,532.1328 L15,510.1328 " fill="#FFD700" style="stroke:#000000;stroke-width:1.0;"/><rect fill="none" height="1251.7891" style="stroke:#000000;stroke-width:2.0;" width="1468.5" x="15" y="510.1328"/><text fill="#000000" font-family="sans-serif" font-size="16" font-weight="bold" lengthAdjust="spacing" textLength="18" x="30" y="527.7422">alt</text><text fill="#000000" font-family="sans-serif" font-size="16" font-weight="bold" lengthAdjust="spacing" textLength="198" x="93" y="528.7422">[no token or invalid token]</text><polygon fill="#A80036" points="122.5,558.25,112.5,562.25,122.5,566.25,118.5,562.25" style="stroke:#A80036;stroke-width:1.0;"/><line style="stroke:#A80036;stroke-width:1.5;stroke-dasharray:2.0,2.0;" x1="116.5" x2="647" y1="562.25" y2="562.25"/><text fill="#000000" font-family="sans-serif" font-size="15" font-weight="bold" lengthAdjust="spacing" textLength="18" x="128.5" y="556.9541">[6]</text><text fill="#000000" font-family="sans-serif" font-size="15" lengthAdjust="spacing" textLength="83" x="150.5" y="556.9541">response fail</text><line style="stroke:#000000;stroke-width:1.0;stroke-dasharray:2.0,2.0;" x1="15" x2="1483.5" y1="571.25" y2="571.25"/><text fill="#000000" font-family="sans-serif" font-size="16" font-weight="bold" lengthAdjust="spacing" textLength="41" x="20" y="587.8594">[else]</text><polygon fill="#A80036" points="1217,632.1094,1227,636.1094,1217,640.1094,1221,636.1094" style="stroke:#A80036;stroke-width:1.0;"/><line style="stroke:#A80036;stroke-width:1.5;" x1="658" x2="1223" y1="636.1094" y2="636.1094"/><text fill="#000000" font-family="sans-serif" font-size="15" font-weight="bold" lengthAdjust="spacing" textLength="18" x="665" y="621.3799">[7]</text><text fill="#000000" font-family="sans-serif" font-size="15" lengthAdjust="spacing" textLength="51" x="687" y="611.9463">findById</text><text fill="#000000" font-family="sans-serif" font-size="15" lengthAdjust="spacing" textLength="81" x="687" y="630.8135">(decoded.id)</text><polygon fill="#A80036" points="1354,664.9766,1364,668.9766,1354,672.9766,1358,668.9766" style="stroke:#A80036;stroke-width:1.0;"/><line style="stroke:#A80036;stroke-width:1.5;" x1="1239" x2="1360" y1="668.9766" y2="668.9766"/><text fill="#000000" font-family="sans-serif" font-size="15" font-weight="bold" lengthAdjust="spacing" textLength="18" x="1246" y="663.6807">[8]</text><text fill="#000000" font-family="sans-serif" font-size="15" lengthAdjust="spacing" textLength="86" x="1268" y="663.6807">UserSchema</text><polygon fill="#A80036" points="1250,697.8438,1240,701.8438,1250,705.8438,1246,701.8438" style="stroke:#A80036;stroke-width:1.0;"/><line style="stroke:#A80036;stroke-width:1.5;" x1="1244" x2="1370" y1="701.8438" y2="701.8438"/><text fill="#000000" font-family="sans-serif" font-size="15" font-weight="bold" lengthAdjust="spacing" textLength="18" x="1256" y="696.5479">[9]</text><text fill="#000000" font-family="sans-serif" font-size="15" lengthAdjust="spacing" textLength="29" x="1278" y="696.5479">user</text><polygon fill="#A80036" points="669,730.7109,659,734.7109,669,738.7109,665,734.7109" style="stroke:#A80036;stroke-width:1.0;"/><line style="stroke:#A80036;stroke-width:1.5;" x1="663" x2="1233" y1="734.7109" y2="734.7109"/><text fill="#000000" font-family="sans-serif" font-size="15" font-weight="bold" lengthAdjust="spacing" textLength="26" x="675" y="729.415">[10]</text><text fill="#000000" font-family="sans-serif" font-size="15" lengthAdjust="spacing" textLength="29" x="705" y="729.415">user</text><line style="stroke:#A80036;stroke-width:1.5;" x1="658" x2="700" y1="786.4453" y2="786.4453"/><line style="stroke:#A80036;stroke-width:1.5;" x1="700" x2="700" y1="786.4453" y2="799.4453"/><line style="stroke:#A80036;stroke-width:1.5;" x1="659" x2="700" y1="799.4453" y2="799.4453"/><polygon fill="#A80036" points="669,795.4453,659,799.4453,669,803.4453,665,799.4453" style="stroke:#A80036;stroke-width:1.0;"/><text fill="#000000" font-family="sans-serif" font-size="15" font-weight="bold" lengthAdjust="spacing" textLength="26" x="665" y="771.7158">[11]</text><text fill="#000000" font-family="sans-serif" font-size="15" lengthAdjust="spacing" textLength="60" x="695" y="762.2822">authorize</text><text fill="#000000" font-family="sans-serif" font-size="15" lengthAdjust="spacing" textLength="99" x="695" y="781.1494">('admin', 'user')</text><path d="M25,814.4453 L88,814.4453 L88,826.4453 L78,836.4453 L25,836.4453 L25,814.4453 " fill="#FFD700" style="stroke:#000000;stroke-width:1.0;"/><rect fill="none" height="940.4766" style="stroke:#000000;stroke-width:2.0;" width="1448.5" x="25" y="814.4453"/><text fill="#000000" font-family="sans-serif" font-size="16" font-weight="bold" lengthAdjust="spacing" textLength="18" x="40" y="832.0547">alt</text><text fill="#000000" font-family="sans-serif" font-size="16" font-weight="bold" lengthAdjust="spacing" textLength="165" x="103" y="833.0547">[role != admin or user]</text><polygon fill="#A80036" points="122.5,862.5625,112.5,866.5625,122.5,870.5625,118.5,866.5625" style="stroke:#A80036;stroke-width:1.0;"/><line style="stroke:#A80036;stroke-width:1.5;stroke-dasharray:2.0,2.0;" x1="116.5" x2="647" y1="866.5625" y2="866.5625"/><text fill="#000000" font-family="sans-serif" font-size="15" font-weight="bold" lengthAdjust="spacing" textLength="26" x="128.5" y="861.2666">[12]</text><text fill="#000000" font-family="sans-serif" font-size="15" lengthAdjust="spacing" textLength="83" x="158.5" y="861.2666">response fail</text><line style="stroke:#000000;stroke-width:1.0;stroke-dasharray:2.0,2.0;" x1="25" x2="1473.5" y1="875.5625" y2="875.5625"/><text fill="#000000" font-family="sans-serif" font-size="16" font-weight="bold" lengthAdjust="spacing" textLength="41" x="30" y="892.1719">[else]</text><polygon fill="#A80036" points="789,917.5547,799,921.5547,789,925.5547,793,921.5547" style="stroke:#A80036;stroke-width:1.0;"/><line style="stroke:#A80036;stroke-width:1.5;" x1="653" x2="795" y1="921.5547" y2="921.5547"/><text fill="#000000" font-family="sans-serif" font-size="15" font-weight="bold" lengthAdjust="spacing" textLength="26" x="660" y="916.2588">[13]</text><text fill="#000000" font-family="sans-serif" font-size="15" lengthAdjust="spacing" textLength="76" x="690" y="916.2588">addBooking</text><polygon fill="#A80036" points="1090.5,988.1563,1100.5,992.1563,1090.5,996.1563,1094.5,992.1563" style="stroke:#A80036;stroke-width:1.0;"/><line style="stroke:#A80036;stroke-width:1.5;" x1="811" x2="1096.5" y1="992.1563" y2="992.1563"/><text fill="#000000" font-family="sans-serif" font-size="15" font-weight="bold" lengthAdjust="spacing" textLength="26" x="818" y="967.9932">[14]</text><text fill="#000000" font-family="sans-serif" font-size="15" lengthAdjust="spacing" textLength="77" x="848" y="949.126">findById(req</text><text fill="#000000" font-family="sans-serif" font-size="15" lengthAdjust="spacing" textLength="54" x="848" y="967.9932">.params</text><text fill="#000000" font-family="sans-serif" font-size="15" lengthAdjust="spacing" textLength="80" x="848" y="986.8604">.companyId)</text><polygon fill="#A80036" points="1354,1021.0234,1364,1025.0234,1354,1029.0234,1358,1025.0234" style="stroke:#A80036;stroke-width:1.0;"/><line style="stroke:#A80036;stroke-width:1.5;" x1="1112.5" x2="1360" y1="1025.0234" y2="1025.0234"/><text fill="#000000" font-family="sans-serif" font-size="15" font-weight="bold" lengthAdjust="spacing" textLength="26" x="1119.5" y="1019.7275">[15]</text><text fill="#000000" font-family="sans-serif" font-size="15" lengthAdjust="spacing" textLength="118" x="1149.5" y="1019.7275">CompanySchema</text><polygon fill="#A80036" points="1123.5,1053.8906,1113.5,1057.8906,1123.5,1061.8906,1119.5,1057.8906" style="stroke:#A80036;stroke-width:1.0;"/><line style="stroke:#A80036;stroke-width:1.5;" x1="1117.5" x2="1370" y1="1057.8906" y2="1057.8906"/><text fill="#000000" font-family="sans-serif" font-size="15" font-weight="bold" lengthAdjust="spacing" textLength="26" x="1129.5" y="1052.5947">[16]</text><text fill="#000000" font-family="sans-serif" font-size="15" lengthAdjust="spacing" textLength="60" x="1159.5" y="1052.5947">company</text><polygon fill="#A80036" points="822,1086.7578,812,1090.7578,822,1094.7578,818,1090.7578" style="stroke:#A80036;stroke-width:1.0;"/><line style="stroke:#A80036;stroke-width:1.5;" x1="816" x2="1106.5" y1="1090.7578" y2="1090.7578"/><text fill="#000000" font-family="sans-serif" font-size="15" font-weight="bold" lengthAdjust="spacing" textLength="26" x="828" y="1085.4619">[17]</text><text fill="#000000" font-family="sans-serif" font-size="15" lengthAdjust="spacing" textLength="60" x="858" y="1085.4619">company</text><path d="M35,1105.7578 L98,1105.7578 L98,1117.7578 L88,1127.7578 L35,1127.7578 L35,1105.7578 " fill="#FFD700" style="stroke:#000000;stroke-width:1.0;"/><rect fill="none" height="642.1641" style="stroke:#000000;stroke-width:2.0;" width="1428.5" x="35" y="1105.7578"/><text fill="#000000" font-family="sans-serif" font-size="16" font-weight="bold" lengthAdjust="spacing" textLength="18" x="50" y="1123.3672">alt</text><text fill="#000000" font-family="sans-serif" font-size="16" font-weight="bold" lengthAdjust="spacing" textLength="153" x="113" y="1124.3672">[invalid company id]</text><polygon fill="#A80036" points="122.5,1153.875,112.5,1157.875,122.5,1161.875,118.5,1157.875" style="stroke:#A80036;stroke-width:1.0;"/><line style="stroke:#A80036;stroke-width:1.5;stroke-dasharray:2.0,2.0;" x1="116.5" x2="800" y1="1157.875" y2="1157.875"/><text fill="#000000" font-family="sans-serif" font-size="15" font-weight="bold" lengthAdjust="spacing" textLength="26" x="128.5" y="1152.5791">[18]</text><text fill="#000000" font-family="sans-serif" font-size="15" lengthAdjust="spacing" textLength="83" x="158.5" y="1152.5791">response fail</text><line style="stroke:#000000;stroke-width:1.0;stroke-dasharray:2.0,2.0;" x1="35" x2="1463.5" y1="1166.875" y2="1166.875"/><text fill="#000000" font-family="sans-serif" font-size="16" font-weight="bold" lengthAdjust="spacing" textLength="41" x="40" y="1183.4844">[else]</text><path d="M45,1195 L108,1195 L108,1207 L98,1217 L45,1217 L45,1195 " fill="#FFD700" style="stroke:#000000;stroke-width:1.0;"/><rect fill="none" height="545.9219" style="stroke:#000000;stroke-width:2.0;" width="1408.5" x="45" y="1195"/><text fill="#000000" font-family="sans-serif" font-size="16" font-weight="bold" lengthAdjust="spacing" textLength="18" x="60" y="1212.6094">alt</text><text fill="#000000" font-family="sans-serif" font-size="16" font-weight="bold" lengthAdjust="spacing" textLength="164" x="123" y="1213.6094">[invalid booking date]</text><polygon fill="#A80036" points="122.5,1278.9336,112.5,1282.9336,122.5,1286.9336,118.5,1282.9336" style="stroke:#A80036;stroke-width:1.0;"/><line style="stroke:#A80036;stroke-width:1.5;stroke-dasharray:2.0,2.0;" x1="116.5" x2="800" y1="1282.9336" y2="1282.9336"/><text fill="#000000" font-family="sans-serif" font-size="15" font-weight="bold" lengthAdjust="spacing" textLength="26" x="128.5" y="1277.6377">[19]</text><text fill="#000000" font-family="sans-serif" font-size="15" lengthAdjust="spacing" textLength="83" x="158.5" y="1277.6377">response fail</text><path d="M816,1227.25 L816,1317.25 L1044,1317.25 L1044,1237.25 L1034,1227.25 L816,1227.25 " fill="#FBFB77" filter="url(#f1l21bydmeozvg)" style="stroke:#A80036;stroke-width:1.0;"/><path d="M1034,1227.25 L1034,1237.25 L1044,1237.25 L1034,1227.25 " fill="#FBFB77" style="stroke:#A80036;stroke-width:1.0;"/><text fill="#000000" font-family="sans-serif" font-size="16" font-weight="bold" lengthAdjust="spacing" textLength="91" x="822" y="1248.8594">New feature</text><text fill="#000000" font-family="sans-serif" font-size="16" lengthAdjust="spacing" textLength="185" x="822" y="1268.9844">&lt;- Verify that prefered date</text><text fill="#000000" font-family="sans-serif" font-size="16" lengthAdjust="spacing" textLength="203" x="826" y="1289.1094">is within the interview session</text><text fill="#000000" font-family="sans-serif" font-size="16" lengthAdjust="spacing" textLength="88" x="826" y="1309.2344">(May, 10-13)</text><line style="stroke:#000000;stroke-width:1.0;stroke-dasharray:2.0,2.0;" x1="45" x2="1453.5" y1="1327.75" y2="1327.75"/><text fill="#000000" font-family="sans-serif" font-size="16" font-weight="bold" lengthAdjust="spacing" textLength="41" x="50" y="1344.3594">[else]</text><polygon fill="#A80036" points="959,1369.7422,969,1373.7422,959,1377.7422,963,1373.7422" style="stroke:#A80036;stroke-width:1.0;"/><line style="stroke:#A80036;stroke-width:1.5;" x1="811" x2="965" y1="1373.7422" y2="1373.7422"/><text fill="#000000" font-family="sans-serif" font-size="15" font-weight="bold" lengthAdjust="spacing" textLength="26" x="818" y="1368.4463">[20]</text><text fill="#000000" font-family="sans-serif" font-size="15" lengthAdjust="spacing" textLength="102" x="848" y="1368.4463">find(req.user.id)</text><polygon fill="#A80036" points="1354,1402.6094,1364,1406.6094,1354,1410.6094,1358,1406.6094" style="stroke:#A80036;stroke-width:1.0;"/><line style="stroke:#A80036;stroke-width:1.5;" x1="981" x2="1360" y1="1406.6094" y2="1406.6094"/><text fill="#000000" font-family="sans-serif" font-size="15" font-weight="bold" lengthAdjust="spacing" textLength="26" x="988" y="1401.3135">[21]</text><text fill="#000000" font-family="sans-serif" font-size="15" lengthAdjust="spacing" textLength="107" x="1018" y="1401.3135">BookingSchema</text><polygon fill="#A80036" points="992,1435.4766,982,1439.4766,992,1443.4766,988,1439.4766" style="stroke:#A80036;stroke-width:1.0;"/><line style="stroke:#A80036;stroke-width:1.5;" x1="986" x2="1370" y1="1439.4766" y2="1439.4766"/><text fill="#000000" font-family="sans-serif" font-size="15" font-weight="bold" lengthAdjust="spacing" textLength="26" x="998" y="1434.1807">[22]</text><text fill="#000000" font-family="sans-serif" font-size="15" lengthAdjust="spacing" textLength="58" x="1028" y="1434.1807">bookings</text><polygon fill="#A80036" points="822,1468.3438,812,1472.3438,822,1476.3438,818,1472.3438" style="stroke:#A80036;stroke-width:1.0;"/><line style="stroke:#A80036;stroke-width:1.5;" x1="816" x2="975" y1="1472.3438" y2="1472.3438"/><text fill="#000000" font-family="sans-serif" font-size="15" font-weight="bold" lengthAdjust="spacing" textLength="26" x="828" y="1467.0479">[23]</text><text fill="#000000" font-family="sans-serif" font-size="15" lengthAdjust="spacing" textLength="106" x="858" y="1467.0479">existedBookings</text><path d="M55,1487.3438 L118,1487.3438 L118,1499.3438 L108,1509.3438 L55,1509.3438 L55,1487.3438 " fill="#FFD700" style="stroke:#000000;stroke-width:1.0;"/><rect fill="none" height="246.5781" style="stroke:#000000;stroke-width:2.0;" width="1388.5" x="55" y="1487.3438"/><text fill="#000000" font-family="sans-serif" font-size="16" font-weight="bold" lengthAdjust="spacing" textLength="18" x="70" y="1504.9531">alt</text><text fill="#000000" font-family="sans-serif" font-size="16" font-weight="bold" lengthAdjust="spacing" textLength="391" x="133" y="1505.9531">[existing booking of the user &gt;= 3 and role != admin]</text><polygon fill="#A80036" points="122.5,1535.4609,112.5,1539.4609,122.5,1543.4609,118.5,1539.4609" style="stroke:#A80036;stroke-width:1.0;"/><line style="stroke:#A80036;stroke-width:1.5;stroke-dasharray:2.0,2.0;" x1="116.5" x2="800" y1="1539.4609" y2="1539.4609"/><text fill="#000000" font-family="sans-serif" font-size="15" font-weight="bold" lengthAdjust="spacing" textLength="26" x="128.5" y="1534.165">[24]</text><text fill="#000000" font-family="sans-serif" font-size="15" lengthAdjust="spacing" textLength="83" x="158.5" y="1534.165">response fail</text><line style="stroke:#000000;stroke-width:1.0;stroke-dasharray:2.0,2.0;" x1="55" x2="1443.5" y1="1548.4609" y2="1548.4609"/><text fill="#000000" font-family="sans-serif" font-size="16" font-weight="bold" lengthAdjust="spacing" textLength="41" x="60" y="1565.0703">[else]</text><polygon fill="#A80036" points="959,1590.4531,969,1594.4531,959,1598.4531,963,1594.4531" style="stroke:#A80036;stroke-width:1.0;"/><line style="stroke:#A80036;stroke-width:1.5;" x1="811" x2="965" y1="1594.4531" y2="1594.4531"/><text fill="#000000" font-family="sans-serif" font-size="15" font-weight="bold" lengthAdjust="spacing" textLength="26" x="818" y="1589.1572">[25]</text><text fill="#000000" font-family="sans-serif" font-size="15" lengthAdjust="spacing" textLength="107" x="848" y="1589.1572">create(req.body)</text><polygon fill="#A80036" points="1354,1623.3203,1364,1627.3203,1354,1631.3203,1358,1627.3203" style="stroke:#A80036;stroke-width:1.0;"/><line style="stroke:#A80036;stroke-width:1.5;" x1="981" x2="1360" y1="1627.3203" y2="1627.3203"/><text fill="#000000" font-family="sans-serif" font-size="15" font-weight="bold" lengthAdjust="spacing" textLength="26" x="988" y="1622.0244">[26]</text><text fill="#000000" font-family="sans-serif" font-size="15" lengthAdjust="spacing" textLength="107" x="1018" y="1622.0244">BookingSchema</text><polygon fill="#A80036" points="992,1656.1875,982,1660.1875,992,1664.1875,988,1660.1875" style="stroke:#A80036;stroke-width:1.0;"/><line style="stroke:#A80036;stroke-width:1.5;" x1="986" x2="1370" y1="1660.1875" y2="1660.1875"/><text fill="#000000" font-family="sans-serif" font-size="15" font-weight="bold" lengthAdjust="spacing" textLength="26" x="998" y="1654.8916">[27]</text><text fill="#000000" font-family="sans-serif" font-size="15" lengthAdjust="spacing" textLength="50" x="1028" y="1654.8916">booking</text><polygon fill="#A80036" points="822,1689.0547,812,1693.0547,822,1697.0547,818,1693.0547" style="stroke:#A80036;stroke-width:1.0;"/><line style="stroke:#A80036;stroke-width:1.5;" x1="816" x2="975" y1="1693.0547" y2="1693.0547"/><text fill="#000000" font-family="sans-serif" font-size="15" font-weight="bold" lengthAdjust="spacing" textLength="26" x="828" y="1687.7588">[28]</text><text fill="#000000" font-family="sans-serif" font-size="15" lengthAdjust="spacing" textLength="50" x="858" y="1687.7588">booking</text><polygon fill="#A80036" points="122.5,1721.9219,112.5,1725.9219,122.5,1729.9219,118.5,1725.9219" style="stroke:#A80036;stroke-width:1.0;"/><line style="stroke:#A80036;stroke-width:1.5;" x1="116.5" x2="805" y1="1725.9219" y2="1725.9219"/><text fill="#000000" font-family="sans-serif" font-size="15" font-weight="bold" lengthAdjust="spacing" textLength="26" x="128.5" y="1720.626">[29]</text><text fill="#000000" font-family="sans-serif" font-size="15" lengthAdjust="spacing" textLength="121" x="158.5" y="1720.626">response success</text><!--MD5=[475ef21b5a0ad4b196d5dbeaf57368c0]
@startuml

' hide footbox
skinparam sequenceArrowThickness 1.5
skinparam fontsize 50
autonumber 1 "<b>[###]"
skinparam defaultFontSize 16
skinparam component {
'FontSize 13
'BackgroundColor<<Apache>> Red
'BorderColor<<Apache>> #FF6655
'FontName Courier
'BorderColor black
'BackgroundColor gold
'ArrowFontName Impact
ArrowFontSize 15
'ArrowColor #FF6655
'ArrowFontColor #777777
}
'skinparam backgroundColor #EEEBDC
Mainframe <b>Add New Booking</b>

actor "<b>User" as user <<(A,#ADD1B2)client>>#White
Box Online Job Fair Registration System #lightgrey
participant "server" as server <<(B,#FFFFFF)main>>#Orange
'participant "auth" as rauth <<(C,#FFFFFF)routes>>#Gold
participant "companies" as rcompanies <<(C,#FFFFFF)routes>>#Gold
participant "bookings" as rbookings <<(C,#FFFFFF)routes>>#Gold
participant "auth" as middleware_auth <<(E,#FFFFFF)middleware>>#Pink
'participant "<b>auth" as controllers_auth <<(D,#FFFFFF)controllers>>#LightGreen
participant "<b>bookings" as controllers_bookings <<(D,#FFFFFF)controllers>>#LightGreen
'participant "<b>companies" as controllers_companies <<(F,#FFFFFF)controllers>>#LightGreen
participant "<b>:Booking" as models_Booking <<(G,#FFFFFF)models>>#LightBlue
participant "<b>:Company" as models_Company <<(F,#FFFFFF)models>>#LightBlue
participant "<b>:User" as models_User <<(H,#FFFFFF)models>>#LightBlue
participant "MongoDB" as mongo <<(I,#FFFFFF)data base>>#d9d2e9
end box

|||
Activate user
user->server: req.post('\n/companies/\n:companyId\n/bookings')
Activate server
'Route'
server->rcompanies: app.use('/\ncompanies', \ncompanies)
DeActivate server
Activate rcompanies
rcompanies->rbookings: router.use('/\n:companyId\n/bookings/', \nbookingRouter)
DeActivate rcompanies
Activate rbookings
'Middleware auth
rbookings->middleware_auth: protect
DeActivate rbookings
Activate middleware_auth
middleware_auth->middleware_auth: jwt.verify(token)
Alt#Gold #Beige no token or invalid token
middleware_auth- ->user: response fail
Else #LightBlue else
middleware_auth->models_User: findById\n(decoded.id)
Activate models_User
models_User->mongo: UserSchema
Activate mongo
mongo->models_User: user
DeActivate mongo
models_User->middleware_auth: user
DeActivate models_User
middleware_auth->middleware_auth: authorize\n('admin', 'user')
Alt#Gold #Beige role != admin or user
middleware_auth- ->user: response fail
Else #LightBlue else
middleware_auth->controllers_bookings: addBooking
DeActivate middleware_auth
Activate controllers_bookings
controllers_bookings->models_Company: findById(req\n.params\n.companyId)
Activate models_Company
models_Company->mongo: CompanySchema
Activate mongo
mongo->models_Company: company
DeActivate mongo
models_Company->controllers_bookings: company
DeActivate models_Company
Alt#Gold #Beige invalid company id
controllers_bookings- ->user: response fail
Else #LightBlue else
Alt#Gold #Beige invalid booking date
controllers_bookings- ->user: response fail
note right: <b>New feature\n<- Verify that prefered date\n is within the interview session\n (May, 10-13)
Else #LightBlue else
controllers_bookings->models_Booking: find(req.user.id)
Activate models_Booking
models_Booking->mongo: BookingSchema
Activate mongo
mongo->models_Booking: bookings
DeActivate mongo
models_Booking->controllers_bookings: existedBookings
DeActivate models_Booking
Alt#Gold #Beige existing booking of the user >= 3 and role != admin
controllers_bookings- ->user: response fail
Else #LightBlue else
controllers_bookings->models_Booking: create(req.body)
Activate models_Booking
models_Booking->mongo: BookingSchema
Activate mongo
mongo->models_Booking: booking
DeActivate mongo
models_Booking->controllers_bookings: booking
DeActivate models_Booking
controllers_bookings->user: response success
DeActivate controllers_bookings
End Alt
End Alt
End Alt
End Alt
End Alt
DeActivate user


skinparam sequence {
'Box ==============================
BoxBorderColor Black
BoxFontColor Blue
BoxFontSize 16
'LifeLine + Arrow ==============================
'ArrowColor DeepSkyBlue
LifeLineBorderColor Black
LifeLineBackgroundColor #FFFF99
'Participant ==============================
ParticipantBorderColor Black
'ParticipantBackgroundColor DodgerBlue
StereoTypeFontSize 14
ParticipantFontSize 16
ParticipantFontColor #0c0c0c
'ParticipantFontName Impact
'Actor ==============================
ActorBorderColor Black
ActorBackgroundColor White
ActorFontSize 16
ActorFontColor Black
'ActorFontName Aapex
' ===================================
}

@enduml

@startuml

skinparam sequenceArrowThickness 1.5
skinparam fontsize 50
autonumber 1 "<b>[###]"
skinparam defaultFontSize 16
skinparam component {
ArrowFontSize 15
}
Mainframe <b>Add New Booking</b>

actor "<b>User" as user <<(A,#ADD1B2)client>>#White
Box Online Job Fair Registration System #lightgrey
participant "server" as server <<(B,#FFFFFF)main>>#Orange
participant "companies" as rcompanies <<(C,#FFFFFF)routes>>#Gold
participant "bookings" as rbookings <<(C,#FFFFFF)routes>>#Gold
participant "auth" as middleware_auth <<(E,#FFFFFF)middleware>>#Pink
participant "<b>bookings" as controllers_bookings <<(D,#FFFFFF)controllers>>#LightGreen
participant "<b>:Booking" as models_Booking <<(G,#FFFFFF)models>>#LightBlue
participant "<b>:Company" as models_Company <<(F,#FFFFFF)models>>#LightBlue
participant "<b>:User" as models_User <<(H,#FFFFFF)models>>#LightBlue
participant "MongoDB" as mongo <<(I,#FFFFFF)data base>>#d9d2e9
end box

|||
Activate user
user->server: req.post('\n/companies/\n:companyId\n/bookings')
Activate server
server->rcompanies: app.use('/\ncompanies', \ncompanies)
DeActivate server
Activate rcompanies
rcompanies->rbookings: router.use('/\n:companyId\n/bookings/', \nbookingRouter)
DeActivate rcompanies
Activate rbookings
rbookings->middleware_auth: protect
DeActivate rbookings
Activate middleware_auth
middleware_auth->middleware_auth: jwt.verify(token)
Alt#Gold #Beige no token or invalid token
middleware_auth- ->user: response fail
Else #LightBlue else
middleware_auth->models_User: findById\n(decoded.id)
Activate models_User
models_User->mongo: UserSchema
Activate mongo
mongo->models_User: user
DeActivate mongo
models_User->middleware_auth: user
DeActivate models_User
middleware_auth->middleware_auth: authorize\n('admin', 'user')
Alt#Gold #Beige role != admin or user
middleware_auth- ->user: response fail
Else #LightBlue else
middleware_auth->controllers_bookings: addBooking
DeActivate middleware_auth
Activate controllers_bookings
controllers_bookings->models_Company: findById(req\n.params\n.companyId)
Activate models_Company
models_Company->mongo: CompanySchema
Activate mongo
mongo->models_Company: company
DeActivate mongo
models_Company->controllers_bookings: company
DeActivate models_Company
Alt#Gold #Beige invalid company id
controllers_bookings- ->user: response fail
Else #LightBlue else
Alt#Gold #Beige invalid booking date
controllers_bookings- ->user: response fail
note right: <b>New feature\n<- Verify that prefered date\n is within the interview session\n (May, 10-13)
Else #LightBlue else
controllers_bookings->models_Booking: find(req.user.id)
Activate models_Booking
models_Booking->mongo: BookingSchema
Activate mongo
mongo->models_Booking: bookings
DeActivate mongo
models_Booking->controllers_bookings: existedBookings
DeActivate models_Booking
Alt#Gold #Beige existing booking of the user >= 3 and role != admin
controllers_bookings- ->user: response fail
Else #LightBlue else
controllers_bookings->models_Booking: create(req.body)
Activate models_Booking
models_Booking->mongo: BookingSchema
Activate mongo
mongo->models_Booking: booking
DeActivate mongo
models_Booking->controllers_bookings: booking
DeActivate models_Booking
controllers_bookings->user: response success
DeActivate controllers_bookings
End Alt
End Alt
End Alt
End Alt
End Alt
DeActivate user


skinparam sequence {
BoxBorderColor Black
BoxFontColor Blue
BoxFontSize 16
LifeLineBorderColor Black
LifeLineBackgroundColor #FFFF99
ParticipantBorderColor Black
StereoTypeFontSize 14
ParticipantFontSize 16
ParticipantFontColor #0c0c0c
ActorBorderColor Black
ActorBackgroundColor White
ActorFontSize 16
ActorFontColor Black
}

@enduml

PlantUML version 1.2022.0(Tue Jan 11 23:16:42 ICT 2022)
(GPL source distribution)
Java Runtime: Java(TM) SE Runtime Environment
JVM: Java HotSpot(TM) 64-Bit Server VM
Default Encoding: Cp1252
Language: en
Country: US
--></g></svg>