<?xml version="1.0" encoding="UTF-8" standalone="no"?><svg xmlns="http://www.w3.org/2000/svg" xmlns:xlink="http://www.w3.org/1999/xlink" contentScriptType="application/ecmascript" contentStyleType="text/css" height="1424px" preserveAspectRatio="none" style="width:1187px;height:1424px;background:#FFFFFF;" version="1.1" viewBox="0 0 1187 1424" width="1187px" zoomAndPan="magnify"><defs><filter height="300%" id="fo7qw95mx1t1d" width="300%" x="-1" y="-1"><feGaussianBlur result="blurOut" stdDeviation="2.0"/><feColorMatrix in="blurOut" result="blurOut2" type="matrix" values="0 0 0 0 0 0 0 0 0 0 0 0 0 0 0 0 0 0 .4 0"/><feOffset dx="4.0" dy="4.0" in="blurOut2" result="blurOut3"/><feBlend in="SourceGraphic" in2="blurOut3" mode="normal"/></filter></defs><g><rect fill="#FFFFFF" filter="url(#fo7qw95mx1t1d)" height="1407.9922" style="stroke:#000000;stroke-width:1.0;" width="1166.5" x="9" y="5"/><path d="M175,5 L175,15.6094 L165,25.6094 L9,25.6094 " fill="none" style="stroke:#000000;stroke-width:1.0;"/><text fill="#000000" font-family="sans-serif" font-size="14" font-weight="bold" lengthAdjust="spacing" textLength="156" x="12" y="20.5332">Delete Single Booking</text><rect fill="#D3D3D3" height="1369.3672" style="stroke:#000000;stroke-width:1.0;" width="939" x="186.5" y="33.6094"/><text fill="#0000FF" font-family="sans-serif" font-size="16" font-weight="bold" lengthAdjust="spacing" textLength="273" x="517.5" y="50.2188">Online Job Fair Registration System</text><rect fill="#FFFF99" filter="url(#fo7qw95mx1t1d)" height="1112.8984" style="stroke:#000000;stroke-width:1.0;" width="10" x="91.5" y="147.3438"/><rect fill="#FFFF99" filter="url(#fo7qw95mx1t1d)" height="70.6016" style="stroke:#000000;stroke-width:1.0;" width="10" x="231.5" y="216.0781"/><rect fill="#FFFF99" filter="url(#fo7qw95mx1t1d)" height="32.8672" style="stroke:#000000;stroke-width:1.0;" width="10" x="351.5" y="286.6797"/><rect fill="#FFFF99" filter="url(#fo7qw95mx1t1d)" height="441.9141" style="stroke:#000000;stroke-width:1.0;" width="10" x="483" y="319.5469"/><rect fill="#FFFF99" filter="url(#fo7qw95mx1t1d)" height="462.7813" style="stroke:#000000;stroke-width:1.0;" width="10" x="636" y="761.4609"/><rect fill="#FFFF99" filter="url(#fo7qw95mx1t1d)" height="98.6016" style="stroke:#000000;stroke-width:1.0;" width="10" x="795" y="813.1953"/><rect fill="#FFFF99" filter="url(#fo7qw95mx1t1d)" height="98.6016" style="stroke:#000000;stroke-width:1.0;" width="10" x="795" y="1092.7734"/><rect fill="#FFFF99" filter="url(#fo7qw95mx1t1d)" height="98.6016" style="stroke:#000000;stroke-width:1.0;" width="10" x="917" y="491.2031"/><rect fill="#FFFF99" filter="url(#fo7qw95mx1t1d)" height="32.8672" style="stroke:#000000;stroke-width:1.0;" width="10" x="1054" y="524.0703"/><rect fill="#FFFF99" filter="url(#fo7qw95mx1t1d)" height="32.8672" style="stroke:#000000;stroke-width:1.0;" width="10" x="1054" y="846.0625"/><rect fill="#FFFF99" filter="url(#fo7qw95mx1t1d)" height="32.8672" style="stroke:#000000;stroke-width:1.0;" width="10" x="1054" y="1125.6406"/><rect fill="#F5F5DC" filter="url(#fo7qw95mx1t1d)" height="872.8281" style="stroke:#000000;stroke-width:2.0;" width="1146.5" x="15" y="380.4141"/><rect fill="#ADD8E6" height="821.6094" style="stroke:none;stroke-width:1.0;" width="1146.5" x="15" y="431.6328"/><rect fill="#F5F5DC" filter="url(#fo7qw95mx1t1d)" height="576.7031" style="stroke:#000000;stroke-width:2.0;" width="1126.5" x="25" y="669.5391"/><rect fill="#ADD8E6" height="525.4844" style="stroke:none;stroke-width:1.0;" width="1126.5" x="25" y="720.7578"/><rect fill="#F5F5DC" filter="url(#fo7qw95mx1t1d)" height="312.4453" style="stroke:#000000;stroke-width:2.0;" width="1106.5" x="35" y="926.7969"/><rect fill="#ADD8E6" height="261.2266" style="stroke:none;stroke-width:1.0;" width="1106.5" x="35" y="978.0156"/><rect fill="#F5F5DC" filter="url(#fo7qw95mx1t1d)" height="231.3906" style="stroke:#000000;stroke-width:2.0;" width="1086.5" x="45" y="1000.8516"/><rect fill="#ADD8E6" height="180.1719" style="stroke:none;stroke-width:1.0;" width="1086.5" x="45" y="1052.0703"/><line style="stroke:#000000;stroke-width:1.0;stroke-dasharray:5.0,5.0;" x1="96" x2="96" y1="137.3438" y2="1295.2422"/><line style="stroke:#000000;stroke-width:1.0;stroke-dasharray:5.0,5.0;" x1="236.5" x2="236.5" y1="137.3438" y2="1295.2422"/><line style="stroke:#000000;stroke-width:1.0;stroke-dasharray:5.0,5.0;" x1="356.5" x2="356.5" y1="137.3438" y2="1295.2422"/><line style="stroke:#000000;stroke-width:1.0;stroke-dasharray:5.0,5.0;" x1="487.5" x2="487.5" y1="137.3438" y2="1295.2422"/><line style="stroke:#000000;stroke-width:1.0;stroke-dasharray:5.0,5.0;" x1="641" x2="641" y1="137.3438" y2="1295.2422"/><line style="stroke:#000000;stroke-width:1.0;stroke-dasharray:5.0,5.0;" x1="799.5" x2="799.5" y1="137.3438" y2="1295.2422"/><line style="stroke:#000000;stroke-width:1.0;stroke-dasharray:5.0,5.0;" x1="921.5" x2="921.5" y1="137.3438" y2="1295.2422"/><line style="stroke:#000000;stroke-width:1.0;stroke-dasharray:5.0,5.0;" x1="1058.5" x2="1058.5" y1="137.3438" y2="1295.2422"/><ellipse cx="66" cy="110.6094" fill="#ADD1B2" rx="11" ry="11" style="stroke:none;stroke-width:1.0;"/><path d="M68.1875,112.375 L64.0469,112.375 L63.625,113.4063 L64.0469,113.4063 Q64.6563,113.4063 64.9219,113.6406 Q65.1875,113.875 65.1875,114.2656 Q65.1875,114.6406 64.9219,114.875 Q64.6563,115.1094 64.0469,115.1094 L61.75,115.1094 Q61.1406,115.1094 60.8828,114.875 Q60.625,114.6406 60.625,114.25 Q60.625,113.875 60.8984,113.6328 Q61.1719,113.3906 61.7969,113.4063 L64.4688,106.75 L63.3594,106.75 Q62.75,106.75 62.4844,106.5156 Q62.2188,106.2813 62.2188,105.8906 Q62.2188,105.5156 62.4844,105.2813 Q62.75,105.0469 63.3594,105.0469 L67.0313,105.0469 L70.4219,113.4063 Q71.0156,113.4063 71.2031,113.5469 Q71.5938,113.8125 71.5938,114.2656 Q71.5938,114.6406 71.3359,114.875 Q71.0781,115.1094 70.4688,115.1094 L68.1719,115.1094 Q67.5625,115.1094 67.2969,114.875 Q67.0313,114.6406 67.0313,114.25 Q67.0313,113.875 67.2969,113.6406 Q67.5625,113.4063 68.1719,113.4063 L68.5938,113.4063 L68.1875,112.375 Z M67.4688,110.6719 L66.1094,107.2969 L64.7344,110.6719 L67.4688,110.6719 Z " fill="#000000"/><text fill="#000000" font-family="sans-serif" font-size="14" font-style="italic" lengthAdjust="spacing" textLength="49" x="83" y="114.1426">«client»</text><text fill="#000000" font-family="sans-serif" font-size="16" font-weight="bold" lengthAdjust="spacing" textLength="36" x="89.5" y="133.8281">User</text><ellipse cx="96.5" cy="42.6094" fill="#FFFFFF" filter="url(#fo7qw95mx1t1d)" rx="8" ry="8" style="stroke:#000000;stroke-width:2.0;"/><path d="M96.5,50.6094 L96.5,77.6094 M83.5,58.6094 L109.5,58.6094 M96.5,77.6094 L83.5,92.6094 M96.5,77.6094 L109.5,92.6094 " fill="none" filter="url(#fo7qw95mx1t1d)" style="stroke:#000000;stroke-width:2.0;"/><ellipse cx="66" cy="1305.2422" fill="#ADD1B2" rx="11" ry="11" style="stroke:none;stroke-width:1.0;"/><path d="M68.1875,1307.0078 L64.0469,1307.0078 L63.625,1308.0391 L64.0469,1308.0391 Q64.6563,1308.0391 64.9219,1308.2734 Q65.1875,1308.5078 65.1875,1308.8984 Q65.1875,1309.2734 64.9219,1309.5078 Q64.6563,1309.7422 64.0469,1309.7422 L61.75,1309.7422 Q61.1406,1309.7422 60.8828,1309.5078 Q60.625,1309.2734 60.625,1308.8828 Q60.625,1308.5078 60.8984,1308.2656 Q61.1719,1308.0234 61.7969,1308.0391 L64.4688,1301.3828 L63.3594,1301.3828 Q62.75,1301.3828 62.4844,1301.1484 Q62.2188,1300.9141 62.2188,1300.5234 Q62.2188,1300.1484 62.4844,1299.9141 Q62.75,1299.6797 63.3594,1299.6797 L67.0313,1299.6797 L70.4219,1308.0391 Q71.0156,1308.0391 71.2031,1308.1797 Q71.5938,1308.4453 71.5938,1308.8984 Q71.5938,1309.2734 71.3359,1309.5078 Q71.0781,1309.7422 70.4688,1309.7422 L68.1719,1309.7422 Q67.5625,1309.7422 67.2969,1309.5078 Q67.0313,1309.2734 67.0313,1308.8828 Q67.0313,1308.5078 67.2969,1308.2734 Q67.5625,1308.0391 68.1719,1308.0391 L68.5938,1308.0391 L68.1875,1307.0078 Z M67.4688,1305.3047 L66.1094,1301.9297 L64.7344,1305.3047 L67.4688,1305.3047 Z " fill="#000000"/><text fill="#000000" font-family="sans-serif" font-size="14" font-style="italic" lengthAdjust="spacing" textLength="49" x="83" y="1308.7754">«client»</text><text fill="#000000" font-family="sans-serif" font-size="16" font-weight="bold" lengthAdjust="spacing" textLength="36" x="89.5" y="1328.4609">User</text><ellipse cx="96.5" cy="1341.9766" fill="#FFFFFF" filter="url(#fo7qw95mx1t1d)" rx="8" ry="8" style="stroke:#000000;stroke-width:2.0;"/><path d="M96.5,1349.9766 L96.5,1376.9766 M83.5,1357.9766 L109.5,1357.9766 M96.5,1376.9766 L83.5,1391.9766 M96.5,1376.9766 L109.5,1391.9766 " fill="none" filter="url(#fo7qw95mx1t1d)" style="stroke:#000000;stroke-width:2.0;"/><rect fill="#FFA500" filter="url(#fo7qw95mx1t1d)" height="51.7344" style="stroke:#000000;stroke-width:1.5;" width="88" x="190.5" y="80.6094"/><ellipse cx="208.5" cy="98.6094" fill="#FFFFFF" rx="11" ry="11" style="stroke:#000000;stroke-width:1.0;"/><path d="M206.125,101.9063 L206.125,95.25 L205.8594,95.25 Q205.25,95.25 204.9844,95.0156 Q204.7188,94.7813 204.7188,94.3906 Q204.7188,94.0156 204.9844,93.7813 Q205.25,93.5469 205.8594,93.5469 L210.125,93.5469 Q211.6563,93.5469 212.5859,94.3906 Q213.5156,95.2344 213.5156,96.4063 Q213.5156,96.9688 213.2969,97.4609 Q213.0781,97.9531 212.6406,98.3594 Q213.4531,98.8438 213.8516,99.4844 Q214.25,100.125 214.25,100.9375 Q214.25,101.5938 213.9688,102.1406 Q213.75,102.5781 213.4375,102.8281 Q213.0156,103.1719 212.3984,103.3906 Q211.7813,103.6094 210.8594,103.6094 L205.8594,103.6094 Q205.25,103.6094 204.9844,103.375 Q204.7188,103.1406 204.7188,102.75 Q204.7188,102.375 204.9844,102.1406 Q205.25,101.9063 205.8594,101.9063 L206.125,101.9063 Z M207.8281,97.7188 L209.7031,97.7188 Q210.7031,97.7188 211.3594,97.2188 Q211.8125,96.875 211.8125,96.375 Q211.8125,95.9219 211.3906,95.5859 Q210.9688,95.25 210.0469,95.25 L207.8281,95.25 L207.8281,97.7188 Z M207.8281,101.9063 L210.7656,101.9063 Q211.8125,101.9063 212.2344,101.5938 Q212.5469,101.375 212.5469,100.9375 Q212.5469,100.4219 211.9141,99.9219 Q211.2813,99.4219 210.0781,99.4219 L207.8281,99.4219 L207.8281,101.9063 Z " fill="#0C0C0C"/><text fill="#000000" font-family="sans-serif" font-size="14" font-style="italic" lengthAdjust="spacing" textLength="46" x="225.5" y="102.1426">«main»</text><text fill="#0C0C0C" font-family="sans-serif" font-size="16" lengthAdjust="spacing" textLength="43" x="227" y="121.8281">server</text><rect fill="#FFA500" filter="url(#fo7qw95mx1t1d)" height="51.7344" style="stroke:#000000;stroke-width:1.5;" width="88" x="190.5" y="1294.2422"/><ellipse cx="208.5" cy="1312.2422" fill="#FFFFFF" rx="11" ry="11" style="stroke:#000000;stroke-width:1.0;"/><path d="M206.125,1315.5391 L206.125,1308.8828 L205.8594,1308.8828 Q205.25,1308.8828 204.9844,1308.6484 Q204.7188,1308.4141 204.7188,1308.0234 Q204.7188,1307.6484 204.9844,1307.4141 Q205.25,1307.1797 205.8594,1307.1797 L210.125,1307.1797 Q211.6563,1307.1797 212.5859,1308.0234 Q213.5156,1308.8672 213.5156,1310.0391 Q213.5156,1310.6016 213.2969,1311.0938 Q213.0781,1311.5859 212.6406,1311.9922 Q213.4531,1312.4766 213.8516,1313.1172 Q214.25,1313.7578 214.25,1314.5703 Q214.25,1315.2266 213.9688,1315.7734 Q213.75,1316.2109 213.4375,1316.4609 Q213.0156,1316.8047 212.3984,1317.0234 Q211.7813,1317.2422 210.8594,1317.2422 L205.8594,1317.2422 Q205.25,1317.2422 204.9844,1317.0078 Q204.7188,1316.7734 204.7188,1316.3828 Q204.7188,1316.0078 204.9844,1315.7734 Q205.25,1315.5391 205.8594,1315.5391 L206.125,1315.5391 Z M207.8281,1311.3516 L209.7031,1311.3516 Q210.7031,1311.3516 211.3594,1310.8516 Q211.8125,1310.5078 211.8125,1310.0078 Q211.8125,1309.5547 211.3906,1309.2188 Q210.9688,1308.8828 210.0469,1308.8828 L207.8281,1308.8828 L207.8281,1311.3516 Z M207.8281,1315.5391 L210.7656,1315.5391 Q211.8125,1315.5391 212.2344,1315.2266 Q212.5469,1315.0078 212.5469,1314.5703 Q212.5469,1314.0547 211.9141,1313.5547 Q211.2813,1313.0547 210.0781,1313.0547 L207.8281,1313.0547 L207.8281,1315.5391 Z " fill="#0C0C0C"/><text fill="#000000" font-family="sans-serif" font-size="14" font-style="italic" lengthAdjust="spacing" textLength="46" x="225.5" y="1315.7754">«main»</text><text fill="#0C0C0C" font-family="sans-serif" font-size="16" lengthAdjust="spacing" textLength="43" x="227" y="1335.4609">server</text><rect fill="#FFD700" filter="url(#fo7qw95mx1t1d)" height="51.7344" style="stroke:#000000;stroke-width:1.5;" width="106" x="301.5" y="80.6094"/><ellipse cx="319.5" cy="98.6094" fill="#FFFFFF" rx="11" ry="11" style="stroke:#000000;stroke-width:1.0;"/><path d="M322.2656,94.4844 Q322.4219,94.2656 322.6094,94.1563 Q322.7969,94.0469 323.0156,94.0469 Q323.3906,94.0469 323.625,94.3047 Q323.8594,94.5625 323.8594,95.1719 L323.8594,96.625 Q323.8594,97.2344 323.625,97.5 Q323.3906,97.7656 323.0156,97.7656 Q322.6719,97.7656 322.4688,97.5625 Q322.2656,97.375 322.1563,96.8594 Q322.1094,96.5 321.9219,96.3125 Q321.5938,95.9375 320.9844,95.7188 Q320.375,95.5 319.75,95.5 Q318.9844,95.5 318.3516,95.8281 Q317.7188,96.1563 317.2266,96.9063 Q316.7344,97.6563 316.7344,98.6875 L316.7344,99.7813 Q316.7344,101.0156 317.625,101.8359 Q318.5156,102.6563 320.1094,102.6563 Q321.0469,102.6563 321.7031,102.4063 Q322.0938,102.25 322.5156,101.8125 Q322.7813,101.5469 322.9297,101.4688 Q323.0781,101.3906 323.2813,101.3906 Q323.6094,101.3906 323.8672,101.6484 Q324.125,101.9063 324.125,102.25 Q324.125,102.5938 323.7813,103 Q323.2813,103.5781 322.4844,103.9063 Q321.4063,104.3594 320.1094,104.3594 Q318.5938,104.3594 317.3906,103.7344 Q316.4063,103.2344 315.7188,102.1641 Q315.0313,101.0938 315.0313,99.8125 L315.0313,98.6563 Q315.0313,97.3281 315.6484,96.1797 Q316.2656,95.0313 317.3594,94.4141 Q318.4531,93.7969 319.6875,93.7969 Q320.4219,93.7969 321.0703,93.9609 Q321.7188,94.125 322.2656,94.4844 Z " fill="#0C0C0C"/><text fill="#000000" font-family="sans-serif" font-size="14" font-style="italic" lengthAdjust="spacing" textLength="56" x="340.5" y="102.1426">«routes»</text><text fill="#0C0C0C" font-family="sans-serif" font-size="16" lengthAdjust="spacing" textLength="64" x="336.5" y="121.8281">bookings</text><rect fill="#FFD700" filter="url(#fo7qw95mx1t1d)" height="51.7344" style="stroke:#000000;stroke-width:1.5;" width="106" x="301.5" y="1294.2422"/><ellipse cx="319.5" cy="1312.2422" fill="#FFFFFF" rx="11" ry="11" style="stroke:#000000;stroke-width:1.0;"/><path d="M322.2656,1308.1172 Q322.4219,1307.8984 322.6094,1307.7891 Q322.7969,1307.6797 323.0156,1307.6797 Q323.3906,1307.6797 323.625,1307.9375 Q323.8594,1308.1953 323.8594,1308.8047 L323.8594,1310.2578 Q323.8594,1310.8672 323.625,1311.1328 Q323.3906,1311.3984 323.0156,1311.3984 Q322.6719,1311.3984 322.4688,1311.1953 Q322.2656,1311.0078 322.1563,1310.4922 Q322.1094,1310.1328 321.9219,1309.9453 Q321.5938,1309.5703 320.9844,1309.3516 Q320.375,1309.1328 319.75,1309.1328 Q318.9844,1309.1328 318.3516,1309.4609 Q317.7188,1309.7891 317.2266,1310.5391 Q316.7344,1311.2891 316.7344,1312.3203 L316.7344,1313.4141 Q316.7344,1314.6484 317.625,1315.4688 Q318.5156,1316.2891 320.1094,1316.2891 Q321.0469,1316.2891 321.7031,1316.0391 Q322.0938,1315.8828 322.5156,1315.4453 Q322.7813,1315.1797 322.9297,1315.1016 Q323.0781,1315.0234 323.2813,1315.0234 Q323.6094,1315.0234 323.8672,1315.2813 Q324.125,1315.5391 324.125,1315.8828 Q324.125,1316.2266 323.7813,1316.6328 Q323.2813,1317.2109 322.4844,1317.5391 Q321.4063,1317.9922 320.1094,1317.9922 Q318.5938,1317.9922 317.3906,1317.3672 Q316.4063,1316.8672 315.7188,1315.7969 Q315.0313,1314.7266 315.0313,1313.4453 L315.0313,1312.2891 Q315.0313,1310.9609 315.6484,1309.8125 Q316.2656,1308.6641 317.3594,1308.0469 Q318.4531,1307.4297 319.6875,1307.4297 Q320.4219,1307.4297 321.0703,1307.5938 Q321.7188,1307.7578 322.2656,1308.1172 Z " fill="#0C0C0C"/><text fill="#000000" font-family="sans-serif" font-size="14" font-style="italic" lengthAdjust="spacing" textLength="56" x="340.5" y="1315.7754">«routes»</text><text fill="#0C0C0C" font-family="sans-serif" font-size="16" lengthAdjust="spacing" textLength="64" x="336.5" y="1335.4609">bookings</text><rect fill="#FFC0CB" filter="url(#fo7qw95mx1t1d)" height="51.7344" style="stroke:#000000;stroke-width:1.5;" width="129" x="421.5" y="80.6094"/><ellipse cx="439.5" cy="98.6094" fill="#FFFFFF" rx="11" ry="11" style="stroke:#000000;stroke-width:1.0;"/><path d="M438.3594,99.4063 L438.3594,101.9063 L442.6875,101.9063 L442.6875,100.9844 Q442.6875,100.375 442.9297,100.1094 Q443.1719,99.8438 443.5469,99.8438 Q443.9219,99.8438 444.1563,100.1094 Q444.3906,100.375 444.3906,100.9844 L444.3906,103.6094 L436.3906,103.6094 Q435.7656,103.6094 435.5078,103.375 Q435.25,103.1406 435.25,102.75 Q435.25,102.375 435.5156,102.1406 Q435.7813,101.9063 436.3906,101.9063 L436.6563,101.9063 L436.6563,95.25 L436.3906,95.25 Q435.7656,95.25 435.5078,95.0156 Q435.25,94.7813 435.25,94.3906 Q435.25,94.0156 435.5078,93.7813 Q435.7656,93.5469 436.3906,93.5469 L444.0156,93.5469 L444.0156,96.1406 Q444.0156,96.75 443.7891,97.0078 Q443.5625,97.2656 443.1719,97.2656 Q442.7969,97.2656 442.5625,97.0078 Q442.3281,96.75 442.3281,96.1406 L442.3281,95.25 L438.3594,95.25 L438.3594,97.7031 L439.8438,97.7031 Q439.8438,97.0469 439.9688,96.8594 Q440.2344,96.4531 440.7031,96.4531 Q441.0781,96.4531 441.3125,96.7109 Q441.5469,96.9688 441.5469,97.5781 L441.5469,99.5469 Q441.5469,100.0938 441.4219,100.2813 Q441.1563,100.6719 440.7031,100.6719 Q440.2344,100.6719 439.9688,100.2656 Q439.8438,100.0781 439.8438,99.4063 L438.3594,99.4063 Z " fill="#0C0C0C"/><text fill="#000000" font-family="sans-serif" font-size="14" font-style="italic" lengthAdjust="spacing" textLength="87" x="456.5" y="102.1426">«middleware»</text><text fill="#0C0C0C" font-family="sans-serif" font-size="16" lengthAdjust="spacing" textLength="29" x="485.5" y="121.8281">auth</text><rect fill="#FFC0CB" filter="url(#fo7qw95mx1t1d)" height="51.7344" style="stroke:#000000;stroke-width:1.5;" width="129" x="421.5" y="1294.2422"/><ellipse cx="439.5" cy="1312.2422" fill="#FFFFFF" rx="11" ry="11" style="stroke:#000000;stroke-width:1.0;"/><path d="M438.3594,1313.0391 L438.3594,1315.5391 L442.6875,1315.5391 L442.6875,1314.6172 Q442.6875,1314.0078 442.9297,1313.7422 Q443.1719,1313.4766 443.5469,1313.4766 Q443.9219,1313.4766 444.1563,1313.7422 Q444.3906,1314.0078 444.3906,1314.6172 L444.3906,1317.2422 L436.3906,1317.2422 Q435.7656,1317.2422 435.5078,1317.0078 Q435.25,1316.7734 435.25,1316.3828 Q435.25,1316.0078 435.5156,1315.7734 Q435.7813,1315.5391 436.3906,1315.5391 L436.6563,1315.5391 L436.6563,1308.8828 L436.3906,1308.8828 Q435.7656,1308.8828 435.5078,1308.6484 Q435.25,1308.4141 435.25,1308.0234 Q435.25,1307.6484 435.5078,1307.4141 Q435.7656,1307.1797 436.3906,1307.1797 L444.0156,1307.1797 L444.0156,1309.7734 Q444.0156,1310.3828 443.7891,1310.6406 Q443.5625,1310.8984 443.1719,1310.8984 Q442.7969,1310.8984 442.5625,1310.6406 Q442.3281,1310.3828 442.3281,1309.7734 L442.3281,1308.8828 L438.3594,1308.8828 L438.3594,1311.3359 L439.8438,1311.3359 Q439.8438,1310.6797 439.9688,1310.4922 Q440.2344,1310.0859 440.7031,1310.0859 Q441.0781,1310.0859 441.3125,1310.3438 Q441.5469,1310.6016 441.5469,1311.2109 L441.5469,1313.1797 Q441.5469,1313.7266 441.4219,1313.9141 Q441.1563,1314.3047 440.7031,1314.3047 Q440.2344,1314.3047 439.9688,1313.8984 Q439.8438,1313.7109 439.8438,1313.0391 L438.3594,1313.0391 Z " fill="#0C0C0C"/><text fill="#000000" font-family="sans-serif" font-size="14" font-style="italic" lengthAdjust="spacing" textLength="87" x="456.5" y="1315.7754">«middleware»</text><text fill="#0C0C0C" font-family="sans-serif" font-size="16" lengthAdjust="spacing" textLength="29" x="485.5" y="1335.4609">auth</text><rect fill="#90EE90" filter="url(#fo7qw95mx1t1d)" height="51.7344" style="stroke:#000000;stroke-width:1.5;" width="124" x="577" y="80.6094"/><ellipse cx="595" cy="98.6094" fill="#FFFFFF" rx="11" ry="11" style="stroke:#000000;stroke-width:1.0;"/><path d="M592.5469,101.9063 L592.5469,95.25 Q592,95.2344 591.7422,95 Q591.4844,94.7656 591.4844,94.3906 Q591.4844,94.0156 591.75,93.7813 Q592.0156,93.5469 592.625,93.5469 L596.1875,93.5469 Q597.0156,93.5469 597.8125,93.8516 Q598.6094,94.1563 599.0938,94.6406 Q599.4531,95 599.8438,95.6172 Q600.2344,96.2344 600.4375,96.8516 Q600.6406,97.4688 600.6406,98.3594 L600.6406,99.1719 Q600.6406,100.25 600.2734,101.0859 Q599.9063,101.9219 599.3125,102.4453 Q598.7188,102.9688 598.2031,103.2188 Q597.375,103.6094 596.0469,103.6094 L592.625,103.6094 Q592.0156,103.6094 591.75,103.375 Q591.4844,103.1406 591.4844,102.75 Q591.4844,102.375 591.75,102.1406 Q592.0156,101.9063 592.5469,101.9063 Z M594.25,101.9063 L596.0625,101.9063 Q597.0625,101.9063 597.5781,101.6094 Q598.25,101.2344 598.5938,100.6484 Q598.9375,100.0625 598.9375,99.125 L598.9375,98.3125 Q598.9375,97.5156 598.625,96.9063 Q598.1406,95.9531 597.5391,95.6016 Q596.9375,95.25 596.0469,95.25 L594.25,95.25 L594.25,101.9063 Z " fill="#0C0C0C"/><text fill="#000000" font-family="sans-serif" font-size="14" font-style="italic" lengthAdjust="spacing" textLength="82" x="612" y="102.1426">«controllers»</text><text fill="#0C0C0C" font-family="sans-serif" font-size="16" font-weight="bold" lengthAdjust="spacing" textLength="72" x="617" y="121.8281">bookings</text><rect fill="#90EE90" filter="url(#fo7qw95mx1t1d)" height="51.7344" style="stroke:#000000;stroke-width:1.5;" width="124" x="577" y="1294.2422"/><ellipse cx="595" cy="1312.2422" fill="#FFFFFF" rx="11" ry="11" style="stroke:#000000;stroke-width:1.0;"/><path d="M592.5469,1315.5391 L592.5469,1308.8828 Q592,1308.8672 591.7422,1308.6328 Q591.4844,1308.3984 591.4844,1308.0234 Q591.4844,1307.6484 591.75,1307.4141 Q592.0156,1307.1797 592.625,1307.1797 L596.1875,1307.1797 Q597.0156,1307.1797 597.8125,1307.4844 Q598.6094,1307.7891 599.0938,1308.2734 Q599.4531,1308.6328 599.8438,1309.25 Q600.2344,1309.8672 600.4375,1310.4844 Q600.6406,1311.1016 600.6406,1311.9922 L600.6406,1312.8047 Q600.6406,1313.8828 600.2734,1314.7188 Q599.9063,1315.5547 599.3125,1316.0781 Q598.7188,1316.6016 598.2031,1316.8516 Q597.375,1317.2422 596.0469,1317.2422 L592.625,1317.2422 Q592.0156,1317.2422 591.75,1317.0078 Q591.4844,1316.7734 591.4844,1316.3828 Q591.4844,1316.0078 591.75,1315.7734 Q592.0156,1315.5391 592.5469,1315.5391 Z M594.25,1315.5391 L596.0625,1315.5391 Q597.0625,1315.5391 597.5781,1315.2422 Q598.25,1314.8672 598.5938,1314.2813 Q598.9375,1313.6953 598.9375,1312.7578 L598.9375,1311.9453 Q598.9375,1311.1484 598.625,1310.5391 Q598.1406,1309.5859 597.5391,1309.2344 Q596.9375,1308.8828 596.0469,1308.8828 L594.25,1308.8828 L594.25,1315.5391 Z " fill="#0C0C0C"/><text fill="#000000" font-family="sans-serif" font-size="14" font-style="italic" lengthAdjust="spacing" textLength="82" x="612" y="1315.7754">«controllers»</text><text fill="#0C0C0C" font-family="sans-serif" font-size="16" font-weight="bold" lengthAdjust="spacing" textLength="72" x="617" y="1335.4609">bookings</text><rect fill="#ADD8E6" filter="url(#fo7qw95mx1t1d)" height="51.7344" style="stroke:#000000;stroke-width:1.5;" width="113" x="741.5" y="80.6094"/><ellipse cx="759.5" cy="98.6094" fill="#FFFFFF" rx="11" ry="11" style="stroke:#000000;stroke-width:1.0;"/><path d="M763.8906,100.5 L763.8906,102.7813 Q762.7344,103.4063 761.9219,103.6328 Q761.1094,103.8594 760.1719,103.8594 Q758.875,103.8594 757.7656,103.4688 Q756.8906,103.1719 756.3906,102.7109 Q755.8906,102.25 755.4688,101.3594 Q755.0469,100.4688 755.0469,99.375 L755.0469,98.1406 Q755.0469,96.4375 756.0781,95.0938 Q757.4688,93.2969 759.875,93.2969 Q760.5625,93.2969 761.1953,93.4375 Q761.8281,93.5781 762.3906,93.8594 Q762.7188,93.5469 763.0469,93.5469 Q763.4219,93.5469 763.6563,93.8047 Q763.8906,94.0625 763.8906,94.6719 L763.8906,95.7813 Q763.8906,96.3906 763.6563,96.6563 Q763.4219,96.9219 763.0469,96.9219 Q762.75,96.9219 762.5313,96.7344 Q762.3594,96.6094 762.25,96.1797 Q762.1406,95.75 762,95.6094 Q761.7656,95.3594 761.2031,95.1797 Q760.6406,95 759.9219,95 Q758.9219,95 758.1719,95.4063 Q757.6406,95.7188 757.1875,96.4844 Q756.7344,97.25 756.7344,98.1406 L756.7344,99.375 Q756.7344,100.7344 757.5313,101.4453 Q758.3281,102.1563 760.0469,102.1563 Q761.2188,102.1563 762.1875,101.7188 L762.1875,100.5 L760.4531,100.5 Q759.8438,100.5 759.5781,100.2578 Q759.3125,100.0156 759.3125,99.6406 Q759.3125,99.2656 759.5781,99.0234 Q759.8438,98.7813 760.4531,98.7813 L763.4688,98.7969 Q764.0938,98.7969 764.3516,99.0313 Q764.6094,99.2656 764.6094,99.6406 Q764.6094,99.9375 764.4297,100.1641 Q764.25,100.3906 763.8906,100.5 Z " fill="#0C0C0C"/><text fill="#000000" font-family="sans-serif" font-size="14" font-style="italic" lengthAdjust="spacing" textLength="61" x="781.5" y="102.1426">«models»</text><text fill="#0C0C0C" font-family="sans-serif" font-size="16" font-weight="bold" lengthAdjust="spacing" textLength="71" x="776.5" y="121.8281">:Booking</text><rect fill="#ADD8E6" filter="url(#fo7qw95mx1t1d)" height="51.7344" style="stroke:#000000;stroke-width:1.5;" width="113" x="741.5" y="1294.2422"/><ellipse cx="759.5" cy="1312.2422" fill="#FFFFFF" rx="11" ry="11" style="stroke:#000000;stroke-width:1.0;"/><path d="M763.8906,1314.1328 L763.8906,1316.4141 Q762.7344,1317.0391 761.9219,1317.2656 Q761.1094,1317.4922 760.1719,1317.4922 Q758.875,1317.4922 757.7656,1317.1016 Q756.8906,1316.8047 756.3906,1316.3438 Q755.8906,1315.8828 755.4688,1314.9922 Q755.0469,1314.1016 755.0469,1313.0078 L755.0469,1311.7734 Q755.0469,1310.0703 756.0781,1308.7266 Q757.4688,1306.9297 759.875,1306.9297 Q760.5625,1306.9297 761.1953,1307.0703 Q761.8281,1307.2109 762.3906,1307.4922 Q762.7188,1307.1797 763.0469,1307.1797 Q763.4219,1307.1797 763.6563,1307.4375 Q763.8906,1307.6953 763.8906,1308.3047 L763.8906,1309.4141 Q763.8906,1310.0234 763.6563,1310.2891 Q763.4219,1310.5547 763.0469,1310.5547 Q762.75,1310.5547 762.5313,1310.3672 Q762.3594,1310.2422 762.25,1309.8125 Q762.1406,1309.3828 762,1309.2422 Q761.7656,1308.9922 761.2031,1308.8125 Q760.6406,1308.6328 759.9219,1308.6328 Q758.9219,1308.6328 758.1719,1309.0391 Q757.6406,1309.3516 757.1875,1310.1172 Q756.7344,1310.8828 756.7344,1311.7734 L756.7344,1313.0078 Q756.7344,1314.3672 757.5313,1315.0781 Q758.3281,1315.7891 760.0469,1315.7891 Q761.2188,1315.7891 762.1875,1315.3516 L762.1875,1314.1328 L760.4531,1314.1328 Q759.8438,1314.1328 759.5781,1313.8906 Q759.3125,1313.6484 759.3125,1313.2734 Q759.3125,1312.8984 759.5781,1312.6563 Q759.8438,1312.4141 760.4531,1312.4141 L763.4688,1312.4297 Q764.0938,1312.4297 764.3516,1312.6641 Q764.6094,1312.8984 764.6094,1313.2734 Q764.6094,1313.5703 764.4297,1313.7969 Q764.25,1314.0234 763.8906,1314.1328 Z " fill="#0C0C0C"/><text fill="#000000" font-family="sans-serif" font-size="14" font-style="italic" lengthAdjust="spacing" textLength="61" x="781.5" y="1315.7754">«models»</text><text fill="#0C0C0C" font-family="sans-serif" font-size="16" font-weight="bold" lengthAdjust="spacing" textLength="71" x="776.5" y="1335.4609">:Booking</text><rect fill="#ADD8E6" filter="url(#fo7qw95mx1t1d)" height="51.7344" style="stroke:#000000;stroke-width:1.5;" width="103" x="868.5" y="80.6094"/><ellipse cx="886.5" cy="98.6094" fill="#FFFFFF" rx="11" ry="11" style="stroke:#000000;stroke-width:1.0;"/><path d="M888.9688,99.4375 L885.3281,99.4375 L885.3281,101.9063 L885.5938,101.9063 Q886.2031,101.9063 886.4688,102.1406 Q886.7344,102.375 886.7344,102.7656 Q886.7344,103.1406 886.4688,103.375 Q886.2031,103.6094 885.5938,103.6094 L883.5156,103.6094 Q882.8906,103.6094 882.6328,103.375 Q882.375,103.1406 882.375,102.75 Q882.375,102.2969 882.7813,102.0313 Q882.9844,101.9063 883.625,101.9063 L883.625,95.25 Q883.1719,95.2031 882.9453,94.9766 Q882.7188,94.75 882.7188,94.3906 Q882.7188,94.0156 882.9844,93.7813 Q883.25,93.5469 883.8594,93.5469 L885.5938,93.5469 Q886.2031,93.5469 886.4688,93.7813 Q886.7344,94.0156 886.7344,94.3906 Q886.7344,94.7813 886.4688,95.0156 Q886.2031,95.25 885.5938,95.25 L885.3281,95.25 L885.3281,97.7344 L888.9688,97.7344 L888.9688,95.25 L888.7031,95.25 Q888.0781,95.25 887.8203,95.0156 Q887.5625,94.7813 887.5625,94.3906 Q887.5625,94.0156 887.8203,93.7813 Q888.0781,93.5469 888.7031,93.5469 L890.4375,93.5469 Q891.0469,93.5469 891.3125,93.7813 Q891.5781,94.0156 891.5781,94.3906 Q891.5781,94.75 891.3438,94.9766 Q891.1094,95.2031 890.6719,95.25 L890.6719,101.9063 Q891.3281,101.9063 891.5156,102.0313 Q891.9219,102.2969 891.9219,102.7656 Q891.9219,103.1406 891.6563,103.375 Q891.3906,103.6094 890.7813,103.6094 L888.7031,103.6094 Q888.0781,103.6094 887.8203,103.375 Q887.5625,103.1406 887.5625,102.75 Q887.5625,102.375 887.8281,102.1406 Q888.0938,101.9063 888.7031,101.9063 L888.9688,101.9063 L888.9688,99.4375 Z " fill="#0C0C0C"/><text fill="#000000" font-family="sans-serif" font-size="14" font-style="italic" lengthAdjust="spacing" textLength="61" x="903.5" y="102.1426">«models»</text><text fill="#0C0C0C" font-family="sans-serif" font-size="16" font-weight="bold" lengthAdjust="spacing" textLength="42" x="913" y="121.8281">:User</text><rect fill="#ADD8E6" filter="url(#fo7qw95mx1t1d)" height="51.7344" style="stroke:#000000;stroke-width:1.5;" width="103" x="868.5" y="1294.2422"/><ellipse cx="886.5" cy="1312.2422" fill="#FFFFFF" rx="11" ry="11" style="stroke:#000000;stroke-width:1.0;"/><path d="M888.9688,1313.0703 L885.3281,1313.0703 L885.3281,1315.5391 L885.5938,1315.5391 Q886.2031,1315.5391 886.4688,1315.7734 Q886.7344,1316.0078 886.7344,1316.3984 Q886.7344,1316.7734 886.4688,1317.0078 Q886.2031,1317.2422 885.5938,1317.2422 L883.5156,1317.2422 Q882.8906,1317.2422 882.6328,1317.0078 Q882.375,1316.7734 882.375,1316.3828 Q882.375,1315.9297 882.7813,1315.6641 Q882.9844,1315.5391 883.625,1315.5391 L883.625,1308.8828 Q883.1719,1308.8359 882.9453,1308.6094 Q882.7188,1308.3828 882.7188,1308.0234 Q882.7188,1307.6484 882.9844,1307.4141 Q883.25,1307.1797 883.8594,1307.1797 L885.5938,1307.1797 Q886.2031,1307.1797 886.4688,1307.4141 Q886.7344,1307.6484 886.7344,1308.0234 Q886.7344,1308.4141 886.4688,1308.6484 Q886.2031,1308.8828 885.5938,1308.8828 L885.3281,1308.8828 L885.3281,1311.3672 L888.9688,1311.3672 L888.9688,1308.8828 L888.7031,1308.8828 Q888.0781,1308.8828 887.8203,1308.6484 Q887.5625,1308.4141 887.5625,1308.0234 Q887.5625,1307.6484 887.8203,1307.4141 Q888.0781,1307.1797 888.7031,1307.1797 L890.4375,1307.1797 Q891.0469,1307.1797 891.3125,1307.4141 Q891.5781,1307.6484 891.5781,1308.0234 Q891.5781,1308.3828 891.3438,1308.6094 Q891.1094,1308.8359 890.6719,1308.8828 L890.6719,1315.5391 Q891.3281,1315.5391 891.5156,1315.6641 Q891.9219,1315.9297 891.9219,1316.3984 Q891.9219,1316.7734 891.6563,1317.0078 Q891.3906,1317.2422 890.7813,1317.2422 L888.7031,1317.2422 Q888.0781,1317.2422 887.8203,1317.0078 Q887.5625,1316.7734 887.5625,1316.3828 Q887.5625,1316.0078 887.8281,1315.7734 Q888.0938,1315.5391 888.7031,1315.5391 L888.9688,1315.5391 L888.9688,1313.0703 Z " fill="#0C0C0C"/><text fill="#000000" font-family="sans-serif" font-size="14" font-style="italic" lengthAdjust="spacing" textLength="61" x="903.5" y="1315.7754">«models»</text><text fill="#0C0C0C" font-family="sans-serif" font-size="16" font-weight="bold" lengthAdjust="spacing" textLength="42" x="913" y="1335.4609">:User</text><rect fill="#D9D2E9" filter="url(#fo7qw95mx1t1d)" height="51.7344" style="stroke:#000000;stroke-width:1.5;" width="121" x="996.5" y="80.6094"/><ellipse cx="1014.5" cy="98.6094" fill="#FFFFFF" rx="11" ry="11" style="stroke:#000000;stroke-width:1.0;"/><path d="M1015.4531,95.25 L1015.4531,101.9063 L1017.1719,101.9063 Q1017.7813,101.9063 1018.0469,102.1406 Q1018.3125,102.375 1018.3125,102.7656 Q1018.3125,103.1406 1018.0469,103.375 Q1017.7813,103.6094 1017.1719,103.6094 L1012.0313,103.6094 Q1011.4219,103.6094 1011.1563,103.375 Q1010.8906,103.1406 1010.8906,102.75 Q1010.8906,102.375 1011.1563,102.1406 Q1011.4219,101.9063 1012.0313,101.9063 L1013.75,101.9063 L1013.75,95.25 L1012.0313,95.25 Q1011.4219,95.25 1011.1563,95.0156 Q1010.8906,94.7813 1010.8906,94.3906 Q1010.8906,94.0156 1011.1563,93.7813 Q1011.4219,93.5469 1012.0313,93.5469 L1017.1719,93.5469 Q1017.7813,93.5469 1018.0469,93.7813 Q1018.3125,94.0156 1018.3125,94.3906 Q1018.3125,94.7813 1018.0469,95.0156 Q1017.7813,95.25 1017.1719,95.25 L1015.4531,95.25 Z " fill="#0C0C0C"/><text fill="#000000" font-family="sans-serif" font-size="14" font-style="italic" lengthAdjust="spacing" textLength="79" x="1031.5" y="102.1426">«data base»</text><text fill="#0C0C0C" font-family="sans-serif" font-size="16" lengthAdjust="spacing" textLength="71" x="1035.5" y="121.8281">MongoDB</text><rect fill="#D9D2E9" filter="url(#fo7qw95mx1t1d)" height="51.7344" style="stroke:#000000;stroke-width:1.5;" width="121" x="996.5" y="1294.2422"/><ellipse cx="1014.5" cy="1312.2422" fill="#FFFFFF" rx="11" ry="11" style="stroke:#000000;stroke-width:1.0;"/><path d="M1015.4531,1308.8828 L1015.4531,1315.5391 L1017.1719,1315.5391 Q1017.7813,1315.5391 1018.0469,1315.7734 Q1018.3125,1316.0078 1018.3125,1316.3984 Q1018.3125,1316.7734 1018.0469,1317.0078 Q1017.7813,1317.2422 1017.1719,1317.2422 L1012.0313,1317.2422 Q1011.4219,1317.2422 1011.1563,1317.0078 Q1010.8906,1316.7734 1010.8906,1316.3828 Q1010.8906,1316.0078 1011.1563,1315.7734 Q1011.4219,1315.5391 1012.0313,1315.5391 L1013.75,1315.5391 L1013.75,1308.8828 L1012.0313,1308.8828 Q1011.4219,1308.8828 1011.1563,1308.6484 Q1010.8906,1308.4141 1010.8906,1308.0234 Q1010.8906,1307.6484 1011.1563,1307.4141 Q1011.4219,1307.1797 1012.0313,1307.1797 L1017.1719,1307.1797 Q1017.7813,1307.1797 1018.0469,1307.4141 Q1018.3125,1307.6484 1018.3125,1308.0234 Q1018.3125,1308.4141 1018.0469,1308.6484 Q1017.7813,1308.8828 1017.1719,1308.8828 L1015.4531,1308.8828 Z " fill="#0C0C0C"/><text fill="#000000" font-family="sans-serif" font-size="14" font-style="italic" lengthAdjust="spacing" textLength="79" x="1031.5" y="1315.7754">«data base»</text><text fill="#0C0C0C" font-family="sans-serif" font-size="16" lengthAdjust="spacing" textLength="71" x="1035.5" y="1335.4609">MongoDB</text><rect fill="#FFFF99" filter="url(#fo7qw95mx1t1d)" height="1112.8984" style="stroke:#000000;stroke-width:1.0;" width="10" x="91.5" y="147.3438"/><rect fill="#FFFF99" filter="url(#fo7qw95mx1t1d)" height="70.6016" style="stroke:#000000;stroke-width:1.0;" width="10" x="231.5" y="216.0781"/><rect fill="#FFFF99" filter="url(#fo7qw95mx1t1d)" height="32.8672" style="stroke:#000000;stroke-width:1.0;" width="10" x="351.5" y="286.6797"/><rect fill="#FFFF99" filter="url(#fo7qw95mx1t1d)" height="441.9141" style="stroke:#000000;stroke-width:1.0;" width="10" x="483" y="319.5469"/><rect fill="#FFFF99" filter="url(#fo7qw95mx1t1d)" height="462.7813" style="stroke:#000000;stroke-width:1.0;" width="10" x="636" y="761.4609"/><rect fill="#FFFF99" filter="url(#fo7qw95mx1t1d)" height="98.6016" style="stroke:#000000;stroke-width:1.0;" width="10" x="795" y="813.1953"/><rect fill="#FFFF99" filter="url(#fo7qw95mx1t1d)" height="98.6016" style="stroke:#000000;stroke-width:1.0;" width="10" x="795" y="1092.7734"/><rect fill="#FFFF99" filter="url(#fo7qw95mx1t1d)" height="98.6016" style="stroke:#000000;stroke-width:1.0;" width="10" x="917" y="491.2031"/><rect fill="#FFFF99" filter="url(#fo7qw95mx1t1d)" height="32.8672" style="stroke:#000000;stroke-width:1.0;" width="10" x="1054" y="524.0703"/><rect fill="#FFFF99" filter="url(#fo7qw95mx1t1d)" height="32.8672" style="stroke:#000000;stroke-width:1.0;" width="10" x="1054" y="846.0625"/><rect fill="#FFFF99" filter="url(#fo7qw95mx1t1d)" height="32.8672" style="stroke:#000000;stroke-width:1.0;" width="10" x="1054" y="1125.6406"/><polygon fill="#A80036" points="219.5,212.0781,229.5,216.0781,219.5,220.0781,223.5,216.0781" style="stroke:#A80036;stroke-width:1.0;"/><line style="stroke:#A80036;stroke-width:1.5;" x1="101.5" x2="225.5" y1="216.0781" y2="216.0781"/><text fill="#000000" font-family="sans-serif" font-size="15" font-weight="bold" lengthAdjust="spacing" textLength="18" x="108.5" y="201.3486">[1]</text><text fill="#000000" font-family="sans-serif" font-size="15" lengthAdjust="spacing" textLength="72" x="130.5" y="191.915">req.delete('</text><text fill="#000000" font-family="sans-serif" font-size="15" lengthAdjust="spacing" textLength="89" x="130.5" y="210.7822">/bookings/:id')</text><polygon fill="#A80036" points="339.5,282.6797,349.5,286.6797,339.5,290.6797,343.5,286.6797" style="stroke:#A80036;stroke-width:1.0;"/><line style="stroke:#A80036;stroke-width:1.5;" x1="236.5" x2="345.5" y1="286.6797" y2="286.6797"/><text fill="#000000" font-family="sans-serif" font-size="15" font-weight="bold" lengthAdjust="spacing" textLength="18" x="243.5" y="262.5166">[2]</text><text fill="#000000" font-family="sans-serif" font-size="15" lengthAdjust="spacing" textLength="60" x="265.5" y="243.6494">app.use('</text><text fill="#000000" font-family="sans-serif" font-size="15" lengthAdjust="spacing" textLength="69" x="265.5" y="262.5166">/bookings',</text><text fill="#000000" font-family="sans-serif" font-size="15" lengthAdjust="spacing" textLength="63" x="269.5" y="281.3838">bookings)</text><polygon fill="#A80036" points="471,315.5469,481,319.5469,471,323.5469,475,319.5469" style="stroke:#A80036;stroke-width:1.0;"/><line style="stroke:#A80036;stroke-width:1.5;" x1="356.5" x2="477" y1="319.5469" y2="319.5469"/><text fill="#000000" font-family="sans-serif" font-size="15" font-weight="bold" lengthAdjust="spacing" textLength="18" x="363.5" y="314.251">[3]</text><text fill="#000000" font-family="sans-serif" font-size="15" lengthAdjust="spacing" textLength="45" x="385.5" y="314.251">protect</text><line style="stroke:#A80036;stroke-width:1.5;" x1="493" x2="535" y1="352.4141" y2="352.4141"/><line style="stroke:#A80036;stroke-width:1.5;" x1="535" x2="535" y1="352.4141" y2="365.4141"/><line style="stroke:#A80036;stroke-width:1.5;" x1="494" x2="535" y1="365.4141" y2="365.4141"/><polygon fill="#A80036" points="504,361.4141,494,365.4141,504,369.4141,500,365.4141" style="stroke:#A80036;stroke-width:1.0;"/><text fill="#000000" font-family="sans-serif" font-size="15" font-weight="bold" lengthAdjust="spacing" textLength="18" x="500" y="347.1182">[4]</text><text fill="#000000" font-family="sans-serif" font-size="15" lengthAdjust="spacing" textLength="101" x="522" y="347.1182">jwt.verify(token)</text><path d="M15,380.4141 L76,380.4141 L76,388.4141 L66,398.4141 L15,398.4141 L15,380.4141 " fill="#FFD700" style="stroke:#000000;stroke-width:1.0;"/><rect fill="none" height="872.8281" style="stroke:#000000;stroke-width:2.0;" width="1146.5" x="15" y="380.4141"/><text fill="#000000" font-family="sans-serif" font-size="13" font-weight="bold" lengthAdjust="spacing" textLength="16" x="30" y="394.9092">alt</text><text fill="#000000" font-family="sans-serif" font-size="11" font-weight="bold" lengthAdjust="spacing" textLength="145" x="91" y="393.833">[no token or invalid token]</text><polygon fill="#A80036" points="112.5,419.6328,102.5,423.6328,112.5,427.6328,108.5,423.6328" style="stroke:#A80036;stroke-width:1.0;"/><line style="stroke:#A80036;stroke-width:1.5;stroke-dasharray:2.0,2.0;" x1="106.5" x2="482" y1="423.6328" y2="423.6328"/><text fill="#000000" font-family="sans-serif" font-size="15" font-weight="bold" lengthAdjust="spacing" textLength="18" x="118.5" y="418.3369">[5]</text><text fill="#000000" font-family="sans-serif" font-size="15" lengthAdjust="spacing" textLength="83" x="140.5" y="418.3369">response fail</text><line style="stroke:#000000;stroke-width:1.0;stroke-dasharray:2.0,2.0;" x1="15" x2="1161.5" y1="432.6328" y2="432.6328"/><text fill="#000000" font-family="sans-serif" font-size="11" font-weight="bold" lengthAdjust="spacing" textLength="32" x="20" y="444.0518">[else]</text><polygon fill="#A80036" points="905,487.2031,915,491.2031,905,495.2031,909,491.2031" style="stroke:#A80036;stroke-width:1.0;"/><line style="stroke:#A80036;stroke-width:1.5;" x1="493" x2="911" y1="491.2031" y2="491.2031"/><text fill="#000000" font-family="sans-serif" font-size="15" font-weight="bold" lengthAdjust="spacing" textLength="18" x="500" y="476.4736">[6]</text><text fill="#000000" font-family="sans-serif" font-size="15" lengthAdjust="spacing" textLength="51" x="522" y="467.04">findById</text><text fill="#000000" font-family="sans-serif" font-size="15" lengthAdjust="spacing" textLength="81" x="522" y="485.9072">(decoded.id)</text><polygon fill="#A80036" points="1042,520.0703,1052,524.0703,1042,528.0703,1046,524.0703" style="stroke:#A80036;stroke-width:1.0;"/><line style="stroke:#A80036;stroke-width:1.5;" x1="927" x2="1048" y1="524.0703" y2="524.0703"/><text fill="#000000" font-family="sans-serif" font-size="15" font-weight="bold" lengthAdjust="spacing" textLength="18" x="934" y="518.7744">[7]</text><text fill="#000000" font-family="sans-serif" font-size="15" lengthAdjust="spacing" textLength="86" x="956" y="518.7744">UserSchema</text><polygon fill="#A80036" points="938,552.9375,928,556.9375,938,560.9375,934,556.9375" style="stroke:#A80036;stroke-width:1.0;"/><line style="stroke:#A80036;stroke-width:1.5;stroke-dasharray:2.0,2.0;" x1="932" x2="1058" y1="556.9375" y2="556.9375"/><text fill="#000000" font-family="sans-serif" font-size="15" font-weight="bold" lengthAdjust="spacing" textLength="18" x="944" y="551.6416">[8]</text><text fill="#000000" font-family="sans-serif" font-size="15" lengthAdjust="spacing" textLength="29" x="966" y="551.6416">user</text><polygon fill="#A80036" points="504,585.8047,494,589.8047,504,593.8047,500,589.8047" style="stroke:#A80036;stroke-width:1.0;"/><line style="stroke:#A80036;stroke-width:1.5;stroke-dasharray:2.0,2.0;" x1="498" x2="921" y1="589.8047" y2="589.8047"/><text fill="#000000" font-family="sans-serif" font-size="15" font-weight="bold" lengthAdjust="spacing" textLength="18" x="510" y="584.5088">[9]</text><text fill="#000000" font-family="sans-serif" font-size="15" lengthAdjust="spacing" textLength="29" x="532" y="584.5088">user</text><line style="stroke:#A80036;stroke-width:1.5;" x1="493" x2="535" y1="641.5391" y2="641.5391"/><line style="stroke:#A80036;stroke-width:1.5;" x1="535" x2="535" y1="641.5391" y2="654.5391"/><line style="stroke:#A80036;stroke-width:1.5;" x1="494" x2="535" y1="654.5391" y2="654.5391"/><polygon fill="#A80036" points="504,650.5391,494,654.5391,504,658.5391,500,654.5391" style="stroke:#A80036;stroke-width:1.0;"/><text fill="#000000" font-family="sans-serif" font-size="15" font-weight="bold" lengthAdjust="spacing" textLength="26" x="500" y="626.8096">[10]</text><text fill="#000000" font-family="sans-serif" font-size="15" lengthAdjust="spacing" textLength="60" x="530" y="617.376">authorize</text><text fill="#000000" font-family="sans-serif" font-size="15" lengthAdjust="spacing" textLength="99" x="530" y="636.2432">('admin', 'user')</text><path d="M25,669.5391 L86,669.5391 L86,677.5391 L76,687.5391 L25,687.5391 L25,669.5391 " fill="#FFD700" style="stroke:#000000;stroke-width:1.0;"/><rect fill="none" height="576.7031" style="stroke:#000000;stroke-width:2.0;" width="1126.5" x="25" y="669.5391"/><text fill="#000000" font-family="sans-serif" font-size="13" font-weight="bold" lengthAdjust="spacing" textLength="16" x="40" y="684.0342">alt</text><text fill="#000000" font-family="sans-serif" font-size="11" font-weight="bold" lengthAdjust="spacing" textLength="123" x="101" y="682.958">[role != admin or user]</text><polygon fill="#A80036" points="112.5,708.7578,102.5,712.7578,112.5,716.7578,108.5,712.7578" style="stroke:#A80036;stroke-width:1.0;"/><line style="stroke:#A80036;stroke-width:1.5;stroke-dasharray:2.0,2.0;" x1="106.5" x2="482" y1="712.7578" y2="712.7578"/><text fill="#000000" font-family="sans-serif" font-size="15" font-weight="bold" lengthAdjust="spacing" textLength="26" x="118.5" y="707.4619">[11]</text><text fill="#000000" font-family="sans-serif" font-size="15" lengthAdjust="spacing" textLength="83" x="148.5" y="707.4619">response fail</text><line style="stroke:#000000;stroke-width:1.0;stroke-dasharray:2.0,2.0;" x1="25" x2="1151.5" y1="721.7578" y2="721.7578"/><text fill="#000000" font-family="sans-serif" font-size="11" font-weight="bold" lengthAdjust="spacing" textLength="32" x="30" y="733.1768">[else]</text><polygon fill="#A80036" points="624,757.4609,634,761.4609,624,765.4609,628,761.4609" style="stroke:#A80036;stroke-width:1.0;"/><line style="stroke:#A80036;stroke-width:1.5;" x1="488" x2="630" y1="761.4609" y2="761.4609"/><text fill="#000000" font-family="sans-serif" font-size="15" font-weight="bold" lengthAdjust="spacing" textLength="26" x="495" y="756.165">[12]</text><text fill="#000000" font-family="sans-serif" font-size="15" lengthAdjust="spacing" textLength="91" x="525" y="756.165">deleteBooking</text><polygon fill="#A80036" points="783,809.1953,793,813.1953,783,817.1953,787,813.1953" style="stroke:#A80036;stroke-width:1.0;"/><line style="stroke:#A80036;stroke-width:1.5;" x1="646" x2="789" y1="813.1953" y2="813.1953"/><text fill="#000000" font-family="sans-serif" font-size="15" font-weight="bold" lengthAdjust="spacing" textLength="26" x="653" y="798.4658">[13]</text><text fill="#000000" font-family="sans-serif" font-size="15" lengthAdjust="spacing" textLength="51" x="683" y="789.0322">findById</text><text fill="#000000" font-family="sans-serif" font-size="15" lengthAdjust="spacing" textLength="100" x="683" y="807.8994">(req.params.id)</text><polygon fill="#A80036" points="1042,842.0625,1052,846.0625,1042,850.0625,1046,846.0625" style="stroke:#A80036;stroke-width:1.0;"/><line style="stroke:#A80036;stroke-width:1.5;" x1="805" x2="1048" y1="846.0625" y2="846.0625"/><text fill="#000000" font-family="sans-serif" font-size="15" font-weight="bold" lengthAdjust="spacing" textLength="26" x="812" y="840.7666">[14]</text><text fill="#000000" font-family="sans-serif" font-size="15" lengthAdjust="spacing" textLength="107" x="842" y="840.7666">BookingSchema</text><polygon fill="#A80036" points="816,874.9297,806,878.9297,816,882.9297,812,878.9297" style="stroke:#A80036;stroke-width:1.0;"/><line style="stroke:#A80036;stroke-width:1.5;stroke-dasharray:2.0,2.0;" x1="810" x2="1058" y1="878.9297" y2="878.9297"/><text fill="#000000" font-family="sans-serif" font-size="15" font-weight="bold" lengthAdjust="spacing" textLength="26" x="822" y="873.6338">[15]</text><text fill="#000000" font-family="sans-serif" font-size="15" lengthAdjust="spacing" textLength="50" x="852" y="873.6338">booking</text><polygon fill="#A80036" points="657,907.7969,647,911.7969,657,915.7969,653,911.7969" style="stroke:#A80036;stroke-width:1.0;"/><line style="stroke:#A80036;stroke-width:1.5;stroke-dasharray:2.0,2.0;" x1="651" x2="799" y1="911.7969" y2="911.7969"/><text fill="#000000" font-family="sans-serif" font-size="15" font-weight="bold" lengthAdjust="spacing" textLength="26" x="663" y="906.501">[16]</text><text fill="#000000" font-family="sans-serif" font-size="15" lengthAdjust="spacing" textLength="50" x="693" y="906.501">booking</text><path d="M35,926.7969 L96,926.7969 L96,934.7969 L86,944.7969 L35,944.7969 L35,926.7969 " fill="#FFD700" style="stroke:#000000;stroke-width:1.0;"/><rect fill="none" height="312.4453" style="stroke:#000000;stroke-width:2.0;" width="1106.5" x="35" y="926.7969"/><text fill="#000000" font-family="sans-serif" font-size="13" font-weight="bold" lengthAdjust="spacing" textLength="16" x="50" y="941.292">alt</text><text fill="#000000" font-family="sans-serif" font-size="11" font-weight="bold" lengthAdjust="spacing" textLength="104" x="111" y="940.2158">[invalid booking id]</text><polygon fill="#A80036" points="112.5,966.0156,102.5,970.0156,112.5,974.0156,108.5,970.0156" style="stroke:#A80036;stroke-width:1.0;"/><line style="stroke:#A80036;stroke-width:1.5;stroke-dasharray:2.0,2.0;" x1="106.5" x2="635" y1="970.0156" y2="970.0156"/><text fill="#000000" font-family="sans-serif" font-size="15" font-weight="bold" lengthAdjust="spacing" textLength="26" x="118.5" y="964.7197">[17]</text><text fill="#000000" font-family="sans-serif" font-size="15" lengthAdjust="spacing" textLength="83" x="148.5" y="964.7197">response fail</text><line style="stroke:#000000;stroke-width:1.0;stroke-dasharray:2.0,2.0;" x1="35" x2="1141.5" y1="979.0156" y2="979.0156"/><text fill="#000000" font-family="sans-serif" font-size="11" font-weight="bold" lengthAdjust="spacing" textLength="32" x="40" y="990.4346">[else]</text><path d="M45,1000.8516 L106,1000.8516 L106,1008.8516 L96,1018.8516 L45,1018.8516 L45,1000.8516 " fill="#FFD700" style="stroke:#000000;stroke-width:1.0;"/><rect fill="none" height="231.3906" style="stroke:#000000;stroke-width:2.0;" width="1086.5" x="45" y="1000.8516"/><text fill="#000000" font-family="sans-serif" font-size="13" font-weight="bold" lengthAdjust="spacing" textLength="16" x="60" y="1015.3467">alt</text><text fill="#000000" font-family="sans-serif" font-size="11" font-weight="bold" lengthAdjust="spacing" textLength="258" x="121" y="1014.2705">[not the user's own booking and role != admin]</text><polygon fill="#A80036" points="112.5,1040.0703,102.5,1044.0703,112.5,1048.0703,108.5,1044.0703" style="stroke:#A80036;stroke-width:1.0;"/><line style="stroke:#A80036;stroke-width:1.5;stroke-dasharray:2.0,2.0;" x1="106.5" x2="635" y1="1044.0703" y2="1044.0703"/><text fill="#000000" font-family="sans-serif" font-size="15" font-weight="bold" lengthAdjust="spacing" textLength="26" x="118.5" y="1038.7744">[18]</text><text fill="#000000" font-family="sans-serif" font-size="15" lengthAdjust="spacing" textLength="83" x="148.5" y="1038.7744">response fail</text><line style="stroke:#000000;stroke-width:1.0;stroke-dasharray:2.0,2.0;" x1="45" x2="1131.5" y1="1053.0703" y2="1053.0703"/><text fill="#000000" font-family="sans-serif" font-size="11" font-weight="bold" lengthAdjust="spacing" textLength="32" x="50" y="1064.4893">[else]</text><polygon fill="#A80036" points="783,1088.7734,793,1092.7734,783,1096.7734,787,1092.7734" style="stroke:#A80036;stroke-width:1.0;"/><line style="stroke:#A80036;stroke-width:1.5;" x1="646" x2="789" y1="1092.7734" y2="1092.7734"/><text fill="#000000" font-family="sans-serif" font-size="15" font-weight="bold" lengthAdjust="spacing" textLength="26" x="653" y="1087.4775">[19]</text><text fill="#000000" font-family="sans-serif" font-size="15" lengthAdjust="spacing" textLength="59" x="683" y="1087.4775">remove()</text><polygon fill="#A80036" points="1042,1121.6406,1052,1125.6406,1042,1129.6406,1046,1125.6406" style="stroke:#A80036;stroke-width:1.0;"/><line style="stroke:#A80036;stroke-width:1.5;" x1="805" x2="1048" y1="1125.6406" y2="1125.6406"/><text fill="#000000" font-family="sans-serif" font-size="15" font-weight="bold" lengthAdjust="spacing" textLength="26" x="812" y="1120.3447">[20]</text><text fill="#000000" font-family="sans-serif" font-size="15" lengthAdjust="spacing" textLength="107" x="842" y="1120.3447">BookingSchema</text><polygon fill="#A80036" points="816,1154.5078,806,1158.5078,816,1162.5078,812,1158.5078" style="stroke:#A80036;stroke-width:1.0;"/><line style="stroke:#A80036;stroke-width:1.5;stroke-dasharray:2.0,2.0;" x1="810" x2="1058" y1="1158.5078" y2="1158.5078"/><text fill="#000000" font-family="sans-serif" font-size="15" font-weight="bold" lengthAdjust="spacing" textLength="26" x="822" y="1153.2119">[21]</text><text fill="#000000" font-family="sans-serif" font-size="15" lengthAdjust="spacing" textLength="52" x="852" y="1153.2119">Booking</text><polygon fill="#A80036" points="657,1187.375,647,1191.375,657,1195.375,653,1191.375" style="stroke:#A80036;stroke-width:1.0;"/><line style="stroke:#A80036;stroke-width:1.5;stroke-dasharray:2.0,2.0;" x1="651" x2="799" y1="1191.375" y2="1191.375"/><text fill="#000000" font-family="sans-serif" font-size="15" font-weight="bold" lengthAdjust="spacing" textLength="26" x="663" y="1186.0791">[22]</text><text fill="#000000" font-family="sans-serif" font-size="15" lengthAdjust="spacing" textLength="52" x="693" y="1186.0791">Booking</text><polygon fill="#A80036" points="112.5,1220.2422,102.5,1224.2422,112.5,1228.2422,108.5,1224.2422" style="stroke:#A80036;stroke-width:1.0;"/><line style="stroke:#A80036;stroke-width:1.5;stroke-dasharray:2.0,2.0;" x1="106.5" x2="640" y1="1224.2422" y2="1224.2422"/><text fill="#000000" font-family="sans-serif" font-size="15" font-weight="bold" lengthAdjust="spacing" textLength="26" x="118.5" y="1218.9463">[23]</text><text fill="#000000" font-family="sans-serif" font-size="15" lengthAdjust="spacing" textLength="177" x="148.5" y="1218.9463">response removal success</text><!--MD5=[bddd918804ad4245e909bacf348b750e]
@startuml

' hide footbox
skinparam sequenceArrowThickness 1.5
skinparam fontsize 50
autonumber 1 "<b>[###]"
skinparam component {
skinparam defaultFontSize 16
'FontSize 13
'BackgroundColor<<Apache>> Red
'BorderColor<<Apache>> #FF6655
'FontName Courier
'BorderColor black
'BackgroundColor gold
'ArrowFontName Impact
ArrowFontSize 15
'ArrowColor #FF6655
'ArrowFontColor #777777
}
'skinparam backgroundColor #EEEBDC
Mainframe <b>Delete Single Booking</b>

actor "<b>User" as user <<(A,#ADD1B2)client>>#White
Box Online Job Fair Registration System #lightgrey
participant "server" as server <<(B,#FFFFFF)main>>#Orange
'participant "auth" as rauth <<(C,#FFFFFF)routes>>#Gold
participant "bookings" as rbookings <<(C,#FFFFFF)routes>>#Gold
'participant "companies" as rcompanies <<(C,#FFFFFF)routes>>#Gold
participant "auth" as middleware_auth <<(E,#FFFFFF)middleware>>#Pink
'participant "<b>auth" as controllers_auth <<(D,#FFFFFF)controllers>>#LightGreen
participant "<b>bookings" as controllers_bookings <<(D,#FFFFFF)controllers>>#LightGreen
'participant "<b>companies" as controllers_companies <<(F,#FFFFFF)controllers>>#LightGreen
' participant "<b>:Company" as models_Company <<(F,#FFFFFF)models>>#LightBlue
participant "<b>:Booking" as models_Booking <<(G,#FFFFFF)models>>#LightBlue
participant "<b>:User" as models_User <<(H,#FFFFFF)models>>#LightBlue
participant "MongoDB" as mongo <<(I,#FFFFFF)data base>>#d9d2e9
end box

|||
Activate user
user->server: req.delete('\n/bookings/:id')
Activate server
'Route'
server->rbookings: app.use('\n/bookings',\n bookings)
DeActivate server
Activate rbookings
'Middleware auth
rbookings->middleware_auth: protect
DeActivate rbookings
Activate middleware_auth
middleware_auth->middleware_auth: jwt.verify(token)
Alt#Gold #Beige no token or invalid token
middleware_auth- ->user: response fail
Else #LightBlue else
middleware_auth->models_User: findById\n(decoded.id)
Activate models_User
models_User->mongo: UserSchema
Activate mongo
mongo- ->models_User: user
DeActivate mongo
models_User- ->middleware_auth: user
DeActivate models_User
middleware_auth->middleware_auth: authorize\n('admin', 'user')
Alt#Gold #Beige role != admin or user
middleware_auth- ->user: response fail
Else #LightBlue else
middleware_auth->controllers_bookings: deleteBooking
DeActivate middleware_auth
Activate controllers_bookings
controllers_bookings->models_Booking: findById\n(req.params.id)
Activate models_Booking
models_Booking->mongo: BookingSchema
Activate mongo
mongo- ->models_Booking: booking
DeActivate mongo
models_Booking- ->controllers_bookings: booking
DeActivate models_Booking
Alt#Gold #Beige invalid booking id
controllers_bookings- ->user: response fail
Else #LightBlue else
Alt#Gold #Beige not the user's own booking and role != admin
controllers_bookings- ->user: response fail
Else #LightBlue else
controllers_bookings->models_Booking: remove()
Activate models_Booking
models_Booking->mongo: BookingSchema
Activate mongo
mongo- ->models_Booking: Booking
DeActivate mongo
models_Booking- ->controllers_bookings: Booking
DeActivate models_Booking
controllers_bookings- ->user: response removal success
DeActivate controllers_bookings
End Alt
End Alt
End Alt
End Alt
DeActivate user






' rbookings->middleware_auth: delete(\nprotect)
' Activate middleware_auth
' middleware_auth->middleware_auth: verify(token,\nJWT_SECRET)
' middleware_auth->models_User: findById(decoded.id)
' Activate models_User
' models_User->mongo: UserSchema
' Activate mongo
' mongo- ->models_User: user
' DeActivate mongo
' models_User- ->middleware_auth: user
' DeActivate models_User
' middleware_auth->rbookings: next()
' rbookings->middleware_auth: delete(\nauthorize)
' middleware_auth->rbookings: next()
' DeActivate middleware_auth
' Alt#Gold #Pink Unauthorized
' |||
' rbookings- ->server: unauth-\norized
' |||
' 'End middleware auth'
' 'Controller bookings'
' 'verify'
' Else #LightBlue Authorized
' rbookings->controllers_bookings: delete(\ndeleteBooking)
' DeActivate rbookings
' Activate controllers_bookings
' controllers_bookings->models_Booking: findById(req.params.id)
' Activate models_Booking
' models_Booking->mongo: BookingSchema
' Activate mongo
' mongo- ->models_Booking: booking
' DeActivate mongo
' models_Booking- ->controllers_bookings: booking
' DeActivate models_Booking
' controllers_bookings->controllers_bookings: verify(role,\nexistedBookings)
' 'End verify'
' 'Fail path'
' Alt#Gold #Pink Verification fail
' |||
' controllers_bookings- ->server: delete fail
' |||
' 'Success path'
' Else #LightGreen Verification successful
' |||
' controllers_bookings->models_Booking: remove()
' Activate models_Booking
' models_Booking->mongo: BookingSchema
' Activate mongo
' mongo- ->models_Booking: booking
' DeActivate mongo
' models_Booking- ->controllers_bookings: booking
' DeActivate models_Booking
' controllers_bookings- ->server: delete success
' DeActivate controllers_bookings
' |||
' End Alt
' End Alt
' server- ->user: response
' DeActivate server
' DeActivate user
|||


skinparam sequence {
'Box ==============================
BoxBorderColor Black
BoxFontColor Blue
BoxFontSize 16
'LifeLine + Arrow ==============================
'ArrowColor DeepSkyBlue
LifeLineBorderColor Black
LifeLineBackgroundColor #FFFF99
'Participant ==============================
ParticipantBorderColor Black
'ParticipantBackgroundColor DodgerBlue
StereoTypeFontSize 14
ParticipantFontSize 16
ParticipantFontColor #0c0c0c
'ParticipantFontName Impact
'Actor ==============================
ActorBorderColor Black
ActorBackgroundColor White
ActorFontSize 16
ActorFontColor Black
'ActorFontName Aapex
' ===================================
}

@enduml

@startuml

skinparam sequenceArrowThickness 1.5
skinparam fontsize 50
autonumber 1 "<b>[###]"
skinparam component {
skinparam defaultFontSize 16
ArrowFontSize 15
}
Mainframe <b>Delete Single Booking</b>

actor "<b>User" as user <<(A,#ADD1B2)client>>#White
Box Online Job Fair Registration System #lightgrey
participant "server" as server <<(B,#FFFFFF)main>>#Orange
participant "bookings" as rbookings <<(C,#FFFFFF)routes>>#Gold
participant "auth" as middleware_auth <<(E,#FFFFFF)middleware>>#Pink
participant "<b>bookings" as controllers_bookings <<(D,#FFFFFF)controllers>>#LightGreen
participant "<b>:Booking" as models_Booking <<(G,#FFFFFF)models>>#LightBlue
participant "<b>:User" as models_User <<(H,#FFFFFF)models>>#LightBlue
participant "MongoDB" as mongo <<(I,#FFFFFF)data base>>#d9d2e9
end box

|||
Activate user
user->server: req.delete('\n/bookings/:id')
Activate server
server->rbookings: app.use('\n/bookings',\n bookings)
DeActivate server
Activate rbookings
rbookings->middleware_auth: protect
DeActivate rbookings
Activate middleware_auth
middleware_auth->middleware_auth: jwt.verify(token)
Alt#Gold #Beige no token or invalid token
middleware_auth- ->user: response fail
Else #LightBlue else
middleware_auth->models_User: findById\n(decoded.id)
Activate models_User
models_User->mongo: UserSchema
Activate mongo
mongo- ->models_User: user
DeActivate mongo
models_User- ->middleware_auth: user
DeActivate models_User
middleware_auth->middleware_auth: authorize\n('admin', 'user')
Alt#Gold #Beige role != admin or user
middleware_auth- ->user: response fail
Else #LightBlue else
middleware_auth->controllers_bookings: deleteBooking
DeActivate middleware_auth
Activate controllers_bookings
controllers_bookings->models_Booking: findById\n(req.params.id)
Activate models_Booking
models_Booking->mongo: BookingSchema
Activate mongo
mongo- ->models_Booking: booking
DeActivate mongo
models_Booking- ->controllers_bookings: booking
DeActivate models_Booking
Alt#Gold #Beige invalid booking id
controllers_bookings- ->user: response fail
Else #LightBlue else
Alt#Gold #Beige not the user's own booking and role != admin
controllers_bookings- ->user: response fail
Else #LightBlue else
controllers_bookings->models_Booking: remove()
Activate models_Booking
models_Booking->mongo: BookingSchema
Activate mongo
mongo- ->models_Booking: Booking
DeActivate mongo
models_Booking- ->controllers_bookings: Booking
DeActivate models_Booking
controllers_bookings- ->user: response removal success
DeActivate controllers_bookings
End Alt
End Alt
End Alt
End Alt
DeActivate user






|||


skinparam sequence {
BoxBorderColor Black
BoxFontColor Blue
BoxFontSize 16
LifeLineBorderColor Black
LifeLineBackgroundColor #FFFF99
ParticipantBorderColor Black
StereoTypeFontSize 14
ParticipantFontSize 16
ParticipantFontColor #0c0c0c
ActorBorderColor Black
ActorBackgroundColor White
ActorFontSize 16
ActorFontColor Black
}

@enduml

PlantUML version 1.2022.0(Tue Jan 11 23:16:42 ICT 2022)
(GPL source distribution)
Java Runtime: Java(TM) SE Runtime Environment
JVM: Java HotSpot(TM) 64-Bit Server VM
Default Encoding: Cp1252
Language: en
Country: US
--></g></svg>