<?xml version="1.0" encoding="UTF-8" standalone="no"?><svg xmlns="http://www.w3.org/2000/svg" xmlns:xlink="http://www.w3.org/1999/xlink" contentScriptType="application/ecmascript" contentStyleType="text/css" height="1017px" preserveAspectRatio="none" style="width:1077px;height:1017px;background:#FFFFFF;" version="1.1" viewBox="0 0 1077 1017" width="1077px" zoomAndPan="magnify"><defs><filter height="300%" id="f1c88vm5tn46hy" width="300%" x="-1" y="-1"><feGaussianBlur result="blurOut" stdDeviation="2.0"/><feColorMatrix in="blurOut" result="blurOut2" type="matrix" values="0 0 0 0 0 0 0 0 0 0 0 0 0 0 0 0 0 0 .4 0"/><feOffset dx="4.0" dy="4.0" in="blurOut2" result="blurOut3"/><feBlend in="SourceGraphic" in2="blurOut3" mode="normal"/></filter></defs><g><rect fill="#FFFFFF" filter="url(#f1c88vm5tn46hy)" height="1000.8359" style="stroke:#000000;stroke-width:1.0;" width="1056" x="9" y="5"/><path d="M146,5 L146,18.125 L136,28.125 L9,28.125 " fill="none" style="stroke:#000000;stroke-width:1.0;"/><text fill="#000000" font-family="sans-serif" font-size="16" font-weight="bold" lengthAdjust="spacing" textLength="127" x="12" y="22.6094">Get All Bookings</text><rect fill="#D3D3D3" height="952.6953" style="stroke:#000000;stroke-width:1.0;" width="908.5" x="136.5" y="36.125"/><text fill="#0000FF" font-family="sans-serif" font-size="16" font-weight="bold" lengthAdjust="spacing" textLength="273" x="452.25" y="52.7344">Online Job Fair Registration System</text><rect fill="#FFFF99" filter="url(#f1c88vm5tn46hy)" height="766.2266" style="stroke:#000000;stroke-width:1.0;" width="10" x="61.5" y="193.5938"/><rect fill="#FFFF99" filter="url(#f1c88vm5tn46hy)" height="70.6016" style="stroke:#000000;stroke-width:1.0;" width="10" x="181.5" y="193.5938"/><rect fill="#FFFF99" filter="url(#f1c88vm5tn46hy)" height="32.8672" style="stroke:#000000;stroke-width:1.0;" width="10" x="303.5" y="264.1953"/><rect fill="#FFFF99" filter="url(#f1c88vm5tn46hy)" height="318.3125" style="stroke:#000000;stroke-width:1.0;" width="10" x="435" y="297.0625"/><rect fill="#FFFF99" filter="url(#f1c88vm5tn46hy)" height="329.4453" style="stroke:#000000;stroke-width:1.0;" width="10" x="582" y="615.375"/><rect fill="#FFFF99" filter="url(#f1c88vm5tn46hy)" height="210.5938" style="stroke:#000000;stroke-width:1.0;" width="10" x="714.5" y="701.3594"/><rect fill="#FFFF99" filter="url(#f1c88vm5tn46hy)" height="98.6016" style="stroke:#000000;stroke-width:1.0;" width="10" x="836.5" y="483.9063"/><rect fill="#FFFF99" filter="url(#f1c88vm5tn46hy)" height="32.8672" style="stroke:#000000;stroke-width:1.0;" width="10" x="973.5" y="516.7734"/><rect fill="#FFFF99" filter="url(#f1c88vm5tn46hy)" height="32.8672" style="stroke:#000000;stroke-width:1.0;" width="10" x="973.5" y="846.2188"/><rect fill="#F5F5DC" filter="url(#f1c88vm5tn46hy)" height="594.8906" style="stroke:#000000;stroke-width:2.0;" width="1036" x="15" y="357.9297"/><rect fill="#ADD8E6" height="534.7734" style="stroke:none;stroke-width:1.0;" width="1036" x="15" y="418.0469"/><rect fill="#FFC0CB" filter="url(#f1c88vm5tn46hy)" height="183.9766" style="stroke:#000000;stroke-width:2.0;" width="275" x="513" y="630.375"/><rect fill="#98FB98" height="79.9922" style="stroke:none;stroke-width:1.0;" width="275" x="513" y="734.3594"/><line style="stroke:#000000;stroke-width:1.0;stroke-dasharray:5.0,5.0;" x1="66" x2="66" y1="139.8594" y2="994.8203"/><line style="stroke:#000000;stroke-width:1.0;stroke-dasharray:5.0,5.0;" x1="186.5" x2="186.5" y1="139.8594" y2="994.8203"/><line style="stroke:#000000;stroke-width:1.0;stroke-dasharray:5.0,5.0;" x1="308.5" x2="308.5" y1="139.8594" y2="994.8203"/><line style="stroke:#000000;stroke-width:1.0;stroke-dasharray:5.0,5.0;" x1="439.5" x2="439.5" y1="139.8594" y2="994.8203"/><line style="stroke:#000000;stroke-width:1.0;stroke-dasharray:5.0,5.0;" x1="587" x2="587" y1="139.8594" y2="994.8203"/><line style="stroke:#000000;stroke-width:1.0;stroke-dasharray:5.0,5.0;" x1="719" x2="719" y1="139.8594" y2="994.8203"/><line style="stroke:#000000;stroke-width:1.0;stroke-dasharray:5.0,5.0;" x1="841" x2="841" y1="139.8594" y2="994.8203"/><line style="stroke:#000000;stroke-width:1.0;stroke-dasharray:5.0,5.0;" x1="978" x2="978" y1="139.8594" y2="994.8203"/><ellipse cx="36" cy="113.125" fill="#ADD1B2" rx="11" ry="11" style="stroke:none;stroke-width:1.0;"/><path d="M37.7656,114.5469 L33.875,114.5469 L33.4844,115.5156 L33.875,115.5156 Q34.4531,115.5156 34.6953,115.7422 Q34.9375,115.9688 34.9375,116.3281 Q34.9375,116.6719 34.6953,116.8984 Q34.4531,117.125 33.875,117.125 L31.7188,117.125 Q31.1406,117.125 30.8906,116.8984 Q30.6406,116.6719 30.6406,116.3125 Q30.6406,115.9531 30.8984,115.7266 Q31.1563,115.5 31.75,115.5156 L34.2656,109.25 L33.2188,109.25 Q32.6406,109.25 32.3984,109.0313 Q32.1563,108.8125 32.1563,108.4531 Q32.1563,108.0938 32.3984,107.8672 Q32.6406,107.6406 33.2188,107.6406 L36.6875,107.6563 L39.875,115.5156 Q40.4375,115.5156 40.6094,115.6406 Q40.9688,115.9063 40.9688,116.3281 Q40.9688,116.6719 40.7266,116.8984 Q40.4844,117.125 39.9063,117.125 L37.75,117.125 Q37.1719,117.125 36.9297,116.8984 Q36.6875,116.6719 36.6875,116.3125 Q36.6875,115.9688 36.9297,115.7422 Q37.1719,115.5156 37.75,115.5156 L38.1406,115.5156 L37.7656,114.5469 Z M37.0938,112.9375 L35.8125,109.7656 L34.5156,112.9375 L37.0938,112.9375 Z " fill="#000000"/><text fill="#000000" font-family="sans-serif" font-size="14" font-style="italic" lengthAdjust="spacing" textLength="49" x="53" y="116.6582">«client»</text><text fill="#000000" font-family="sans-serif" font-size="16" font-weight="bold" lengthAdjust="spacing" textLength="36" x="59.5" y="136.3438">User</text><ellipse cx="66.5" cy="45.125" fill="#FFFFFF" filter="url(#f1c88vm5tn46hy)" rx="8" ry="8" style="stroke:#000000;stroke-width:2.0;"/><path d="M66.5,53.125 L66.5,80.125 M53.5,61.125 L79.5,61.125 M66.5,80.125 L53.5,95.125 M66.5,80.125 L79.5,95.125 " fill="none" filter="url(#f1c88vm5tn46hy)" style="stroke:#000000;stroke-width:2.0;"/><rect fill="#FFA500" filter="url(#f1c88vm5tn46hy)" height="51.7344" style="stroke:#000000;stroke-width:1.5;" width="88" x="140.5" y="83.125"/><ellipse cx="158.5" cy="101.125" fill="#FFFFFF" rx="11" ry="11" style="stroke:#000000;stroke-width:1.0;"/><path d="M156.5313,104.0156 L156.5313,97.75 L156.2813,97.75 Q155.7031,97.75 155.4609,97.5313 Q155.2188,97.3125 155.2188,96.9531 Q155.2188,96.5938 155.4609,96.3672 Q155.7031,96.1406 156.2813,96.1406 L160.2969,96.1406 Q161.7344,96.1406 162.6094,96.9453 Q163.4844,97.75 163.4844,98.8438 Q163.4844,99.375 163.2813,99.8359 Q163.0781,100.2969 162.6719,100.6875 Q163.4219,101.1406 163.8047,101.7422 Q164.1875,102.3438 164.1875,103.1094 Q164.1875,103.7188 163.9063,104.25 Q163.7031,104.6406 163.4063,104.875 Q163.0156,105.2031 162.4375,105.4141 Q161.8594,105.625 160.9844,105.625 L156.2813,105.625 Q155.7031,105.625 155.4609,105.3984 Q155.2188,105.1719 155.2188,104.8125 Q155.2188,104.4688 155.4688,104.2422 Q155.7188,104.0156 156.2813,104.0156 L156.5313,104.0156 Z M158.1406,100.0781 L159.8906,100.0781 Q160.8438,100.0781 161.4688,99.6094 Q161.8906,99.2813 161.8906,98.8125 Q161.8906,98.3906 161.4922,98.0703 Q161.0938,97.75 160.2188,97.75 L158.1406,97.75 L158.1406,100.0781 Z M158.1406,104.0156 L160.9063,104.0156 Q161.875,104.0156 162.2813,103.7344 Q162.5781,103.5156 162.5781,103.1094 Q162.5781,102.625 161.9766,102.1563 Q161.375,101.6875 160.25,101.6875 L158.1406,101.6875 L158.1406,104.0156 Z " fill="#0C0C0C"/><text fill="#000000" font-family="sans-serif" font-size="14" font-style="italic" lengthAdjust="spacing" textLength="46" x="175.5" y="104.6582">«main»</text><text fill="#0C0C0C" font-family="sans-serif" font-size="16" lengthAdjust="spacing" textLength="43" x="177" y="124.3438">server</text><rect fill="#FFD700" filter="url(#f1c88vm5tn46hy)" height="51.7344" style="stroke:#000000;stroke-width:1.5;" width="106" x="253.5" y="83.125"/><ellipse cx="271.5" cy="101.125" fill="#FFFFFF" rx="11" ry="11" style="stroke:#000000;stroke-width:1.0;"/><path d="M274.0625,97.0625 Q274.2188,96.8594 274.3906,96.7578 Q274.5625,96.6563 274.7656,96.6563 Q275.125,96.6563 275.3438,96.8984 Q275.5625,97.1406 275.5625,97.7188 L275.5625,99.0781 Q275.5625,99.6563 275.3438,99.8984 Q275.125,100.1406 274.7656,100.1406 Q274.4531,100.1406 274.25,99.9688 Q274.0625,99.7813 273.9688,99.2969 Q273.9063,98.9688 273.75,98.7813 Q273.4219,98.4375 272.8516,98.2266 Q272.2813,98.0156 271.7031,98.0156 Q270.9844,98.0156 270.3828,98.3281 Q269.7813,98.6406 269.3203,99.3438 Q268.8594,100.0469 268.8594,101.0156 L268.8594,102.0469 Q268.8594,103.2031 269.6953,103.9766 Q270.5313,104.75 272.0313,104.75 Q272.9219,104.75 273.5313,104.5156 Q273.8906,104.375 274.2969,103.9531 Q274.5469,103.7031 274.6875,103.6328 Q274.8281,103.5625 275.0156,103.5625 Q275.3281,103.5625 275.5703,103.8047 Q275.8125,104.0469 275.8125,104.375 Q275.8125,104.7031 275.4844,105.0781 Q275.0156,105.625 274.2656,105.9375 Q273.25,106.3594 272.0313,106.3594 Q270.6094,106.3594 269.4688,105.7656 Q268.5469,105.2969 267.8984,104.2891 Q267.25,103.2813 267.25,102.0781 L267.25,101 Q267.25,99.75 267.8359,98.6641 Q268.4219,97.5781 269.4531,96.9922 Q270.4844,96.4063 271.6406,96.4063 Q272.3281,96.4063 272.9375,96.5703 Q273.5469,96.7344 274.0625,97.0625 Z " fill="#0C0C0C"/><text fill="#000000" font-family="sans-serif" font-size="14" font-style="italic" lengthAdjust="spacing" textLength="56" x="292.5" y="104.6582">«routes»</text><text fill="#0C0C0C" font-family="sans-serif" font-size="16" lengthAdjust="spacing" textLength="64" x="288.5" y="124.3438">bookings</text><rect fill="#FFC0CB" filter="url(#f1c88vm5tn46hy)" height="51.7344" style="stroke:#000000;stroke-width:1.5;" width="129" x="373.5" y="83.125"/><ellipse cx="391.5" cy="101.125" fill="#FFFFFF" rx="11" ry="11" style="stroke:#000000;stroke-width:1.0;"/><path d="M390.6563,101.6719 L390.6563,104.0156 L394.75,104.0156 L394.75,103.1563 Q394.75,102.5781 394.9688,102.3281 Q395.1875,102.0781 395.5469,102.0781 Q395.9063,102.0781 396.125,102.3281 Q396.3438,102.5781 396.3438,103.1563 L396.3438,105.625 L388.8125,105.625 Q388.2344,105.625 387.9844,105.3984 Q387.7344,105.1719 387.7344,104.8125 Q387.7344,104.4688 387.9844,104.2422 Q388.2344,104.0156 388.8125,104.0156 L389.0625,104.0156 L389.0625,97.75 L388.8125,97.75 Q388.2344,97.75 387.9844,97.5313 Q387.7344,97.3125 387.7344,96.9531 Q387.7344,96.5938 387.9844,96.3672 Q388.2344,96.1406 388.8125,96.1406 L396,96.1563 L396,98.5938 Q396,99.1563 395.7813,99.4063 Q395.5625,99.6563 395.2031,99.6563 Q394.8438,99.6563 394.6172,99.4141 Q394.3906,99.1719 394.3906,98.5938 L394.3906,97.75 L390.6563,97.75 L390.6563,100.0625 L392.0625,100.0625 Q392.0625,99.4375 392.1875,99.2656 Q392.4219,98.875 392.875,98.875 Q393.2188,98.875 393.4453,99.125 Q393.6719,99.375 393.6719,99.9531 L393.6719,101.7969 Q393.6719,102.3125 393.5469,102.5 Q393.2969,102.8594 392.875,102.8594 Q392.4219,102.8594 392.1875,102.4844 Q392.0625,102.2969 392.0625,101.6719 L390.6563,101.6719 Z " fill="#0C0C0C"/><text fill="#000000" font-family="sans-serif" font-size="14" font-style="italic" lengthAdjust="spacing" textLength="87" x="408.5" y="104.6582">«middleware»</text><text fill="#0C0C0C" font-family="sans-serif" font-size="16" lengthAdjust="spacing" textLength="29" x="437.5" y="124.3438">auth</text><rect fill="#90EE90" filter="url(#f1c88vm5tn46hy)" height="51.7344" style="stroke:#000000;stroke-width:1.5;" width="124" x="523" y="83.125"/><ellipse cx="541" cy="101.125" fill="#FFFFFF" rx="11" ry="11" style="stroke:#000000;stroke-width:1.0;"/><path d="M538.4688,104.0156 L538.4688,97.75 Q537.9688,97.75 537.7266,97.5234 Q537.4844,97.2969 537.4844,96.9531 Q537.4844,96.5938 537.7266,96.3672 Q537.9688,96.1406 538.5469,96.1406 L541.9063,96.1563 Q542.6875,96.1563 543.4297,96.4453 Q544.1719,96.7344 544.625,97.1719 Q544.9688,97.5156 545.3438,98.1016 Q545.7188,98.6875 545.9063,99.2656 Q546.0938,99.8438 546.0938,100.6719 L546.0938,101.4375 Q546.0938,102.4531 545.75,103.2422 Q545.4063,104.0313 544.8438,104.5234 Q544.2813,105.0156 543.7969,105.25 Q543.0156,105.625 541.7656,105.625 L538.5469,105.625 Q537.9688,105.625 537.7266,105.3984 Q537.4844,105.1719 537.4844,104.8125 Q537.4844,104.4688 537.7266,104.2422 Q537.9688,104.0156 538.4688,104.0156 Z M540.0781,104.0156 L541.7813,104.0156 Q542.7344,104.0156 543.2188,103.75 Q543.8438,103.3906 544.1641,102.8359 Q544.4844,102.2813 544.4844,101.3906 L544.4844,100.6406 Q544.4844,99.875 544.2031,99.3125 Q543.75,98.4219 543.1797,98.0859 Q542.6094,97.75 541.7656,97.75 L540.0781,97.75 L540.0781,104.0156 Z " fill="#0C0C0C"/><text fill="#000000" font-family="sans-serif" font-size="14" font-style="italic" lengthAdjust="spacing" textLength="82" x="558" y="104.6582">«controllers»</text><text fill="#0C0C0C" font-family="sans-serif" font-size="16" font-weight="bold" lengthAdjust="spacing" textLength="72" x="563" y="124.3438">bookings</text><rect fill="#ADD8E6" filter="url(#f1c88vm5tn46hy)" height="51.7344" style="stroke:#000000;stroke-width:1.5;" width="113" x="661" y="83.125"/><ellipse cx="679" cy="101.125" fill="#FFFFFF" rx="11" ry="11" style="stroke:#000000;stroke-width:1.0;"/><path d="M683.3438,102.9375 L683.3438,105.0938 Q682.25,105.6719 681.4922,105.8906 Q680.7344,106.1094 679.8438,106.1094 Q678.625,106.1094 677.5781,105.7344 Q676.75,105.4531 676.2813,105.0234 Q675.8125,104.5938 675.4141,103.7578 Q675.0156,102.9219 675.0156,101.875 L675.0156,100.7188 Q675.0156,99.125 675.9844,97.8594 Q677.2969,96.1563 679.5625,96.1563 Q680.2188,96.1563 680.8047,96.2891 Q681.3906,96.4219 681.9219,96.6875 Q682.25,96.4063 682.5469,96.4063 Q682.9063,96.4063 683.125,96.6484 Q683.3438,96.8906 683.3438,97.4688 L683.3438,98.5 Q683.3438,99.0781 683.1172,99.3281 Q682.8906,99.5781 682.5469,99.5781 Q682.2656,99.5781 682.0625,99.4063 Q681.9063,99.2813 681.7969,98.8828 Q681.6875,98.4844 681.5625,98.3438 Q681.3438,98.1094 680.8125,97.9375 Q680.2813,97.7656 679.6094,97.7656 Q678.6563,97.7656 677.9531,98.1563 Q677.4531,98.4375 677.0313,99.1563 Q676.6094,99.875 676.6094,100.7188 L676.6094,101.875 Q676.6094,103.1719 677.3594,103.8359 Q678.1094,104.5 679.7344,104.5 Q680.8281,104.5 681.7344,104.0938 L681.7344,102.9375 L680.1094,102.9375 Q679.5313,102.9375 679.2813,102.7188 Q679.0313,102.5 679.0313,102.1406 Q679.0313,101.7813 679.2813,101.5547 Q679.5313,101.3281 680.1094,101.3281 L682.9531,101.3438 Q683.5313,101.3438 683.7734,101.5625 Q684.0156,101.7813 684.0156,102.1406 Q684.0156,102.4219 683.8516,102.6328 Q683.6875,102.8438 683.3438,102.9375 Z " fill="#0C0C0C"/><text fill="#000000" font-family="sans-serif" font-size="14" font-style="italic" lengthAdjust="spacing" textLength="61" x="701" y="104.6582">«models»</text><text fill="#0C0C0C" font-family="sans-serif" font-size="16" font-weight="bold" lengthAdjust="spacing" textLength="71" x="696" y="124.3438">:Booking</text><rect fill="#ADD8E6" filter="url(#f1c88vm5tn46hy)" height="51.7344" style="stroke:#000000;stroke-width:1.5;" width="103" x="788" y="83.125"/><ellipse cx="806" cy="101.125" fill="#FFFFFF" rx="11" ry="11" style="stroke:#000000;stroke-width:1.0;"/><path d="M808.0625,101.7031 L804.6406,101.7031 L804.6406,104.0156 L804.8906,104.0156 Q805.4688,104.0156 805.7109,104.2422 Q805.9531,104.4688 805.9531,104.8281 Q805.9531,105.1719 805.7109,105.3984 Q805.4688,105.625 804.8906,105.625 L802.9219,105.625 Q802.3438,105.625 802.1016,105.3984 Q801.8594,105.1719 801.8594,104.8125 Q801.8594,104.375 802.2344,104.1406 Q802.4219,104.0156 803.0313,104.0156 L803.0313,97.75 Q802.6094,97.7188 802.3984,97.5 Q802.1875,97.2813 802.1875,96.9531 Q802.1875,96.5938 802.4297,96.3672 Q802.6719,96.1406 803.25,96.1406 L804.8906,96.1563 Q805.4688,96.1563 805.7109,96.375 Q805.9531,96.5938 805.9531,96.9531 Q805.9531,97.3125 805.7109,97.5313 Q805.4688,97.75 804.8906,97.75 L804.6406,97.75 L804.6406,100.0938 L808.0625,100.0938 L808.0625,97.75 L807.8125,97.75 Q807.2344,97.75 806.9844,97.5313 Q806.7344,97.3125 806.7344,96.9531 Q806.7344,96.5938 806.9844,96.3672 Q807.2344,96.1406 807.8125,96.1406 L809.4375,96.1563 Q810.0156,96.1563 810.2656,96.375 Q810.5156,96.5938 810.5156,96.9531 Q810.5156,97.2813 810.2969,97.5 Q810.0781,97.7188 809.6563,97.75 L809.6563,104.0156 Q810.2813,104.0156 810.4531,104.1406 Q810.8438,104.375 810.8438,104.8281 Q810.8438,105.1719 810.5938,105.3984 Q810.3438,105.625 809.7656,105.625 L807.8125,105.625 Q807.2344,105.625 806.9844,105.3984 Q806.7344,105.1719 806.7344,104.8125 Q806.7344,104.4688 806.9844,104.2422 Q807.2344,104.0156 807.8125,104.0156 L808.0625,104.0156 L808.0625,101.7031 Z " fill="#0C0C0C"/><text fill="#000000" font-family="sans-serif" font-size="14" font-style="italic" lengthAdjust="spacing" textLength="61" x="823" y="104.6582">«models»</text><text fill="#0C0C0C" font-family="sans-serif" font-size="16" font-weight="bold" lengthAdjust="spacing" textLength="42" x="832.5" y="124.3438">:User</text><rect fill="#D9D2E9" filter="url(#f1c88vm5tn46hy)" height="51.7344" style="stroke:#000000;stroke-width:1.5;" width="121" x="916" y="83.125"/><ellipse cx="934" cy="101.125" fill="#FFFFFF" rx="11" ry="11" style="stroke:#000000;stroke-width:1.0;"/><path d="M934.6094,97.75 L934.6094,104.0156 L936.2188,104.0156 Q936.7969,104.0156 937.0469,104.2422 Q937.2969,104.4688 937.2969,104.8281 Q937.2969,105.1719 937.0469,105.3984 Q936.7969,105.625 936.2188,105.625 L931.3906,105.625 Q930.8125,105.625 930.5625,105.3984 Q930.3125,105.1719 930.3125,104.8125 Q930.3125,104.4688 930.5625,104.2422 Q930.8125,104.0156 931.3906,104.0156 L933,104.0156 L933,97.75 L931.3906,97.75 Q930.8125,97.75 930.5625,97.5313 Q930.3125,97.3125 930.3125,96.9531 Q930.3125,96.5938 930.5625,96.3672 Q930.8125,96.1406 931.3906,96.1406 L936.2188,96.1563 Q936.7969,96.1563 937.0469,96.375 Q937.2969,96.5938 937.2969,96.9531 Q937.2969,97.3125 937.0469,97.5313 Q936.7969,97.75 936.2188,97.75 L934.6094,97.75 Z " fill="#0C0C0C"/><text fill="#000000" font-family="sans-serif" font-size="14" font-style="italic" lengthAdjust="spacing" textLength="79" x="951" y="104.6582">«data base»</text><text fill="#0C0C0C" font-family="sans-serif" font-size="16" lengthAdjust="spacing" textLength="71" x="955" y="124.3438">MongoDB</text><rect fill="#FFFF99" filter="url(#f1c88vm5tn46hy)" height="766.2266" style="stroke:#000000;stroke-width:1.0;" width="10" x="61.5" y="193.5938"/><rect fill="#FFFF99" filter="url(#f1c88vm5tn46hy)" height="70.6016" style="stroke:#000000;stroke-width:1.0;" width="10" x="181.5" y="193.5938"/><rect fill="#FFFF99" filter="url(#f1c88vm5tn46hy)" height="32.8672" style="stroke:#000000;stroke-width:1.0;" width="10" x="303.5" y="264.1953"/><rect fill="#FFFF99" filter="url(#f1c88vm5tn46hy)" height="318.3125" style="stroke:#000000;stroke-width:1.0;" width="10" x="435" y="297.0625"/><rect fill="#FFFF99" filter="url(#f1c88vm5tn46hy)" height="329.4453" style="stroke:#000000;stroke-width:1.0;" width="10" x="582" y="615.375"/><rect fill="#FFFF99" filter="url(#f1c88vm5tn46hy)" height="210.5938" style="stroke:#000000;stroke-width:1.0;" width="10" x="714.5" y="701.3594"/><rect fill="#FFFF99" filter="url(#f1c88vm5tn46hy)" height="98.6016" style="stroke:#000000;stroke-width:1.0;" width="10" x="836.5" y="483.9063"/><rect fill="#FFFF99" filter="url(#f1c88vm5tn46hy)" height="32.8672" style="stroke:#000000;stroke-width:1.0;" width="10" x="973.5" y="516.7734"/><rect fill="#FFFF99" filter="url(#f1c88vm5tn46hy)" height="32.8672" style="stroke:#000000;stroke-width:1.0;" width="10" x="973.5" y="846.2188"/><polygon fill="#A80036" points="169.5,189.5938,179.5,193.5938,169.5,197.5938,173.5,193.5938" style="stroke:#A80036;stroke-width:1.0;"/><line style="stroke:#A80036;stroke-width:1.5;" x1="71.5" x2="175.5" y1="193.5938" y2="193.5938"/><text fill="#000000" font-family="sans-serif" font-size="15" font-weight="bold" lengthAdjust="spacing" textLength="18" x="78.5" y="178.8643">[1]</text><text fill="#000000" font-family="sans-serif" font-size="15" lengthAdjust="spacing" textLength="66" x="100.5" y="169.4307">req.route('</text><text fill="#000000" font-family="sans-serif" font-size="15" lengthAdjust="spacing" textLength="74" x="100.5" y="188.2979">/bookings/')</text><polygon fill="#A80036" points="291.5,260.1953,301.5,264.1953,291.5,268.1953,295.5,264.1953" style="stroke:#A80036;stroke-width:1.0;"/><line style="stroke:#A80036;stroke-width:1.5;" x1="186.5" x2="297.5" y1="264.1953" y2="264.1953"/><text fill="#000000" font-family="sans-serif" font-size="15" font-weight="bold" lengthAdjust="spacing" textLength="18" x="193.5" y="240.0322">[2]</text><text fill="#000000" font-family="sans-serif" font-size="15" lengthAdjust="spacing" textLength="60" x="215.5" y="221.165">app.use('</text><text fill="#000000" font-family="sans-serif" font-size="15" lengthAdjust="spacing" textLength="69" x="215.5" y="240.0322">/bookings',</text><text fill="#000000" font-family="sans-serif" font-size="15" lengthAdjust="spacing" textLength="63" x="223.5" y="258.8994">bookings)</text><polygon fill="#A80036" points="423,293.0625,433,297.0625,423,301.0625,427,297.0625" style="stroke:#A80036;stroke-width:1.0;"/><line style="stroke:#A80036;stroke-width:1.5;" x1="308.5" x2="429" y1="297.0625" y2="297.0625"/><text fill="#000000" font-family="sans-serif" font-size="15" font-weight="bold" lengthAdjust="spacing" textLength="18" x="315.5" y="291.7666">[3]</text><text fill="#000000" font-family="sans-serif" font-size="15" lengthAdjust="spacing" textLength="45" x="337.5" y="291.7666">protect</text><line style="stroke:#A80036;stroke-width:1.5;" x1="445" x2="487" y1="329.9297" y2="329.9297"/><line style="stroke:#A80036;stroke-width:1.5;" x1="487" x2="487" y1="329.9297" y2="342.9297"/><line style="stroke:#A80036;stroke-width:1.5;" x1="446" x2="487" y1="342.9297" y2="342.9297"/><polygon fill="#A80036" points="456,338.9297,446,342.9297,456,346.9297,452,342.9297" style="stroke:#A80036;stroke-width:1.0;"/><text fill="#000000" font-family="sans-serif" font-size="15" font-weight="bold" lengthAdjust="spacing" textLength="18" x="452" y="324.6338">[4]</text><text fill="#000000" font-family="sans-serif" font-size="15" lengthAdjust="spacing" textLength="101" x="474" y="324.6338">jwt.verify(token)</text><path d="M15,357.9297 L78,357.9297 L78,369.9297 L68,379.9297 L15,379.9297 L15,357.9297 " fill="#FFD700" style="stroke:#000000;stroke-width:1.0;"/><rect fill="none" height="594.8906" style="stroke:#000000;stroke-width:2.0;" width="1036" x="15" y="357.9297"/><text fill="#000000" font-family="sans-serif" font-size="16" font-weight="bold" lengthAdjust="spacing" textLength="18" x="30" y="375.5391">alt</text><text fill="#000000" font-family="sans-serif" font-size="16" font-weight="bold" lengthAdjust="spacing" textLength="198" x="93" y="376.5391">[no token or invalid token]</text><polygon fill="#A80036" points="82.5,406.0469,72.5,410.0469,82.5,414.0469,78.5,410.0469" style="stroke:#A80036;stroke-width:1.0;"/><line style="stroke:#A80036;stroke-width:1.5;stroke-dasharray:2.0,2.0;" x1="76.5" x2="434" y1="410.0469" y2="410.0469"/><text fill="#000000" font-family="sans-serif" font-size="15" font-weight="bold" lengthAdjust="spacing" textLength="18" x="88.5" y="404.751">[5]</text><text fill="#000000" font-family="sans-serif" font-size="15" lengthAdjust="spacing" textLength="83" x="110.5" y="404.751">response fail</text><line style="stroke:#000000;stroke-width:1.0;stroke-dasharray:2.0,2.0;" x1="15" x2="1051" y1="419.0469" y2="419.0469"/><text fill="#000000" font-family="sans-serif" font-size="16" font-weight="bold" lengthAdjust="spacing" textLength="41" x="20" y="435.6563">[else]</text><polygon fill="#A80036" points="824.5,479.9063,834.5,483.9063,824.5,487.9063,828.5,483.9063" style="stroke:#A80036;stroke-width:1.0;"/><line style="stroke:#A80036;stroke-width:1.5;" x1="445" x2="830.5" y1="483.9063" y2="483.9063"/><text fill="#000000" font-family="sans-serif" font-size="15" font-weight="bold" lengthAdjust="spacing" textLength="18" x="452" y="469.1768">[6]</text><text fill="#000000" font-family="sans-serif" font-size="15" lengthAdjust="spacing" textLength="51" x="474" y="459.7432">findById</text><text fill="#000000" font-family="sans-serif" font-size="15" lengthAdjust="spacing" textLength="81" x="474" y="478.6104">(decoded.id)</text><polygon fill="#A80036" points="961.5,512.7734,971.5,516.7734,961.5,520.7734,965.5,516.7734" style="stroke:#A80036;stroke-width:1.0;"/><line style="stroke:#A80036;stroke-width:1.5;" x1="846.5" x2="967.5" y1="516.7734" y2="516.7734"/><text fill="#000000" font-family="sans-serif" font-size="15" font-weight="bold" lengthAdjust="spacing" textLength="18" x="853.5" y="511.4775">[7]</text><text fill="#000000" font-family="sans-serif" font-size="15" lengthAdjust="spacing" textLength="86" x="875.5" y="511.4775">UserSchema</text><polygon fill="#A80036" points="857.5,545.6406,847.5,549.6406,857.5,553.6406,853.5,549.6406" style="stroke:#A80036;stroke-width:1.0;"/><line style="stroke:#A80036;stroke-width:1.5;stroke-dasharray:2.0,2.0;" x1="851.5" x2="977.5" y1="549.6406" y2="549.6406"/><text fill="#000000" font-family="sans-serif" font-size="15" font-weight="bold" lengthAdjust="spacing" textLength="18" x="863.5" y="544.3447">[8]</text><text fill="#000000" font-family="sans-serif" font-size="15" lengthAdjust="spacing" textLength="29" x="885.5" y="544.3447">user</text><polygon fill="#A80036" points="456,578.5078,446,582.5078,456,586.5078,452,582.5078" style="stroke:#A80036;stroke-width:1.0;"/><line style="stroke:#A80036;stroke-width:1.5;stroke-dasharray:2.0,2.0;" x1="450" x2="840.5" y1="582.5078" y2="582.5078"/><text fill="#000000" font-family="sans-serif" font-size="15" font-weight="bold" lengthAdjust="spacing" textLength="18" x="462" y="577.2119">[9]</text><text fill="#000000" font-family="sans-serif" font-size="15" lengthAdjust="spacing" textLength="29" x="484" y="577.2119">user</text><polygon fill="#A80036" points="570,611.375,580,615.375,570,619.375,574,615.375" style="stroke:#A80036;stroke-width:1.0;"/><line style="stroke:#A80036;stroke-width:1.5;" x1="440" x2="576" y1="615.375" y2="615.375"/><text fill="#000000" font-family="sans-serif" font-size="15" font-weight="bold" lengthAdjust="spacing" textLength="26" x="447" y="610.0791">[10]</text><text fill="#000000" font-family="sans-serif" font-size="15" lengthAdjust="spacing" textLength="80" x="477" y="610.0791">getBookings</text><path d="M513,630.375 L576,630.375 L576,642.375 L566,652.375 L513,652.375 L513,630.375 " fill="#FFD700" style="stroke:#000000;stroke-width:1.0;"/><rect fill="none" height="183.9766" style="stroke:#000000;stroke-width:2.0;" width="275" x="513" y="630.375"/><text fill="#000000" font-family="sans-serif" font-size="16" font-weight="bold" lengthAdjust="spacing" textLength="18" x="528" y="647.9844">alt</text><text fill="#000000" font-family="sans-serif" font-size="16" font-weight="bold" lengthAdjust="spacing" textLength="112" x="591" y="648.9844">[if role == user]</text><polygon fill="#A80036" points="702.5,697.3594,712.5,701.3594,702.5,705.3594,706.5,701.3594" style="stroke:#A80036;stroke-width:1.0;"/><line style="stroke:#A80036;stroke-width:1.5;" x1="592" x2="708.5" y1="701.3594" y2="701.3594"/><text fill="#000000" font-family="sans-serif" font-size="15" font-weight="bold" lengthAdjust="spacing" textLength="26" x="599" y="686.6299">[11]</text><text fill="#000000" font-family="sans-serif" font-size="15" lengthAdjust="spacing" textLength="49" x="629" y="677.1963">find(req</text><text fill="#000000" font-family="sans-serif" font-size="15" lengthAdjust="spacing" textLength="53" x="629" y="696.0635">.user.id)</text><line style="stroke:#000000;stroke-width:1.0;stroke-dasharray:2.0,2.0;" x1="513" x2="788" y1="735.3594" y2="735.3594"/><text fill="#000000" font-family="sans-serif" font-size="16" font-weight="bold" lengthAdjust="spacing" textLength="125" x="518" y="751.9688">[if role == admin]</text><polygon fill="#A80036" points="702.5,777.3516,712.5,781.3516,702.5,785.3516,706.5,781.3516" style="stroke:#A80036;stroke-width:1.0;"/><line style="stroke:#A80036;stroke-width:1.5;" x1="592" x2="708.5" y1="781.3516" y2="781.3516"/><text fill="#000000" font-family="sans-serif" font-size="15" font-weight="bold" lengthAdjust="spacing" textLength="26" x="599" y="776.0557">[12]</text><text fill="#000000" font-family="sans-serif" font-size="15" lengthAdjust="spacing" textLength="33" x="629" y="776.0557">find()</text><polygon fill="#A80036" points="961.5,842.2188,971.5,846.2188,961.5,850.2188,965.5,846.2188" style="stroke:#A80036;stroke-width:1.0;"/><line style="stroke:#A80036;stroke-width:1.5;" x1="724.5" x2="967.5" y1="846.2188" y2="846.2188"/><text fill="#000000" font-family="sans-serif" font-size="15" font-weight="bold" lengthAdjust="spacing" textLength="26" x="731.5" y="840.9229">[13]</text><text fill="#000000" font-family="sans-serif" font-size="15" lengthAdjust="spacing" textLength="99" x="761.5" y="840.9229">BookingScema</text><polygon fill="#A80036" points="735.5,875.0859,725.5,879.0859,735.5,883.0859,731.5,879.0859" style="stroke:#A80036;stroke-width:1.0;"/><line style="stroke:#A80036;stroke-width:1.5;stroke-dasharray:2.0,2.0;" x1="729.5" x2="977.5" y1="879.0859" y2="879.0859"/><text fill="#000000" font-family="sans-serif" font-size="15" font-weight="bold" lengthAdjust="spacing" textLength="26" x="741.5" y="873.79">[14]</text><text fill="#000000" font-family="sans-serif" font-size="15" lengthAdjust="spacing" textLength="58" x="771.5" y="873.79">bookings</text><polygon fill="#A80036" points="603,907.9531,593,911.9531,603,915.9531,599,911.9531" style="stroke:#A80036;stroke-width:1.0;"/><line style="stroke:#A80036;stroke-width:1.5;stroke-dasharray:2.0,2.0;" x1="597" x2="718.5" y1="911.9531" y2="911.9531"/><text fill="#000000" font-family="sans-serif" font-size="15" font-weight="bold" lengthAdjust="spacing" textLength="26" x="609" y="906.6572">[15]</text><text fill="#000000" font-family="sans-serif" font-size="15" lengthAdjust="spacing" textLength="58" x="639" y="906.6572">bookings</text><polygon fill="#A80036" points="82.5,940.8203,72.5,944.8203,82.5,948.8203,78.5,944.8203" style="stroke:#A80036;stroke-width:1.0;"/><line style="stroke:#A80036;stroke-width:1.5;stroke-dasharray:2.0,2.0;" x1="76.5" x2="586" y1="944.8203" y2="944.8203"/><text fill="#000000" font-family="sans-serif" font-size="15" font-weight="bold" lengthAdjust="spacing" textLength="26" x="88.5" y="939.5244">[16]</text><text fill="#000000" font-family="sans-serif" font-size="15" lengthAdjust="spacing" textLength="121" x="118.5" y="939.5244">response success</text><!--MD5=[bb439c1168ef1084b5974742dccad125]
@startuml

hide footbox
skinparam sequenceArrowThickness 1.5
skinparam fontsize 50
autonumber 1 "<b>[###]"
skinparam component {
'FontSize 13
'BackgroundColor<<Apache>> Red
'BorderColor<<Apache>> #FF6655
'FontName Courier
'BorderColor black
'BackgroundColor gold
'ArrowFontName Impact
ArrowFontSize 15
'ArrowColor #FF6655
'ArrowFontColor #777777
}
'skinparam backgroundColor #EEEBDC

'title Sequence diagram
skinparam defaultFontSize 16
Mainframe <b>Get All Bookings</b>

actor "<b>User" as user <<(A,#ADD1B2)client>>#White
Box Online Job Fair Registration System #lightgrey
participant "server" as server <<(B,#FFFFFF)main>>#Orange
'participant "auth" as rauth <<(C,#FFFFFF)routes>>#Gold
participant "bookings" as rbookings <<(C,#FFFFFF)routes>>#Gold
'participant "companies" as rcompanies <<(C,#FFFFFF)routes>>#Gold
participant "auth" as middleware_auth <<(E,#FFFFFF)middleware>>#Pink
'participant "<b>auth" as controllers_auth <<(D,#FFFFFF)controllers>>#LightGreen
participant "<b>bookings" as controllers_bookings <<(D,#FFFFFF)controllers>>#LightGreen
'participant "<b>companies" as controllers_companies <<(F,#FFFFFF)controllers>>#LightGreen
' participant "<b>:Company" as models_Company <<(F,#FFFFFF)models>>#LightBlue
participant "<b>:Booking" as models_Booking <<(G,#FFFFFF)models>>#LightBlue
participant "<b>:User" as models_User <<(H,#FFFFFF)models>>#LightBlue
participant "MongoDB" as mongo <<(I,#FFFFFF)data base>>#d9d2e9
end box

user->server: req.route('\n/bookings/')
Activate user
Activate server
server->rbookings: app.use('\n/bookings',\n  bookings)
DeActivate server
Activate rbookings
'Middleware auth'
rbookings->middleware_auth: protect
DeActivate rbookings
Activate middleware_auth
middleware_auth->middleware_auth: jwt.verify(token)
Alt#Gold #Beige no token or invalid token
middleware_auth- ->user: response fail
Else #LightBlue else
middleware_auth->models_User: findById\n(decoded.id)
Activate models_User
models_User->mongo: UserSchema
Activate mongo
mongo- ->models_User: user
DeActivate mongo
models_User- ->middleware_auth: user
DeActivate models_User
middleware_auth->controllers_bookings: getBookings
DeActivate middleware_auth
Activate controllers_bookings
Alt#Gold #Pink if role == user
controllers_bookings->models_Booking: find(req\n.user.id)
Activate models_Booking
|||
Else #PaleGreen if role == admin
controllers_bookings->models_Booking: find()
|||
End Alt
models_Booking->mongo: BookingScema
Activate mongo
mongo- ->models_Booking: bookings
DeActivate mongo
models_Booking- ->controllers_bookings: bookings
DeActivate models_Booking
controllers_bookings- ->user: response success
DeActivate controllers_bookings
End Alt
DeActivate user
|||

skinparam sequence {
'Box ==============================
BoxBorderColor Black
BoxFontColor Blue
BoxFontSize 16
'LifeLine + Arrow ==============================
'ArrowColor DeepSkyBlue
LifeLineBorderColor Black
LifeLineBackgroundColor #FFFF99
'Participant ==============================
ParticipantBorderColor Black
'ParticipantBackgroundColor DodgerBlue
StereoTypeFontSize 14
ParticipantFontSize 16
ParticipantFontColor #0c0c0c
'ParticipantFontName Impact
'Actor ==============================
ActorBorderColor Black
ActorBackgroundColor White
ActorFontSize 16
ActorFontColor Black
'ActorFontName Aapex
' ===================================
}

@enduml

@startuml

hide footbox
skinparam sequenceArrowThickness 1.5
skinparam fontsize 50
autonumber 1 "<b>[###]"
skinparam component {
ArrowFontSize 15
}

skinparam defaultFontSize 16
Mainframe <b>Get All Bookings</b>

actor "<b>User" as user <<(A,#ADD1B2)client>>#White
Box Online Job Fair Registration System #lightgrey
participant "server" as server <<(B,#FFFFFF)main>>#Orange
participant "bookings" as rbookings <<(C,#FFFFFF)routes>>#Gold
participant "auth" as middleware_auth <<(E,#FFFFFF)middleware>>#Pink
participant "<b>bookings" as controllers_bookings <<(D,#FFFFFF)controllers>>#LightGreen
participant "<b>:Booking" as models_Booking <<(G,#FFFFFF)models>>#LightBlue
participant "<b>:User" as models_User <<(H,#FFFFFF)models>>#LightBlue
participant "MongoDB" as mongo <<(I,#FFFFFF)data base>>#d9d2e9
end box

user->server: req.route('\n/bookings/')
Activate user
Activate server
server->rbookings: app.use('\n/bookings',\n  bookings)
DeActivate server
Activate rbookings
rbookings->middleware_auth: protect
DeActivate rbookings
Activate middleware_auth
middleware_auth->middleware_auth: jwt.verify(token)
Alt#Gold #Beige no token or invalid token
middleware_auth- ->user: response fail
Else #LightBlue else
middleware_auth->models_User: findById\n(decoded.id)
Activate models_User
models_User->mongo: UserSchema
Activate mongo
mongo- ->models_User: user
DeActivate mongo
models_User- ->middleware_auth: user
DeActivate models_User
middleware_auth->controllers_bookings: getBookings
DeActivate middleware_auth
Activate controllers_bookings
Alt#Gold #Pink if role == user
controllers_bookings->models_Booking: find(req\n.user.id)
Activate models_Booking
|||
Else #PaleGreen if role == admin
controllers_bookings->models_Booking: find()
|||
End Alt
models_Booking->mongo: BookingScema
Activate mongo
mongo- ->models_Booking: bookings
DeActivate mongo
models_Booking- ->controllers_bookings: bookings
DeActivate models_Booking
controllers_bookings- ->user: response success
DeActivate controllers_bookings
End Alt
DeActivate user
|||

skinparam sequence {
BoxBorderColor Black
BoxFontColor Blue
BoxFontSize 16
LifeLineBorderColor Black
LifeLineBackgroundColor #FFFF99
ParticipantBorderColor Black
StereoTypeFontSize 14
ParticipantFontSize 16
ParticipantFontColor #0c0c0c
ActorBorderColor Black
ActorBackgroundColor White
ActorFontSize 16
ActorFontColor Black
}

@enduml

PlantUML version 1.2022.0(Tue Jan 11 23:16:42 ICT 2022)
(GPL source distribution)
Java Runtime: Java(TM) SE Runtime Environment
JVM: Java HotSpot(TM) 64-Bit Server VM
Default Encoding: Cp1252
Language: en
Country: US
--></g></svg>