<?xml version="1.0" encoding="UTF-8" standalone="no"?><svg xmlns="http://www.w3.org/2000/svg" xmlns:xlink="http://www.w3.org/1999/xlink" contentScriptType="application/ecmascript" contentStyleType="text/css" height="1039px" preserveAspectRatio="none" style="width:1115px;height:1039px;background:#FFFFFF;" version="1.1" viewBox="0 0 1115 1039" width="1115px" zoomAndPan="magnify"><defs><filter height="300%" id="f1383ecgj3gsje" width="300%" x="-1" y="-1"><feGaussianBlur result="blurOut" stdDeviation="2.0"/><feColorMatrix in="blurOut" result="blurOut2" type="matrix" values="0 0 0 0 0 0 0 0 0 0 0 0 0 0 0 0 0 0 .4 0"/><feOffset dx="4.0" dy="4.0" in="blurOut2" result="blurOut3"/><feBlend in="SourceGraphic" in2="blurOut3" mode="normal"/></filter></defs><g><rect fill="#FFFFFF" filter="url(#f1383ecgj3gsje)" height="1022.0781" style="stroke:#000000;stroke-width:1.0;" width="1094.5" x="9" y="5"/><path d="M166,5 L166,18.125 L156,28.125 L9,28.125 " fill="none" style="stroke:#000000;stroke-width:1.0;"/><text fill="#000000" font-family="sans-serif" font-size="16" font-weight="bold" lengthAdjust="spacing" textLength="147" x="12" y="22.6094">Get Single Booking</text><rect fill="#D3D3D3" height="973.9375" style="stroke:#000000;stroke-width:1.0;" width="907" x="176.5" y="36.125"/><text fill="#0000FF" font-family="sans-serif" font-size="16" font-weight="bold" lengthAdjust="spacing" textLength="273" x="491.5" y="52.7344">Online Job Fair Registration System</text><rect fill="#FFFF99" filter="url(#f1383ecgj3gsje)" height="857.2031" style="stroke:#000000;stroke-width:1.0;" width="10" x="81.5" y="149.8594"/><rect fill="#FFFF99" filter="url(#f1383ecgj3gsje)" height="70.6016" style="stroke:#000000;stroke-width:1.0;" width="10" x="221.5" y="193.5938"/><rect fill="#FFFF99" filter="url(#f1383ecgj3gsje)" height="32.8672" style="stroke:#000000;stroke-width:1.0;" width="10" x="341.5" y="264.1953"/><rect fill="#FFFF99" filter="url(#f1383ecgj3gsje)" height="318.3125" style="stroke:#000000;stroke-width:1.0;" width="10" x="473" y="297.0625"/><rect fill="#FFFF99" filter="url(#f1383ecgj3gsje)" height="361.6875" style="stroke:#000000;stroke-width:1.0;" width="10" x="620" y="615.375"/><rect fill="#FFFF99" filter="url(#f1383ecgj3gsje)" height="98.6016" style="stroke:#000000;stroke-width:1.0;" width="10" x="753" y="667.1094"/><rect fill="#FFFF99" filter="url(#f1383ecgj3gsje)" height="98.6016" style="stroke:#000000;stroke-width:1.0;" width="10" x="875" y="483.9063"/><rect fill="#FFFF99" filter="url(#f1383ecgj3gsje)" height="32.8672" style="stroke:#000000;stroke-width:1.0;" width="10" x="1012" y="516.7734"/><rect fill="#FFFF99" filter="url(#f1383ecgj3gsje)" height="32.8672" style="stroke:#000000;stroke-width:1.0;" width="10" x="1012" y="699.9766"/><rect fill="#F5F5DC" filter="url(#f1383ecgj3gsje)" height="641.1328" style="stroke:#000000;stroke-width:2.0;" width="1074.5" x="15" y="357.9297"/><rect fill="#ADD8E6" height="581.0156" style="stroke:none;stroke-width:1.0;" width="1074.5" x="15" y="418.0469"/><rect fill="#F5F5DC" filter="url(#f1383ecgj3gsje)" height="211.3516" style="stroke:#000000;stroke-width:2.0;" width="684" x="25" y="780.7109"/><rect fill="#ADD8E6" height="151.2344" style="stroke:none;stroke-width:1.0;" width="684" x="25" y="840.8281"/><rect fill="#F5F5DC" filter="url(#f1383ecgj3gsje)" height="115.1094" style="stroke:#000000;stroke-width:2.0;" width="664" x="35" y="869.9531"/><rect fill="#ADD8E6" height="54.9922" style="stroke:none;stroke-width:1.0;" width="664" x="35" y="930.0703"/><line style="stroke:#000000;stroke-width:1.0;stroke-dasharray:5.0,5.0;" x1="86" x2="86" y1="139.8594" y2="1016.0625"/><line style="stroke:#000000;stroke-width:1.0;stroke-dasharray:5.0,5.0;" x1="226.5" x2="226.5" y1="139.8594" y2="1016.0625"/><line style="stroke:#000000;stroke-width:1.0;stroke-dasharray:5.0,5.0;" x1="346.5" x2="346.5" y1="139.8594" y2="1016.0625"/><line style="stroke:#000000;stroke-width:1.0;stroke-dasharray:5.0,5.0;" x1="477.5" x2="477.5" y1="139.8594" y2="1016.0625"/><line style="stroke:#000000;stroke-width:1.0;stroke-dasharray:5.0,5.0;" x1="625" x2="625" y1="139.8594" y2="1016.0625"/><line style="stroke:#000000;stroke-width:1.0;stroke-dasharray:5.0,5.0;" x1="757.5" x2="757.5" y1="139.8594" y2="1016.0625"/><line style="stroke:#000000;stroke-width:1.0;stroke-dasharray:5.0,5.0;" x1="879.5" x2="879.5" y1="139.8594" y2="1016.0625"/><line style="stroke:#000000;stroke-width:1.0;stroke-dasharray:5.0,5.0;" x1="1016.5" x2="1016.5" y1="139.8594" y2="1016.0625"/><ellipse cx="56" cy="113.125" fill="#ADD1B2" rx="11" ry="11" style="stroke:none;stroke-width:1.0;"/><path d="M57.7656,114.5469 L53.875,114.5469 L53.4844,115.5156 L53.875,115.5156 Q54.4531,115.5156 54.6953,115.7422 Q54.9375,115.9688 54.9375,116.3281 Q54.9375,116.6719 54.6953,116.8984 Q54.4531,117.125 53.875,117.125 L51.7188,117.125 Q51.1406,117.125 50.8906,116.8984 Q50.6406,116.6719 50.6406,116.3125 Q50.6406,115.9531 50.8984,115.7266 Q51.1563,115.5 51.75,115.5156 L54.2656,109.25 L53.2188,109.25 Q52.6406,109.25 52.3984,109.0313 Q52.1563,108.8125 52.1563,108.4531 Q52.1563,108.0938 52.3984,107.8672 Q52.6406,107.6406 53.2188,107.6406 L56.6875,107.6563 L59.875,115.5156 Q60.4375,115.5156 60.6094,115.6406 Q60.9688,115.9063 60.9688,116.3281 Q60.9688,116.6719 60.7266,116.8984 Q60.4844,117.125 59.9063,117.125 L57.75,117.125 Q57.1719,117.125 56.9297,116.8984 Q56.6875,116.6719 56.6875,116.3125 Q56.6875,115.9688 56.9297,115.7422 Q57.1719,115.5156 57.75,115.5156 L58.1406,115.5156 L57.7656,114.5469 Z M57.0938,112.9375 L55.8125,109.7656 L54.5156,112.9375 L57.0938,112.9375 Z " fill="#000000"/><text fill="#000000" font-family="sans-serif" font-size="14" font-style="italic" lengthAdjust="spacing" textLength="49" x="73" y="116.6582">«client»</text><text fill="#000000" font-family="sans-serif" font-size="16" font-weight="bold" lengthAdjust="spacing" textLength="36" x="79.5" y="136.3438">User</text><ellipse cx="86.5" cy="45.125" fill="#FFFFFF" filter="url(#f1383ecgj3gsje)" rx="8" ry="8" style="stroke:#000000;stroke-width:2.0;"/><path d="M86.5,53.125 L86.5,80.125 M73.5,61.125 L99.5,61.125 M86.5,80.125 L73.5,95.125 M86.5,80.125 L99.5,95.125 " fill="none" filter="url(#f1383ecgj3gsje)" style="stroke:#000000;stroke-width:2.0;"/><rect fill="#FFA500" filter="url(#f1383ecgj3gsje)" height="51.7344" style="stroke:#000000;stroke-width:1.5;" width="88" x="180.5" y="83.125"/><ellipse cx="198.5" cy="101.125" fill="#FFFFFF" rx="11" ry="11" style="stroke:#000000;stroke-width:1.0;"/><path d="M196.5313,104.0156 L196.5313,97.75 L196.2813,97.75 Q195.7031,97.75 195.4609,97.5313 Q195.2188,97.3125 195.2188,96.9531 Q195.2188,96.5938 195.4609,96.3672 Q195.7031,96.1406 196.2813,96.1406 L200.2969,96.1406 Q201.7344,96.1406 202.6094,96.9453 Q203.4844,97.75 203.4844,98.8438 Q203.4844,99.375 203.2813,99.8359 Q203.0781,100.2969 202.6719,100.6875 Q203.4219,101.1406 203.8047,101.7422 Q204.1875,102.3438 204.1875,103.1094 Q204.1875,103.7188 203.9063,104.25 Q203.7031,104.6406 203.4063,104.875 Q203.0156,105.2031 202.4375,105.4141 Q201.8594,105.625 200.9844,105.625 L196.2813,105.625 Q195.7031,105.625 195.4609,105.3984 Q195.2188,105.1719 195.2188,104.8125 Q195.2188,104.4688 195.4688,104.2422 Q195.7188,104.0156 196.2813,104.0156 L196.5313,104.0156 Z M198.1406,100.0781 L199.8906,100.0781 Q200.8438,100.0781 201.4688,99.6094 Q201.8906,99.2813 201.8906,98.8125 Q201.8906,98.3906 201.4922,98.0703 Q201.0938,97.75 200.2188,97.75 L198.1406,97.75 L198.1406,100.0781 Z M198.1406,104.0156 L200.9063,104.0156 Q201.875,104.0156 202.2813,103.7344 Q202.5781,103.5156 202.5781,103.1094 Q202.5781,102.625 201.9766,102.1563 Q201.375,101.6875 200.25,101.6875 L198.1406,101.6875 L198.1406,104.0156 Z " fill="#0C0C0C"/><text fill="#000000" font-family="sans-serif" font-size="14" font-style="italic" lengthAdjust="spacing" textLength="46" x="215.5" y="104.6582">«main»</text><text fill="#0C0C0C" font-family="sans-serif" font-size="16" lengthAdjust="spacing" textLength="43" x="217" y="124.3438">server</text><rect fill="#FFD700" filter="url(#f1383ecgj3gsje)" height="51.7344" style="stroke:#000000;stroke-width:1.5;" width="106" x="291.5" y="83.125"/><ellipse cx="309.5" cy="101.125" fill="#FFFFFF" rx="11" ry="11" style="stroke:#000000;stroke-width:1.0;"/><path d="M312.0625,97.0625 Q312.2188,96.8594 312.3906,96.7578 Q312.5625,96.6563 312.7656,96.6563 Q313.125,96.6563 313.3438,96.8984 Q313.5625,97.1406 313.5625,97.7188 L313.5625,99.0781 Q313.5625,99.6563 313.3438,99.8984 Q313.125,100.1406 312.7656,100.1406 Q312.4531,100.1406 312.25,99.9688 Q312.0625,99.7813 311.9688,99.2969 Q311.9063,98.9688 311.75,98.7813 Q311.4219,98.4375 310.8516,98.2266 Q310.2813,98.0156 309.7031,98.0156 Q308.9844,98.0156 308.3828,98.3281 Q307.7813,98.6406 307.3203,99.3438 Q306.8594,100.0469 306.8594,101.0156 L306.8594,102.0469 Q306.8594,103.2031 307.6953,103.9766 Q308.5313,104.75 310.0313,104.75 Q310.9219,104.75 311.5313,104.5156 Q311.8906,104.375 312.2969,103.9531 Q312.5469,103.7031 312.6875,103.6328 Q312.8281,103.5625 313.0156,103.5625 Q313.3281,103.5625 313.5703,103.8047 Q313.8125,104.0469 313.8125,104.375 Q313.8125,104.7031 313.4844,105.0781 Q313.0156,105.625 312.2656,105.9375 Q311.25,106.3594 310.0313,106.3594 Q308.6094,106.3594 307.4688,105.7656 Q306.5469,105.2969 305.8984,104.2891 Q305.25,103.2813 305.25,102.0781 L305.25,101 Q305.25,99.75 305.8359,98.6641 Q306.4219,97.5781 307.4531,96.9922 Q308.4844,96.4063 309.6406,96.4063 Q310.3281,96.4063 310.9375,96.5703 Q311.5469,96.7344 312.0625,97.0625 Z " fill="#0C0C0C"/><text fill="#000000" font-family="sans-serif" font-size="14" font-style="italic" lengthAdjust="spacing" textLength="56" x="330.5" y="104.6582">«routes»</text><text fill="#0C0C0C" font-family="sans-serif" font-size="16" lengthAdjust="spacing" textLength="64" x="326.5" y="124.3438">bookings</text><rect fill="#FFC0CB" filter="url(#f1383ecgj3gsje)" height="51.7344" style="stroke:#000000;stroke-width:1.5;" width="129" x="411.5" y="83.125"/><ellipse cx="429.5" cy="101.125" fill="#FFFFFF" rx="11" ry="11" style="stroke:#000000;stroke-width:1.0;"/><path d="M428.6563,101.6719 L428.6563,104.0156 L432.75,104.0156 L432.75,103.1563 Q432.75,102.5781 432.9688,102.3281 Q433.1875,102.0781 433.5469,102.0781 Q433.9063,102.0781 434.125,102.3281 Q434.3438,102.5781 434.3438,103.1563 L434.3438,105.625 L426.8125,105.625 Q426.2344,105.625 425.9844,105.3984 Q425.7344,105.1719 425.7344,104.8125 Q425.7344,104.4688 425.9844,104.2422 Q426.2344,104.0156 426.8125,104.0156 L427.0625,104.0156 L427.0625,97.75 L426.8125,97.75 Q426.2344,97.75 425.9844,97.5313 Q425.7344,97.3125 425.7344,96.9531 Q425.7344,96.5938 425.9844,96.3672 Q426.2344,96.1406 426.8125,96.1406 L434,96.1563 L434,98.5938 Q434,99.1563 433.7813,99.4063 Q433.5625,99.6563 433.2031,99.6563 Q432.8438,99.6563 432.6172,99.4141 Q432.3906,99.1719 432.3906,98.5938 L432.3906,97.75 L428.6563,97.75 L428.6563,100.0625 L430.0625,100.0625 Q430.0625,99.4375 430.1875,99.2656 Q430.4219,98.875 430.875,98.875 Q431.2188,98.875 431.4453,99.125 Q431.6719,99.375 431.6719,99.9531 L431.6719,101.7969 Q431.6719,102.3125 431.5469,102.5 Q431.2969,102.8594 430.875,102.8594 Q430.4219,102.8594 430.1875,102.4844 Q430.0625,102.2969 430.0625,101.6719 L428.6563,101.6719 Z " fill="#0C0C0C"/><text fill="#000000" font-family="sans-serif" font-size="14" font-style="italic" lengthAdjust="spacing" textLength="87" x="446.5" y="104.6582">«middleware»</text><text fill="#0C0C0C" font-family="sans-serif" font-size="16" lengthAdjust="spacing" textLength="29" x="475.5" y="124.3438">auth</text><rect fill="#90EE90" filter="url(#f1383ecgj3gsje)" height="51.7344" style="stroke:#000000;stroke-width:1.5;" width="124" x="561" y="83.125"/><ellipse cx="579" cy="101.125" fill="#FFFFFF" rx="11" ry="11" style="stroke:#000000;stroke-width:1.0;"/><path d="M576.4688,104.0156 L576.4688,97.75 Q575.9688,97.75 575.7266,97.5234 Q575.4844,97.2969 575.4844,96.9531 Q575.4844,96.5938 575.7266,96.3672 Q575.9688,96.1406 576.5469,96.1406 L579.9063,96.1563 Q580.6875,96.1563 581.4297,96.4453 Q582.1719,96.7344 582.625,97.1719 Q582.9688,97.5156 583.3438,98.1016 Q583.7188,98.6875 583.9063,99.2656 Q584.0938,99.8438 584.0938,100.6719 L584.0938,101.4375 Q584.0938,102.4531 583.75,103.2422 Q583.4063,104.0313 582.8438,104.5234 Q582.2813,105.0156 581.7969,105.25 Q581.0156,105.625 579.7656,105.625 L576.5469,105.625 Q575.9688,105.625 575.7266,105.3984 Q575.4844,105.1719 575.4844,104.8125 Q575.4844,104.4688 575.7266,104.2422 Q575.9688,104.0156 576.4688,104.0156 Z M578.0781,104.0156 L579.7813,104.0156 Q580.7344,104.0156 581.2188,103.75 Q581.8438,103.3906 582.1641,102.8359 Q582.4844,102.2813 582.4844,101.3906 L582.4844,100.6406 Q582.4844,99.875 582.2031,99.3125 Q581.75,98.4219 581.1797,98.0859 Q580.6094,97.75 579.7656,97.75 L578.0781,97.75 L578.0781,104.0156 Z " fill="#0C0C0C"/><text fill="#000000" font-family="sans-serif" font-size="14" font-style="italic" lengthAdjust="spacing" textLength="82" x="596" y="104.6582">«controllers»</text><text fill="#0C0C0C" font-family="sans-serif" font-size="16" font-weight="bold" lengthAdjust="spacing" textLength="72" x="601" y="124.3438">bookings</text><rect fill="#ADD8E6" filter="url(#f1383ecgj3gsje)" height="51.7344" style="stroke:#000000;stroke-width:1.5;" width="113" x="699.5" y="83.125"/><ellipse cx="717.5" cy="101.125" fill="#FFFFFF" rx="11" ry="11" style="stroke:#000000;stroke-width:1.0;"/><path d="M721.8438,102.9375 L721.8438,105.0938 Q720.75,105.6719 719.9922,105.8906 Q719.2344,106.1094 718.3438,106.1094 Q717.125,106.1094 716.0781,105.7344 Q715.25,105.4531 714.7813,105.0234 Q714.3125,104.5938 713.9141,103.7578 Q713.5156,102.9219 713.5156,101.875 L713.5156,100.7188 Q713.5156,99.125 714.4844,97.8594 Q715.7969,96.1563 718.0625,96.1563 Q718.7188,96.1563 719.3047,96.2891 Q719.8906,96.4219 720.4219,96.6875 Q720.75,96.4063 721.0469,96.4063 Q721.4063,96.4063 721.625,96.6484 Q721.8438,96.8906 721.8438,97.4688 L721.8438,98.5 Q721.8438,99.0781 721.6172,99.3281 Q721.3906,99.5781 721.0469,99.5781 Q720.7656,99.5781 720.5625,99.4063 Q720.4063,99.2813 720.2969,98.8828 Q720.1875,98.4844 720.0625,98.3438 Q719.8438,98.1094 719.3125,97.9375 Q718.7813,97.7656 718.1094,97.7656 Q717.1563,97.7656 716.4531,98.1563 Q715.9531,98.4375 715.5313,99.1563 Q715.1094,99.875 715.1094,100.7188 L715.1094,101.875 Q715.1094,103.1719 715.8594,103.8359 Q716.6094,104.5 718.2344,104.5 Q719.3281,104.5 720.2344,104.0938 L720.2344,102.9375 L718.6094,102.9375 Q718.0313,102.9375 717.7813,102.7188 Q717.5313,102.5 717.5313,102.1406 Q717.5313,101.7813 717.7813,101.5547 Q718.0313,101.3281 718.6094,101.3281 L721.4531,101.3438 Q722.0313,101.3438 722.2734,101.5625 Q722.5156,101.7813 722.5156,102.1406 Q722.5156,102.4219 722.3516,102.6328 Q722.1875,102.8438 721.8438,102.9375 Z " fill="#0C0C0C"/><text fill="#000000" font-family="sans-serif" font-size="14" font-style="italic" lengthAdjust="spacing" textLength="61" x="739.5" y="104.6582">«models»</text><text fill="#0C0C0C" font-family="sans-serif" font-size="16" font-weight="bold" lengthAdjust="spacing" textLength="71" x="734.5" y="124.3438">:Booking</text><rect fill="#ADD8E6" filter="url(#f1383ecgj3gsje)" height="51.7344" style="stroke:#000000;stroke-width:1.5;" width="103" x="826.5" y="83.125"/><ellipse cx="844.5" cy="101.125" fill="#FFFFFF" rx="11" ry="11" style="stroke:#000000;stroke-width:1.0;"/><path d="M846.5625,101.7031 L843.1406,101.7031 L843.1406,104.0156 L843.3906,104.0156 Q843.9688,104.0156 844.2109,104.2422 Q844.4531,104.4688 844.4531,104.8281 Q844.4531,105.1719 844.2109,105.3984 Q843.9688,105.625 843.3906,105.625 L841.4219,105.625 Q840.8438,105.625 840.6016,105.3984 Q840.3594,105.1719 840.3594,104.8125 Q840.3594,104.375 840.7344,104.1406 Q840.9219,104.0156 841.5313,104.0156 L841.5313,97.75 Q841.1094,97.7188 840.8984,97.5 Q840.6875,97.2813 840.6875,96.9531 Q840.6875,96.5938 840.9297,96.3672 Q841.1719,96.1406 841.75,96.1406 L843.3906,96.1563 Q843.9688,96.1563 844.2109,96.375 Q844.4531,96.5938 844.4531,96.9531 Q844.4531,97.3125 844.2109,97.5313 Q843.9688,97.75 843.3906,97.75 L843.1406,97.75 L843.1406,100.0938 L846.5625,100.0938 L846.5625,97.75 L846.3125,97.75 Q845.7344,97.75 845.4844,97.5313 Q845.2344,97.3125 845.2344,96.9531 Q845.2344,96.5938 845.4844,96.3672 Q845.7344,96.1406 846.3125,96.1406 L847.9375,96.1563 Q848.5156,96.1563 848.7656,96.375 Q849.0156,96.5938 849.0156,96.9531 Q849.0156,97.2813 848.7969,97.5 Q848.5781,97.7188 848.1563,97.75 L848.1563,104.0156 Q848.7813,104.0156 848.9531,104.1406 Q849.3438,104.375 849.3438,104.8281 Q849.3438,105.1719 849.0938,105.3984 Q848.8438,105.625 848.2656,105.625 L846.3125,105.625 Q845.7344,105.625 845.4844,105.3984 Q845.2344,105.1719 845.2344,104.8125 Q845.2344,104.4688 845.4844,104.2422 Q845.7344,104.0156 846.3125,104.0156 L846.5625,104.0156 L846.5625,101.7031 Z " fill="#0C0C0C"/><text fill="#000000" font-family="sans-serif" font-size="14" font-style="italic" lengthAdjust="spacing" textLength="61" x="861.5" y="104.6582">«models»</text><text fill="#0C0C0C" font-family="sans-serif" font-size="16" font-weight="bold" lengthAdjust="spacing" textLength="42" x="871" y="124.3438">:User</text><rect fill="#D9D2E9" filter="url(#f1383ecgj3gsje)" height="51.7344" style="stroke:#000000;stroke-width:1.5;" width="121" x="954.5" y="83.125"/><ellipse cx="972.5" cy="101.125" fill="#FFFFFF" rx="11" ry="11" style="stroke:#000000;stroke-width:1.0;"/><path d="M973.1094,97.75 L973.1094,104.0156 L974.7188,104.0156 Q975.2969,104.0156 975.5469,104.2422 Q975.7969,104.4688 975.7969,104.8281 Q975.7969,105.1719 975.5469,105.3984 Q975.2969,105.625 974.7188,105.625 L969.8906,105.625 Q969.3125,105.625 969.0625,105.3984 Q968.8125,105.1719 968.8125,104.8125 Q968.8125,104.4688 969.0625,104.2422 Q969.3125,104.0156 969.8906,104.0156 L971.5,104.0156 L971.5,97.75 L969.8906,97.75 Q969.3125,97.75 969.0625,97.5313 Q968.8125,97.3125 968.8125,96.9531 Q968.8125,96.5938 969.0625,96.3672 Q969.3125,96.1406 969.8906,96.1406 L974.7188,96.1563 Q975.2969,96.1563 975.5469,96.375 Q975.7969,96.5938 975.7969,96.9531 Q975.7969,97.3125 975.5469,97.5313 Q975.2969,97.75 974.7188,97.75 L973.1094,97.75 Z " fill="#0C0C0C"/><text fill="#000000" font-family="sans-serif" font-size="14" font-style="italic" lengthAdjust="spacing" textLength="79" x="989.5" y="104.6582">«data base»</text><text fill="#0C0C0C" font-family="sans-serif" font-size="16" lengthAdjust="spacing" textLength="71" x="993.5" y="124.3438">MongoDB</text><rect fill="#FFFF99" filter="url(#f1383ecgj3gsje)" height="857.2031" style="stroke:#000000;stroke-width:1.0;" width="10" x="81.5" y="149.8594"/><rect fill="#FFFF99" filter="url(#f1383ecgj3gsje)" height="70.6016" style="stroke:#000000;stroke-width:1.0;" width="10" x="221.5" y="193.5938"/><rect fill="#FFFF99" filter="url(#f1383ecgj3gsje)" height="32.8672" style="stroke:#000000;stroke-width:1.0;" width="10" x="341.5" y="264.1953"/><rect fill="#FFFF99" filter="url(#f1383ecgj3gsje)" height="318.3125" style="stroke:#000000;stroke-width:1.0;" width="10" x="473" y="297.0625"/><rect fill="#FFFF99" filter="url(#f1383ecgj3gsje)" height="361.6875" style="stroke:#000000;stroke-width:1.0;" width="10" x="620" y="615.375"/><rect fill="#FFFF99" filter="url(#f1383ecgj3gsje)" height="98.6016" style="stroke:#000000;stroke-width:1.0;" width="10" x="753" y="667.1094"/><rect fill="#FFFF99" filter="url(#f1383ecgj3gsje)" height="98.6016" style="stroke:#000000;stroke-width:1.0;" width="10" x="875" y="483.9063"/><rect fill="#FFFF99" filter="url(#f1383ecgj3gsje)" height="32.8672" style="stroke:#000000;stroke-width:1.0;" width="10" x="1012" y="516.7734"/><rect fill="#FFFF99" filter="url(#f1383ecgj3gsje)" height="32.8672" style="stroke:#000000;stroke-width:1.0;" width="10" x="1012" y="699.9766"/><polygon fill="#A80036" points="209.5,189.5938,219.5,193.5938,209.5,197.5938,213.5,193.5938" style="stroke:#A80036;stroke-width:1.0;"/><line style="stroke:#A80036;stroke-width:1.5;" x1="91.5" x2="215.5" y1="193.5938" y2="193.5938"/><text fill="#000000" font-family="sans-serif" font-size="15" font-weight="bold" lengthAdjust="spacing" textLength="18" x="98.5" y="178.8643">[1]</text><text fill="#000000" font-family="sans-serif" font-size="15" lengthAdjust="spacing" textLength="53" x="120.5" y="169.4307">req.get('</text><text fill="#000000" font-family="sans-serif" font-size="15" lengthAdjust="spacing" textLength="89" x="120.5" y="188.2979">/bookings/:id')</text><polygon fill="#A80036" points="329.5,260.1953,339.5,264.1953,329.5,268.1953,333.5,264.1953" style="stroke:#A80036;stroke-width:1.0;"/><line style="stroke:#A80036;stroke-width:1.5;" x1="226.5" x2="335.5" y1="264.1953" y2="264.1953"/><text fill="#000000" font-family="sans-serif" font-size="15" font-weight="bold" lengthAdjust="spacing" textLength="18" x="233.5" y="240.0322">[2]</text><text fill="#000000" font-family="sans-serif" font-size="15" lengthAdjust="spacing" textLength="60" x="255.5" y="221.165">app.use('</text><text fill="#000000" font-family="sans-serif" font-size="15" lengthAdjust="spacing" textLength="69" x="255.5" y="240.0322">/bookings',</text><text fill="#000000" font-family="sans-serif" font-size="15" lengthAdjust="spacing" textLength="63" x="259.5" y="258.8994">bookings)</text><polygon fill="#A80036" points="461,293.0625,471,297.0625,461,301.0625,465,297.0625" style="stroke:#A80036;stroke-width:1.0;"/><line style="stroke:#A80036;stroke-width:1.5;" x1="346.5" x2="467" y1="297.0625" y2="297.0625"/><text fill="#000000" font-family="sans-serif" font-size="15" font-weight="bold" lengthAdjust="spacing" textLength="18" x="353.5" y="291.7666">[3]</text><text fill="#000000" font-family="sans-serif" font-size="15" lengthAdjust="spacing" textLength="45" x="375.5" y="291.7666">protect</text><line style="stroke:#A80036;stroke-width:1.5;" x1="483" x2="525" y1="329.9297" y2="329.9297"/><line style="stroke:#A80036;stroke-width:1.5;" x1="525" x2="525" y1="329.9297" y2="342.9297"/><line style="stroke:#A80036;stroke-width:1.5;" x1="484" x2="525" y1="342.9297" y2="342.9297"/><polygon fill="#A80036" points="494,338.9297,484,342.9297,494,346.9297,490,342.9297" style="stroke:#A80036;stroke-width:1.0;"/><text fill="#000000" font-family="sans-serif" font-size="15" font-weight="bold" lengthAdjust="spacing" textLength="18" x="490" y="324.6338">[4]</text><text fill="#000000" font-family="sans-serif" font-size="15" lengthAdjust="spacing" textLength="101" x="512" y="324.6338">jwt.verify(token)</text><path d="M15,357.9297 L78,357.9297 L78,369.9297 L68,379.9297 L15,379.9297 L15,357.9297 " fill="#FFD700" style="stroke:#000000;stroke-width:1.0;"/><rect fill="none" height="641.1328" style="stroke:#000000;stroke-width:2.0;" width="1074.5" x="15" y="357.9297"/><text fill="#000000" font-family="sans-serif" font-size="16" font-weight="bold" lengthAdjust="spacing" textLength="18" x="30" y="375.5391">alt</text><text fill="#000000" font-family="sans-serif" font-size="16" font-weight="bold" lengthAdjust="spacing" textLength="198" x="93" y="376.5391">[no token or invalid token]</text><polygon fill="#A80036" points="102.5,406.0469,92.5,410.0469,102.5,414.0469,98.5,410.0469" style="stroke:#A80036;stroke-width:1.0;"/><line style="stroke:#A80036;stroke-width:1.5;stroke-dasharray:2.0,2.0;" x1="96.5" x2="472" y1="410.0469" y2="410.0469"/><text fill="#000000" font-family="sans-serif" font-size="15" font-weight="bold" lengthAdjust="spacing" textLength="18" x="108.5" y="404.751">[5]</text><text fill="#000000" font-family="sans-serif" font-size="15" lengthAdjust="spacing" textLength="83" x="130.5" y="404.751">response fail</text><line style="stroke:#000000;stroke-width:1.0;stroke-dasharray:2.0,2.0;" x1="15" x2="1089.5" y1="419.0469" y2="419.0469"/><text fill="#000000" font-family="sans-serif" font-size="16" font-weight="bold" lengthAdjust="spacing" textLength="41" x="20" y="435.6563">[else]</text><polygon fill="#A80036" points="863,479.9063,873,483.9063,863,487.9063,867,483.9063" style="stroke:#A80036;stroke-width:1.0;"/><line style="stroke:#A80036;stroke-width:1.5;" x1="483" x2="869" y1="483.9063" y2="483.9063"/><text fill="#000000" font-family="sans-serif" font-size="15" font-weight="bold" lengthAdjust="spacing" textLength="18" x="490" y="469.1768">[6]</text><text fill="#000000" font-family="sans-serif" font-size="15" lengthAdjust="spacing" textLength="51" x="512" y="459.7432">findById</text><text fill="#000000" font-family="sans-serif" font-size="15" lengthAdjust="spacing" textLength="81" x="512" y="478.6104">(decoded.id)</text><polygon fill="#A80036" points="1000,512.7734,1010,516.7734,1000,520.7734,1004,516.7734" style="stroke:#A80036;stroke-width:1.0;"/><line style="stroke:#A80036;stroke-width:1.5;" x1="885" x2="1006" y1="516.7734" y2="516.7734"/><text fill="#000000" font-family="sans-serif" font-size="15" font-weight="bold" lengthAdjust="spacing" textLength="18" x="892" y="511.4775">[7]</text><text fill="#000000" font-family="sans-serif" font-size="15" lengthAdjust="spacing" textLength="86" x="914" y="511.4775">UserSchema</text><polygon fill="#A80036" points="896,545.6406,886,549.6406,896,553.6406,892,549.6406" style="stroke:#A80036;stroke-width:1.0;"/><line style="stroke:#A80036;stroke-width:1.5;" x1="890" x2="1016" y1="549.6406" y2="549.6406"/><text fill="#000000" font-family="sans-serif" font-size="15" font-weight="bold" lengthAdjust="spacing" textLength="18" x="902" y="544.3447">[8]</text><text fill="#000000" font-family="sans-serif" font-size="15" lengthAdjust="spacing" textLength="29" x="924" y="544.3447">user</text><polygon fill="#A80036" points="494,578.5078,484,582.5078,494,586.5078,490,582.5078" style="stroke:#A80036;stroke-width:1.0;"/><line style="stroke:#A80036;stroke-width:1.5;" x1="488" x2="879" y1="582.5078" y2="582.5078"/><text fill="#000000" font-family="sans-serif" font-size="15" font-weight="bold" lengthAdjust="spacing" textLength="18" x="500" y="577.2119">[9]</text><text fill="#000000" font-family="sans-serif" font-size="15" lengthAdjust="spacing" textLength="29" x="522" y="577.2119">user</text><polygon fill="#A80036" points="608,611.375,618,615.375,608,619.375,612,615.375" style="stroke:#A80036;stroke-width:1.0;"/><line style="stroke:#A80036;stroke-width:1.5;" x1="478" x2="614" y1="615.375" y2="615.375"/><text fill="#000000" font-family="sans-serif" font-size="15" font-weight="bold" lengthAdjust="spacing" textLength="26" x="485" y="610.0791">[10]</text><text fill="#000000" font-family="sans-serif" font-size="15" lengthAdjust="spacing" textLength="72" x="515" y="610.0791">getBooking</text><polygon fill="#A80036" points="741,663.1094,751,667.1094,741,671.1094,745,667.1094" style="stroke:#A80036;stroke-width:1.0;"/><line style="stroke:#A80036;stroke-width:1.5;" x1="630" x2="747" y1="667.1094" y2="667.1094"/><text fill="#000000" font-family="sans-serif" font-size="15" font-weight="bold" lengthAdjust="spacing" textLength="26" x="637" y="652.3799">[11]</text><text fill="#000000" font-family="sans-serif" font-size="15" lengthAdjust="spacing" textLength="49" x="667" y="642.9463">find(req</text><text fill="#000000" font-family="sans-serif" font-size="15" lengthAdjust="spacing" textLength="74" x="667" y="661.8135">.params.id)</text><polygon fill="#A80036" points="1000,695.9766,1010,699.9766,1000,703.9766,1004,699.9766" style="stroke:#A80036;stroke-width:1.0;"/><line style="stroke:#A80036;stroke-width:1.5;" x1="763" x2="1006" y1="699.9766" y2="699.9766"/><text fill="#000000" font-family="sans-serif" font-size="15" font-weight="bold" lengthAdjust="spacing" textLength="26" x="770" y="694.6807">[12]</text><text fill="#000000" font-family="sans-serif" font-size="15" lengthAdjust="spacing" textLength="107" x="800" y="694.6807">BookingSchema</text><polygon fill="#A80036" points="774,728.8438,764,732.8438,774,736.8438,770,732.8438" style="stroke:#A80036;stroke-width:1.0;"/><line style="stroke:#A80036;stroke-width:1.5;stroke-dasharray:2.0,2.0;" x1="768" x2="1016" y1="732.8438" y2="732.8438"/><text fill="#000000" font-family="sans-serif" font-size="15" font-weight="bold" lengthAdjust="spacing" textLength="26" x="780" y="727.5479">[13]</text><text fill="#000000" font-family="sans-serif" font-size="15" lengthAdjust="spacing" textLength="50" x="810" y="727.5479">booking</text><polygon fill="#A80036" points="641,761.7109,631,765.7109,641,769.7109,637,765.7109" style="stroke:#A80036;stroke-width:1.0;"/><line style="stroke:#A80036;stroke-width:1.5;" x1="635" x2="757" y1="765.7109" y2="765.7109"/><text fill="#000000" font-family="sans-serif" font-size="15" font-weight="bold" lengthAdjust="spacing" textLength="26" x="647" y="760.415">[14]</text><text fill="#000000" font-family="sans-serif" font-size="15" lengthAdjust="spacing" textLength="50" x="677" y="760.415">booking</text><path d="M25,780.7109 L88,780.7109 L88,792.7109 L78,802.7109 L25,802.7109 L25,780.7109 " fill="#FFD700" style="stroke:#000000;stroke-width:1.0;"/><rect fill="none" height="211.3516" style="stroke:#000000;stroke-width:2.0;" width="684" x="25" y="780.7109"/><text fill="#000000" font-family="sans-serif" font-size="16" font-weight="bold" lengthAdjust="spacing" textLength="18" x="40" y="798.3203">alt</text><text fill="#000000" font-family="sans-serif" font-size="16" font-weight="bold" lengthAdjust="spacing" textLength="145" x="103" y="799.3203">[invalid booking id]</text><polygon fill="#A80036" points="102.5,828.8281,92.5,832.8281,102.5,836.8281,98.5,832.8281" style="stroke:#A80036;stroke-width:1.0;"/><line style="stroke:#A80036;stroke-width:1.5;stroke-dasharray:2.0,2.0;" x1="96.5" x2="619" y1="832.8281" y2="832.8281"/><text fill="#000000" font-family="sans-serif" font-size="15" font-weight="bold" lengthAdjust="spacing" textLength="26" x="108.5" y="827.5322">[15]</text><text fill="#000000" font-family="sans-serif" font-size="15" lengthAdjust="spacing" textLength="83" x="138.5" y="827.5322">response fail</text><line style="stroke:#000000;stroke-width:1.0;stroke-dasharray:2.0,2.0;" x1="25" x2="709" y1="841.8281" y2="841.8281"/><text fill="#000000" font-family="sans-serif" font-size="16" font-weight="bold" lengthAdjust="spacing" textLength="41" x="30" y="858.4375">[else]</text><path d="M35,869.9531 L98,869.9531 L98,881.9531 L88,891.9531 L35,891.9531 L35,869.9531 " fill="#FFD700" style="stroke:#000000;stroke-width:1.0;"/><rect fill="none" height="115.1094" style="stroke:#000000;stroke-width:2.0;" width="664" x="35" y="869.9531"/><text fill="#000000" font-family="sans-serif" font-size="16" font-weight="bold" lengthAdjust="spacing" textLength="18" x="50" y="887.5625">alt</text><text fill="#000000" font-family="sans-serif" font-size="16" font-weight="bold" lengthAdjust="spacing" textLength="352" x="113" y="888.5625">[not the user's own booking and role != admin]</text><polygon fill="#A80036" points="102.5,918.0703,92.5,922.0703,102.5,926.0703,98.5,922.0703" style="stroke:#A80036;stroke-width:1.0;"/><line style="stroke:#A80036;stroke-width:1.5;stroke-dasharray:2.0,2.0;" x1="96.5" x2="619" y1="922.0703" y2="922.0703"/><text fill="#000000" font-family="sans-serif" font-size="15" font-weight="bold" lengthAdjust="spacing" textLength="26" x="108.5" y="916.7744">[16]</text><text fill="#000000" font-family="sans-serif" font-size="15" lengthAdjust="spacing" textLength="83" x="138.5" y="916.7744">response fail</text><line style="stroke:#000000;stroke-width:1.0;stroke-dasharray:2.0,2.0;" x1="35" x2="699" y1="931.0703" y2="931.0703"/><text fill="#000000" font-family="sans-serif" font-size="16" font-weight="bold" lengthAdjust="spacing" textLength="41" x="40" y="947.6797">[else]</text><polygon fill="#A80036" points="102.5,973.0625,92.5,977.0625,102.5,981.0625,98.5,977.0625" style="stroke:#A80036;stroke-width:1.0;"/><line style="stroke:#A80036;stroke-width:1.5;" x1="96.5" x2="624" y1="977.0625" y2="977.0625"/><text fill="#000000" font-family="sans-serif" font-size="15" font-weight="bold" lengthAdjust="spacing" textLength="26" x="108.5" y="971.7666">[17]</text><text fill="#000000" font-family="sans-serif" font-size="15" lengthAdjust="spacing" textLength="121" x="138.5" y="971.7666">response success</text><!--MD5=[eb4001f33396bbad9f5ddefad0f56f03]
@startuml

hide footbox
skinparam sequenceArrowThickness 1.5
skinparam fontsize 50
autonumber 1 "<b>[###]"
skinparam component {
'FontSize 13
'BackgroundColor<<Apache>> Red
'BorderColor<<Apache>> #FF6655
'FontName Courier
'BorderColor black
'BackgroundColor gold
'ArrowFontName Impact
ArrowFontSize 15
'ArrowColor #FF6655
'ArrowFontColor #777777
}
'skinparam backgroundColor #EEEBDC

'title Sequence diagram
skinparam defaultFontSize 16
Mainframe <b>Get Single Booking</b>

actor "<b>User" as user <<(A,#ADD1B2)client>>#White
Box Online Job Fair Registration System #lightgrey
participant "server" as server <<(B,#FFFFFF)main>>#Orange
'participant "auth" as rauth <<(C,#FFFFFF)routes>>#Gold
participant "bookings" as rbookings <<(C,#FFFFFF)routes>>#Gold
'participant "companies" as rcompanies <<(C,#FFFFFF)routes>>#Gold
participant "auth" as middleware_auth <<(E,#FFFFFF)middleware>>#Pink
'participant "<b>auth" as controllers_auth <<(D,#FFFFFF)controllers>>#LightGreen
participant "<b>bookings" as controllers_bookings <<(D,#FFFFFF)controllers>>#LightGreen
'participant "<b>companies" as controllers_companies <<(F,#FFFFFF)controllers>>#LightGreen
' participant "<b>:Company" as models_Company <<(F,#FFFFFF)models>>#LightBlue
participant "<b>:Booking" as models_Booking <<(G,#FFFFFF)models>>#LightBlue
participant "<b>:User" as models_User <<(H,#FFFFFF)models>>#LightBlue
participant "MongoDB" as mongo <<(I,#FFFFFF)data base>>#d9d2e9
end box

Activate user
user->server: req.get('\n/bookings/:id')
Activate server
server->rbookings: app.use('\n/bookings',\n bookings)
DeActivate server
Activate rbookings
'Middleware auth'
rbookings->middleware_auth: protect
DeActivate rbookings
Activate middleware_auth
middleware_auth->middleware_auth: jwt.verify(token)
Alt#Gold #Beige no token or invalid token
middleware_auth- ->user: response fail
Else #LightBlue else
middleware_auth->models_User: findById\n(decoded.id)
Activate models_User
models_User->mongo: UserSchema
Activate mongo
mongo->models_User: user
DeActivate mongo
models_User->middleware_auth: user
DeActivate models_User
middleware_auth->controllers_bookings: getBooking
DeActivate middleware_auth
Activate controllers_bookings
controllers_bookings->models_Booking: find(req\n.params.id)
Activate models_Booking
models_Booking->mongo: BookingSchema
Activate mongo
mongo- ->models_Booking: booking
DeActivate mongo
models_Booking->controllers_bookings: booking
DeActivate models_Booking
Alt#Gold #Beige invalid booking id
controllers_bookings- ->user: response fail
Else #LightBlue else
Alt#Gold #Beige not the user's own booking and role != admin
controllers_bookings- ->user: response fail
Else #LightBlue else
controllers_bookings->user: response success
DeActivate controllers_bookings
End Alt
End Alt
End Alt


skinparam sequence {
'Box ==============================
BoxBorderColor Black
BoxFontColor Blue
BoxFontSize 16
'LifeLine + Arrow ==============================
'ArrowColor DeepSkyBlue
LifeLineBorderColor Black
LifeLineBackgroundColor #FFFF99
'Participant ==============================
ParticipantBorderColor Black
'ParticipantBackgroundColor DodgerBlue
StereoTypeFontSize 14
ParticipantFontSize 16
ParticipantFontColor #0c0c0c
'ParticipantFontName Impact
'Actor ==============================
ActorBorderColor Black
ActorBackgroundColor White
ActorFontSize 16
ActorFontColor Black
'ActorFontName Aapex
' ===================================
}

@enduml

@startuml

hide footbox
skinparam sequenceArrowThickness 1.5
skinparam fontsize 50
autonumber 1 "<b>[###]"
skinparam component {
ArrowFontSize 15
}

skinparam defaultFontSize 16
Mainframe <b>Get Single Booking</b>

actor "<b>User" as user <<(A,#ADD1B2)client>>#White
Box Online Job Fair Registration System #lightgrey
participant "server" as server <<(B,#FFFFFF)main>>#Orange
participant "bookings" as rbookings <<(C,#FFFFFF)routes>>#Gold
participant "auth" as middleware_auth <<(E,#FFFFFF)middleware>>#Pink
participant "<b>bookings" as controllers_bookings <<(D,#FFFFFF)controllers>>#LightGreen
participant "<b>:Booking" as models_Booking <<(G,#FFFFFF)models>>#LightBlue
participant "<b>:User" as models_User <<(H,#FFFFFF)models>>#LightBlue
participant "MongoDB" as mongo <<(I,#FFFFFF)data base>>#d9d2e9
end box

Activate user
user->server: req.get('\n/bookings/:id')
Activate server
server->rbookings: app.use('\n/bookings',\n bookings)
DeActivate server
Activate rbookings
rbookings->middleware_auth: protect
DeActivate rbookings
Activate middleware_auth
middleware_auth->middleware_auth: jwt.verify(token)
Alt#Gold #Beige no token or invalid token
middleware_auth- ->user: response fail
Else #LightBlue else
middleware_auth->models_User: findById\n(decoded.id)
Activate models_User
models_User->mongo: UserSchema
Activate mongo
mongo->models_User: user
DeActivate mongo
models_User->middleware_auth: user
DeActivate models_User
middleware_auth->controllers_bookings: getBooking
DeActivate middleware_auth
Activate controllers_bookings
controllers_bookings->models_Booking: find(req\n.params.id)
Activate models_Booking
models_Booking->mongo: BookingSchema
Activate mongo
mongo- ->models_Booking: booking
DeActivate mongo
models_Booking->controllers_bookings: booking
DeActivate models_Booking
Alt#Gold #Beige invalid booking id
controllers_bookings- ->user: response fail
Else #LightBlue else
Alt#Gold #Beige not the user's own booking and role != admin
controllers_bookings- ->user: response fail
Else #LightBlue else
controllers_bookings->user: response success
DeActivate controllers_bookings
End Alt
End Alt
End Alt


skinparam sequence {
BoxBorderColor Black
BoxFontColor Blue
BoxFontSize 16
LifeLineBorderColor Black
LifeLineBackgroundColor #FFFF99
ParticipantBorderColor Black
StereoTypeFontSize 14
ParticipantFontSize 16
ParticipantFontColor #0c0c0c
ActorBorderColor Black
ActorBackgroundColor White
ActorFontSize 16
ActorFontColor Black
}

@enduml

PlantUML version 1.2022.0(Tue Jan 11 23:16:42 ICT 2022)
(GPL source distribution)
Java Runtime: Java(TM) SE Runtime Environment
JVM: Java HotSpot(TM) 64-Bit Server VM
Default Encoding: Cp1252
Language: en
Country: US
--></g></svg>