<?xml version="1.0" encoding="UTF-8" standalone="no"?><svg xmlns="http://www.w3.org/2000/svg" xmlns:xlink="http://www.w3.org/1999/xlink" contentScriptType="application/ecmascript" contentStyleType="text/css" height="1468px" preserveAspectRatio="none" style="width:1231px;height:1468px;background:#FFFFFF;" version="1.1" viewBox="0 0 1231 1468" width="1231px" zoomAndPan="magnify"><defs><filter height="300%" id="f6ew4mnt9d0kq" width="300%" x="-1" y="-1"><feGaussianBlur result="blurOut" stdDeviation="2.0"/><feColorMatrix in="blurOut" result="blurOut2" type="matrix" values="0 0 0 0 0 0 0 0 0 0 0 0 0 0 0 0 0 0 .4 0"/><feOffset dx="4.0" dy="4.0" in="blurOut2" result="blurOut3"/><feBlend in="SourceGraphic" in2="blurOut3" mode="normal"/></filter></defs><g><rect fill="#FFFFFF" filter="url(#f6ew4mnt9d0kq)" height="1451.5859" style="stroke:#000000;stroke-width:1.0;" width="1210.5" x="9" y="5"/><path d="M179,5 L179,15.6094 L169,25.6094 L9,25.6094 " fill="none" style="stroke:#000000;stroke-width:1.0;"/><text fill="#000000" font-family="sans-serif" font-size="14" font-weight="bold" lengthAdjust="spacing" textLength="160" x="12" y="20.5332">Update Single Booking</text><rect fill="#D3D3D3" height="1405.9609" style="stroke:#000000;stroke-width:1.0;" width="963" x="196.5" y="33.6094"/><text fill="#0000FF" font-family="sans-serif" font-size="16" font-weight="bold" lengthAdjust="spacing" textLength="273" x="539.5" y="50.2188">Online Job Fair Registration System</text><rect fill="#FFFF99" filter="url(#f6ew4mnt9d0kq)" height="1288.2266" style="stroke:#000000;stroke-width:1.0;" width="10" x="101.5" y="147.3438"/><rect fill="#FFFF99" filter="url(#f6ew4mnt9d0kq)" height="70.6016" style="stroke:#000000;stroke-width:1.0;" width="10" x="241.5" y="216.0781"/><rect fill="#FFFF99" filter="url(#f6ew4mnt9d0kq)" height="32.8672" style="stroke:#000000;stroke-width:1.0;" width="10" x="361.5" y="286.6797"/><rect fill="#FFFF99" filter="url(#f6ew4mnt9d0kq)" height="441.9141" style="stroke:#000000;stroke-width:1.0;" width="10" x="493" y="319.5469"/><rect fill="#FFFF99" filter="url(#f6ew4mnt9d0kq)" height="631.1094" style="stroke:#000000;stroke-width:1.0;" width="10" x="648" y="761.4609"/><rect fill="#FFFF99" filter="url(#f6ew4mnt9d0kq)" height="98.6016" style="stroke:#000000;stroke-width:1.0;" width="10" x="829" y="813.1953"/><rect fill="#FFFF99" filter="url(#f6ew4mnt9d0kq)" height="98.6016" style="stroke:#000000;stroke-width:1.0;" width="10" x="829" y="1261.1016"/><rect fill="#FFFF99" filter="url(#f6ew4mnt9d0kq)" height="98.6016" style="stroke:#000000;stroke-width:1.0;" width="10" x="951" y="491.2031"/><rect fill="#FFFF99" filter="url(#f6ew4mnt9d0kq)" height="32.8672" style="stroke:#000000;stroke-width:1.0;" width="10" x="1088" y="524.0703"/><rect fill="#FFFF99" filter="url(#f6ew4mnt9d0kq)" height="32.8672" style="stroke:#000000;stroke-width:1.0;" width="10" x="1088" y="846.0625"/><rect fill="#FFFF99" filter="url(#f6ew4mnt9d0kq)" height="32.8672" style="stroke:#000000;stroke-width:1.0;" width="10" x="1088" y="1293.9688"/><rect fill="#F5F5DC" filter="url(#f6ew4mnt9d0kq)" height="1048.1563" style="stroke:#000000;stroke-width:2.0;" width="1190.5" x="15" y="380.4141"/><rect fill="#ADD8E6" height="996.9375" style="stroke:none;stroke-width:1.0;" width="1190.5" x="15" y="431.6328"/><rect fill="#F5F5DC" filter="url(#f6ew4mnt9d0kq)" height="752.0313" style="stroke:#000000;stroke-width:2.0;" width="1170.5" x="25" y="669.5391"/><rect fill="#ADD8E6" height="700.8125" style="stroke:none;stroke-width:1.0;" width="1170.5" x="25" y="720.7578"/><rect fill="#F5F5DC" filter="url(#f6ew4mnt9d0kq)" height="487.7734" style="stroke:#000000;stroke-width:2.0;" width="1150.5" x="35" y="926.7969"/><rect fill="#ADD8E6" height="436.5547" style="stroke:none;stroke-width:1.0;" width="1150.5" x="35" y="978.0156"/><rect fill="#F5F5DC" filter="url(#f6ew4mnt9d0kq)" height="406.7188" style="stroke:#000000;stroke-width:2.0;" width="1130.5" x="45" y="1000.8516"/><rect fill="#ADD8E6" height="355.5" style="stroke:none;stroke-width:1.0;" width="1130.5" x="45" y="1052.0703"/><rect fill="#F5F5DC" filter="url(#f6ew4mnt9d0kq)" height="325.6641" style="stroke:#000000;stroke-width:2.0;" width="1110.5" x="55" y="1074.9063"/><rect fill="#ADD8E6" height="217.9063" style="stroke:none;stroke-width:1.0;" width="1110.5" x="55" y="1182.6641"/><line style="stroke:#000000;stroke-width:1.0;stroke-dasharray:5.0,5.0;" x1="106" x2="106" y1="137.3438" y2="1445.5703"/><line style="stroke:#000000;stroke-width:1.0;stroke-dasharray:5.0,5.0;" x1="246.5" x2="246.5" y1="137.3438" y2="1445.5703"/><line style="stroke:#000000;stroke-width:1.0;stroke-dasharray:5.0,5.0;" x1="366.5" x2="366.5" y1="137.3438" y2="1445.5703"/><line style="stroke:#000000;stroke-width:1.0;stroke-dasharray:5.0,5.0;" x1="497.5" x2="497.5" y1="137.3438" y2="1445.5703"/><line style="stroke:#000000;stroke-width:1.0;stroke-dasharray:5.0,5.0;" x1="653" x2="653" y1="137.3438" y2="1445.5703"/><line style="stroke:#000000;stroke-width:1.0;stroke-dasharray:5.0,5.0;" x1="833.5" x2="833.5" y1="137.3438" y2="1445.5703"/><line style="stroke:#000000;stroke-width:1.0;stroke-dasharray:5.0,5.0;" x1="955.5" x2="955.5" y1="137.3438" y2="1445.5703"/><line style="stroke:#000000;stroke-width:1.0;stroke-dasharray:5.0,5.0;" x1="1092.5" x2="1092.5" y1="137.3438" y2="1445.5703"/><ellipse cx="76" cy="110.6094" fill="#ADD1B2" rx="11" ry="11" style="stroke:none;stroke-width:1.0;"/><path d="M78.1875,112.375 L74.0469,112.375 L73.625,113.4063 L74.0469,113.4063 Q74.6563,113.4063 74.9219,113.6406 Q75.1875,113.875 75.1875,114.2656 Q75.1875,114.6406 74.9219,114.875 Q74.6563,115.1094 74.0469,115.1094 L71.75,115.1094 Q71.1406,115.1094 70.8828,114.875 Q70.625,114.6406 70.625,114.25 Q70.625,113.875 70.8984,113.6328 Q71.1719,113.3906 71.7969,113.4063 L74.4688,106.75 L73.3594,106.75 Q72.75,106.75 72.4844,106.5156 Q72.2188,106.2813 72.2188,105.8906 Q72.2188,105.5156 72.4844,105.2813 Q72.75,105.0469 73.3594,105.0469 L77.0313,105.0469 L80.4219,113.4063 Q81.0156,113.4063 81.2031,113.5469 Q81.5938,113.8125 81.5938,114.2656 Q81.5938,114.6406 81.3359,114.875 Q81.0781,115.1094 80.4688,115.1094 L78.1719,115.1094 Q77.5625,115.1094 77.2969,114.875 Q77.0313,114.6406 77.0313,114.25 Q77.0313,113.875 77.2969,113.6406 Q77.5625,113.4063 78.1719,113.4063 L78.5938,113.4063 L78.1875,112.375 Z M77.4688,110.6719 L76.1094,107.2969 L74.7344,110.6719 L77.4688,110.6719 Z " fill="#000000"/><text fill="#000000" font-family="sans-serif" font-size="14" font-style="italic" lengthAdjust="spacing" textLength="49" x="93" y="114.1426">«client»</text><text fill="#000000" font-family="sans-serif" font-size="16" font-weight="bold" lengthAdjust="spacing" textLength="36" x="99.5" y="133.8281">User</text><ellipse cx="106.5" cy="42.6094" fill="#FFFFFF" filter="url(#f6ew4mnt9d0kq)" rx="8" ry="8" style="stroke:#000000;stroke-width:2.0;"/><path d="M106.5,50.6094 L106.5,77.6094 M93.5,58.6094 L119.5,58.6094 M106.5,77.6094 L93.5,92.6094 M106.5,77.6094 L119.5,92.6094 " fill="none" filter="url(#f6ew4mnt9d0kq)" style="stroke:#000000;stroke-width:2.0;"/><rect fill="#FFA500" filter="url(#f6ew4mnt9d0kq)" height="51.7344" style="stroke:#000000;stroke-width:1.5;" width="88" x="200.5" y="80.6094"/><ellipse cx="218.5" cy="98.6094" fill="#FFFFFF" rx="11" ry="11" style="stroke:#000000;stroke-width:1.0;"/><path d="M216.125,101.9063 L216.125,95.25 L215.8594,95.25 Q215.25,95.25 214.9844,95.0156 Q214.7188,94.7813 214.7188,94.3906 Q214.7188,94.0156 214.9844,93.7813 Q215.25,93.5469 215.8594,93.5469 L220.125,93.5469 Q221.6563,93.5469 222.5859,94.3906 Q223.5156,95.2344 223.5156,96.4063 Q223.5156,96.9688 223.2969,97.4609 Q223.0781,97.9531 222.6406,98.3594 Q223.4531,98.8438 223.8516,99.4844 Q224.25,100.125 224.25,100.9375 Q224.25,101.5938 223.9688,102.1406 Q223.75,102.5781 223.4375,102.8281 Q223.0156,103.1719 222.3984,103.3906 Q221.7813,103.6094 220.8594,103.6094 L215.8594,103.6094 Q215.25,103.6094 214.9844,103.375 Q214.7188,103.1406 214.7188,102.75 Q214.7188,102.375 214.9844,102.1406 Q215.25,101.9063 215.8594,101.9063 L216.125,101.9063 Z M217.8281,97.7188 L219.7031,97.7188 Q220.7031,97.7188 221.3594,97.2188 Q221.8125,96.875 221.8125,96.375 Q221.8125,95.9219 221.3906,95.5859 Q220.9688,95.25 220.0469,95.25 L217.8281,95.25 L217.8281,97.7188 Z M217.8281,101.9063 L220.7656,101.9063 Q221.8125,101.9063 222.2344,101.5938 Q222.5469,101.375 222.5469,100.9375 Q222.5469,100.4219 221.9141,99.9219 Q221.2813,99.4219 220.0781,99.4219 L217.8281,99.4219 L217.8281,101.9063 Z " fill="#0C0C0C"/><text fill="#000000" font-family="sans-serif" font-size="14" font-style="italic" lengthAdjust="spacing" textLength="46" x="235.5" y="102.1426">«main»</text><text fill="#0C0C0C" font-family="sans-serif" font-size="16" lengthAdjust="spacing" textLength="43" x="237" y="121.8281">server</text><rect fill="#FFD700" filter="url(#f6ew4mnt9d0kq)" height="51.7344" style="stroke:#000000;stroke-width:1.5;" width="106" x="311.5" y="80.6094"/><ellipse cx="329.5" cy="98.6094" fill="#FFFFFF" rx="11" ry="11" style="stroke:#000000;stroke-width:1.0;"/><path d="M332.2656,94.4844 Q332.4219,94.2656 332.6094,94.1563 Q332.7969,94.0469 333.0156,94.0469 Q333.3906,94.0469 333.625,94.3047 Q333.8594,94.5625 333.8594,95.1719 L333.8594,96.625 Q333.8594,97.2344 333.625,97.5 Q333.3906,97.7656 333.0156,97.7656 Q332.6719,97.7656 332.4688,97.5625 Q332.2656,97.375 332.1563,96.8594 Q332.1094,96.5 331.9219,96.3125 Q331.5938,95.9375 330.9844,95.7188 Q330.375,95.5 329.75,95.5 Q328.9844,95.5 328.3516,95.8281 Q327.7188,96.1563 327.2266,96.9063 Q326.7344,97.6563 326.7344,98.6875 L326.7344,99.7813 Q326.7344,101.0156 327.625,101.8359 Q328.5156,102.6563 330.1094,102.6563 Q331.0469,102.6563 331.7031,102.4063 Q332.0938,102.25 332.5156,101.8125 Q332.7813,101.5469 332.9297,101.4688 Q333.0781,101.3906 333.2813,101.3906 Q333.6094,101.3906 333.8672,101.6484 Q334.125,101.9063 334.125,102.25 Q334.125,102.5938 333.7813,103 Q333.2813,103.5781 332.4844,103.9063 Q331.4063,104.3594 330.1094,104.3594 Q328.5938,104.3594 327.3906,103.7344 Q326.4063,103.2344 325.7188,102.1641 Q325.0313,101.0938 325.0313,99.8125 L325.0313,98.6563 Q325.0313,97.3281 325.6484,96.1797 Q326.2656,95.0313 327.3594,94.4141 Q328.4531,93.7969 329.6875,93.7969 Q330.4219,93.7969 331.0703,93.9609 Q331.7188,94.125 332.2656,94.4844 Z " fill="#0C0C0C"/><text fill="#000000" font-family="sans-serif" font-size="14" font-style="italic" lengthAdjust="spacing" textLength="56" x="350.5" y="102.1426">«routes»</text><text fill="#0C0C0C" font-family="sans-serif" font-size="16" lengthAdjust="spacing" textLength="64" x="346.5" y="121.8281">bookings</text><rect fill="#FFC0CB" filter="url(#f6ew4mnt9d0kq)" height="51.7344" style="stroke:#000000;stroke-width:1.5;" width="129" x="431.5" y="80.6094"/><ellipse cx="449.5" cy="98.6094" fill="#FFFFFF" rx="11" ry="11" style="stroke:#000000;stroke-width:1.0;"/><path d="M448.3594,99.4063 L448.3594,101.9063 L452.6875,101.9063 L452.6875,100.9844 Q452.6875,100.375 452.9297,100.1094 Q453.1719,99.8438 453.5469,99.8438 Q453.9219,99.8438 454.1563,100.1094 Q454.3906,100.375 454.3906,100.9844 L454.3906,103.6094 L446.3906,103.6094 Q445.7656,103.6094 445.5078,103.375 Q445.25,103.1406 445.25,102.75 Q445.25,102.375 445.5156,102.1406 Q445.7813,101.9063 446.3906,101.9063 L446.6563,101.9063 L446.6563,95.25 L446.3906,95.25 Q445.7656,95.25 445.5078,95.0156 Q445.25,94.7813 445.25,94.3906 Q445.25,94.0156 445.5078,93.7813 Q445.7656,93.5469 446.3906,93.5469 L454.0156,93.5469 L454.0156,96.1406 Q454.0156,96.75 453.7891,97.0078 Q453.5625,97.2656 453.1719,97.2656 Q452.7969,97.2656 452.5625,97.0078 Q452.3281,96.75 452.3281,96.1406 L452.3281,95.25 L448.3594,95.25 L448.3594,97.7031 L449.8438,97.7031 Q449.8438,97.0469 449.9688,96.8594 Q450.2344,96.4531 450.7031,96.4531 Q451.0781,96.4531 451.3125,96.7109 Q451.5469,96.9688 451.5469,97.5781 L451.5469,99.5469 Q451.5469,100.0938 451.4219,100.2813 Q451.1563,100.6719 450.7031,100.6719 Q450.2344,100.6719 449.9688,100.2656 Q449.8438,100.0781 449.8438,99.4063 L448.3594,99.4063 Z " fill="#0C0C0C"/><text fill="#000000" font-family="sans-serif" font-size="14" font-style="italic" lengthAdjust="spacing" textLength="87" x="466.5" y="102.1426">«middleware»</text><text fill="#0C0C0C" font-family="sans-serif" font-size="16" lengthAdjust="spacing" textLength="29" x="495.5" y="121.8281">auth</text><rect fill="#90EE90" filter="url(#f6ew4mnt9d0kq)" height="51.7344" style="stroke:#000000;stroke-width:1.5;" width="124" x="589" y="80.6094"/><ellipse cx="607" cy="98.6094" fill="#FFFFFF" rx="11" ry="11" style="stroke:#000000;stroke-width:1.0;"/><path d="M604.5469,101.9063 L604.5469,95.25 Q604,95.2344 603.7422,95 Q603.4844,94.7656 603.4844,94.3906 Q603.4844,94.0156 603.75,93.7813 Q604.0156,93.5469 604.625,93.5469 L608.1875,93.5469 Q609.0156,93.5469 609.8125,93.8516 Q610.6094,94.1563 611.0938,94.6406 Q611.4531,95 611.8438,95.6172 Q612.2344,96.2344 612.4375,96.8516 Q612.6406,97.4688 612.6406,98.3594 L612.6406,99.1719 Q612.6406,100.25 612.2734,101.0859 Q611.9063,101.9219 611.3125,102.4453 Q610.7188,102.9688 610.2031,103.2188 Q609.375,103.6094 608.0469,103.6094 L604.625,103.6094 Q604.0156,103.6094 603.75,103.375 Q603.4844,103.1406 603.4844,102.75 Q603.4844,102.375 603.75,102.1406 Q604.0156,101.9063 604.5469,101.9063 Z M606.25,101.9063 L608.0625,101.9063 Q609.0625,101.9063 609.5781,101.6094 Q610.25,101.2344 610.5938,100.6484 Q610.9375,100.0625 610.9375,99.125 L610.9375,98.3125 Q610.9375,97.5156 610.625,96.9063 Q610.1406,95.9531 609.5391,95.6016 Q608.9375,95.25 608.0469,95.25 L606.25,95.25 L606.25,101.9063 Z " fill="#0C0C0C"/><text fill="#000000" font-family="sans-serif" font-size="14" font-style="italic" lengthAdjust="spacing" textLength="82" x="624" y="102.1426">«controllers»</text><text fill="#0C0C0C" font-family="sans-serif" font-size="16" font-weight="bold" lengthAdjust="spacing" textLength="72" x="629" y="121.8281">bookings</text><rect fill="#ADD8E6" filter="url(#f6ew4mnt9d0kq)" height="51.7344" style="stroke:#000000;stroke-width:1.5;" width="113" x="775.5" y="80.6094"/><ellipse cx="793.5" cy="98.6094" fill="#FFFFFF" rx="11" ry="11" style="stroke:#000000;stroke-width:1.0;"/><path d="M797.8906,100.5 L797.8906,102.7813 Q796.7344,103.4063 795.9219,103.6328 Q795.1094,103.8594 794.1719,103.8594 Q792.875,103.8594 791.7656,103.4688 Q790.8906,103.1719 790.3906,102.7109 Q789.8906,102.25 789.4688,101.3594 Q789.0469,100.4688 789.0469,99.375 L789.0469,98.1406 Q789.0469,96.4375 790.0781,95.0938 Q791.4688,93.2969 793.875,93.2969 Q794.5625,93.2969 795.1953,93.4375 Q795.8281,93.5781 796.3906,93.8594 Q796.7188,93.5469 797.0469,93.5469 Q797.4219,93.5469 797.6563,93.8047 Q797.8906,94.0625 797.8906,94.6719 L797.8906,95.7813 Q797.8906,96.3906 797.6563,96.6563 Q797.4219,96.9219 797.0469,96.9219 Q796.75,96.9219 796.5313,96.7344 Q796.3594,96.6094 796.25,96.1797 Q796.1406,95.75 796,95.6094 Q795.7656,95.3594 795.2031,95.1797 Q794.6406,95 793.9219,95 Q792.9219,95 792.1719,95.4063 Q791.6406,95.7188 791.1875,96.4844 Q790.7344,97.25 790.7344,98.1406 L790.7344,99.375 Q790.7344,100.7344 791.5313,101.4453 Q792.3281,102.1563 794.0469,102.1563 Q795.2188,102.1563 796.1875,101.7188 L796.1875,100.5 L794.4531,100.5 Q793.8438,100.5 793.5781,100.2578 Q793.3125,100.0156 793.3125,99.6406 Q793.3125,99.2656 793.5781,99.0234 Q793.8438,98.7813 794.4531,98.7813 L797.4688,98.7969 Q798.0938,98.7969 798.3516,99.0313 Q798.6094,99.2656 798.6094,99.6406 Q798.6094,99.9375 798.4297,100.1641 Q798.25,100.3906 797.8906,100.5 Z " fill="#0C0C0C"/><text fill="#000000" font-family="sans-serif" font-size="14" font-style="italic" lengthAdjust="spacing" textLength="61" x="815.5" y="102.1426">«models»</text><text fill="#0C0C0C" font-family="sans-serif" font-size="16" font-weight="bold" lengthAdjust="spacing" textLength="71" x="810.5" y="121.8281">:Booking</text><rect fill="#ADD8E6" filter="url(#f6ew4mnt9d0kq)" height="51.7344" style="stroke:#000000;stroke-width:1.5;" width="103" x="902.5" y="80.6094"/><ellipse cx="920.5" cy="98.6094" fill="#FFFFFF" rx="11" ry="11" style="stroke:#000000;stroke-width:1.0;"/><path d="M922.9688,99.4375 L919.3281,99.4375 L919.3281,101.9063 L919.5938,101.9063 Q920.2031,101.9063 920.4688,102.1406 Q920.7344,102.375 920.7344,102.7656 Q920.7344,103.1406 920.4688,103.375 Q920.2031,103.6094 919.5938,103.6094 L917.5156,103.6094 Q916.8906,103.6094 916.6328,103.375 Q916.375,103.1406 916.375,102.75 Q916.375,102.2969 916.7813,102.0313 Q916.9844,101.9063 917.625,101.9063 L917.625,95.25 Q917.1719,95.2031 916.9453,94.9766 Q916.7188,94.75 916.7188,94.3906 Q916.7188,94.0156 916.9844,93.7813 Q917.25,93.5469 917.8594,93.5469 L919.5938,93.5469 Q920.2031,93.5469 920.4688,93.7813 Q920.7344,94.0156 920.7344,94.3906 Q920.7344,94.7813 920.4688,95.0156 Q920.2031,95.25 919.5938,95.25 L919.3281,95.25 L919.3281,97.7344 L922.9688,97.7344 L922.9688,95.25 L922.7031,95.25 Q922.0781,95.25 921.8203,95.0156 Q921.5625,94.7813 921.5625,94.3906 Q921.5625,94.0156 921.8203,93.7813 Q922.0781,93.5469 922.7031,93.5469 L924.4375,93.5469 Q925.0469,93.5469 925.3125,93.7813 Q925.5781,94.0156 925.5781,94.3906 Q925.5781,94.75 925.3438,94.9766 Q925.1094,95.2031 924.6719,95.25 L924.6719,101.9063 Q925.3281,101.9063 925.5156,102.0313 Q925.9219,102.2969 925.9219,102.7656 Q925.9219,103.1406 925.6563,103.375 Q925.3906,103.6094 924.7813,103.6094 L922.7031,103.6094 Q922.0781,103.6094 921.8203,103.375 Q921.5625,103.1406 921.5625,102.75 Q921.5625,102.375 921.8281,102.1406 Q922.0938,101.9063 922.7031,101.9063 L922.9688,101.9063 L922.9688,99.4375 Z " fill="#0C0C0C"/><text fill="#000000" font-family="sans-serif" font-size="14" font-style="italic" lengthAdjust="spacing" textLength="61" x="937.5" y="102.1426">«models»</text><text fill="#0C0C0C" font-family="sans-serif" font-size="16" font-weight="bold" lengthAdjust="spacing" textLength="42" x="947" y="121.8281">:User</text><rect fill="#D9D2E9" filter="url(#f6ew4mnt9d0kq)" height="51.7344" style="stroke:#000000;stroke-width:1.5;" width="121" x="1030.5" y="80.6094"/><ellipse cx="1048.5" cy="98.6094" fill="#FFFFFF" rx="11" ry="11" style="stroke:#000000;stroke-width:1.0;"/><path d="M1049.4531,95.25 L1049.4531,101.9063 L1051.1719,101.9063 Q1051.7813,101.9063 1052.0469,102.1406 Q1052.3125,102.375 1052.3125,102.7656 Q1052.3125,103.1406 1052.0469,103.375 Q1051.7813,103.6094 1051.1719,103.6094 L1046.0313,103.6094 Q1045.4219,103.6094 1045.1563,103.375 Q1044.8906,103.1406 1044.8906,102.75 Q1044.8906,102.375 1045.1563,102.1406 Q1045.4219,101.9063 1046.0313,101.9063 L1047.75,101.9063 L1047.75,95.25 L1046.0313,95.25 Q1045.4219,95.25 1045.1563,95.0156 Q1044.8906,94.7813 1044.8906,94.3906 Q1044.8906,94.0156 1045.1563,93.7813 Q1045.4219,93.5469 1046.0313,93.5469 L1051.1719,93.5469 Q1051.7813,93.5469 1052.0469,93.7813 Q1052.3125,94.0156 1052.3125,94.3906 Q1052.3125,94.7813 1052.0469,95.0156 Q1051.7813,95.25 1051.1719,95.25 L1049.4531,95.25 Z " fill="#0C0C0C"/><text fill="#000000" font-family="sans-serif" font-size="14" font-style="italic" lengthAdjust="spacing" textLength="79" x="1065.5" y="102.1426">«data base»</text><text fill="#0C0C0C" font-family="sans-serif" font-size="16" lengthAdjust="spacing" textLength="71" x="1069.5" y="121.8281">MongoDB</text><rect fill="#FFFF99" filter="url(#f6ew4mnt9d0kq)" height="1288.2266" style="stroke:#000000;stroke-width:1.0;" width="10" x="101.5" y="147.3438"/><rect fill="#FFFF99" filter="url(#f6ew4mnt9d0kq)" height="70.6016" style="stroke:#000000;stroke-width:1.0;" width="10" x="241.5" y="216.0781"/><rect fill="#FFFF99" filter="url(#f6ew4mnt9d0kq)" height="32.8672" style="stroke:#000000;stroke-width:1.0;" width="10" x="361.5" y="286.6797"/><rect fill="#FFFF99" filter="url(#f6ew4mnt9d0kq)" height="441.9141" style="stroke:#000000;stroke-width:1.0;" width="10" x="493" y="319.5469"/><rect fill="#FFFF99" filter="url(#f6ew4mnt9d0kq)" height="631.1094" style="stroke:#000000;stroke-width:1.0;" width="10" x="648" y="761.4609"/><rect fill="#FFFF99" filter="url(#f6ew4mnt9d0kq)" height="98.6016" style="stroke:#000000;stroke-width:1.0;" width="10" x="829" y="813.1953"/><rect fill="#FFFF99" filter="url(#f6ew4mnt9d0kq)" height="98.6016" style="stroke:#000000;stroke-width:1.0;" width="10" x="829" y="1261.1016"/><rect fill="#FFFF99" filter="url(#f6ew4mnt9d0kq)" height="98.6016" style="stroke:#000000;stroke-width:1.0;" width="10" x="951" y="491.2031"/><rect fill="#FFFF99" filter="url(#f6ew4mnt9d0kq)" height="32.8672" style="stroke:#000000;stroke-width:1.0;" width="10" x="1088" y="524.0703"/><rect fill="#FFFF99" filter="url(#f6ew4mnt9d0kq)" height="32.8672" style="stroke:#000000;stroke-width:1.0;" width="10" x="1088" y="846.0625"/><rect fill="#FFFF99" filter="url(#f6ew4mnt9d0kq)" height="32.8672" style="stroke:#000000;stroke-width:1.0;" width="10" x="1088" y="1293.9688"/><polygon fill="#A80036" points="229.5,212.0781,239.5,216.0781,229.5,220.0781,233.5,216.0781" style="stroke:#A80036;stroke-width:1.0;"/><line style="stroke:#A80036;stroke-width:1.5;" x1="111.5" x2="235.5" y1="216.0781" y2="216.0781"/><text fill="#000000" font-family="sans-serif" font-size="15" font-weight="bold" lengthAdjust="spacing" textLength="18" x="118.5" y="201.3486">[1]</text><text fill="#000000" font-family="sans-serif" font-size="15" lengthAdjust="spacing" textLength="53" x="140.5" y="191.915">req.put('</text><text fill="#000000" font-family="sans-serif" font-size="15" lengthAdjust="spacing" textLength="89" x="140.5" y="210.7822">/bookings/:id')</text><polygon fill="#A80036" points="349.5,282.6797,359.5,286.6797,349.5,290.6797,353.5,286.6797" style="stroke:#A80036;stroke-width:1.0;"/><line style="stroke:#A80036;stroke-width:1.5;" x1="246.5" x2="355.5" y1="286.6797" y2="286.6797"/><text fill="#000000" font-family="sans-serif" font-size="15" font-weight="bold" lengthAdjust="spacing" textLength="18" x="253.5" y="262.5166">[2]</text><text fill="#000000" font-family="sans-serif" font-size="15" lengthAdjust="spacing" textLength="60" x="275.5" y="243.6494">app.use('</text><text fill="#000000" font-family="sans-serif" font-size="15" lengthAdjust="spacing" textLength="69" x="275.5" y="262.5166">/bookings',</text><text fill="#000000" font-family="sans-serif" font-size="15" lengthAdjust="spacing" textLength="63" x="279.5" y="281.3838">bookings)</text><polygon fill="#A80036" points="481,315.5469,491,319.5469,481,323.5469,485,319.5469" style="stroke:#A80036;stroke-width:1.0;"/><line style="stroke:#A80036;stroke-width:1.5;" x1="366.5" x2="487" y1="319.5469" y2="319.5469"/><text fill="#000000" font-family="sans-serif" font-size="15" font-weight="bold" lengthAdjust="spacing" textLength="18" x="373.5" y="314.251">[3]</text><text fill="#000000" font-family="sans-serif" font-size="15" lengthAdjust="spacing" textLength="45" x="395.5" y="314.251">protect</text><line style="stroke:#A80036;stroke-width:1.5;" x1="503" x2="545" y1="352.4141" y2="352.4141"/><line style="stroke:#A80036;stroke-width:1.5;" x1="545" x2="545" y1="352.4141" y2="365.4141"/><line style="stroke:#A80036;stroke-width:1.5;" x1="504" x2="545" y1="365.4141" y2="365.4141"/><polygon fill="#A80036" points="514,361.4141,504,365.4141,514,369.4141,510,365.4141" style="stroke:#A80036;stroke-width:1.0;"/><text fill="#000000" font-family="sans-serif" font-size="15" font-weight="bold" lengthAdjust="spacing" textLength="18" x="510" y="347.1182">[4]</text><text fill="#000000" font-family="sans-serif" font-size="15" lengthAdjust="spacing" textLength="101" x="532" y="347.1182">jwt.verify(token)</text><path d="M15,380.4141 L76,380.4141 L76,388.4141 L66,398.4141 L15,398.4141 L15,380.4141 " fill="#FFD700" style="stroke:#000000;stroke-width:1.0;"/><rect fill="none" height="1048.1563" style="stroke:#000000;stroke-width:2.0;" width="1190.5" x="15" y="380.4141"/><text fill="#000000" font-family="sans-serif" font-size="13" font-weight="bold" lengthAdjust="spacing" textLength="16" x="30" y="394.9092">alt</text><text fill="#000000" font-family="sans-serif" font-size="11" font-weight="bold" lengthAdjust="spacing" textLength="145" x="91" y="393.833">[no token or invalid token]</text><polygon fill="#A80036" points="122.5,419.6328,112.5,423.6328,122.5,427.6328,118.5,423.6328" style="stroke:#A80036;stroke-width:1.0;"/><line style="stroke:#A80036;stroke-width:1.5;stroke-dasharray:2.0,2.0;" x1="116.5" x2="492" y1="423.6328" y2="423.6328"/><text fill="#000000" font-family="sans-serif" font-size="15" font-weight="bold" lengthAdjust="spacing" textLength="18" x="128.5" y="418.3369">[5]</text><text fill="#000000" font-family="sans-serif" font-size="15" lengthAdjust="spacing" textLength="83" x="150.5" y="418.3369">response fail</text><line style="stroke:#000000;stroke-width:1.0;stroke-dasharray:2.0,2.0;" x1="15" x2="1205.5" y1="432.6328" y2="432.6328"/><text fill="#000000" font-family="sans-serif" font-size="11" font-weight="bold" lengthAdjust="spacing" textLength="32" x="20" y="444.0518">[else]</text><polygon fill="#A80036" points="939,487.2031,949,491.2031,939,495.2031,943,491.2031" style="stroke:#A80036;stroke-width:1.0;"/><line style="stroke:#A80036;stroke-width:1.5;" x1="503" x2="945" y1="491.2031" y2="491.2031"/><text fill="#000000" font-family="sans-serif" font-size="15" font-weight="bold" lengthAdjust="spacing" textLength="18" x="510" y="476.4736">[6]</text><text fill="#000000" font-family="sans-serif" font-size="15" lengthAdjust="spacing" textLength="51" x="532" y="467.04">findById</text><text fill="#000000" font-family="sans-serif" font-size="15" lengthAdjust="spacing" textLength="81" x="532" y="485.9072">(decoded.id)</text><polygon fill="#A80036" points="1076,520.0703,1086,524.0703,1076,528.0703,1080,524.0703" style="stroke:#A80036;stroke-width:1.0;"/><line style="stroke:#A80036;stroke-width:1.5;" x1="961" x2="1082" y1="524.0703" y2="524.0703"/><text fill="#000000" font-family="sans-serif" font-size="15" font-weight="bold" lengthAdjust="spacing" textLength="18" x="968" y="518.7744">[7]</text><text fill="#000000" font-family="sans-serif" font-size="15" lengthAdjust="spacing" textLength="86" x="990" y="518.7744">UserSchema</text><polygon fill="#A80036" points="972,552.9375,962,556.9375,972,560.9375,968,556.9375" style="stroke:#A80036;stroke-width:1.0;"/><line style="stroke:#A80036;stroke-width:1.5;stroke-dasharray:2.0,2.0;" x1="966" x2="1092" y1="556.9375" y2="556.9375"/><text fill="#000000" font-family="sans-serif" font-size="15" font-weight="bold" lengthAdjust="spacing" textLength="18" x="978" y="551.6416">[8]</text><text fill="#000000" font-family="sans-serif" font-size="15" lengthAdjust="spacing" textLength="29" x="1000" y="551.6416">user</text><polygon fill="#A80036" points="514,585.8047,504,589.8047,514,593.8047,510,589.8047" style="stroke:#A80036;stroke-width:1.0;"/><line style="stroke:#A80036;stroke-width:1.5;stroke-dasharray:2.0,2.0;" x1="508" x2="955" y1="589.8047" y2="589.8047"/><text fill="#000000" font-family="sans-serif" font-size="15" font-weight="bold" lengthAdjust="spacing" textLength="18" x="520" y="584.5088">[9]</text><text fill="#000000" font-family="sans-serif" font-size="15" lengthAdjust="spacing" textLength="29" x="542" y="584.5088">user</text><line style="stroke:#A80036;stroke-width:1.5;" x1="503" x2="545" y1="641.5391" y2="641.5391"/><line style="stroke:#A80036;stroke-width:1.5;" x1="545" x2="545" y1="641.5391" y2="654.5391"/><line style="stroke:#A80036;stroke-width:1.5;" x1="504" x2="545" y1="654.5391" y2="654.5391"/><polygon fill="#A80036" points="514,650.5391,504,654.5391,514,658.5391,510,654.5391" style="stroke:#A80036;stroke-width:1.0;"/><text fill="#000000" font-family="sans-serif" font-size="15" font-weight="bold" lengthAdjust="spacing" textLength="26" x="510" y="626.8096">[10]</text><text fill="#000000" font-family="sans-serif" font-size="15" lengthAdjust="spacing" textLength="60" x="540" y="617.376">authorize</text><text fill="#000000" font-family="sans-serif" font-size="15" lengthAdjust="spacing" textLength="99" x="540" y="636.2432">('admin', 'user')</text><path d="M25,669.5391 L86,669.5391 L86,677.5391 L76,687.5391 L25,687.5391 L25,669.5391 " fill="#FFD700" style="stroke:#000000;stroke-width:1.0;"/><rect fill="none" height="752.0313" style="stroke:#000000;stroke-width:2.0;" width="1170.5" x="25" y="669.5391"/><text fill="#000000" font-family="sans-serif" font-size="13" font-weight="bold" lengthAdjust="spacing" textLength="16" x="40" y="684.0342">alt</text><text fill="#000000" font-family="sans-serif" font-size="11" font-weight="bold" lengthAdjust="spacing" textLength="123" x="101" y="682.958">[role != admin or user]</text><polygon fill="#A80036" points="122.5,708.7578,112.5,712.7578,122.5,716.7578,118.5,712.7578" style="stroke:#A80036;stroke-width:1.0;"/><line style="stroke:#A80036;stroke-width:1.5;stroke-dasharray:2.0,2.0;" x1="116.5" x2="492" y1="712.7578" y2="712.7578"/><text fill="#000000" font-family="sans-serif" font-size="15" font-weight="bold" lengthAdjust="spacing" textLength="26" x="128.5" y="707.4619">[11]</text><text fill="#000000" font-family="sans-serif" font-size="15" lengthAdjust="spacing" textLength="83" x="158.5" y="707.4619">response fail</text><line style="stroke:#000000;stroke-width:1.0;stroke-dasharray:2.0,2.0;" x1="25" x2="1195.5" y1="721.7578" y2="721.7578"/><text fill="#000000" font-family="sans-serif" font-size="11" font-weight="bold" lengthAdjust="spacing" textLength="32" x="30" y="733.1768">[else]</text><polygon fill="#A80036" points="636,757.4609,646,761.4609,636,765.4609,640,761.4609" style="stroke:#A80036;stroke-width:1.0;"/><line style="stroke:#A80036;stroke-width:1.5;" x1="498" x2="642" y1="761.4609" y2="761.4609"/><text fill="#000000" font-family="sans-serif" font-size="15" font-weight="bold" lengthAdjust="spacing" textLength="26" x="505" y="756.165">[12]</text><text fill="#000000" font-family="sans-serif" font-size="15" lengthAdjust="spacing" textLength="96" x="535" y="756.165">updateBooking</text><polygon fill="#A80036" points="817,809.1953,827,813.1953,817,817.1953,821,813.1953" style="stroke:#A80036;stroke-width:1.0;"/><line style="stroke:#A80036;stroke-width:1.5;" x1="658" x2="823" y1="813.1953" y2="813.1953"/><text fill="#000000" font-family="sans-serif" font-size="15" font-weight="bold" lengthAdjust="spacing" textLength="26" x="665" y="798.4658">[13]</text><text fill="#000000" font-family="sans-serif" font-size="15" lengthAdjust="spacing" textLength="51" x="695" y="789.0322">findById</text><text fill="#000000" font-family="sans-serif" font-size="15" lengthAdjust="spacing" textLength="100" x="695" y="807.8994">(req.params.id)</text><polygon fill="#A80036" points="1076,842.0625,1086,846.0625,1076,850.0625,1080,846.0625" style="stroke:#A80036;stroke-width:1.0;"/><line style="stroke:#A80036;stroke-width:1.5;" x1="839" x2="1082" y1="846.0625" y2="846.0625"/><text fill="#000000" font-family="sans-serif" font-size="15" font-weight="bold" lengthAdjust="spacing" textLength="26" x="846" y="840.7666">[14]</text><text fill="#000000" font-family="sans-serif" font-size="15" lengthAdjust="spacing" textLength="107" x="876" y="840.7666">BookingSchema</text><polygon fill="#A80036" points="850,874.9297,840,878.9297,850,882.9297,846,878.9297" style="stroke:#A80036;stroke-width:1.0;"/><line style="stroke:#A80036;stroke-width:1.5;stroke-dasharray:2.0,2.0;" x1="844" x2="1092" y1="878.9297" y2="878.9297"/><text fill="#000000" font-family="sans-serif" font-size="15" font-weight="bold" lengthAdjust="spacing" textLength="26" x="856" y="873.6338">[15]</text><text fill="#000000" font-family="sans-serif" font-size="15" lengthAdjust="spacing" textLength="50" x="886" y="873.6338">booking</text><polygon fill="#A80036" points="669,907.7969,659,911.7969,669,915.7969,665,911.7969" style="stroke:#A80036;stroke-width:1.0;"/><line style="stroke:#A80036;stroke-width:1.5;stroke-dasharray:2.0,2.0;" x1="663" x2="833" y1="911.7969" y2="911.7969"/><text fill="#000000" font-family="sans-serif" font-size="15" font-weight="bold" lengthAdjust="spacing" textLength="26" x="675" y="906.501">[16]</text><text fill="#000000" font-family="sans-serif" font-size="15" lengthAdjust="spacing" textLength="50" x="705" y="906.501">booking</text><path d="M35,926.7969 L96,926.7969 L96,934.7969 L86,944.7969 L35,944.7969 L35,926.7969 " fill="#FFD700" style="stroke:#000000;stroke-width:1.0;"/><rect fill="none" height="487.7734" style="stroke:#000000;stroke-width:2.0;" width="1150.5" x="35" y="926.7969"/><text fill="#000000" font-family="sans-serif" font-size="13" font-weight="bold" lengthAdjust="spacing" textLength="16" x="50" y="941.292">alt</text><text fill="#000000" font-family="sans-serif" font-size="11" font-weight="bold" lengthAdjust="spacing" textLength="104" x="111" y="940.2158">[invalid booking id]</text><polygon fill="#A80036" points="122.5,966.0156,112.5,970.0156,122.5,974.0156,118.5,970.0156" style="stroke:#A80036;stroke-width:1.0;"/><line style="stroke:#A80036;stroke-width:1.5;stroke-dasharray:2.0,2.0;" x1="116.5" x2="647" y1="970.0156" y2="970.0156"/><text fill="#000000" font-family="sans-serif" font-size="15" font-weight="bold" lengthAdjust="spacing" textLength="26" x="128.5" y="964.7197">[17]</text><text fill="#000000" font-family="sans-serif" font-size="15" lengthAdjust="spacing" textLength="83" x="158.5" y="964.7197">response fail</text><line style="stroke:#000000;stroke-width:1.0;stroke-dasharray:2.0,2.0;" x1="35" x2="1185.5" y1="979.0156" y2="979.0156"/><text fill="#000000" font-family="sans-serif" font-size="11" font-weight="bold" lengthAdjust="spacing" textLength="32" x="40" y="990.4346">[else]</text><path d="M45,1000.8516 L106,1000.8516 L106,1008.8516 L96,1018.8516 L45,1018.8516 L45,1000.8516 " fill="#FFD700" style="stroke:#000000;stroke-width:1.0;"/><rect fill="none" height="406.7188" style="stroke:#000000;stroke-width:2.0;" width="1130.5" x="45" y="1000.8516"/><text fill="#000000" font-family="sans-serif" font-size="13" font-weight="bold" lengthAdjust="spacing" textLength="16" x="60" y="1015.3467">alt</text><text fill="#000000" font-family="sans-serif" font-size="11" font-weight="bold" lengthAdjust="spacing" textLength="258" x="121" y="1014.2705">[not the user's own booking and role != admin]</text><polygon fill="#A80036" points="122.5,1040.0703,112.5,1044.0703,122.5,1048.0703,118.5,1044.0703" style="stroke:#A80036;stroke-width:1.0;"/><line style="stroke:#A80036;stroke-width:1.5;stroke-dasharray:2.0,2.0;" x1="116.5" x2="647" y1="1044.0703" y2="1044.0703"/><text fill="#000000" font-family="sans-serif" font-size="15" font-weight="bold" lengthAdjust="spacing" textLength="26" x="128.5" y="1038.7744">[18]</text><text fill="#000000" font-family="sans-serif" font-size="15" lengthAdjust="spacing" textLength="83" x="158.5" y="1038.7744">response fail</text><line style="stroke:#000000;stroke-width:1.0;stroke-dasharray:2.0,2.0;" x1="45" x2="1175.5" y1="1053.0703" y2="1053.0703"/><text fill="#000000" font-family="sans-serif" font-size="11" font-weight="bold" lengthAdjust="spacing" textLength="32" x="50" y="1064.4893">[else]</text><path d="M55,1074.9063 L116,1074.9063 L116,1082.9063 L106,1092.9063 L55,1092.9063 L55,1074.9063 " fill="#FFD700" style="stroke:#000000;stroke-width:1.0;"/><rect fill="none" height="325.6641" style="stroke:#000000;stroke-width:2.0;" width="1110.5" x="55" y="1074.9063"/><text fill="#000000" font-family="sans-serif" font-size="13" font-weight="bold" lengthAdjust="spacing" textLength="16" x="70" y="1089.4014">alt</text><text fill="#000000" font-family="sans-serif" font-size="11" font-weight="bold" lengthAdjust="spacing" textLength="118" x="131" y="1088.3252">[invalid booking date]</text><polygon fill="#A80036" points="122.5,1142.3945,112.5,1146.3945,122.5,1150.3945,118.5,1146.3945" style="stroke:#A80036;stroke-width:1.0;"/><line style="stroke:#A80036;stroke-width:1.5;stroke-dasharray:2.0,2.0;" x1="116.5" x2="647" y1="1146.3945" y2="1146.3945"/><text fill="#000000" font-family="sans-serif" font-size="15" font-weight="bold" lengthAdjust="spacing" textLength="26" x="128.5" y="1141.0986">[19]</text><text fill="#000000" font-family="sans-serif" font-size="15" lengthAdjust="spacing" textLength="83" x="158.5" y="1141.0986">response fail</text><path d="M663,1098.2578 L663,1173.2578 L859,1173.2578 L859,1108.2578 L849,1098.2578 L663,1098.2578 " fill="#FBFB77" filter="url(#f6ew4mnt9d0kq)" style="stroke:#A80036;stroke-width:1.0;"/><path d="M849,1098.2578 L849,1108.2578 L859,1108.2578 L849,1098.2578 " fill="#FBFB77" style="stroke:#A80036;stroke-width:1.0;"/><text fill="#000000" font-family="sans-serif" font-size="13" font-weight="bold" lengthAdjust="spacing" textLength="77" x="669" y="1116.7529">New feature</text><text fill="#000000" font-family="sans-serif" font-size="13" lengthAdjust="spacing" textLength="154" x="669" y="1133.1045">&lt;- Verify that prefered date</text><text fill="#000000" font-family="sans-serif" font-size="13" lengthAdjust="spacing" textLength="171" x="673" y="1149.4561">is within the interview session</text><text fill="#000000" font-family="sans-serif" font-size="13" lengthAdjust="spacing" textLength="73" x="673" y="1165.8076">(May, 10-13)</text><line style="stroke:#000000;stroke-width:1.0;stroke-dasharray:2.0,2.0;" x1="55" x2="1165.5" y1="1183.6641" y2="1183.6641"/><text fill="#000000" font-family="sans-serif" font-size="11" font-weight="bold" lengthAdjust="spacing" textLength="32" x="60" y="1195.083">[else]</text><polygon fill="#A80036" points="817,1257.1016,827,1261.1016,817,1265.1016,821,1261.1016" style="stroke:#A80036;stroke-width:1.0;"/><line style="stroke:#A80036;stroke-width:1.5;" x1="658" x2="823" y1="1261.1016" y2="1261.1016"/><text fill="#000000" font-family="sans-serif" font-size="15" font-weight="bold" lengthAdjust="spacing" textLength="26" x="665" y="1236.9385">[20]</text><text fill="#000000" font-family="sans-serif" font-size="15" lengthAdjust="spacing" textLength="122" x="695" y="1218.0713">findByIdAndUpdate</text><text fill="#000000" font-family="sans-serif" font-size="15" lengthAdjust="spacing" textLength="99" x="695" y="1236.9385">(req.params.id,</text><text fill="#000000" font-family="sans-serif" font-size="15" lengthAdjust="spacing" textLength="61" x="695" y="1255.8057">req.body)</text><polygon fill="#A80036" points="1076,1289.9688,1086,1293.9688,1076,1297.9688,1080,1293.9688" style="stroke:#A80036;stroke-width:1.0;"/><line style="stroke:#A80036;stroke-width:1.5;" x1="839" x2="1082" y1="1293.9688" y2="1293.9688"/><text fill="#000000" font-family="sans-serif" font-size="15" font-weight="bold" lengthAdjust="spacing" textLength="26" x="846" y="1288.6729">[21]</text><text fill="#000000" font-family="sans-serif" font-size="15" lengthAdjust="spacing" textLength="107" x="876" y="1288.6729">BookingSchema</text><polygon fill="#A80036" points="850,1322.8359,840,1326.8359,850,1330.8359,846,1326.8359" style="stroke:#A80036;stroke-width:1.0;"/><line style="stroke:#A80036;stroke-width:1.5;stroke-dasharray:2.0,2.0;" x1="844" x2="1092" y1="1326.8359" y2="1326.8359"/><text fill="#000000" font-family="sans-serif" font-size="15" font-weight="bold" lengthAdjust="spacing" textLength="26" x="856" y="1321.54">[22]</text><text fill="#000000" font-family="sans-serif" font-size="15" lengthAdjust="spacing" textLength="50" x="886" y="1321.54">booking</text><polygon fill="#A80036" points="669,1355.7031,659,1359.7031,669,1363.7031,665,1359.7031" style="stroke:#A80036;stroke-width:1.0;"/><line style="stroke:#A80036;stroke-width:1.5;stroke-dasharray:2.0,2.0;" x1="663" x2="833" y1="1359.7031" y2="1359.7031"/><text fill="#000000" font-family="sans-serif" font-size="15" font-weight="bold" lengthAdjust="spacing" textLength="26" x="675" y="1354.4072">[23]</text><text fill="#000000" font-family="sans-serif" font-size="15" lengthAdjust="spacing" textLength="50" x="705" y="1354.4072">booking</text><polygon fill="#A80036" points="122.5,1388.5703,112.5,1392.5703,122.5,1396.5703,118.5,1392.5703" style="stroke:#A80036;stroke-width:1.0;"/><line style="stroke:#A80036;stroke-width:1.5;stroke-dasharray:2.0,2.0;" x1="116.5" x2="652" y1="1392.5703" y2="1392.5703"/><text fill="#000000" font-family="sans-serif" font-size="15" font-weight="bold" lengthAdjust="spacing" textLength="26" x="128.5" y="1387.2744">[24]</text><text fill="#000000" font-family="sans-serif" font-size="15" lengthAdjust="spacing" textLength="121" x="158.5" y="1387.2744">response success</text><!--MD5=[481b2d421f23e855e3ede297d236f882]
@startuml

hide footbox
skinparam sequenceArrowThickness 1.5
skinparam fontsize 50
autonumber 1 "<b>[###]"
skinparam component {
skinparam defaultFontSize 16
'FontSize 13
'BackgroundColor<<Apache>> Red
'BorderColor<<Apache>> #FF6655
'FontName Courier
'BorderColor black
'BackgroundColor gold
'ArrowFontName Impact
ArrowFontSize 15
'ArrowColor #FF6655
'ArrowFontColor #777777
}
'skinparam backgroundColor #EEEBDC
Mainframe <b>Update Single Booking</b>

actor "<b>User" as user <<(A,#ADD1B2)client>>#White
Box Online Job Fair Registration System #lightgrey
participant "server" as server <<(B,#FFFFFF)main>>#Orange
'participant "auth" as rauth <<(C,#FFFFFF)routes>>#Gold
participant "bookings" as rbookings <<(C,#FFFFFF)routes>>#Gold
'participant "companies" as rcompanies <<(C,#FFFFFF)routes>>#Gold
participant "auth" as middleware_auth <<(E,#FFFFFF)middleware>>#Pink
'participant "<b>auth" as controllers_auth <<(D,#FFFFFF)controllers>>#LightGreen
participant "<b>bookings" as controllers_bookings <<(D,#FFFFFF)controllers>>#LightGreen
'participant "<b>companies" as controllers_companies <<(F,#FFFFFF)controllers>>#LightGreen
' participant "<b>:Company" as models_Company <<(F,#FFFFFF)models>>#LightBlue
participant "<b>:Booking" as models_Booking <<(G,#FFFFFF)models>>#LightBlue
participant "<b>:User" as models_User <<(H,#FFFFFF)models>>#LightBlue
participant "MongoDB" as mongo <<(I,#FFFFFF)data base>>#d9d2e9
end box

|||
Activate user
user->server: req.put('\n/bookings/:id')
Activate server
'Route'
server->rbookings: app.use('\n/bookings',\n bookings)
DeActivate server
Activate rbookings
'Middleware auth
rbookings->middleware_auth: protect
DeActivate rbookings
Activate middleware_auth
middleware_auth->middleware_auth: jwt.verify(token)
Alt#Gold #Beige no token or invalid token
' Alt#Gold #Pink no token or invalid token
middleware_auth- ->user: response fail
Else #LightBlue else
' Else #LightBlue role != admin or user
middleware_auth->models_User: findById\n(decoded.id)
Activate models_User
models_User->mongo: UserSchema
Activate mongo
mongo- ->models_User: user
DeActivate mongo
models_User- ->middleware_auth: user
DeActivate models_User
middleware_auth->middleware_auth: authorize\n('admin', 'user')
Alt#Gold #Beige role != admin or user
middleware_auth- ->user: response fail
Else #LightBlue else
middleware_auth->controllers_bookings: updateBooking
DeActivate middleware_auth
Activate controllers_bookings
controllers_bookings->models_Booking: findById\n(req.params.id)
Activate models_Booking
models_Booking->mongo: BookingSchema
Activate mongo
mongo- ->models_Booking: booking
DeActivate mongo
models_Booking- ->controllers_bookings: booking
DeActivate models_Booking
Alt#Gold #Beige invalid booking id
controllers_bookings- ->user: response fail
Else #LightBlue else
Alt#Gold #Beige not the user's own booking and role != admin
controllers_bookings- ->user: response fail
Else #LightBlue else
Alt#Gold #Beige invalid booking date
controllers_bookings- ->user: response fail
Else #LightBlue else
note right: <b>New feature\n<- Verify that prefered date\n is within the interview session\n (May, 10-13)
controllers_bookings->models_Booking: findByIdAndUpdate\n(req.params.id, \nreq.body)
Activate models_Booking
models_Booking->mongo: BookingSchema
Activate mongo
mongo- ->models_Booking: booking
DeActivate mongo
models_Booking- ->controllers_bookings: booking
DeActivate models_Booking
controllers_bookings- ->user: response success
DeActivate controllers_bookings
End Alt
End Alt
End Alt
End Alt
End Alt
DeActivate user


skinparam sequence {
'Box ==============================
BoxBorderColor Black
BoxFontColor Blue
BoxFontSize 16
'LifeLine + Arrow ==============================
'ArrowColor DeepSkyBlue
LifeLineBorderColor Black
LifeLineBackgroundColor #FFFF99
'Participant ==============================
ParticipantBorderColor Black
'ParticipantBackgroundColor DodgerBlue
StereoTypeFontSize 14
ParticipantFontSize 16
ParticipantFontColor #0c0c0c
'ParticipantFontName Impact
'Actor ==============================
ActorBorderColor Black
ActorBackgroundColor White
ActorFontSize 16
ActorFontColor Black
'ActorFontName Aapex
' ===================================
}

@enduml

@startuml

hide footbox
skinparam sequenceArrowThickness 1.5
skinparam fontsize 50
autonumber 1 "<b>[###]"
skinparam component {
skinparam defaultFontSize 16
ArrowFontSize 15
}
Mainframe <b>Update Single Booking</b>

actor "<b>User" as user <<(A,#ADD1B2)client>>#White
Box Online Job Fair Registration System #lightgrey
participant "server" as server <<(B,#FFFFFF)main>>#Orange
participant "bookings" as rbookings <<(C,#FFFFFF)routes>>#Gold
participant "auth" as middleware_auth <<(E,#FFFFFF)middleware>>#Pink
participant "<b>bookings" as controllers_bookings <<(D,#FFFFFF)controllers>>#LightGreen
participant "<b>:Booking" as models_Booking <<(G,#FFFFFF)models>>#LightBlue
participant "<b>:User" as models_User <<(H,#FFFFFF)models>>#LightBlue
participant "MongoDB" as mongo <<(I,#FFFFFF)data base>>#d9d2e9
end box

|||
Activate user
user->server: req.put('\n/bookings/:id')
Activate server
server->rbookings: app.use('\n/bookings',\n bookings)
DeActivate server
Activate rbookings
rbookings->middleware_auth: protect
DeActivate rbookings
Activate middleware_auth
middleware_auth->middleware_auth: jwt.verify(token)
Alt#Gold #Beige no token or invalid token
middleware_auth- ->user: response fail
Else #LightBlue else
middleware_auth->models_User: findById\n(decoded.id)
Activate models_User
models_User->mongo: UserSchema
Activate mongo
mongo- ->models_User: user
DeActivate mongo
models_User- ->middleware_auth: user
DeActivate models_User
middleware_auth->middleware_auth: authorize\n('admin', 'user')
Alt#Gold #Beige role != admin or user
middleware_auth- ->user: response fail
Else #LightBlue else
middleware_auth->controllers_bookings: updateBooking
DeActivate middleware_auth
Activate controllers_bookings
controllers_bookings->models_Booking: findById\n(req.params.id)
Activate models_Booking
models_Booking->mongo: BookingSchema
Activate mongo
mongo- ->models_Booking: booking
DeActivate mongo
models_Booking- ->controllers_bookings: booking
DeActivate models_Booking
Alt#Gold #Beige invalid booking id
controllers_bookings- ->user: response fail
Else #LightBlue else
Alt#Gold #Beige not the user's own booking and role != admin
controllers_bookings- ->user: response fail
Else #LightBlue else
Alt#Gold #Beige invalid booking date
controllers_bookings- ->user: response fail
Else #LightBlue else
note right: <b>New feature\n<- Verify that prefered date\n is within the interview session\n (May, 10-13)
controllers_bookings->models_Booking: findByIdAndUpdate\n(req.params.id, \nreq.body)
Activate models_Booking
models_Booking->mongo: BookingSchema
Activate mongo
mongo- ->models_Booking: booking
DeActivate mongo
models_Booking- ->controllers_bookings: booking
DeActivate models_Booking
controllers_bookings- ->user: response success
DeActivate controllers_bookings
End Alt
End Alt
End Alt
End Alt
End Alt
DeActivate user


skinparam sequence {
BoxBorderColor Black
BoxFontColor Blue
BoxFontSize 16
LifeLineBorderColor Black
LifeLineBackgroundColor #FFFF99
ParticipantBorderColor Black
StereoTypeFontSize 14
ParticipantFontSize 16
ParticipantFontColor #0c0c0c
ActorBorderColor Black
ActorBackgroundColor White
ActorFontSize 16
ActorFontColor Black
}

@enduml

PlantUML version 1.2022.0(Tue Jan 11 23:16:42 ICT 2022)
(GPL source distribution)
Java Runtime: Java(TM) SE Runtime Environment
JVM: Java HotSpot(TM) 64-Bit Server VM
Default Encoding: Cp1252
Language: en
Country: US
--></g></svg>